<svg width="64px" height="64px" viewBox="0 0 64 64">
  <g id="activity" fill="none" fill-rule="evenodd" stroke="none" stroke-width="1">
    <path id="fill" fill="#007AFF" fill-opacity="0.184058129" fill-rule="nonzero" d="M45.9542739,13.0208568 C46.4653046,13.1928611 46.9561832,13.4084156 47.4233147,13.6630389 C47.9784901,13.9656529 48.5001234,14.3234507 48.9821802,14.728909 C49.2267007,14.9345754 49.4610382,15.1525046 49.6844053,15.3817149 L48.4727754,17.4813987 C49.1442059,18.2799619 49.6574075,19.2276582 49.961116,20.2708597 L52.300428,20.2715395 C52.3806503,20.6402073 52.4411105,21.0160544 52.4806749,21.3976675 C52.5465781,22.0333277 52.5545035,22.6849863 52.4992893,23.3461183 C52.4609118,23.8043539 52.3934173,24.2525969 52.2988591,24.68902 L49.9610608,24.689346 C49.6573453,25.7324727 49.1441652,26.6801026 48.4727754,27.4786174 L49.6850374,29.5775075 C49.5103606,29.7564215 49.3292144,29.9282219 49.1420468,30.0925155 C48.6662266,30.5101848 48.1514913,30.8793385 47.6052029,31.1935141 C47.1715732,31.4428987 46.7180626,31.6576427 46.2483532,31.8345142 L45.9539122,31.9394978 C45.9256329,31.8979624 45.8986965,31.8550935 45.8731883,31.8109119 L44.7358106,29.8418505 C44.1906212,29.9791186 43.6213942,30.0518338 43.0359323,30.0518338 C42.4501118,30.0518338 41.8805462,29.9790295 41.3350524,29.8415983 L40.1986763,31.8109119 L40.1175907,31.9391593 C39.6065599,31.767155 39.1156814,31.5516005 38.6485498,31.2969772 C38.0933744,30.9943632 37.5717411,30.6365654 37.0896844,30.2311071 C36.8451639,30.0254407 36.6108263,29.8075115 36.3874592,29.5783012 L37.5990891,27.4786174 C36.9274837,26.6798461 36.4141896,25.7318639 36.1105111,24.6883408 L33.7714366,24.6884767 C33.6912142,24.3198088 33.6307541,23.9439617 33.5911896,23.5623486 C33.5252865,22.9266885 33.5173611,22.2750299 33.5725752,21.6138978 C33.6109527,21.1556623 33.6784472,20.7074193 33.7730054,20.2709961 L36.1107485,20.2708597 C36.4144571,19.2276582 36.9276587,18.2799619 37.5990891,17.4813987 L36.3868271,15.3825086 C36.5615039,15.2035947 36.7426502,15.0317943 36.9298178,14.8675007 C37.4056379,14.4498313 37.9203733,14.0806776 38.4666617,13.766502 C38.9002914,13.5171175 39.353802,13.3023734 39.8235114,13.125502 L40.1189191,13.0218568 L40.1596663,13.0843174 C40.1730142,13.1055882 40.186021,13.1271847 40.1986763,13.1491042 L41.3350524,15.1184179 C41.8805462,14.9809867 42.4501118,14.9081824 43.0359323,14.9081824 C43.6213942,14.9081824 44.1906212,14.9808976 44.7358106,15.1181656 L45.8731883,13.1491042 L45.9542739,13.0208568 Z M40.1787731,13 L40.1189191,13.0218568 L40.1186098,13.0214845 L40.1787731,13 L40.1787731,13 Z M28.0048958,51.8413656 L28.0064913,51.8425722 L27.9146889,51.8743656 L27.9146889,51.8743656 L28.0048958,51.8413656 Z M27.9747032,25.9529564 L28.007523,25.9060437 C28.7035512,26.1414062 29.3722205,26.4359454 30.0086758,26.7835954 C30.7683884,27.1985721 31.4822014,27.6892226 32.1418571,28.2452304 C32.4810268,28.5311083 32.8058794,28.8342642 33.1152924,29.1532958 L31.5593578,31.8475119 C32.4470802,33.0036718 33.1060957,34.3615476 33.4642314,35.8453577 L36.6825719,35.8456977 C36.7923691,36.3513121 36.8751172,36.8667739 36.9292643,37.3901446 C37.0194475,38.2618297 37.0302928,39.1554536 36.954747,40.0620694 C36.9022151,40.6905487 36.8098314,41.3053213 36.6804036,41.9038798 L33.2110811,41.9032255 C32.7788833,43.1996054 32.1113394,44.3798882 31.2622377,45.3875964 L33.1147798,48.5957885 C32.8723193,48.8452482 32.6207192,49.0846567 32.3606216,49.3134491 C31.7095002,49.886202 31.0051265,50.392425 30.257575,50.8232562 C29.6394633,51.1794882 28.9918319,51.4841764 28.3203759,51.7323112 L28.0048958,51.8413656 L27.9424278,51.7460662 C27.9216608,51.7133261 27.9014884,51.6800163 27.8819309,51.6461417 L26.1434233,48.6354151 C25.3826856,48.8298346 24.5878858,48.9328918 23.7701618,48.9328918 C23.0992775,48.9328918 22.4438234,48.8635236 21.8099505,48.7312456 L20.1278649,51.6461418 C20.0887499,51.7138909 20.0471749,51.779381 20.0033044,51.8425722 C19.306244,51.607325 18.6375747,51.3127858 18.0011194,50.9651358 C17.2414068,50.5501592 16.5275938,50.0595086 15.8679381,49.5035008 C15.5287684,49.2176229 15.2039158,48.914467 14.8945028,48.5954354 L16.5607646,45.7093869 C15.5765872,44.6346014 14.8083261,43.3402396 14.3292426,41.9032255 L11.3272233,41.9030335 C11.2174261,41.3974192 11.1346781,40.8819573 11.0805309,40.3585866 C10.9903478,39.4869015 10.9795025,38.5932776 11.0550482,37.6866618 C11.1075801,37.0581825 11.1999638,36.44341 11.3293916,35.8448514 L14.0763343,35.8443548 C14.4703149,34.2127142 15.2281227,32.7333836 16.2537816,31.5071379 L14.8950154,29.1529428 C15.137476,28.903483 15.3890761,28.6640745 15.6491736,28.4352821 C16.300295,27.8625292 17.0046687,27.3563062 17.7522202,26.9254751 C18.3703319,26.5692431 19.0179633,26.2645549 19.6894193,26.01642 L20.0038958,25.9063656 L20.0672599,26.0024946 C20.0880649,26.0352895 20.1082735,26.0686561 20.1278649,26.1025895 L21.3610328,28.2396094 C22.1326437,28.0392162 22.9395773,27.9328918 23.7701618,27.9328918 C24.7463015,27.9328918 25.6897746,28.0797469 26.5816349,28.3535634 L27.8819309,26.1025895 L27.9747032,25.9529564 L28.007523,25.9060437 Z M20.0951063,25.8743656 L20.0038958,25.9063656 L20.003076,25.9058301 L20.0951063,25.8743656 L20.0951063,25.8743656 Z"/>
    <path id="border" fill-rule="nonzero" stroke="#007AFF" stroke-linecap="round" stroke-linejoin="round" stroke-width="2" d="M45.9493781,13.0196362 C46.4604088,13.1916404 46.9512873,13.407195 47.4184189,13.6618182 C47.9735943,13.9644323 48.4952276,14.32223 48.9772843,14.7276884 C49.2218048,14.9333547 49.4561424,15.151284 49.6795095,15.3804943 L48.4678796,17.480178 C49.139485,18.2789494 49.6527791,19.2269316 49.9564576,20.2704547 L52.2955321,20.2703188 C52.3757545,20.6389866 52.4362146,21.0148338 52.4757791,21.3964468 C52.5416822,22.032107 52.5496076,22.6837656 52.4943935,23.3448976 C52.456016,23.8031332 52.3885215,24.2513762 52.2939633,24.6877993 L49.956165,24.6881254 C49.6524494,25.731252 49.1392693,26.6788819 48.4678796,27.4773968 L49.6801416,29.5762868 C49.5054648,29.7552008 49.3243185,29.9270012 49.1371509,30.0912948 C48.6613308,30.5089642 48.1465954,30.8781179 47.600307,31.1922935 C47.1666773,31.441678 46.7131667,31.656422 46.2434573,31.8332935 L45.9490163,31.9382772 C45.9207371,31.8967417 45.8938007,31.8538728 45.8682925,31.8096913 L44.7319163,29.8403776 C44.1864225,29.9778088 43.6168569,30.0506131 43.0310364,30.0506131 C42.445216,30.0506131 41.8756504,29.9778088 41.3301566,29.8403776 L40.1937804,31.8096913 L40.1126948,31.9379386 C39.6016641,31.7659344 39.1107855,31.5503798 38.643654,31.2957566 C38.0884786,30.9931425 37.5668453,30.6353448 37.0847885,30.2298864 C36.840268,30.0242201 36.6059305,29.8062908 36.3825634,29.5770805 L37.5941933,27.4773968 C36.9225879,26.6786254 36.4092937,25.7306432 36.1056153,24.6871201 L33.7665407,24.687256 C33.6863184,24.3185881 33.6258582,23.942741 33.5862938,23.5611279 C33.5203906,22.9254678 33.5124652,22.2738092 33.5676794,21.6126772 C33.6060569,21.1544416 33.6735514,20.7061986 33.7681096,20.2697755 L36.1059079,20.2694494 C36.4096234,19.2263228 36.9228035,18.2786929 37.5941933,17.480178 L36.3819313,15.381288 C36.5566081,15.202374 36.7377543,15.0305736 36.9249219,14.86628 C37.4007421,14.4486106 37.9154774,14.0794569 38.4617658,13.7652813 C38.8953955,13.5158968 39.3489061,13.3011528 39.8186155,13.1242813 L40.1137139,13.0202638 C40.1417533,13.0614978 40.1684699,13.1040445 40.1937804,13.1478835 L41.3301566,15.1171972 C41.8756504,14.979766 42.445216,14.9069617 43.0310364,14.9069617 C43.6164984,14.9069617 44.1857253,14.9796769 44.7309147,15.116945 L45.8682925,13.1478835 L45.9493781,13.0196362 Z M28,51.8401449 L28.0015955,51.8413515 L27.9097931,51.8731449 L27.9097931,51.8731449 L28,51.8401449 Z M27.9698074,25.9517358 L28.0026272,25.904823 C28.6986554,26.1401855 29.3673247,26.4347247 30.00378,26.7823747 C30.7634926,27.1973514 31.4773056,27.688002 32.1369613,28.2440097 C32.476131,28.5298876 32.8009836,28.8330435 33.1103966,29.1520751 L31.554462,31.8462912 C32.4421844,33.0024511 33.1011999,34.3603269 33.4593356,35.844137 L36.6776761,35.8444771 C36.7874733,36.3500914 36.8702213,36.8655533 36.9243685,37.3889239 C37.0145516,38.2606091 37.0253969,39.1542329 36.9498512,40.0608487 C36.8973193,40.689328 36.8049356,41.3041006 36.6755078,41.9026592 L33.2061853,41.9020048 C32.7739875,43.1983847 32.1064436,44.3786676 31.2573419,45.3863757 L33.109884,48.5945678 C32.8674234,48.8440276 32.6158233,49.0834361 32.3557258,49.3122285 C31.7046044,49.8849814 31.0002307,50.3912044 30.2526792,50.8220355 C29.6345675,51.1782675 28.9869361,51.4829557 28.3154801,51.7310905 L28,51.8401449 L27.9375319,51.7448455 C27.916765,51.7121054 27.8965925,51.6787956 27.877035,51.6449211 L26.1385274,48.6341944 C25.3777898,48.8286139 24.5829899,48.9316712 23.765266,48.9316712 C23.0943816,48.9316712 22.4389276,48.862303 21.8050546,48.7300249 L20.122969,51.6449211 C20.0838541,51.7126702 20.0422791,51.7781603 19.9984086,51.8413515 C19.3013482,51.6061044 18.6326788,51.3115652 17.9962236,50.9639152 C17.236511,50.5489385 16.522698,50.0582879 15.8630422,49.5022802 C15.5238725,49.2164023 15.19902,48.9132464 14.889607,48.5942148 L16.5558688,45.7081662 C15.5716914,44.6333808 14.8034303,43.3390189 14.3243467,41.9020048 L11.3223275,41.9018128 C11.2125303,41.3961985 11.1297822,40.8807366 11.0756351,40.357366 C10.9854519,39.4856808 10.9746066,38.592057 11.0501524,37.6854412 C11.1026843,37.0569619 11.195068,36.4421893 11.3244958,35.8436307 L14.0714385,35.8431342 C14.4654191,34.2114935 15.2232268,32.7321629 16.2488858,31.5059172 L14.8901196,29.1517221 C15.1325801,28.9022623 15.3841802,28.6628538 15.6442778,28.4340614 C16.2953991,27.8613085 16.9997729,27.3550855 17.7473244,26.9242544 C18.3654361,26.5680224 19.0130674,26.2633342 19.6845235,26.0151994 L19.999,25.9051449 L20.062364,26.0012739 C20.083169,26.0340688 20.1033776,26.0674355 20.122969,26.1013688 L21.3561369,28.2383887 C22.1277479,28.0379955 22.9346815,27.9316712 23.765266,27.9316712 C24.7414056,27.9316712 25.6848788,28.0785262 26.576739,28.3523428 L27.877035,26.1013688 L27.9698074,25.9517358 L28.0026272,25.904823 Z M20.0902105,25.8731449 L19.999,25.9051449 L19.9981802,25.9046094 L20.0902105,25.8731449 L20.0902105,25.8731449 Z"/>
  </g>
</svg>
