<?xml version="1.0" encoding="UTF-8"?>
<svg width="64px" height="64px" viewBox="0 0 64 64" version="1.1" xmlns="http://www.w3.org/2000/svg" xmlns:xlink="http://www.w3.org/1999/xlink">
    <!-- Generator: Sketch Beta 57 (82921) - https://sketch.com -->
    <title>alert-triangle</title>
    <desc>Created with Sketch Beta.</desc>
    <g id="alert-triangle" stroke="none" stroke-width="1" fill="none" fill-rule="evenodd">
        <path d="M34.057983,12.3446308 C34.6209814,12.6824299 35.0921727,13.1536211 35.4299717,13.7166195 L52.3652102,41.942017 C53.5018028,43.836338 52.8875426,46.2933791 50.9932215,47.4299717 C50.3715599,47.8029687 49.6602143,48 48.9352385,48 L15.0647615,48 C12.8556225,48 11.0647615,46.209139 11.0647615,44 C11.0647615,43.2750242 11.2617928,42.5636786 11.6347898,41.942017 L28.5700283,13.7166195 C29.7066209,11.8222984 32.163662,11.2080382 34.057983,12.3446308 Z M32,40 C30.8954305,40 30,40.8954305 30,42 C30,43.1045695 30.8954305,44 32,44 C33.1045695,44 34,43.1045695 34,42 C34,40.8954305 33.1045695,40 32,40 Z M32,21 C30.8954305,21 30,21.8954305 30,23 L30,23 L30,34 C30,35.1045695 30.8954305,36 32,36 C33.1045695,36 34,35.1045695 34,34 L34,34 L34,23 C34,21.8954305 33.1045695,21 32,21 Z" id="fill" fill-opacity="0.184058129" fill="#007AFF" fill-rule="nonzero"></path>
        <path d="M35.4299717,13.7166195 L52.3652102,41.942017 C53.5018028,43.836338 52.8875426,46.2933791 50.9932215,47.4299717 C50.3715599,47.8029687 49.6602143,48 48.9352385,48 L15.0647615,48 C12.8556225,48 11.0647615,46.209139 11.0647615,44 C11.0647615,43.2750242 11.2617928,42.5636786 11.6347898,41.942017 L28.5700283,13.7166195 C29.7066209,11.8222984 32.163662,11.2080382 34.057983,12.3446308 C34.6209814,12.6824299 35.0921727,13.1536211 35.4299717,13.7166195 Z M32,21 C33.1045695,21 34,21.8954305 34,23 L34,34 C34,35.1045695 33.1045695,36 32,36 C30.8954305,36 30,35.1045695 30,34 L30,23 C30,21.8954305 30.8954305,21 32,21 Z M32,40 C33.1045695,40 34,40.8954305 34,42 C34,43.1045695 33.1045695,44 32,44 C30.8954305,44 30,43.1045695 30,42 C30,40.8954305 30.8954305,40 32,40 Z" id="border" stroke="#007AFF" stroke-width="2" stroke-linecap="round" stroke-linejoin="round" fill-rule="nonzero"></path>
    </g>
</svg>