<?xml version="1.0" encoding="UTF-8"?>
<svg width="64px" height="64px" viewBox="0 0 64 64" version="1.1" xmlns="http://www.w3.org/2000/svg" xmlns:xlink="http://www.w3.org/1999/xlink">
    <!-- Generator: Sketch 54.1 (76490) - https://sketchapp.com -->
    <title>icons/alert-triangle</title>
    <desc>Created with Sketch.</desc>
    <g id="icons/alert-triangle" stroke="none" stroke-width="1" fill="none" fill-rule="evenodd">
        <path d="M35.4299717,13.7166195 L52.3652102,41.942017 C53.5018028,43.836338 52.8875426,46.2933791 50.9932215,47.4299717 C50.3715599,47.8029687 49.6602143,48 48.9352385,48 L15.0647615,48 C12.8556225,48 11.0647615,46.209139 11.0647615,44 C11.0647615,43.2750242 11.2617928,42.5636786 11.6347898,41.942017 L28.5700283,13.7166195 C29.7066209,11.8222984 32.163662,11.2080382 34.057983,12.3446308 C34.6209814,12.6824299 35.0921727,13.1536211 35.4299717,13.7166195 Z M32,40 C30.8954305,40 30,40.8954305 30,42 C30,43.1045695 30.8954305,44 32,44 C33.1045695,44 34,43.1045695 34,42 C34,40.8954305 33.1045695,40 32,40 Z M31.1196413,20 C31.086243,20 31.0528499,20.0008366 31.0194935,20.002509 C29.9163096,20.0578191 29.0668401,20.996964 29.1221503,22.1001478 L29.7739288,35.1001478 C29.8272897,36.1644539 30.705777,37 31.7714199,37 L32.228572,37 C33.2942149,37 34.1727021,36.1644539 34.226063,35.1001478 L34.8778416,22.1001478 C34.879514,22.0667914 34.8803506,22.0333983 34.8803506,22 C34.8803506,20.8954305 33.9849201,20 32.8803506,20 L31.1196413,20 Z" id="fill" fill-opacity="0.184058129" fill="#007AFF" fill-rule="nonzero"></path>
        <path d="M35.4299717,13.7166195 L52.3652102,41.942017 C53.5018028,43.836338 52.8875426,46.2933791 50.9932215,47.4299717 C50.3715599,47.8029687 49.6602143,48 48.9352385,48 L15.0647615,48 C12.8556225,48 11.0647615,46.209139 11.0647615,44 C11.0647615,43.2750242 11.2617928,42.5636786 11.6347898,41.942017 L28.5700283,13.7166195 C29.7066209,11.8222984 32.163662,11.2080382 34.057983,12.3446308 C34.6209814,12.6824299 35.0921727,13.1536211 35.4299717,13.7166195 Z M31.1196413,20 L32.8803506,20 C33.9849201,20 34.8803506,20.8954305 34.8803506,22 C34.8803506,22.0333983 34.879514,22.0667914 34.8778416,22.1001478 L34.226063,35.1001478 C34.1727021,36.1644539 33.2942149,37 32.228572,37 L31.7714199,37 C30.705777,37 29.8272897,36.1644539 29.7739288,35.1001478 L29.1221503,22.1001478 C29.0668401,20.996964 29.9163096,20.0578191 31.0194935,20.002509 C31.0528499,20.0008366 31.086243,20 31.1196413,20 Z M32,40 L32,40 C33.1045695,40 34,40.8954305 34,42 L34,42 C34,43.1045695 33.1045695,44 32,44 L32,44 C30.8954305,44 30,43.1045695 30,42 L30,42 C30,40.8954305 30.8954305,40 32,40 Z" id="border" stroke="#007AFF" stroke-width="2" stroke-linecap="round" stroke-linejoin="round" fill-rule="nonzero"></path>
    </g>
</svg>