<svg width="64px" height="64px" viewBox="0 0 64 64">
  <g id="art" fill="none" fill-rule="evenodd" stroke="none" stroke-width="1">
    <path id="fill" fill="#007AFF" fill-opacity="0.184058129" fill-rule="nonzero" d="M42,16 C43.1045695,16 44,16.8954305 44,18 L44,38 C44,39.1045695 43.1045695,40 42,40 L22,40 C20.8954305,40 20,39.1045695 20,38 L20,18 C20,16.8954305 20.8954305,16 22,16 L42,16 Z M31.9973629,22 C29.999121,22 29,22.8434286 29,24.5302857 C29,27.0605714 30.2857143,27.7486316 30.2857143,28.7474286 C30.2857143,29.2468271 26,30.5030075 26,33 L26,33 L26,34 C26,34.5522847 26.4477153,35 27,35 L27,35 L37,35 C37.5522847,35 38,34.5522847 38,34 L38,34 L38,33 C38,30.5030075 33.7142857,29.2468271 33.7142857,28.7474286 C33.7142857,27.7486316 35,27.0605714 35,24.5302857 C35,22.8434286 33.999121,22 31.9973629,22 Z"/>
    <path id="border" fill-rule="nonzero" stroke="#007AFF" stroke-linecap="round" stroke-linejoin="round" stroke-width="2" d="M21,52 L24,41 M30.6666667,16 C31.5555556,13.6571429 32,12.4857143 32,12.4857143 C32,12.4857143 32.4444444,13.6571429 33.3333333,16 M22.1,48 L41.9,48 M40,41 L43,52 M22,16 L42,16 C43.1045695,16 44,16.8954305 44,18 L44,38 C44,39.1045695 43.1045695,40 42,40 L22,40 C20.8954305,40 20,39.1045695 20,38 L20,18 C20,16.8954305 20.8954305,16 22,16 Z M26,33 C26,30.5030075 30.2857143,29.2468271 30.2857143,28.7474286 C30.2857143,27.7486316 29,27.0605714 29,24.5302857 C29,22.8434286 29.999121,22 31.9973629,22 C33.999121,22 35,22.8434286 35,24.5302857 C35,27.0605714 33.7142857,27.7486316 33.7142857,28.7474286 C33.7142857,29.2468271 38,30.5030075 38,33"/>
  </g>
</svg>
