<svg width="64px" height="64px" viewBox="0 0 64 64">
  <g id="at" fill="none" fill-rule="evenodd" stroke="none" stroke-width="1">
    <path id="border" fill-rule="nonzero" stroke="#007AFF" stroke-linecap="round" stroke-linejoin="round" stroke-width="2" d="M32,40 C36.418278,40 40,36.418278 40,32 C40,27.581722 36.418278,24 32,24 C27.581722,24 24,27.581722 24,32 C24,36.418278 27.581722,40 32,40 Z M40,24 L40,36.3888109 C40.0000288,38.3936505 41.6252724,40.0188941 43.630112,40.0188941 L43.8152971,40.0141675 L44,40 C46.928171,39.7000724 50,37.660383 50,32 C50,22.0588745 41.9411255,14 32,14 C22.0588745,14 14,22.0588745 14,32 C14,41.9411255 22.0588745,50 32,50"/>
  </g>
</svg>
