<?xml version="1.0" encoding="UTF-8"?>
<svg width="64px" height="64px" viewBox="0 0 64 64" version="1.1" xmlns="http://www.w3.org/2000/svg" xmlns:xlink="http://www.w3.org/1999/xlink">
    <!-- Generator: Sketch 55.2 (78181) - https://sketchapp.com -->
    <title>icons/bell</title>
    <desc>Created with Sketch.</desc>
    <g id="icons/bell" stroke="none" stroke-width="1" fill="none" fill-rule="evenodd">
        <path d="M27.3069805,46 L36.3069805,46 L36.3264118,46.5033493 C36.4186523,48.8927606 34.5564276,50.9045369 32.1670164,50.9967775 C32.1113701,50.9989256 32.0556877,51 32,51 C29.487123,51 27.4233464,49.014356 27.3264118,46.5033493 L27.3069805,46 Z M23,25 C23,20.0294373 27.0294373,16 32,16 C36.9705627,16 41,20.0294373 41,25 L41,25.273188 C41,29.6037787 42.6029875,33.7810972 45.5,37 L46.9958635,38.6620705 C47.7347815,39.4830906 47.6682247,40.7476703 46.8472047,41.4865883 C46.4799552,41.8171128 46.0033587,42 45.5092752,42 L32,42 L18.4907248,42 C17.3861553,42 16.4907248,41.1045695 16.4907248,40 C16.4907248,39.5059164 16.673612,39.02932 17.0041365,38.6620705 L18.5,37 C21.3970125,33.7810972 23,29.6037787 23,25.273188 L23,25 Z" id="fill" fill-opacity="0.184058129" fill="#007AFF" fill-rule="nonzero"></path>
        <path d="M27.3069805,47 L36.3069805,47 L36.3069805,47.5 C36.3069805,49.9852814 34.2922619,52 31.8069805,52 C29.3216991,52 27.3069805,49.9852814 27.3069805,47.5 L27.3069805,47 Z M23,25 C23,20.0294373 27.0294373,16 32,16 C36.9705627,16 41,20.0294373 41,25 L41,25.273188 C41,29.6037787 42.6029875,33.7810972 45.5,37 L46.9958635,38.6620705 C47.7347815,39.4830906 47.6682247,40.7476703 46.8472047,41.4865883 C46.4799552,41.8171128 46.0033587,42 45.5092752,42 L32,42 L18.4907248,42 C17.3861553,42 16.4907248,41.1045695 16.4907248,40 C16.4907248,39.5059164 16.673612,39.02932 17.0041365,38.6620705 L18.5,37 C21.3970125,33.7810972 23,29.6037787 23,25.273188 L23,25 Z" id="border" stroke="#007AFF" stroke-width="2" stroke-linecap="round" stroke-linejoin="round" fill-rule="nonzero"></path>
    </g>
</svg>