<svg width="64px" height="64px" viewBox="0 0 64 64">
  <g id="bookmark" fill="none" fill-rule="evenodd" stroke="none" stroke-width="1">
    <path id="fill" fill="#007AFF" fill-opacity="0.184058129" fill-rule="nonzero" d="M22,13 L42,13 C43.1045695,13 44,13.8954305 44,15 L44,39.763932 C44,40.5214761 43.5719952,41.2140024 42.8944272,41.5527864 L22.8944272,51.5527864 C21.9064702,52.0467649 20.7051241,51.6463162 20.2111456,50.6583592 C20.0722902,50.3806483 20,50.0744222 20,49.763932 L20,15 C20,13.8954305 20.8954305,13 22,13 Z"/>
    <path id="border" fill-rule="nonzero" stroke="#007AFF" stroke-linecap="round" stroke-linejoin="round" stroke-width="2" d="M22,13 L42,13 C43.1045695,13 44,13.8954305 44,15 L44,39.763932 C44,40.5214761 43.5719952,41.2140024 42.8944272,41.5527864 L22.8944272,51.5527864 C21.9064702,52.0467649 20.7051241,51.6463162 20.2111456,50.6583592 C20.0722902,50.3806483 20,50.0744222 20,49.763932 L20,15 C20,13.8954305 20.8954305,13 22,13 Z"/>
  </g>
</svg>
