<svg width="64px" height="64px" viewBox="0 0 64 64">
  <g id="boolean" fill="none" fill-rule="evenodd" stroke="none" stroke-width="1">
    <path id="fill" fill="#007AFF" fill-opacity="0.184058129" fill-rule="nonzero" d="M38,24 C38.6793345,24 39.347368,24.0483855 40.0008423,24.1418982 L40,40 L24.1418982,40.0008423 C24.0483855,39.347368 24,38.6793345 24,38 C24,30.2680135 30.2680135,24 38,24 Z"/>
    <path id="border" fill-rule="nonzero" stroke="#007AFF" stroke-linecap="round" stroke-linejoin="round" stroke-width="2" d="M16,16 L40,16 L40,40 L16,40 L16,16 Z M38,52 C45.7319865,52 52,45.7319865 52,38 C52,30.2680135 45.7319865,24 38,24 C30.2680135,24 24,30.2680135 24,38 C24,45.7319865 30.2680135,52 38,52 Z"/>
  </g>
</svg>
