<svg width="64px" height="64px" viewBox="0 0 64 64">
  <g id="building" fill="none" fill-rule="evenodd" stroke="none" stroke-width="1">
    <path id="fill" fill="#007AFF" fill-opacity="0.184058129" fill-rule="nonzero" d="M18,49 L18,17 C18,16.4477153 18.5184071,16 19.1578947,16 L38.8421053,16 C39.4815929,16 40,16.4477153 40,17 L40,28.6363636 C40,28.2849097 40.1649477,28 40.3684211,28 L46.6315789,28 C46.8350523,28 47,28.2849097 47,28.6363636 L47,49 L18,49 Z"/>
    <path id="border" fill-rule="nonzero" stroke="#007AFF" stroke-linecap="round" stroke-linejoin="round" stroke-width="2" d="M19.1578947,16 L38.8421053,16 C39.4815929,16 40,16.4477153 40,17 L40,49 L18,49 L18,17 C18,16.4477153 18.5184071,16 19.1578947,16 Z M40.3684211,28 L46.6315789,28 C46.8350523,28 47,28.2849097 47,28.6363636 L47,49 L40,49 L40,28.6363636 C40,28.2849097 40.1649477,28 40.3684211,28 Z M24,24 L24,26 M29,24 L29,26 M24,32 L24,34 M29,32 L29,34 M24,40 L24,42 M29,40 L29,42 M34,24 L34,26 M34,32 L34,34 M34,40 L34,42"/>
  </g>
</svg>
