<svg width="64px" height="64px" viewBox="0 0 64 64">
  <g id="calendar-event-pin" fill="none" fill-rule="evenodd" stroke="none" stroke-width="1">
    <path id="fill" fill="#007AFF" fill-opacity="0.184058129" fill-rule="nonzero" d="M46,16 C47.1045695,16 48,16.8954305 48,18 L48,46 C48,47.1045695 47.1045695,48 46,48 L18,48 C16.8954305,48 16,47.1045695 16,46 L16,18 C16,16.8954305 16.8954305,16 18,16 L46,16 Z M32,22.1844608 C28.0178284,22.1844608 24.7896405,25.4126487 24.7896405,29.3948203 C24.7896405,33.3769918 28.0178284,36.6051797 32,36.6051797 C35.9821716,36.6051797 39.2103595,33.3769918 39.2103595,29.3948203 C39.2103595,25.4126487 35.9821716,22.1844608 32,22.1844608 Z"/>
    <path id="border" fill-rule="nonzero" stroke="#007AFF" stroke-linecap="round" stroke-linejoin="round" stroke-width="2" d="M18,16 L46,16 C47.1045695,16 48,16.8954305 48,18 L48,46 C48,47.1045695 47.1045695,48 46,48 L18,48 C16.8954305,48 16,47.1045695 16,46 L16,18 C16,16.8954305 16.8954305,16 18,16 Z M32,36.6051797 C35.9821716,36.6051797 39.2103595,33.3769918 39.2103595,29.3948203 C39.2103595,25.4126487 35.9821716,22.1844608 32,22.1844608 C28.0178284,22.1844608 24.7896405,25.4126487 24.7896405,29.3948203 C24.7896405,33.3769918 28.0178284,36.6051797 32,36.6051797 Z M35.3940175,27.2255485 C35.1549044,26.8103904 34.8090729,26.4645506 34.3940175,26.2255485 M32,36.6051797 L32,41.8155392 M40,14 L40,18 L40,14 Z M24,14 L24,18 L24,14 Z"/>
  </g>
</svg>
