<svg width="64px" height="64px" viewBox="0 0 64 64">
  <g id="calendar-event" fill="none" fill-rule="evenodd" stroke="none" stroke-width="1">
    <path id="fill" fill="#007AFF" fill-opacity="0.184058129" fill-rule="nonzero" d="M18,16 L46,16 C47.1045695,16 48,16.8954305 48,18 L48,46 C48,47.1045695 47.1045695,48 46,48 L18,48 C16.8954305,48 16,47.1045695 16,46 L16,18 C16,16.8954305 16.8954305,16 18,16 Z"/>
    <path id="border" fill-rule="nonzero" stroke="#007AFF" stroke-linecap="round" stroke-linejoin="round" stroke-width="2" d="M18,16 L46,16 C47.1045695,16 48,16.8954305 48,18 L48,46 C48,47.1045695 47.1045695,48 46,48 L18,48 C16.8954305,48 16,47.1045695 16,46 L16,18 C16,16.8954305 16.8954305,16 18,16 Z M40,14 L40,18 L40,14 Z M24,14 L24,18 L24,14 Z M33,28 C26.5,26 21.2870728,31.4987546 22,36 C22.7129272,40.5012454 27.3206961,42.6147205 32.8215469,41.7434713 C38.3223978,40.8722221 41.3245225,36.5433153 41,32 C40.5,25 35.5,21.5 29,22"/>
  </g>
</svg>
