<svg width="64px" height="64px" viewBox="0 0 64 64">
  <g id="calendar" fill="none" fill-rule="evenodd" stroke="none" stroke-width="1">
    <path id="fill" fill="#007AFF" fill-opacity="0.184058129" fill-rule="nonzero" d="M18,16 L46,16 C47.1045695,16 48,16.8954305 48,18 L48,46 C48,47.1045695 47.1045695,48 46,48 L18,48 C16.8954305,48 16,47.1045695 16,46 L16,18 C16,16.8954305 16.8954305,16 18,16 Z"/>
    <path id="border" fill-rule="nonzero" stroke="#007AFF" stroke-linecap="round" stroke-linejoin="round" stroke-width="2" d="M18,16 L46,16 C47.1045695,16 48,16.8954305 48,18 L48,46 C48,47.1045695 47.1045695,48 46,48 L18,48 C16.8954305,48 16,47.1045695 16,46 L16,18 C16,16.8954305 16.8954305,16 18,16 Z M24,29.5 L26,27 L26,37 M33,27 L40,27 L35.3333333,37 M40,14 L40,18 M24,14 L24,18"/>
  </g>
</svg>
