<?xml version="1.0" encoding="UTF-8"?>
<svg width="64px" height="64px" viewBox="0 0 64 64" version="1.1" xmlns="http://www.w3.org/2000/svg" xmlns:xlink="http://www.w3.org/1999/xlink">
    <!-- Generator: Sketch Beta 56 (81283) - https://sketch.com -->
    <title>card</title>
    <desc>Created with Sketch Beta.</desc>
    <g id="card" stroke="none" stroke-width="1" fill="none" fill-rule="evenodd">
        <path d="M19,14 L45,14 C46.1045695,14 47,14.8954305 47,16 L47,48 C47,49.1045695 46.1045695,50 45,50 L19,50 C17.8954305,50 17,49.1045695 17,48 L17,16 C17,14.8954305 17.8954305,14 19,14 Z M25,20 C23.8954305,20 23,20.8954305 23,22 L23,29 C23,30.1045695 23.8954305,31 25,31 L39,31 C40.1045695,31 41,30.1045695 41,29 L41,22 C41,20.8954305 40.1045695,20 39,20 L25,20 Z" id="fill" fill-opacity="0.184058129" fill="#007AFF" fill-rule="nonzero"></path>
        <path d="M19,14 L45,14 C46.1045695,14 47,14.8954305 47,16 L47,48 C47,49.1045695 46.1045695,50 45,50 L19,50 C17.8954305,50 17,49.1045695 17,48 L17,16 C17,14.8954305 17.8954305,14 19,14 Z M25,20 L39,20 C40.1045695,20 41,20.8954305 41,22 L41,29 C41,30.1045695 40.1045695,31 39,31 L25,31 C23.8954305,31 23,30.1045695 23,29 L23,22 C23,20.8954305 23.8954305,20 25,20 Z M23,36 L41,36 M23,41 L33,41" id="border" stroke="#007AFF" stroke-width="2" stroke-linecap="round" stroke-linejoin="round" fill-rule="nonzero"></path>
    </g>
</svg>