<?xml version="1.0" encoding="UTF-8"?>
<svg width="64px" height="64px" viewBox="0 0 64 64" version="1.1" xmlns="http://www.w3.org/2000/svg" xmlns:xlink="http://www.w3.org/1999/xlink">
    <!-- Generator: Sketch Beta 57 (82921) - https://sketch.com -->
    <title>card</title>
    <desc>Created with Sketch Beta.</desc>
    <g id="card" stroke="none" stroke-width="1" fill="none" fill-rule="evenodd">
        <path d="M45,13 C46.1045695,13 47,13.8954305 47,15 L47,47 C47,48.1045695 46.1045695,49 45,49 L19,49 C17.8954305,49 17,48.1045695 17,47 L17,15 C17,13.8954305 17.8954305,13 19,13 L45,13 Z M39,19 L25,19 C23.8954305,19 23,19.8954305 23,21 L23,21 L23,31 C23,32.1045695 23.8954305,33 25,33 L25,33 L39,33 C40.1045695,33 41,32.1045695 41,31 L41,31 L41,21 C41,19.8954305 40.1045695,19 39,19 L39,19 Z" id="fill" fill-opacity="0.184058129" fill="#007AFF" fill-rule="nonzero"></path>
        <path d="M19,13 L45,13 C46.1045695,13 47,13.8954305 47,15 L47,47 C47,48.1045695 46.1045695,49 45,49 L19,49 C17.8954305,49 17,48.1045695 17,47 L17,15 C17,13.8954305 17.8954305,13 19,13 Z M25,19 L39,19 C40.1045695,19 41,19.8954305 41,21 L41,31 C41,32.1045695 40.1045695,33 39,33 L25,33 C23.8954305,33 23,32.1045695 23,31 L23,21 C23,19.8954305 23.8954305,19 25,19 Z M23,38 L41,38 M23,43 L33,43" id="border" stroke="#007AFF" stroke-width="2" stroke-linecap="round" stroke-linejoin="round" fill-rule="nonzero"></path>
    </g>
</svg>