<svg width="64px" height="64px" viewBox="0 0 64 64">
  <g id="checkbox-indeterminate" fill="none" fill-rule="evenodd" stroke="none" stroke-width="1">
    <path id="fill" fill="#007AFF" fill-opacity="0.184058129" fill-rule="nonzero" d="M16,12 L48,12 C50.209139,12 52,13.790861 52,16 L52,48 C52,50.209139 50.209139,52 48,52 L16,52 C13.790861,52 12,50.209139 12,48 L12,16 C12,13.790861 13.790861,12 16,12 Z"/>
    <path id="border" fill-rule="nonzero" stroke="#007AFF" stroke-linecap="round" stroke-linejoin="round" stroke-width="2" d="M16,12 L48,12 C50.209139,12 52,13.790861 52,16 L52,48 C52,50.209139 50.209139,52 48,52 L16,52 C13.790861,52 12,50.209139 12,48 L12,16 C12,13.790861 13.790861,12 16,12 Z M23,32 L41,32"/>
  </g>
</svg>
