<svg width="64px" height="64px" viewBox="0 0 64 64">
  <g id="city" fill="none" fill-rule="evenodd" stroke="none" stroke-width="1">
    <path id="fill" fill="#007AFF" fill-opacity="0.184058129" fill-rule="nonzero" d="M23,14 L40,14 C40.5522847,14 41,14.4477153 41,15 L41,47 L22,47 L22,15 C22,14.4477153 22.4477153,14 23,14 Z M41,29 L48,29 C48.5522847,29 49,29.4477153 49,30 L49,46 C49,46.5522847 48.5522847,47 48,47 L41,47 L41,29 Z M16,25 L22,25 L22,47 L16,47 C15.4477153,47 15,46.5522847 15,46 L15,26 C15,25.4477153 15.4477153,25 16,25 Z"/>
    <path id="border" fill-rule="nonzero" stroke="#007AFF" stroke-linecap="round" stroke-linejoin="round" stroke-width="2" d="M23,14 L40,14 C40.5522847,14 41,14.4477153 41,15 L41,47 L22,47 L22,15 C22,14.4477153 22.4477153,14 23,14 Z M41,29 L48,29 C48.5522847,29 49,29.4477153 49,30 L49,46 C49,46.5522847 48.5522847,47 48,47 L41,47 L41,29 Z M16,25 L22,25 L22,47 L16,47 C15.4477153,47 15,46.5522847 15,46 L15,26 C15,25.4477153 15.4477153,25 16,25 Z M29,22 L29,24 M34,22 L34,24 M29,30 L29,32 M34,30 L34,32 M29,38 L29,40 M34,38 L34,40"/>
  </g>
</svg>
