<?xml version="1.0" encoding="UTF-8"?>
<svg width="64px" height="64px" viewBox="0 0 64 64" version="1.1" xmlns="http://www.w3.org/2000/svg" xmlns:xlink="http://www.w3.org/1999/xlink">
    <!-- Generator: Sketch Beta 57 (82921) - https://sketch.com -->
    <title>cloud</title>
    <desc>Created with Sketch Beta.</desc>
    <g id="cloud" stroke="none" stroke-width="1" fill="none" fill-rule="evenodd">
        <path d="M19.3,42 C15.3235498,42 12.1,38.7764501 12.1,34.8 C12.1,30.8235499 15.3235498,27.6 19.3,27.6 C19.3800628,27.6 19.4598203,27.6013068 19.5392524,27.6039002 C20.6495937,22.1245804 25.4931232,18 31.3,18 C37.107562,18 41.9515492,22.1255537 43.0611405,27.6058397 C43.1402718,27.6019618 43.2199067,27.6 43.3,27.6 C45.176765,27.6 46.801961,28.677096 47.5911518,30.246852 C48.1327334,30.086231 48.7062966,30 49.3,30 C52.6137086,30 55.3,32.6862914 55.3,36 C55.3,39.3137086 52.6137086,42 49.3,42 L19.3,42 Z" id="fill" fill-opacity="0.184058129" fill="#007AFF" fill-rule="nonzero"></path>
        <path d="M19.3,42 C15.3235498,42 12.1,38.7764501 12.1,34.8 C12.1,30.8235499 15.3235498,27.6 19.3,27.6 C19.3800628,27.6 19.4598203,27.6013068 19.5392524,27.6039002 C20.6495937,22.1245804 25.4931232,18 31.3,18 C37.107562,18 41.9515492,22.1255537 43.0611405,27.6058397 C43.1402718,27.6019618 43.2199067,27.6 43.3,27.6 C45.176765,27.6 46.801961,28.677096 47.5911518,30.246852 C48.1327334,30.086231 48.7062966,30 49.3,30 C52.6137086,30 55.3,32.6862914 55.3,36 C55.3,39.3137086 52.6137086,42 49.3,42 L19.3,42 Z" id="border" stroke="#007AFF" stroke-width="2" stroke-linecap="round" stroke-linejoin="round" fill-rule="nonzero"></path>
    </g>
</svg>