<?xml version="1.0" encoding="UTF-8"?>
<svg width="64px" height="64px" viewBox="0 0 64 64" version="1.1" xmlns="http://www.w3.org/2000/svg" xmlns:xlink="http://www.w3.org/1999/xlink">
    <!-- Generator: Sketch 54.1 (76490) - https://sketchapp.com -->
    <title>icons/cog</title>
    <desc>Created with Sketch.</desc>
    <g id="icons/cog" stroke="none" stroke-width="1" fill="none" fill-rule="evenodd">
        <path d="M28.3980911,47.5394454 L25.8201981,52.004487 C24.5927885,51.629238 23.4165796,51.1461806 22.3015756,50.5671966 C21.0743459,49.9299374 19.9212617,49.1764697 18.8556625,48.3226361 C18.4769947,48.0192207 18.1093744,47.7031312 17.7534002,47.3750786 L20.3314049,42.9098434 C18.6748801,41.1509429 17.4142239,39.017374 16.6911636,36.650378 L11.5205151,36.650378 C11.343218,35.8741225 11.209594,35.082753 11.1221479,34.2792446 C10.9764671,32.940641 10.9589478,31.5683471 11.0811714,30.1761178 C11.1658422,29.2116462 11.3148907,28.2682018 11.5237283,27.349622 L16.6911636,27.349622 C17.4142239,24.982626 18.6748801,22.8490571 20.3314049,21.0901566 L17.7538366,16.6256773 C17.9981215,16.4009998 18.2476773,16.1821153 18.5022732,15.9692168 C19.5540862,15.0896686 20.6919222,14.312287 21.8995071,13.650681 C23.0976945,12.9942236 24.3645493,12.4517469 25.6841745,12.0365443 C25.7292487,12.0223623 25.7743844,12.0083288 25.8195811,11.9944444 L28.3980911,16.4605546 C29.5557803,16.195131 30.7614558,16.0548863 32,16.0548863 C33.2385442,16.0548863 34.4442197,16.195131 35.6019089,16.4605546 L38.1798019,11.995513 C39.4072115,12.370762 40.5834204,12.8538194 41.6984244,13.4328034 C42.9256541,14.0700626 44.0787383,14.8235303 45.1443375,15.6773639 C45.5230053,15.9807793 45.8906256,16.2968688 46.2465998,16.6249214 L43.6685951,21.0901566 C45.3251199,22.8490571 46.5857761,24.982626 47.3088364,27.349622 L52.4794849,27.349622 C52.656782,28.1258775 52.790406,28.917247 52.8778521,29.7207554 C53.0235329,31.059359 53.0410522,32.4316529 52.9188286,33.8238822 C52.8341578,34.7883538 52.6851093,35.7317982 52.4762717,36.650378 L47.3088364,36.650378 C46.5857761,39.017374 45.3251199,41.1509429 43.6685951,42.9098434 L46.2461644,47.3743245 C46.0018785,47.5990002 45.7523227,47.8178847 45.4977268,48.0307832 C44.4459138,48.9103314 43.3080778,49.687713 42.1004929,50.349319 C40.9023055,51.0057764 39.6354507,51.5482531 38.3158255,51.9634557 C38.2707513,51.9776377 38.2256156,51.9916712 38.1804189,52.0055556 L35.6019089,47.5394454 C34.4442197,47.804869 33.2385442,47.9451137 32,47.9451137 C30.7614558,47.9451137 29.5557803,47.804869 28.3980911,47.5394454 Z M32,40 C36.418278,40 40,36.418278 40,32 C40,27.581722 36.418278,24 32,24 C27.581722,24 24,27.581722 24,32 C24,36.418278 27.581722,40 32,40 Z" id="fill" fill-opacity="0.184058129" fill="#007AFF" fill-rule="nonzero"></path>
        <path d="M28.3980911,47.5394454 L25.8201981,52.004487 C24.5927885,51.629238 23.4165796,51.1461806 22.3015756,50.5671966 C21.0743459,49.9299374 19.9212617,49.1764697 18.8556625,48.3226361 C18.4769947,48.0192207 18.1093744,47.7031312 17.7534002,47.3750786 L20.3314049,42.9098434 C18.6748801,41.1509429 17.4142239,39.017374 16.6911636,36.650378 L11.5205151,36.650378 C11.343218,35.8741225 11.209594,35.082753 11.1221479,34.2792446 C10.9764671,32.940641 10.9589478,31.5683471 11.0811714,30.1761178 C11.1658422,29.2116462 11.3148907,28.2682018 11.5237283,27.349622 L16.6911636,27.349622 C17.4142239,24.982626 18.6748801,22.8490571 20.3314049,21.0901566 L17.7538366,16.6256773 C17.9981215,16.4009998 18.2476773,16.1821153 18.5022732,15.9692168 C19.5540862,15.0896686 20.6919222,14.312287 21.8995071,13.650681 C23.0976945,12.9942236 24.3645493,12.4517469 25.6841745,12.0365443 C25.7292487,12.0223623 25.7743844,12.0083288 25.8195811,11.9944444 L28.3980911,16.4605546 C29.5557803,16.195131 30.7614558,16.0548863 32,16.0548863 C33.2385442,16.0548863 34.4442197,16.195131 35.6019089,16.4605546 L38.1798019,11.995513 C39.4072115,12.370762 40.5834204,12.8538194 41.6984244,13.4328034 C42.9256541,14.0700626 44.0787383,14.8235303 45.1443375,15.6773639 C45.5230053,15.9807793 45.8906256,16.2968688 46.2465998,16.6249214 L43.6685951,21.0901566 C45.3251199,22.8490571 46.5857761,24.982626 47.3088364,27.349622 L52.4794849,27.349622 C52.656782,28.1258775 52.790406,28.917247 52.8778521,29.7207554 C53.0235329,31.059359 53.0410522,32.4316529 52.9188286,33.8238822 C52.8341578,34.7883538 52.6851093,35.7317982 52.4762717,36.650378 L47.3088364,36.650378 C46.5857761,39.017374 45.3251199,41.1509429 43.6685951,42.9098434 L46.2461644,47.3743245 C46.0018785,47.5990002 45.7523227,47.8178847 45.4977268,48.0307832 C44.4459138,48.9103314 43.3080778,49.687713 42.1004929,50.349319 C40.9023055,51.0057764 39.6354507,51.5482531 38.3158255,51.9634557 C38.2707513,51.9776377 38.2256156,51.9916712 38.1804189,52.0055556 L35.6019089,47.5394454 C34.4442197,47.804869 33.2385442,47.9451137 32,47.9451137 C30.7614558,47.9451137 29.5557803,47.804869 28.3980911,47.5394454 Z M32,40 C36.418278,40 40,36.418278 40,32 C40,27.581722 36.418278,24 32,24 C27.581722,24 24,27.581722 24,32 C24,36.418278 27.581722,40 32,40 Z" id="border" stroke="#007AFF" stroke-width="2" stroke-linecap="round" stroke-linejoin="round" fill-rule="nonzero"></path>
    </g>
</svg>