<svg width="64px" height="64px" viewBox="0 0 64 64">
  <g id="cog" fill="none" fill-rule="evenodd" stroke="none" stroke-width="1">
    <path id="fill" fill="#007AFF" fill-opacity="0.184058129" fill-rule="nonzero" d="M25.8185937,11.9947477 L28.3972909,16.4607381 C29.5552248,16.1951956 30.7611705,16.0548863 32,16.0548863 C33.2384729,16.0548863 34.444081,16.1951149 35.6017091,16.4605088 L38.1807864,11.995814 C39.4078404,12.3710203 40.5837185,12.8539742 41.6984244,13.4328034 C42.9256541,14.0700626 44.0787383,14.8235303 45.1443375,15.6773639 C45.5231101,15.9808634 45.8908292,16.2970439 46.2468956,16.625194 L43.6679463,21.0894677 C45.3246004,22.848298 46.585392,24.9818268 47.3085872,27.3488063 L52.4794079,27.3492846 C52.6567433,28.1256483 52.7903933,28.9171306 52.8778521,29.7207554 C53.0235329,31.059359 53.040637,32.4316166 52.9188296,33.8238823 C52.8344496,34.788349 52.6852962,35.7317548 52.4763731,36.6502992 L47.3088927,36.6501936 C46.5858846,39.0171224 45.3253128,41.1506435 43.6688905,42.9095297 L46.2468,47.3737372 C46.0023121,47.5986199 45.7525438,47.8176997 45.4977268,48.0307832 C44.4459138,48.9103314 43.3080778,49.687713 42.1004929,50.349319 C40.9023055,51.0057764 39.6354507,51.5482531 38.3158255,51.9634557 C38.2710796,51.9775344 38.226273,51.9914668 38.1814063,52.0052523 L35.6027091,47.5392619 C34.4447752,47.8048044 33.2388295,47.9451137 32,47.9451137 C30.7615271,47.9451137 29.555919,47.8048851 28.3982909,47.5394912 L25.8202137,52.0044918 C24.5927985,51.6292421 23.4165843,51.1461831 22.3015756,50.5671966 C21.0743459,49.9299374 19.9212617,49.1764697 18.8556625,48.3226361 C18.4768899,48.0191366 18.1091708,47.7029561 17.7531044,47.374806 L20.3311095,42.9095297 C18.6746872,41.1506435 17.4141154,39.0171224 16.6911073,36.6501936 L11.5203807,36.6497896 C11.3431505,35.8737225 11.2095719,35.08255 11.1221479,34.2792446 C10.9764671,32.940641 10.959363,31.5683834 11.0811704,30.1761177 C11.165555,29.2115984 11.31472,28.2681424 11.5236611,27.3495507 L16.6911073,27.3498064 C17.4141154,24.9828776 18.6746872,22.8493565 20.3311095,21.0904703 L17.7532,16.6262628 C17.9976879,16.4013801 18.2474562,16.1823003 18.5022732,15.9692168 C19.5540862,15.0896686 20.6919222,14.312287 21.8995071,13.650681 C23.0976945,12.9942236 24.3645493,12.4517469 25.6841745,12.0365443 L25.8185937,11.9947477 Z M32,24 C27.581722,24 24,27.581722 24,32 C24,36.418278 27.581722,40 32,40 C36.418278,40 40,36.418278 40,32 C40,27.581722 36.418278,24 32,24 Z"/>
    <path id="border" fill-rule="nonzero" stroke="#007AFF" stroke-linecap="round" stroke-linejoin="round" stroke-width="2" d="M25.8185937,11.9947477 L28.3972909,16.4607381 C29.5552248,16.1951956 30.7611705,16.0548863 32,16.0548863 C33.2384729,16.0548863 34.444081,16.1951149 35.6017091,16.4605088 L38.1807864,11.995814 C39.4078404,12.3710203 40.5837185,12.8539742 41.6984244,13.4328034 C42.9256541,14.0700626 44.0787383,14.8235303 45.1443375,15.6773639 C45.5231101,15.9808634 45.8908292,16.2970439 46.2468956,16.625194 L43.6679463,21.0894677 C45.3246004,22.848298 46.585392,24.9818268 47.3085872,27.3488063 L52.4794079,27.3492846 C52.6567433,28.1256483 52.7903933,28.9171306 52.8778521,29.7207554 C53.0235329,31.059359 53.040637,32.4316166 52.9188296,33.8238823 C52.8344496,34.788349 52.6852962,35.7317548 52.4763731,36.6502992 L47.3088927,36.6501936 C46.5858846,39.0171224 45.3253128,41.1506435 43.6688905,42.9095297 L46.2468,47.3737372 C46.0023121,47.5986199 45.7525438,47.8176997 45.4977268,48.0307832 C44.4459138,48.9103314 43.3080778,49.687713 42.1004929,50.349319 C40.9023055,51.0057764 39.6354507,51.5482531 38.3158255,51.9634557 C38.2710796,51.9775344 38.226273,51.9914668 38.1814063,52.0052523 L35.6027091,47.5392619 C34.4447752,47.8048044 33.2388295,47.9451137 32,47.9451137 C30.7615271,47.9451137 29.555919,47.8048851 28.3982909,47.5394912 L25.8202137,52.0044918 C24.5927985,51.6292421 23.4165843,51.1461831 22.3015756,50.5671966 C21.0743459,49.9299374 19.9212617,49.1764697 18.8556625,48.3226361 C18.4768899,48.0191366 18.1091708,47.7029561 17.7531044,47.374806 L20.3311095,42.9095297 C18.6746872,41.1506435 17.4141154,39.0171224 16.6911073,36.6501936 L11.5203807,36.6497896 C11.3431505,35.8737225 11.2095719,35.08255 11.1221479,34.2792446 C10.9764671,32.940641 10.959363,31.5683834 11.0811704,30.1761177 C11.165555,29.2115984 11.31472,28.2681424 11.5236611,27.3495507 L16.6911073,27.3498064 C17.4141154,24.9828776 18.6746872,22.8493565 20.3311095,21.0904703 L17.7532,16.6262628 C17.9976879,16.4013801 18.2474562,16.1823003 18.5022732,15.9692168 C19.5540862,15.0896686 20.6919222,14.312287 21.8995071,13.650681 C23.0976945,12.9942236 24.3645493,12.4517469 25.6841745,12.0365443 L25.8185937,11.9947477 Z M32,24 C27.581722,24 24,27.581722 24,32 C24,36.418278 27.581722,40 32,40 C36.418278,40 40,36.418278 40,32 C40,27.581722 36.418278,24 32,24 Z"/>
  </g>
</svg>
