<svg width="64" height="64" viewBox="0 0 64 64">
  <g id="info" fill="none" fill-rule="evenodd" stroke="none" stroke-width="1">
    <path id="fill" fill="#007AFF" fill-opacity=".1841" fill-rule="nonzero" d="M40,17 C46.627417,17 52,22.372583 52,29 C52,35.627417 46.627417,41 40,41 L28,41 L20,49 L20.0000801,40.3172055 C15.3392688,38.6698824 12,34.2249052 12,29 C12,22.372583 17.372583,17 24,17 L40,17 Z"/>
    <path id="border" fill-rule="nonzero" stroke="#007AFF" stroke-linecap="round" stroke-linejoin="round" stroke-width="2" d="M40,17 C46.627417,17 52,22.372583 52,29 C52,35.627417 46.627417,41 40,41 L28,41 L20,49 L20.0000801,40.3172055 C15.3392688,38.6698824 12,34.2249052 12,29 C12,22.372583 17.372583,17 24,17 L40,17 Z"/>
  </g>
</svg>
