<?xml version="1.0" encoding="UTF-8"?>
<svg width="64px" height="64px" viewBox="0 0 64 64" version="1.1" xmlns="http://www.w3.org/2000/svg" xmlns:xlink="http://www.w3.org/1999/xlink">
    <!-- Generator: Sketch Beta 57 (82921) - https://sketch.com -->
    <title>configuration</title>
    <desc>Created with Sketch Beta.</desc>
    <g id="configuration" stroke="none" stroke-width="1" fill="none" fill-rule="evenodd">
        <path d="M30,38 C31.1045695,38 32,38.8954305 32,40 L32,44 C32,45.1045695 31.1045695,46 30,46 C28.8954305,46 28,45.1045695 28,44 L28,40 C28,38.8954305 28.8954305,38 30,38 Z M24.5,41.5 L24.5,42.5 L15.5,42.5 L15.5,41.5 L24.5,41.5 Z M48.5,41.5 L48.5,42.5 L35.5,42.5 L35.5,41.5 L48.5,41.5 Z M40,16 L39.7508207,16.0038068 C35.4478378,16.1354571 32,19.6650857 32,24 C32,28.3349143 35.4478378,31.8645429 39.7508207,31.9961932 L40,32 L24,32 C19.581722,32 16,28.418278 16,24 C16,19.581722 19.581722,16 24,16 L40,16 Z" id="fill" fill-opacity="0.184058129" fill="#007AFF" fill-rule="nonzero"></path>
        <path d="M24,16 L40,16 C44.418278,16 48,19.581722 48,24 C48,28.418278 44.418278,32 40,32 L24,32 C19.581722,32 16,28.418278 16,24 C16,19.581722 19.581722,16 24,16 Z M30,38 C31.1045695,38 32,38.8954305 32,40 L32,44 C32,45.1045695 31.1045695,46 30,46 C28.8954305,46 28,45.1045695 28,44 L28,40 C28,38.8954305 28.8954305,38 30,38 Z M40,16 C44.418278,16 48,19.581722 48,24 C48,28.418278 44.418278,32 40,32 C35.581722,32 32,28.418278 32,24 C32,19.581722 35.581722,16 40,16 Z M16,42 L24,42 M36,42 L48,42" id="border" stroke="#007AFF" stroke-width="2" stroke-linecap="round" stroke-linejoin="round" fill-rule="nonzero"></path>
    </g>
</svg>