<?xml version="1.0" encoding="UTF-8"?>
<svg width="64px" height="64px" viewBox="0 0 64 64" version="1.1" xmlns="http://www.w3.org/2000/svg" xmlns:xlink="http://www.w3.org/1999/xlink">
    <!-- Generator: Sketch Beta 57 (82921) - https://sketch.com -->
    <title>configuration</title>
    <desc>Created with Sketch Beta.</desc>
    <g id="configuration" stroke="none" stroke-width="1" fill="none" fill-rule="evenodd">
        <path d="M30,39 C31.1045695,39 32,39.8954305 32,41 L32,45 C32,46.1045695 31.1045695,47 30,47 C28.8954305,47 28,46.1045695 28,45 L28,41 C28,39.8954305 28.8954305,39 30,39 Z M24.5,42.5 L24.5,43.5 L15.5,43.5 L15.5,42.5 L24.5,42.5 Z M48.5,42.5 L48.5,43.5 L35.5,43.5 L35.5,42.5 L48.5,42.5 Z M40,15 L39.7346377,15.0038371 C34.8868137,15.1442086 31,19.1181973 31,24 C31,28.8818027 34.8868137,32.8557914 39.7346377,32.9961629 L40,33 L24,33 C19.0294373,33 15,28.9705627 15,24 C15,19.0294373 19.0294373,15 24,15 L40,15 Z" id="fill" fill-opacity="0.184058129" fill="#007AFF" fill-rule="nonzero"></path>
        <path d="M24,15 L40,15 C44.9705627,15 49,19.0294373 49,24 C49,28.9705627 44.9705627,33 40,33 L24,33 C19.0294373,33 15,28.9705627 15,24 C15,19.0294373 19.0294373,15 24,15 Z M40,15 C44.9705627,15 49,19.0294373 49,24 C49,28.9705627 44.9705627,33 40,33 C35.0294373,33 31,28.9705627 31,24 C31,19.0294373 35.0294373,15 40,15 Z M30,39 C31.1045695,39 32,39.8954305 32,41 L32,45 C32,46.1045695 31.1045695,47 30,47 C28.8954305,47 28,46.1045695 28,45 L28,41 C28,39.8954305 28.8954305,39 30,39 Z M16,43 L24,43 M36,43 L48,43" id="border" stroke="#007AFF" stroke-width="2" stroke-linecap="round" stroke-linejoin="round" fill-rule="nonzero"></path>
    </g>
</svg>