<svg width="64px" height="64px" viewBox="0 0 64 64">
  <g id="contrast" fill="none" fill-rule="evenodd" stroke="none" stroke-width="1">
    <path id="border" fill-rule="nonzero" stroke="#007AFF" stroke-linecap="round" stroke-linejoin="round" stroke-width="2" d="M32,50 C41.9411255,50 50,41.9411255 50,32 C50,22.0588745 41.9411255,14 32,14 C22.0588745,14 14,22.0588745 14,32 C14,41.9411255 22.0588745,50 32,50 Z M32,42 C37.5228475,42 42,37.5228475 42,32 C42,26.4771525 37.5228475,22 32,22 C26.4771525,22 22,26.4771525 22,32 C22,37.5228475 26.4771525,42 32,42 Z M32,14 L32,49.5"/>
    <path id="fill" fill="#007AFF" fill-opacity="0.184058129" fill-rule="nonzero" d="M32,14 C41.9411255,14 50,22.0588745 50,32 C50,41.8417142 42.1014971,49.8386343 32.2976629,49.9975885 L32,50 L32,41.9 C37.467619,41.9 41.9,37.467619 41.9,32 C41.9,26.532381 37.467619,22.1 32,22.1 L32,14 Z M32,22 L32,42 C26.4771525,42 22,37.5228475 22,32 C22,26.4771525 26.4771525,22 32,22 Z"/>
  </g>
</svg>
