<svg width="64px" height="64px" viewBox="0 0 64 64">
  <g id="contrast" fill="none" fill-rule="evenodd" stroke="none" stroke-width="1">
    <path id="border" fill-rule="nonzero" stroke="#007AFF" stroke-linecap="round" stroke-linejoin="round" stroke-width="2" d="M32,56 C45.254834,56 56,45.254834 56,32 C56,18.745166 45.254834,8 32,8 C18.745166,8 8,18.745166 8,32 C8,45.254834 18.745166,56 32,56 Z M32,45 C39.1797017,45 45,39.1797017 45,32 C45,24.8202983 39.1797017,19 32,19 C24.8202983,19 19,24.8202983 19,32 C19,39.1797017 24.8202983,45 32,45 Z M32.5,8 L32.5,56"/>
    <path id="fill" fill="#007AFF" fill-opacity="0.184058129" fill-rule="nonzero" d="M32,8 C45.254834,8 56,18.745166 56,32 C56,45.1222857 45.4686628,55.7848457 32.3968839,55.9967847 L32,56 L32,45.2 C39.2901587,45.2 45.2,39.2901587 45.2,32 C45.2,24.7098413 39.2901587,18.8 32,18.8 L32,8 Z M32,18.8 L32,45.2 C24.7098413,45.2 18.8,39.2901587 18.8,32 C18.8,24.7098413 24.7098413,18.8 32,18.8 Z"/>
  </g>
</svg>
