<svg width="64px" height="64px" viewBox="0 0 64 64">
  <g id="contrast" fill="none" fill-rule="evenodd" stroke="none" stroke-width="1">
    <g id="_Grid_in_use" fill-rule="nonzero" stroke="#000" stroke-linecap="square" stroke-linejoin="round" stroke-width="0.2">
      <g id="_grid_16">
        <g id="grid-background" opacity="0.0805431548">
          <path id="gridlines" d="M4,0 L4,64 L4,0 Z M8,0 L8,64 L8,0 Z M12,0 L12,64 L12,0 Z M16,0 L16,64 L16,0 Z M20,0 L20,64 L20,0 Z M24,0 L24,64 L24,0 Z M28,0 L28,64 L28,0 Z M32,0 L32,64 L32,0 Z M36,0 L36,64 L36,0 Z M40,0 L40,64 L40,0 Z M44,0 L44,64 L44,0 Z M48,0 L48,64 L48,0 Z M52,0 L52,64 L52,0 Z M56,0 L56,64 L56,0 Z M60,0 L60,64 L60,0 Z M0,32 L64,32 L0,32 Z M0,36 L64,36 L0,36 Z M0,40 L64,40 L0,40 Z M0,44 L64,44 L0,44 Z M0,48 L64,48 L0,48 Z M0,52 L64,52 L0,52 Z M0,56 L64,56 L0,56 Z M0,60 L64,60 L0,60 Z M0,60 L64,60 L0,60 Z M0,28 L64,28 L0,28 Z M0,24 L64,24 L0,24 Z M0,20 L64,20 L0,20 Z M0,16 L64,16 L0,16 Z M0,12 L64,12 L0,12 Z M0,8 L64,8 L0,8 Z M0,4 L64,4 L0,4 Z" opacity="0.347632999"/>
        </g>
        <path id="border" d="M48,8 L48,56 L16,56 L16,8 L48,8 Z M56,16 L56,48 L8,48 L8,16 L56,16 Z M48,16 L48,48 L16,48 L16,16 L48,16 Z M51,13 L51,51 L13,51 L13,13 L51,13 Z M32,14 C41.9411255,14 50,22.0588745 50,32 C50,41.8306685 42.1192167,49.8206815 32.3306652,49.9970237 L32,50 L32,50 C22.0588745,50 14,41.9411255 14,32 C14,22.0588745 22.0588745,14 32,14 Z M32,8 C45.254834,8 56,18.745166 56,32 C56,45.1222857 45.4686628,55.7848457 32.3968839,55.9967847 L32,56 L32,56 C18.745166,56 8,45.254834 8,32 C8,18.745166 18.745166,8 32,8 Z M32,2 L32,62 M2,32 L62,32 M56,8 L8,56 M8,8 L56,56" opacity="0.347632999"/>
      </g>
    </g>
    <path id="border" fill-rule="nonzero" stroke="#007AFF" stroke-linecap="round" stroke-linejoin="round" stroke-width="2" d="M32,56 C45.254834,56 56,45.254834 56,32 C56,18.745166 45.254834,8 32,8 C18.745166,8 8,18.745166 8,32 C8,45.254834 18.745166,56 32,56 Z M32,45 C39.1797017,45 45,39.1797017 45,32 C45,24.8202983 39.1797017,19 32,19 C24.8202983,19 19,24.8202983 19,32 C19,39.1797017 24.8202983,45 32,45 Z M32.5,8 L32.5,56"/>
    <path id="fill" fill="#007AFF" fill-opacity="0.184058129" fill-rule="nonzero" d="M32,8 C45.254834,8 56,18.745166 56,32 C56,45.1222857 45.4686628,55.7848457 32.3968839,55.9967847 L32,56 L32,45.2 C39.2901587,45.2 45.2,39.2901587 45.2,32 C45.2,24.7098413 39.2901587,18.8 32,18.8 L32,8 Z M32,18.8 L32,45.2 C24.7098413,45.2 18.8,39.2901587 18.8,32 C18.8,24.7098413 24.7098413,18.8 32,18.8 Z"/>
  </g>
</svg>
