<?xml version="1.0" encoding="UTF-8"?>
<svg width="64px" height="64px" viewBox="0 0 64 64" version="1.1" xmlns="http://www.w3.org/2000/svg" xmlns:xlink="http://www.w3.org/1999/xlink">
    <!-- Generator: Sketch 54.1 (76490) - https://sketchapp.com -->
    <title>icons/copy-to-workspace</title>
    <desc>Created with Sketch.</desc>
    <g id="icons/copy-to-workspace" stroke="none" stroke-width="1" fill="none" fill-rule="evenodd">
        <path d="M26,26 L22,26 C20.8954305,26 20,26.8954305 20,28 L20,42 C20,43.1045695 20.8954305,44 22,44 L36,44 C37.1045695,44 38,43.1045695 38,42 L38,38 L42,38 C43.1045695,38 44,37.1045695 44,36 L44,22 C44,20.8954305 43.1045695,20 42,20 L28,20 C26.8954305,20 26,20.8954305 26,22 L26,26 Z M32,52 C20.954305,52 12,43.045695 12,32 C12,20.954305 20.954305,12 32,12 C43.045695,12 52,20.954305 52,32 C52,43.045695 43.045695,52 32,52 Z" id="fill" fill-opacity="0.184058129" fill="#007AFF" fill-rule="nonzero"></path>
        <path d="M32,52 C43.045695,52 52,43.045695 52,32 C52,20.954305 43.045695,12 32,12 C20.954305,12 12,20.954305 12,32 C12,43.045695 20.954305,52 32,52 Z M28,20 L42,20 C43.1045695,20 44,20.8954305 44,22 L44,36 C44,37.1045695 43.1045695,38 42,38 L28,38 C26.8954305,38 26,37.1045695 26,36 L26,22 C26,20.8954305 26.8954305,20 28,20 Z M38,38 L38,42 C38,43.1045695 37.1045695,44 36,44 L22,44 C20.8954305,44 20,43.1045695 20,42 L20,28 C20,26.8954305 20.8954305,26 22,26 L26,26" id="border" stroke="#007AFF" stroke-width="2" stroke-linecap="round" stroke-linejoin="round" fill-rule="nonzero"></path>
    </g>
</svg>