<?xml version="1.0" encoding="UTF-8"?>
<svg width="64px" height="64px" viewBox="0 0 64 64" version="1.1" xmlns="http://www.w3.org/2000/svg" xmlns:xlink="http://www.w3.org/1999/xlink">
    <!-- Generator: Sketch 55.2 (78181) - https://sketchapp.com -->
    <title>icons/cpu</title>
    <desc>Created with Sketch.</desc>
    <g id="icons/cpu" stroke="none" stroke-width="1" fill="none" fill-rule="evenodd">
        <path d="M40,48 L24,48 C23.4477153,48 23,48.4477153 23,49 C23,49.5522847 23.4477153,50 24,50 L40,50 C40.5522847,50 41,49.5522847 41,49 C41,48.4477153 40.5522847,48 40,48 Z M40,14 L24,14 C23.4477153,14 23,14.4477153 23,15 C23,15.5522847 23.4477153,16 24,16 L40,16 C40.5522847,16 41,15.5522847 41,15 C41,14.4477153 40.5522847,14 40,14 Z M16,40 L16,24 C16,23.4477153 15.5522847,23 15,23 C14.4477153,23 14,23.4477153 14,24 L14,40 C14,40.5522847 14.4477153,41 15,41 C15.5522847,41 16,40.5522847 16,40 Z M50,40 C50,40.5522847 49.5522847,41 49,41 C48.4477153,41 48,40.5522847 48,40 L48,24 C48,23.4477153 48.4477153,23 49,23 C49.5522847,23 50,23.4477153 50,24 L50,40 Z M21.5,20 L42.5,20 C43.3284271,20 44,20.6715729 44,21.5 L44,42.5 C44,43.3284271 43.3284271,44 42.5,44 L21.5,44 C20.6715729,44 20,43.3284271 20,42.5 L20,21.5 C20,20.6715729 20.6715729,20 21.5,20 Z" id="fill" fill-opacity="0.184058129" fill="#007AFF" fill-rule="nonzero"></path>
        <path d="M40,49 L24,49 L40,49 Z M40,15 L24,15 L40,15 Z M15,40 L15,24 L15,40 Z M49,40 L49,24 L49,40 Z M21.5,20 L42.5,20 C43.3284271,20 44,20.6715729 44,21.5 L44,42.5 C44,43.3284271 43.3284271,44 42.5,44 L21.5,44 C20.6715729,44 20,43.3284271 20,42.5 L20,21.5 C20,20.6715729 20.6715729,20 21.5,20 Z" id="border" stroke="#007AFF" stroke-width="2" stroke-linecap="round" stroke-linejoin="round" fill-rule="nonzero"></path>
    </g>
</svg>