<?xml version="1.0" encoding="UTF-8"?>
<svg width="64px" height="64px" viewBox="0 0 64 64" version="1.1" xmlns="http://www.w3.org/2000/svg" xmlns:xlink="http://www.w3.org/1999/xlink">
    <!-- Generator: Sketch 54.1 (76490) - https://sketchapp.com -->
    <title>icons/cpu</title>
    <desc>Created with Sketch.</desc>
    <g id="icons/cpu" stroke="none" stroke-width="1" fill="none" fill-rule="evenodd">
        <path d="M40,47 L24,47 C23.4477153,47 23,47.4477153 23,48 C23,48.5522847 23.4477153,49 24,49 L40,49 C40.5522847,49 41,48.5522847 41,48 C41,47.4477153 40.5522847,47 40,47 Z M40,15 L24,15 C23.4477153,15 23,15.4477153 23,16 C23,16.5522847 23.4477153,17 24,17 L40,17 C40.5522847,17 41,16.5522847 41,16 C41,15.4477153 40.5522847,15 40,15 Z M17,40 L17,24 C17,23.4477153 16.5522847,23 16,23 C15.4477153,23 15,23.4477153 15,24 L15,40 C15,40.5522847 15.4477153,41 16,41 C16.5522847,41 17,40.5522847 17,40 Z M49,40 C49,40.5522847 48.5522847,41 48,41 C47.4477153,41 47,40.5522847 47,40 L47,24 C47,23.4477153 47.4477153,23 48,23 C48.5522847,23 49,23.4477153 49,24 L49,40 Z M21.5,20 L42.5,20 C43.3284271,20 44,20.6715729 44,21.5 L44,42.5 C44,43.3284271 43.3284271,44 42.5,44 L21.5,44 C20.6715729,44 20,43.3284271 20,42.5 L20,21.5 C20,20.6715729 20.6715729,20 21.5,20 Z" id="fill" fill-opacity="0.184058129" fill="#007AFF" fill-rule="nonzero"></path>
        <path d="M40,48 L24,48 L40,48 Z M40,16 L24,16 L40,16 Z M16,40 L16,24 L16,40 Z M48,40 L48,24 L48,40 Z M21.5,20 L42.5,20 C43.3284271,20 44,20.6715729 44,21.5 L44,42.5 C44,43.3284271 43.3284271,44 42.5,44 L21.5,44 C20.6715729,44 20,43.3284271 20,42.5 L20,21.5 C20,20.6715729 20.6715729,20 21.5,20 Z" id="border" stroke="#007AFF" stroke-width="2" stroke-linecap="round" stroke-linejoin="round" fill-rule="nonzero"></path>
    </g>
</svg>