<svg width="64px" height="64px" viewBox="0 0 64 64">
  <g id="cpu" fill="none" fill-rule="evenodd" stroke="none" stroke-width="1">
    <path id="fill" fill="#007AFF" fill-opacity="0.184058129" fill-rule="nonzero" d="M40,48 L24,48 C23.4477153,48 23,48.4477153 23,49 C23,49.5522847 23.4477153,50 24,50 L40,50 C40.5522847,50 41,49.5522847 41,49 C41,48.4477153 40.5522847,48 40,48 Z M40,14 L24,14 C23.4477153,14 23,14.4477153 23,15 C23,15.5522847 23.4477153,16 24,16 L40,16 C40.5522847,16 41,15.5522847 41,15 C41,14.4477153 40.5522847,14 40,14 Z M16,40 L16,24 C16,23.4477153 15.5522847,23 15,23 C14.4477153,23 14,23.4477153 14,24 L14,40 C14,40.5522847 14.4477153,41 15,41 C15.5522847,41 16,40.5522847 16,40 Z M42.5,20 C43.3284271,20 44,20.6715729 44,21.5 L44,42.5 C44,43.3284271 43.3284271,44 42.5,44 L21.5,44 C20.6715729,44 20,43.3284271 20,42.5 L20,21.5 C20,20.6715729 20.6715729,20 21.5,20 L42.5,20 Z M49,23 C49.5522847,23 50,23.4477153 50,24 L50,24 L50,40 C50,40.5522847 49.5522847,41 49,41 C48.4477153,41 48,40.5522847 48,40 L48,40 L48,24 C48,23.4477153 48.4477153,23 49,23 Z"/>
    <path id="border" fill-rule="nonzero" stroke="#007AFF" stroke-linecap="round" stroke-linejoin="round" stroke-width="2" d="M40,49 L24,49 M40,15 L24,15 M15,40 L15,24 M49,40 L49,24 M21.5,20 L42.5,20 C43.3284271,20 44,20.6715729 44,21.5 L44,42.5 C44,43.3284271 43.3284271,44 42.5,44 L21.5,44 C20.6715729,44 20,43.3284271 20,42.5 L20,21.5 C20,20.6715729 20.6715729,20 21.5,20 Z"/>
  </g>
</svg>
