<?xml version="1.0" encoding="UTF-8"?>
<svg width="64px" height="64px" viewBox="0 0 64 64" version="1.1" xmlns="http://www.w3.org/2000/svg" xmlns:xlink="http://www.w3.org/1999/xlink">
    <!-- Generator: Sketch 55.2 (78181) - https://sketchapp.com -->
    <title>icons/dashboard</title>
    <desc>Created with Sketch.</desc>
    <g id="icons/dashboard" stroke="none" stroke-width="1" fill="none" fill-rule="evenodd">
        <path d="M17,15 L47,15 C48.1045695,15 49,15.8954305 49,17 L49,47 C49,48.1045695 48.1045695,49 47,49 L17,49 C15.8954305,49 15,48.1045695 15,47 L15,17 C15,15.8954305 15.8954305,15 17,15 Z" id="fill" fill-opacity="0.184058129" fill="#007AFF" fill-rule="nonzero"></path>
        <path d="M17,15 L47,15 C48.1045695,15 49,15.8954305 49,17 L49,47 C49,48.1045695 48.1045695,49 47,49 L17,49 C15.8954305,49 15,48.1045695 15,47 L15,17 C15,15.8954305 15.8954305,15 17,15 Z M15,39 L23.5,43 L32,36 L40.5,40 L49,24 M23,22.5 L34,22.5 M23,27.5 L30,27.5" id="border" stroke="#007AFF" stroke-width="2" stroke-linecap="round" stroke-linejoin="round" fill-rule="nonzero"></path>
    </g>
</svg>