<svg width="64px" height="64px" viewBox="0 0 64 64">
  <g id="ear" fill="none" fill-rule="evenodd" stroke="none" stroke-width="1">
    <path id="fill" fill="#007AFF" fill-opacity="0.184058129" fill-rule="nonzero" d="M29.0890395,11.9144656 C38.1448855,11.9144656 45.4860992,19.1189919 45.4860992,28.0062255 C45.4860992,31.3510496 44.7160669,34.3493006 42.0700451,37.3930855 C39.4240232,40.4368704 39.3372018,40.0750455 35.9211477,43.4274955 C32.5050936,46.7799455 32.5050936,49.4619055 29.7722503,50.8028855 C26.4772404,52.4197152 22.2569313,52.1438655 19.524088,50.8028855 C19.2232704,48.6573721 19.2152411,46.7230769 19.5,45 C19.7847589,43.2769231 20.377552,41.672811 21.2783793,40.1876638 C23.1880727,40.7132159 24.6529414,40.6756765 25.6729854,40.0750455 C27.3050557,39.114036 25.6729854,37.3930855 29.0890395,36.0521055 C32.5050936,34.7111255 34.1133569,37.4642052 35.9211477,35.3816155 C37.7289384,33.2990259 39.3372018,30.9652793 39.3372018,28.6767155 C39.3372018,23.3127955 35.2379369,18.6193656 30.4554611,18.6193656 L29.5869708,18.6200858 C25.6530791,18.6305288 25.3644385,18.7923952 20.8905096,21.3013256 C19.8523745,20.4368762 19.2222047,19.503101 19,18.5 C18.7777953,17.496899 18.9398284,16.3173588 19.4860992,14.9613795 C22.1851615,13.044431 25.5026381,11.9144656 29.0890395,11.9144656 Z"/>
    <path id="border" fill-rule="nonzero" stroke="#007AFF" stroke-linecap="round" stroke-linejoin="round" stroke-width="2" d="M29.0890395,11.9144656 C38.1448855,11.9144656 45.4860992,19.1189919 45.4860992,28.0062255 C45.4860992,31.3510496 44.7160669,34.3493006 42.0700451,37.3930855 C39.4240232,40.4368704 39.3372018,40.0750455 35.9211477,43.4274955 C32.5050936,46.7799455 32.5050936,49.4619055 29.7722503,50.8028855 C26.4772404,52.4197152 22.2569313,52.1438655 19.524088,50.8028855 C19.2232704,48.6573721 19.2152411,46.7230769 19.5,45 C19.7847589,43.2769231 20.377552,41.672811 21.2783793,40.1876638 C23.1880727,40.7132159 24.6529414,40.6756765 25.6729854,40.0750455 C27.3050557,39.114036 25.6729854,37.3930855 29.0890395,36.0521055 C32.5050936,34.7111255 34.1133569,37.4642052 35.9211477,35.3816155 C37.7289384,33.2990259 39.3372018,30.9652793 39.3372018,28.6767155 C39.3372018,23.3127955 35.2379369,18.6193656 30.4554611,18.6193656 L29.5869708,18.6200858 C25.6530791,18.6305288 25.3644385,18.7923952 20.8905096,21.3013256 C19.8523745,20.4368762 19.2222047,19.503101 19,18.5 C18.7777953,17.496899 18.9398284,16.3173588 19.4860992,14.9613795 C22.1851615,13.044431 25.5026381,11.9144656 29.0890395,11.9144656 Z"/>
  </g>
</svg>
