<?xml version="1.0" encoding="UTF-8"?>
<svg width="64px" height="64px" viewBox="0 0 64 64" version="1.1" xmlns="http://www.w3.org/2000/svg" xmlns:xlink="http://www.w3.org/1999/xlink">
    <!-- Generator: Sketch Beta 57 (82921) - https://sketch.com -->
    <title>ear</title>
    <desc>Created with Sketch Beta.</desc>
    <g id="ear" stroke="none" stroke-width="1" fill="none" fill-rule="evenodd">
        <path d="M31,17 C37.627417,17 43,22.372583 43,29 C43,31.4943131 42.4364607,33.7301788 40.5,36 C38.5635393,38.2698212 38.5,38 36,40.5 C33.5,43 33.5,45 31.5,46 C29.0885848,47.2057076 26,47 24,46 L25.283858,38.0839821 C26.6814452,38.4758985 27.7534925,38.4479045 28.5,38 C29.694412,37.2833528 28.5,36 31,35 C33.5,34 34.6769891,36.0530356 36,34.5 C37.3230109,32.9469644 38.5,31.2066353 38.5,29.5 C38.5,25.5 35.5,22 32,22 L31.3644054,22.0005371 C28.4854318,22.0083247 28.2741935,22.1290323 25,24 L23.9721983,19.2721546 C25.9474761,17.8426415 28.3753333,17 31,17 Z" id="fill" fill-opacity="0.184058129" fill="#007AFF" fill-rule="nonzero"></path>
        <path d="M24,46 C26,47 29.0885848,47.2057076 31.5,46 C33.5,45 33.5,43 36,40.5 C38.5,38 38.5635393,38.2698212 40.5,36 C42.4364607,33.7301788 43,31.4943131 43,29 C43,22.372583 37.627417,17 31,17 C28.3753333,17 25.9474761,17.8426415 23.9721983,19.2721546 M25,38 C26.5370587,38.4777648 27.7037254,38.4777648 28.5,38 C29.694412,37.2833528 28.5,36 31,35 C33.5,34 34.6769891,36.0530356 36,34.5 C37.3230109,32.9469644 38.5,31.2066353 38.5,29.5 C38.5,25.5 35.5,22 32,22 C28.5,22 28.5,22 25,24" id="border" stroke="#007AFF" stroke-width="2" stroke-linecap="round" stroke-linejoin="round" fill-rule="nonzero"></path>
    </g>
</svg>