<?xml version="1.0" encoding="UTF-8"?>
<svg width="64px" height="64px" viewBox="0 0 64 64" version="1.1" xmlns="http://www.w3.org/2000/svg" xmlns:xlink="http://www.w3.org/1999/xlink">
    <!-- Generator: Sketch Beta 57 (82921) - https://sketch.com -->
    <title>ear</title>
    <desc>Created with Sketch Beta.</desc>
    <g id="ear" stroke="none" stroke-width="1" fill="none" fill-rule="evenodd">
        <path d="M30.0890395,11.9144656 C39.1448855,11.9144656 46.4860992,19.1189919 46.4860992,28.0062255 C46.4860992,31.3510496 45.7160669,34.3493006 43.0700451,37.3930855 C40.4240232,40.4368704 40.3372018,40.0750455 36.9211477,43.4274955 C33.5050936,46.7799455 33.5050936,49.4619055 30.7722503,50.8028855 C27.4772404,52.4197152 23.2569313,52.1438655 20.524088,50.8028855 C20.2232704,48.6573721 20.2152411,46.7230769 20.5,45 C20.7847589,43.2769231 21.377552,41.672811 22.2783793,40.1876638 C24.1880727,40.7132159 25.6529414,40.6756765 26.6729854,40.0750455 C28.3050557,39.114036 26.6729854,37.3930855 30.0890395,36.0521055 C33.5050936,34.7111255 35.1133569,37.4642052 36.9211477,35.3816155 C38.7289384,33.2990259 40.3372018,30.9652793 40.3372018,28.6767155 C40.3372018,23.3127955 36.2379369,18.6193656 31.4554611,18.6193656 L30.5869708,18.6200858 C26.6530791,18.6305288 26.3644385,18.7923952 21.8905096,21.3013256 C20.8523745,20.4368762 20.2222047,19.503101 20,18.5 C19.7777953,17.496899 19.9398284,16.3173588 20.4860992,14.9613795 C23.1851615,13.044431 26.5026381,11.9144656 30.0890395,11.9144656 Z" id="fill" fill-opacity="0.184058129" fill="#007AFF" fill-rule="nonzero"></path>
        <path d="M30.0890395,11.9144656 C39.1448855,11.9144656 46.4860992,19.1189919 46.4860992,28.0062255 C46.4860992,31.3510496 45.7160669,34.3493006 43.0700451,37.3930855 C40.4240232,40.4368704 40.3372018,40.0750455 36.9211477,43.4274955 C33.5050936,46.7799455 33.5050936,49.4619055 30.7722503,50.8028855 C27.4772404,52.4197152 23.2569313,52.1438655 20.524088,50.8028855 C20.2232704,48.6573721 20.2152411,46.7230769 20.5,45 C20.7847589,43.2769231 21.377552,41.672811 22.2783793,40.1876638 C24.1880727,40.7132159 25.6529414,40.6756765 26.6729854,40.0750455 C28.3050557,39.114036 26.6729854,37.3930855 30.0890395,36.0521055 C33.5050936,34.7111255 35.1133569,37.4642052 36.9211477,35.3816155 C38.7289384,33.2990259 40.3372018,30.9652793 40.3372018,28.6767155 C40.3372018,23.3127955 36.2379369,18.6193656 31.4554611,18.6193656 L30.5869708,18.6200858 C26.6530791,18.6305288 26.3644385,18.7923952 21.8905096,21.3013256 C20.8523745,20.4368762 20.2222047,19.503101 20,18.5 C19.7777953,17.496899 19.9398284,16.3173588 20.4860992,14.9613795 C23.1851615,13.044431 26.5026381,11.9144656 30.0890395,11.9144656 Z" id="border" stroke="#007AFF" stroke-width="2" stroke-linecap="round" stroke-linejoin="round" fill-rule="nonzero"></path>
    </g>
</svg>