<svg width="64px" height="64px" viewBox="0 0 64 64">
  <g id="entity" fill="none" fill-rule="evenodd" stroke="none" stroke-width="1">
    <path id="fill" fill="#007AFF" fill-opacity="0.184058129" fill-rule="nonzero" d="M32.5,12 C35.8624395,12 39,14.5526742 39,18 C39,20.0261129 37.9161861,22.0886165 36.3398978,23.4448503 C37.6668033,23.8025 38.5,24.3541471 38.5,25 C38.5,25.6981291 37.5264646,26.2861848 36.0083044,26.6402326 C36.102608,31.1268335 37.1957163,35.2032673 38.678119,37.3686462 C41.8780274,38.353093 44,40.0811812 44,42.0483871 L44,42.0483871 L44,46 C43.9985022,48.2987122 38.8503508,50 32.5,50 C26.1487254,50 21,48.2982172 21,46 L21,46 L21,42.0483871 C21,40.0809739 23.1224198,38.3527288 26.3228426,37.36755 C27.8042792,35.2033094 28.8974079,31.1268038 28.9931699,26.6396587 C27.4735354,26.2861848 26.5,25.6981291 26.5,25 C26.5,24.3541471 27.3331967,23.8025 28.6599959,23.4431853 C27.0838139,22.0886165 26,20.0261129 26,18 C26,14.5526742 29.1375605,12 32.5,12 Z"/>
    <path id="border" fill-rule="nonzero" stroke="#007AFF" stroke-linecap="round" stroke-linejoin="round" stroke-width="2" d="M32.5,12 C35.8624395,12 39,14.5526742 39,18 C39,20.0261129 37.9161861,22.0886165 36.3398978,23.4448503 C37.6668033,23.8025 38.5,24.3541471 38.5,25 C38.5,25.6981291 37.5264646,26.2861848 36.0083044,26.6402326 C36.102608,31.1268335 37.1957163,35.2032673 38.678119,37.3686462 C41.8780274,38.353093 44,40.0811812 44,42.0483871 L44,42.0483871 L44,46 C43.9985022,48.2987122 38.8503508,50 32.5,50 C26.1487254,50 21,48.2982172 21,46 L21,46 L21,42.0483871 C21,40.0809739 23.1224198,38.3527288 26.3228426,37.36755 C27.8042792,35.2033094 28.8974079,31.1268038 28.9931699,26.6396587 C27.4735354,26.2861848 26.5,25.6981291 26.5,25 C26.5,24.3541471 27.3331967,23.8025 28.6599959,23.4431853 C27.0838139,22.0886165 26,20.0261129 26,18 C26,14.5526742 29.1375605,12 32.5,12 Z"/>
  </g>
</svg>
