<?xml version="1.0" encoding="UTF-8"?>
<svg width="64px" height="64px" viewBox="0 0 64 64" version="1.1" xmlns="http://www.w3.org/2000/svg" xmlns:xlink="http://www.w3.org/1999/xlink">
    <!-- Generator: Sketch 54.1 (76490) - https://sketchapp.com -->
    <title>icons/entity</title>
    <desc>Created with Sketch.</desc>
    <g id="icons/entity" stroke="none" stroke-width="1" fill="none" fill-rule="evenodd">
        <path d="M26.3225749,37.3676324 C27.8045355,35.2021257 28.8972752,31.1266244 28.9931504,26.6405717 C27.4741573,26.2865605 26.5,25.698352 26.5,25 C26.5,24.3543727 27.3326146,23.8028855 28.6586053,23.443562 C27.0831278,22.0873106 26,20.0254715 26,18 C26,14.5526742 29.1375605,12 32.5,12 C35.8624395,12 39,14.5526742 39,18 C39,20.0254715 37.9168722,22.0873106 36.3413947,23.443562 C37.6673854,23.8028855 38.5,24.3543727 38.5,25 C38.5,25.698352 37.5258427,26.2865605 36.0068496,26.6405717 C36.1027248,31.1266244 37.1954645,35.2021257 38.6774251,37.3676324 C41.8776986,38.3528252 44,40.0810287 44,42.0483871 L44,46 C44,48.2982172 38.8512746,50 32.5,50 C26.1487254,50 21,48.2982172 21,46 L21,42.0483871 C21,40.0810287 23.1223014,38.3528252 26.3225749,37.3676324 Z" id="fill" fill-opacity="0.184058129" fill="#007AFF" fill-rule="nonzero"></path>
        <path d="M26.3225749,37.3676324 C27.8045355,35.2021257 28.8972752,31.1266244 28.9931504,26.6405717 C27.4741573,26.2865605 26.5,25.698352 26.5,25 C26.5,24.3543727 27.3326146,23.8028855 28.6586053,23.443562 C27.0831278,22.0873106 26,20.0254715 26,18 C26,14.5526742 29.1375605,12 32.5,12 C35.8624395,12 39,14.5526742 39,18 C39,20.0254715 37.9168722,22.0873106 36.3413947,23.443562 C37.6673854,23.8028855 38.5,24.3543727 38.5,25 C38.5,25.698352 37.5258427,26.2865605 36.0068496,26.6405717 C36.1027248,31.1266244 37.1954645,35.2021257 38.6774251,37.3676324 C41.8776986,38.3528252 44,40.0810287 44,42.0483871 L44,46 C44,48.2982172 38.8512746,50 32.5,50 C26.1487254,50 21,48.2982172 21,46 L21,42.0483871 C21,40.0810287 23.1223014,38.3528252 26.3225749,37.3676324 Z" id="border" stroke="#007AFF" stroke-width="2" stroke-linecap="round" stroke-linejoin="round" fill-rule="nonzero"></path>
    </g>
</svg>