<?xml version="1.0" encoding="UTF-8"?>
<svg width="64px" height="64px" viewBox="0 0 64 64" version="1.1" xmlns="http://www.w3.org/2000/svg" xmlns:xlink="http://www.w3.org/1999/xlink">
    <!-- Generator: Sketch Beta 57 (82921) - https://sketch.com -->
    <title>entity</title>
    <desc>Created with Sketch Beta.</desc>
    <g id="entity" stroke="none" stroke-width="1" fill="none" fill-rule="evenodd">
        <path d="M32.5,12 C35.8624395,12 39,14.5526742 39,18 C39,20.0261129 37.9161861,22.0886165 36.3398978,23.4448503 C37.6668033,23.8025 38.5,24.3541471 38.5,25 C38.5,25.6981291 37.5264646,26.2861848 36.0083044,26.6402326 C36.1027022,31.1266951 37.1956402,35.2029612 38.6779512,37.3684007 C41.8780274,38.353093 44,40.0811812 44,42.0483871 L44,42.0483871 L44,46 L43.999,46 L43.9949175,46.1247592 C43.8123761,48.3595376 38.7357969,50 32.5,50 C26.1487254,50 21,48.2982172 21,46 L21,42.0483871 C21,40.0809739 23.1224198,38.3527288 26.3228426,37.36755 C27.8043517,35.2030391 28.897411,31.126655 28.9931699,26.6396587 C27.4735354,26.2861848 26.5,25.6981291 26.5,25 C26.5,24.3541471 27.3331967,23.8025 28.6599959,23.4431853 C27.0838139,22.0886165 26,20.0261129 26,18 C26,14.5526742 29.1375605,12 32.5,12 Z" id="fill" fill-opacity="0.184058129" fill="#007AFF" fill-rule="nonzero"></path>
        <path d="M32.5,12 C35.8624395,12 39,14.5526742 39,18 C39,20.0261129 37.9161861,22.0886165 36.3398978,23.4448503 C37.6668033,23.8025 38.5,24.3541471 38.5,25 C38.5,25.6981291 37.5264646,26.2861848 36.0083044,26.6402326 C36.1027022,31.1266951 37.1956402,35.2029612 38.6779512,37.3684007 C41.8780274,38.353093 44,40.0811812 44,42.0483871 L44,42.0483871 L44,46 L43.999,46 L43.9949175,46.1247592 C43.8123761,48.3595376 38.7357969,50 32.5,50 C26.1487254,50 21,48.2982172 21,46 L21,42.0483871 C21,40.0809739 23.1224198,38.3527288 26.3228426,37.36755 C27.8043517,35.2030391 28.897411,31.126655 28.9931699,26.6396587 C27.4735354,26.2861848 26.5,25.6981291 26.5,25 C26.5,24.3541471 27.3331967,23.8025 28.6599959,23.4431853 C27.0838139,22.0886165 26,20.0261129 26,18 C26,14.5526742 29.1375605,12 32.5,12 Z" id="border" stroke="#007AFF" stroke-width="2" stroke-linecap="round" stroke-linejoin="round" fill-rule="nonzero"></path>
    </g>
</svg>