<svg width="64px" height="64px" viewBox="0 0 64 64">
  <g id="equipment" fill="none" fill-rule="evenodd" stroke="none" stroke-width="1">
    <path id="fill" fill="#007AFF" fill-opacity="0.184058129" fill-rule="nonzero" d="M19.8882007,35.5007678 L19.8882007,35.5007678 L19.8882007,35.5007678 C18.6753746,38.7143924 15.5711254,41 11.9330441,41 C9.67735176,41 7.62687946,40.1213487 6.10521429,38.6876331 C5.78478773,38.3857266 5.35491966,37.8808871 4.81561006,37.1731147 L8.48208218,36.25 L10.7631711,37.5 L15.0932981,35 L15.0932981,30 L10.7631711,27.5 L8.48208218,28.8839746 L4.81561006,27.8762714 C5.33222474,27.1603484 5.75095197,26.6496007 6.07179173,26.344028 C7.5967886,24.8915977 9.66079444,24 11.9330441,24 C15.5715031,24 18.6760191,26.2860822 19.8885784,29.5002331 C21.2937938,29.500078 22.6965975,29.3839004 24.0826935,29.1528844 L25,29 C26.9965869,28.6672355 29.017254,28.5 31.0413813,28.5 L53,28.5 C55.209139,28.5 57,30.290861 57,32.5 C57,34.709139 55.209139,36.5 53,36.5 L31.0413813,36.5 C29.017254,36.5 26.9965869,36.3327645 25,36 L24.0830661,35.8471777 C22.6967358,35.6161226 21.2936537,35.5002568 19.8882007,35.5007678 Z" transform="rotate(45 30.9078 32.5)"/>
    <path id="border" fill-rule="nonzero" stroke="#007AFF" stroke-linecap="round" stroke-linejoin="round" stroke-width="2" d="M19.8882007,35.5007678 L19.8882007,35.5007678 L19.8882007,35.5007678 C18.6753746,38.7143924 15.5711254,41 11.9330441,41 C9.67735176,41 7.62687946,40.1213487 6.10521429,38.6876331 C5.78478773,38.3857266 5.35491966,37.8808871 4.81561006,37.1731147 L8.48208218,36.25 L10.7631711,37.5 L15.0932981,35 L15.0932981,30 L10.7631711,27.5 L8.48208218,28.8839746 L4.81561006,27.8762714 C5.33222474,27.1603484 5.75095197,26.6496007 6.07179173,26.344028 C7.5967886,24.8915977 9.66079444,24 11.9330441,24 C15.5715031,24 18.6760191,26.2860822 19.8885784,29.5002331 C21.2937938,29.500078 22.6965975,29.3839004 24.0826935,29.1528844 L25,29 C26.9965869,28.6672355 29.017254,28.5 31.0413813,28.5 L53,28.5 C55.209139,28.5 57,30.290861 57,32.5 C57,34.709139 55.209139,36.5 53,36.5 L31.0413813,36.5 C29.017254,36.5 26.9965869,36.3327645 25,36 L24.0830661,35.8471777 C22.6967358,35.6161226 21.2936537,35.5002568 19.8882007,35.5007678 Z" transform="rotate(45 30.9078 32.5)"/>
  </g>
</svg>
