<?xml version="1.0" encoding="UTF-8"?>
<svg width="32px" height="32px" viewBox="0 0 32 32" version="1.1" xmlns="http://www.w3.org/2000/svg" xmlns:xlink="http://www.w3.org/1999/xlink">
    <!-- Generator: Sketch Beta 57 (82921) - https://sketch.com -->
    <title>eye-no</title>
    <desc>Created with Sketch Beta.</desc>
    <g id="eye-no" stroke="none" stroke-width="1" fill="none" fill-rule="evenodd">
        <path d="M6,16 C7.16208956,12.5405233 11.419953,10 16,10 C20.580047,10 24.8379104,12.5405233 26,16 C24.8379104,19.4594767 20.580047,22 16,22 C11.419953,22 7.16208956,19.4594767 6,16 Z M16,19 C17.6568542,19 19,17.6568542 19,16 C19,14.3431458 17.6568542,13 16,13 C14.3431458,13 13,14.3431458 13,16 C13,17.6568542 14.3431458,19 16,19 Z" id="fill" fill-opacity="0.184058129" fill="#007AFF" fill-rule="nonzero"></path>
        <path d="M6,16 C7.16208956,12.5405233 11.419953,10 16,10 C20.580047,10 24.8379104,12.5405233 26,16 C24.8379104,19.4594767 20.580047,22 16,22 C11.419953,22 7.16208956,19.4594767 6,16 Z M16,19 C17.6568542,19 19,17.6568542 19,16 C19,14.3431458 17.6568542,13 16,13 C14.3431458,13 13,14.3431458 13,16 C13,17.6568542 14.3431458,19 16,19 Z M24,8 L8,24" id="border" stroke="#007AFF" stroke-linecap="round" stroke-linejoin="round" fill-rule="nonzero"></path>
    </g>
</svg>