<svg width="64px" height="64px" viewBox="0 0 64 64">
  <g id="eye" fill="none" fill-rule="evenodd" stroke="none" stroke-width="1">
    <path id="fill" fill="#007AFF" fill-opacity="0.184058129" fill-rule="nonzero" d="M8,32.5 C10.7890149,24.1395979 21.0078871,18 32,18 C42.9921127,18 53.210985,24.1395979 56,32.5 C53.210985,40.8604021 42.9921127,47 32,47 C21.0078871,47 10.7890149,40.8604021 8,32.5 Z M32,39 C35.8659931,39 39,35.8659931 39,32 C39,28.1340069 35.8659931,25 32,25 C28.1340069,25 25,28.1340069 25,32 C25,35.8659931 28.1340069,39 32,39 Z"/>
    <path id="border" fill-rule="nonzero" stroke="#007AFF" stroke-linecap="round" stroke-linejoin="round" stroke-width="2" d="M8,32.5 C10.7890149,24.1395979 21.0078871,18 32,18 C42.9921127,18 53.210985,24.1395979 56,32.5 C53.210985,40.8604021 42.9921127,47 32,47 C21.0078871,47 10.7890149,40.8604021 8,32.5 Z M32,39 C35.8659931,39 39,35.8659931 39,32 C39,28.1340069 35.8659931,25 32,25 C28.1340069,25 25,28.1340069 25,32 C25,35.8659931 28.1340069,39 32,39 Z"/>
  </g>
</svg>
