<svg width="64px" height="64px" viewBox="0 0 64 64">
  <g id="file-type-image" fill="none" fill-rule="evenodd" stroke="none" stroke-width="1">
    <path id="fill" fill="#007AFF" fill-opacity="0.184058129" fill-rule="nonzero" d="M15,13 L49,13 C50.1045695,13 51,13.8954305 51,15 L51,49 C51,50.1045695 50.1045695,51 49,51 L15,51 C13.8954305,51 13,50.1045695 13,49 L13,15 C13,13.8954305 13.8954305,13 15,13 Z"/>
    <path id="border" fill-rule="nonzero" stroke="#007AFF" stroke-linecap="round" stroke-linejoin="round" stroke-width="2" d="M15,13 L49,13 C50.1045695,13 51,13.8954305 51,15 L51,49 C51,50.1045695 50.1045695,51 49,51 L15,51 C13.8954305,51 13,50.1045695 13,49 L13,15 C13,13.8954305 13.8954305,13 15,13 Z M27,32 C29.7614237,32 32,29.7614237 32,27 C32,24.2385763 29.7614237,22 27,22 C24.2385763,22 22,24.2385763 22,27 C22,29.7614237 24.2385763,32 27,32 Z M15,51 L37,37 L42.5,41 L51,37"/>
  </g>
</svg>
