<svg width="64px" height="64px" viewBox="0 0 64 64">
  <g id="file-type-audio" fill="none" fill-rule="evenodd" stroke="none" stroke-width="1">
    <path id="fill" fill="#007AFF" fill-opacity="0.184058129" fill-rule="nonzero" d="M38,14 C43.4321233,14 51,23.6283086 51,32 C51,40.3716914 43.4321233,50 38,50 C37.4477153,50 37,49.5522847 37,49 C37,48.4477153 37.4477153,48 38,48 C42.0974766,48 49,39.402762 49,32 C49,24.597238 42.0974766,16 38,16 C37.4477153,16 37,15.5522847 37,15 C37,14.4477153 37.4477153,14 38,14 Z M29.4142136,19.4142136 C29.7892863,19.7892863 30,20.2979941 30,20.8284271 L30,43.1715729 C30,44.2761424 29.1045695,45.1715729 28,45.1715729 C27.469567,45.1715729 26.9608592,44.9608592 26.5857864,44.5857864 L20.999,38.9994271 L17,39 C15.8954305,39 15,38.1045695 15,37 L15,27 C15,25.8954305 15.8954305,25 17,25 L20.999,24.9994271 L26.5857864,19.4142136 C27.366835,18.633165 28.633165,18.633165 29.4142136,19.4142136 Z M38,25 C40.3975662,25 42,28.2048675 42,32 C42,35.7951325 40.3975662,39 38,39 C37.4477153,39 37,38.5522847 37,38 C37,37.4477153 37.4477153,37 38,37 C38.9161423,37 40,34.8322845 40,32 C40,29.1677155 38.9161423,27 38,27 C37.4477153,27 37,26.5522847 37,26 C37,25.4477153 37.4477153,25 38,25 Z"/>
    <path id="border" fill-rule="nonzero" stroke="#007AFF" stroke-linecap="round" stroke-linejoin="round" stroke-width="2" d="M29.4142136,19.4142136 C29.7892863,19.7892863 30,20.2979941 30,20.8284271 L30,43.1715729 C30,44.2761424 29.1045695,45.1715729 28,45.1715729 C27.469567,45.1715729 26.9608592,44.9608592 26.5857864,44.5857864 L20.999,38.9994271 L17,39 C15.8954305,39 15,38.1045695 15,37 L15,27 C15,25.8954305 15.8954305,25 17,25 L20.999,24.9994271 L26.5857864,19.4142136 C27.366835,18.633165 28.633165,18.633165 29.4142136,19.4142136 Z M38,38 C39.6568542,38 41,35.3137085 41,32 C41,28.6862915 39.6568542,26 38,26 M38,49 C42.6023729,49 50,40.5 50,32 C50,23.5 42.6023729,15 38,15"/>
  </g>
</svg>
