<?xml version="1.0" encoding="UTF-8"?>
<svg width="64px" height="64px" viewBox="0 0 64 64" version="1.1" xmlns="http://www.w3.org/2000/svg" xmlns:xlink="http://www.w3.org/1999/xlink">
    <!-- Generator: Sketch Beta 57 (82921) - https://sketch.com -->
    <title>file-type-video</title>
    <desc>Created with Sketch Beta.</desc>
    <g id="file-type-video" stroke="none" stroke-width="1" fill="none" fill-rule="evenodd">
        <path d="M17,15 L47,15 C48.1045695,15 49,15.8954305 49,17 L49,47 C49,48.1045695 48.1045695,49 47,49 L17,49 C15.8954305,49 15,48.1045695 15,47 L15,17 C15,15.8954305 15.8954305,15 17,15 Z" id="fill" fill-opacity="0.184058129" fill="#007AFF" fill-rule="nonzero"></path>
        <path d="M17,15 L47,15 C48.1045695,15 49,15.8954305 49,17 L49,47 C49,48.1045695 48.1045695,49 47,49 L17,49 C15.8954305,49 15,48.1045695 15,47 L15,17 C15,15.8954305 15.8954305,15 17,15 Z M24,28 L33,28 C34.1045695,28 35,28.8954305 35,30 L35,35 C35,36.1045695 34.1045695,37 33,37 L24,37 C22.8954305,37 22,36.1045695 22,35 L22,30 C22,28.8954305 22.8954305,28 24,28 Z M35.9792278,30.8506435 L39.7196312,27.7336407 C40.568185,27.0265125 41.8293144,27.1411606 42.5364426,27.9897144 C42.8359676,28.3491444 43,28.8022102 43,29.2700832 L43,35.0884885 C43,36.193058 42.1045695,37.0884885 41,37.0884885 C40.5795777,37.0884885 40.1698466,36.9560003 39.8290189,36.709847 L36.0886155,34.0084445 C35.1931639,33.3617295 34.9915231,32.1115565 35.6382381,31.216105 C35.7361717,31.0805046 35.8507293,30.9577256 35.9792278,30.8506435 Z" id="border" stroke="#007AFF" stroke-width="2" stroke-linecap="round" stroke-linejoin="round" fill-rule="nonzero"></path>
    </g>
</svg>