<?xml version="1.0" encoding="UTF-8"?>
<svg width="64px" height="64px" viewBox="0 0 64 64" version="1.1" xmlns="http://www.w3.org/2000/svg" xmlns:xlink="http://www.w3.org/1999/xlink">
    <!-- Generator: Sketch Beta 57 (82921) - https://sketch.com -->
    <title>file</title>
    <desc>Created with Sketch Beta.</desc>
    <g id="file" stroke="none" stroke-width="1" fill="none" fill-rule="evenodd">
        <path d="M48,49 C48,50.6568542 46.6568542,52 45,52 L21,52 C19.3431458,52 18,50.6568542 18,49 L18,15 C18,13.3431458 19.3431458,12 21,12 L36,12 L36,22 C36,23.1045695 36.8954305,24 38,24 L38,24 L48,24 L48,49 Z M47,23 L37,23 L37,13 L47,23 Z" id="fill" fill-opacity="0.184058129" fill="#007AFF" fill-rule="nonzero"></path>
        <path d="M48,24 L48,50 C48,51.1045695 47.1045695,52 46,52 L20,52 C18.8954305,52 18,51.1045695 18,50 L18,14 C18,12.8954305 18.8954305,12 20,12 L36,12 L36,12 L36,22 C36,23.1045695 36.8954305,24 38,24 L48,24 L48,24 L36,12" id="border" stroke="#007AFF" stroke-width="2" stroke-linecap="round" stroke-linejoin="round" fill-rule="nonzero"></path>
    </g>
</svg>