<svg width="64px" height="64px" viewBox="0 0 64 64">
  <g id="files" fill="none" fill-rule="evenodd" stroke="none" stroke-width="1">
    <path id="fill" fill="#007AFF" fill-opacity="0.184058129" fill-rule="nonzero" d="M34,19 L43,28 L43,49 C43,50.1045695 42.1045695,51 41,51 L22,51 C20.8954305,51 20,50.1045695 20,49 L20,22 C20,20.3431458 21.3431458,19 23,19 L34,19 Z"/>
    <path id="border" fill-rule="nonzero" stroke="#007AFF" stroke-linecap="round" stroke-linejoin="round" stroke-width="2" d="M43,28 L43,49 C43,50.1045695 42.1045695,51 41,51 L22,51 C20.8954305,51 20,50.1045695 20,49 L20,21 C20,19.8954305 20.8954305,19 22,19 L34,19 L34,19 L34,26 C34,27.1045695 34.8954305,28 36,28 L43,28 L43,28 L34,19 M25,13 L36.1715729,13 C36.7020059,13 37.2107137,13.2107137 37.5857864,13.5857864 L47.4142136,23.4142136 C47.7892863,23.7892863 48,24.2979941 48,24.8284271 L48,44 L48,44"/>
  </g>
</svg>
