<?xml version="1.0" encoding="UTF-8"?>
<svg width="64px" height="64px" viewBox="0 0 64 64" version="1.1" xmlns="http://www.w3.org/2000/svg" xmlns:xlink="http://www.w3.org/1999/xlink">
    <!-- Generator: Sketch Beta 57 (82921) - https://sketch.com -->
    <title>file-type-video</title>
    <desc>Created with Sketch Beta.</desc>
    <g id="file-type-video" stroke="none" stroke-width="1" fill="none" fill-rule="evenodd">
        <path d="M17,23 L34,23 C35.1045695,23 36,23.8954305 36,25 L36,39 C36,40.1045695 35.1045695,41 34,41 L17,41 C15.8954305,41 15,40.1045695 15,39 L15,25 C15,23.8954305 15.8954305,23 17,23 Z M40,34 L48.7196312,41.2663593 C49.568185,41.9734875 50.8293144,41.8588394 51.5364426,41.0102856 C51.8359676,40.6508556 52,40.1977898 52,39.7299168 L52,24.2700832 C52,23.1655137 51.1045695,22.2700832 50,22.2700832 C49.532127,22.2700832 49.0790612,22.4341157 48.7196312,22.7336407 L40,30 L40,30 L40,34 Z" id="fill" fill-opacity="0.184058129" fill="#007AFF" fill-rule="nonzero"></path>
        <path d="M17,23 L34,23 C35.1045695,23 36,23.8954305 36,25 L36,39 C36,40.1045695 35.1045695,41 34,41 L17,41 C15.8954305,41 15,40.1045695 15,39 L15,25 C15,23.8954305 15.8954305,23 17,23 Z M40,34 L48.7196312,41.2663593 C49.568185,41.9734875 50.8293144,41.8588394 51.5364426,41.0102856 C51.8359676,40.6508556 52,40.1977898 52,39.7299168 L52,24.2700832 C52,23.1655137 51.1045695,22.2700832 50,22.2700832 C49.532127,22.2700832 49.0790612,22.4341157 48.7196312,22.7336407 L40,30 L40,30 L40,34 Z" id="border" stroke="#007AFF" stroke-width="2" stroke-linecap="round" stroke-linejoin="round" fill-rule="nonzero"></path>
    </g>
</svg>