<svg width="64px" height="64px" viewBox="0 0 64 64">
  <g id="file-type-video" fill="none" fill-rule="evenodd" stroke="none" stroke-width="1">
    <path id="fill" fill="#007AFF" fill-opacity="0.184058129" fill-rule="nonzero" d="M15,21.7299168 L33,21.7299168 C34.1045695,21.7299168 35,22.6253473 35,23.7299168 L35,39.7299168 C35,40.8344863 34.1045695,41.7299168 33,41.7299168 L15,41.7299168 C13.8954305,41.7299168 13,40.8344863 13,39.7299168 L13,23.7299168 C13,22.6253473 13.8954305,21.7299168 15,21.7299168 Z M39,33.7299168 L47.8905996,39.6569832 C48.809657,40.2696881 50.0513957,40.0213404 50.6641006,39.102283 C50.8831239,38.7737479 51,38.3877326 51,37.9928826 L51,25.466951 C51,24.3623815 50.1045695,23.466951 49,23.466951 C48.60515,23.466951 48.2191346,23.583827 47.8905996,23.8028504 L39,29.7299168 L39,29.7299168 L39,33.7299168 Z"/>
    <path id="border" fill-rule="nonzero" stroke="#007AFF" stroke-linecap="round" stroke-linejoin="round" stroke-width="2" d="M15,21.7299168 L33,21.7299168 C34.1045695,21.7299168 35,22.6253473 35,23.7299168 L35,39.7299168 C35,40.8344863 34.1045695,41.7299168 33,41.7299168 L15,41.7299168 C13.8954305,41.7299168 13,40.8344863 13,39.7299168 L13,23.7299168 C13,22.6253473 13.8954305,21.7299168 15,21.7299168 Z M39,33.7299168 L47.8905996,39.6569832 C48.809657,40.2696881 50.0513957,40.0213404 50.6641006,39.102283 C50.8831239,38.7737479 51,38.3877326 51,37.9928826 L51,25.466951 C51,24.3623815 50.1045695,23.466951 49,23.466951 C48.60515,23.466951 48.2191346,23.583827 47.8905996,23.8028504 L39,29.7299168 L39,29.7299168 L39,33.7299168 Z"/>
  </g>
</svg>
