<?xml version="1.0" encoding="UTF-8"?>
<svg width="64px" height="64px" viewBox="0 0 64 64" version="1.1" xmlns="http://www.w3.org/2000/svg" xmlns:xlink="http://www.w3.org/1999/xlink">
    <!-- Generator: Sketch Beta 57 (82921) - https://sketch.com -->
    <title>file-type-audio</title>
    <desc>Created with Sketch Beta.</desc>
    <g id="file-type-audio" stroke="none" stroke-width="1" fill="none" fill-rule="evenodd">
        <path d="M40,15 C45.4321233,15 51,23.6283086 51,32 C51,40.3716914 45.4321233,49 40,49 C39.4477153,49 39,48.5522847 39,48 C39,47.4477153 39.4477153,47 40,47 C44.0974766,47 49,39.402762 49,32 C49,24.597238 44.0974766,17 40,17 C39.4477153,17 39,16.5522847 39,16 C39,15.4477153 39.4477153,15 40,15 Z M31.4142136,19.4142136 C31.7892863,19.7892863 32,20.2979941 32,20.8284271 L32,43.1715729 C32,44.2761424 31.1045695,45.1715729 30,45.1715729 C29.469567,45.1715729 28.9608592,44.9608592 28.5857864,44.5857864 L22.999,38.9994271 L19,39 C17.8954305,39 17,38.1045695 17,37 L17,27 C17,25.8954305 17.8954305,25 19,25 L22.999,24.9994271 L28.5857864,19.4142136 C29.366835,18.633165 30.633165,18.633165 31.4142136,19.4142136 Z M40,25 C42.3975662,25 44,28.2048675 44,32 C44,35.7951325 42.3975662,39 40,39 C39.4477153,39 39,38.5522847 39,38 C39,37.4477153 39.4477153,37 40,37 C40.9161423,37 42,34.8322845 42,32 C42,29.1677155 40.9161423,27 40,27 C39.4477153,27 39,26.5522847 39,26 C39,25.4477153 39.4477153,25 40,25 Z" id="fill" fill-opacity="0.184058129" fill="#007AFF" fill-rule="nonzero"></path>
        <path d="M31.4142136,19.4142136 C31.7892863,19.7892863 32,20.2979941 32,20.8284271 L32,43.1715729 C32,44.2761424 31.1045695,45.1715729 30,45.1715729 C29.469567,45.1715729 28.9608592,44.9608592 28.5857864,44.5857864 L22.999,38.9994271 L19,39 C17.8954305,39 17,38.1045695 17,37 L17,27 C17,25.8954305 17.8954305,25 19,25 L22.999,24.9994271 L28.5857864,19.4142136 C29.366835,18.633165 30.633165,18.633165 31.4142136,19.4142136 Z M40,38 C41.6568542,38 43,35.3137085 43,32 C43,28.6862915 41.6568542,26 40,26 M40,48 C44.6023729,48 50,40.1389332 50,32 C50,23.8610668 44.6023729,16 40,16" id="border" stroke="#007AFF" stroke-width="2" stroke-linecap="round" stroke-linejoin="round" fill-rule="nonzero"></path>
    </g>
</svg>