<?xml version="1.0" encoding="UTF-8"?>
<svg width="64px" height="64px" viewBox="0 0 64 64" version="1.1" xmlns="http://www.w3.org/2000/svg" xmlns:xlink="http://www.w3.org/1999/xlink">
    <!-- Generator: Sketch Beta 57 (82921) - https://sketch.com -->
    <title>file-type-audio</title>
    <desc>Created with Sketch Beta.</desc>
    <g id="file-type-audio" stroke="none" stroke-width="1" fill="none" fill-rule="evenodd">
        <path d="M17,15 L47,15 C48.1045695,15 49,15.8954305 49,17 L49,47 C49,48.1045695 48.1045695,49 47,49 L17,49 C15.8954305,49 15,48.1045695 15,47 L15,17 C15,15.8954305 15.8954305,15 17,15 Z" id="fill" fill-opacity="0.184058129" fill="#007AFF" fill-rule="nonzero"></path>
        <path d="M17,15 L47,15 C48.1045695,15 49,15.8954305 49,17 L49,47 C49,48.1045695 48.1045695,49 47,49 L17,49 C15.8954305,49 15,48.1045695 15,47 L15,17 C15,15.8954305 15.8954305,15 17,15 Z M32.6742513,25.6019846 C32.886806,25.9272708 33,26.3074309 33,26.696006 L33,38.303994 C33,39.4085635 32.1045695,40.303994 31,40.303994 C30.6114249,40.303994 30.2312648,40.1908 29.9059787,39.9782453 L25.347,36.9997763 L23,37 C21.8954305,37 21,36.1045695 21,35 L21,30 C21,28.8954305 21.8954305,28 23,28 L25.347,27.9997763 L29.9059787,25.0217547 C30.8306421,24.4175434 32.07004,24.6773212 32.6742513,25.6019846 Z M37,36 C38.1045695,36 39,34.4329966 39,32.5 C39,30.5670034 38.1045695,29 37,29 M38,42 C40.7614237,42 44,37.3324916 44,32.5 C44,27.6675084 40.7614237,23 38,23" id="border" stroke="#007AFF" stroke-width="2" stroke-linecap="round" stroke-linejoin="round" fill-rule="nonzero"></path>
    </g>
</svg>