<svg width="64px" height="64px" viewBox="0 0 64 64">
  <g id="file" fill="none" fill-rule="evenodd" stroke="none" stroke-width="1">
    <path id="fill" fill="#007AFF" fill-opacity="0.184058129" fill-rule="nonzero" d="M48,50 C48,51.6568542 46.6568542,53 45,53 L19,53 C17.3431458,53 16,51.6568542 16,50 L16,14 C16,12.3431458 17.3431458,11 19,11 L36,11 L36,21 C36,22.0543618 36.8158778,22.9181651 37.8507377,22.9945143 L38,23 L48,23 L48,50 Z M47,22 L37,22 L37,12 L47,22 Z"/>
    <path id="border" fill-rule="nonzero" stroke="#007AFF" stroke-linecap="round" stroke-linejoin="round" stroke-width="2" d="M48,51 C48,52.1045695 47.1045695,53 46,53 L18,53 C16.8954305,53 16,52.1045695 16,51 L16,13 C16,11.8954305 16.8954305,11 18,11 L36,11 L36,21 C36,22.1045695 36.8954305,23 38,23 L48,23 L48,51 Z M36,11 L48,23"/>
  </g>
</svg>
