<svg width="64px" height="64px" viewBox="0 0 64 64">
  <g id="flag" fill="none" fill-rule="evenodd" stroke="none" stroke-width="1">
    <path id="fill" fill="#007AFF" fill-opacity="0.184058129" fill-rule="nonzero" d="M48,17 C48,21.4401914 48,31.430622 48,34.7607656 C34.8852459,34.7607656 35.1147541,37.9993828 22,37.9993828 C22,32.4491435 22,25.7888564 22,20.2386172 C35.1147541,20.2386172 34.8852459,17 48,17 Z"/>
    <path id="border" fill-rule="nonzero" stroke="#007AFF" stroke-linecap="round" stroke-linejoin="round" stroke-width="2" d="M48,18.0374041 C48,18.0438978 48,18.0503386 48,18.0567264 C48,22.4328175 48,30.1639593 48,33.8736737 C48,33.8736737 48,33.8736737 48,33.8736737 C48,34.4545334 47.5331593,34.9275346 46.9523492,34.9351195 C46.9426461,34.9352467 46.9331449,34.9353751 46.9238456,34.9355049 C35.1865977,35.0992488 34.8565942,37.8531807 23.0491803,38 C23.0491803,38 23.0491803,38 23.0491803,38 C22.4768788,38.0071163 22.0071678,37.5489431 22.0000515,36.9766415 C21.9999981,36.9723466 21.9999714,36.9680515 22,36.9637563 C22,36.9576187 22,36.9515455 22,36.9455368 C22,31.9583624 22,26.1121817 22,21.1285895 C22,21.1285895 22,21.1285895 22,21.1285895 C22,20.5516622 22.4636388,20.0818414 23.0405162,20.0742434 C23.0434231,20.0742049 23.0463112,20.0741659 23.0491803,20.0741264 C34.7766951,19.9126962 35.2090724,17.1600302 46.9508197,17.0022632 C46.9508197,17.0022632 46.9508197,17.0022632 46.9508197,17.0022632 C47.5225122,16.9945817 47.9921876,17.451803 47.9998691,18.0234955 C47.9999314,18.0281314 47.9999625,18.0327677 48,18.0374041 Z M16,20 L16,48"/>
  </g>
</svg>
