<svg width="64px" height="64px" viewBox="0 0 64 64">
  <g id="folder" fill="none" fill-rule="evenodd" stroke="none" stroke-width="1">
    <path id="fill" fill="#007AFF" fill-opacity="0.184058129" fill-rule="nonzero" d="M13,18 C13,16.8954305 13.8954305,16 15,16 L28,16 L32,20 L49,20 C50.1045695,20 51,20.8954305 51,22 L51,42 C51,43.1045695 50.1045695,44 49,44 L15,44 C13.8954305,44 13,43.1045695 13,42 L13,18 Z"/>
    <path id="border" fill-rule="nonzero" stroke="#007AFF" stroke-linecap="round" stroke-linejoin="round" stroke-width="2" d="M13,18 C13,16.8954305 13.8954305,16 15,16 L28,16 L32,20 L49,20 C50.1045695,20 51,20.8954305 51,22 L51,42 C51,43.1045695 50.1045695,44 49,44 L15,44 C13.8954305,44 13,43.1045695 13,42 L13,18 Z"/>
  </g>
</svg>
