<svg width="64px" height="64px" viewBox="0 0 64 64">
  <g id="folder-open" fill="none" fill-rule="evenodd" stroke="none" stroke-width="1">
    <path id="fill" fill="#007AFF" fill-opacity="0.184058129" fill-rule="nonzero" d="M16,48 C14.8954305,48 14,47.1045695 14,46 L14,26 C14,24.8954305 14.8954305,24 16,24 L26,24 L29,27 L45,27 C46.1045695,27 47,27.8954305 47,29 L47,33 L53,33 L47,45.857 L47,48 L16,48 Z"/>
    <path id="border" fill-rule="nonzero" stroke="#007AFF" stroke-linecap="round" stroke-linejoin="round" stroke-width="2" d="M46,48 L16,48 C14.8954305,48 14,47.1045695 14,46 L14,26 C14,24.8954305 14.8954305,24 16,24 L26,24 L29,27 L45,27 C46.1045695,27 47,27.8954305 47,29 C47,30.7777778 47,31.1111111 47,32 M15,47 L20.5,33 L53,33 L46,48 M42,19 L47,13 M21,19 L17,13 M32,12 L32,18 L32,12 Z"/>
  </g>
</svg>
