<?xml version="1.0" encoding="UTF-8"?>
<svg width="64px" height="64px" viewBox="0 0 64 64" version="1.1" xmlns="http://www.w3.org/2000/svg" xmlns:xlink="http://www.w3.org/1999/xlink">
    <!-- Generator: Sketch 55.2 (78181) - https://sketchapp.com -->
    <title>icons/github</title>
    <desc>Created with Sketch.</desc>
    <g id="icons/github" stroke="none" stroke-width="1" fill="none" fill-rule="evenodd">
        <path d="M32,17.6604362 C23.1644444,17.6604362 16,24.5464831 16,33.0387048 C16,39.839317 20.5866667,45.5976242 26.9511111,47.6309731 C27.7511111,47.7676688 28.0355556,47.2892338 28.0355556,46.8962336 C28.0355556,46.5374073 28.0177778,45.5634503 28.0177778,44.2819279 C23.5733333,45.204624 22.6311111,42.2144051 22.6311111,42.2144051 C21.9022222,40.4373607 20.8533333,39.9589257 20.8533333,39.9589257 C19.3955556,39.0191426 20.96,39.0191426 20.96,39.0191426 C22.56,39.1216644 23.4133333,40.6082304 23.4133333,40.6082304 C24.8355556,42.9491446 27.1644444,42.282753 28.0711111,41.8897528 C28.2133333,40.8987088 28.6222222,40.2152302 29.0844444,39.839317 C25.5288889,39.4463168 21.7955556,38.1306204 21.7955556,32.2356175 C21.7955556,30.5610949 22.4177778,29.1770507 23.4488889,28.1005719 C23.2888889,27.7075717 22.7377778,26.1526579 23.6088889,24.0338742 C23.6088889,24.0338742 24.96,23.623787 28,25.605875 C29.28,25.2641357 30.6488889,25.093266 32,25.093266 C33.3511111,25.093266 34.72,25.2641357 36,25.605875 C39.0577778,23.6067001 40.3911111,24.0338742 40.3911111,24.0338742 C41.2622222,26.1526579 40.7111111,27.7075717 40.5511111,28.1005719 C41.5822222,29.1770507 42.1866667,30.5440079 42.1866667,32.2356175 C42.1866667,38.1477074 38.4533333,39.4463168 34.88,39.82223 C35.4488889,40.300665 35.9644444,41.2404481 35.9644444,42.6757532 C35.9644444,44.726189 35.9466667,46.3836246 35.9466667,46.8962336 C35.9466667,47.3063207 36.2311111,47.7847558 37.0488889,47.6309731 C43.4133333,45.5976242 48,39.839317 48,33.0387048 C48,24.5464831 40.8355556,17.6604362 32,17.6604362 L32,17.6604362 Z" id="fill" fill-opacity="0.184058129" fill="#007AFF" fill-rule="nonzero"></path>
        <path d="M32,17.6604362 C23.1644444,17.6604362 16,24.5464831 16,33.0387048 C16,39.839317 20.5866667,45.5976242 26.9511111,47.6309731 C27.7511111,47.7676688 28.0355556,47.2892338 28.0355556,46.8962336 C28.0355556,46.5374073 28.0177778,45.5634503 28.0177778,44.2819279 C23.5733333,45.204624 22.6311111,42.2144051 22.6311111,42.2144051 C21.9022222,40.4373607 20.8533333,39.9589257 20.8533333,39.9589257 C19.3955556,39.0191426 20.96,39.0191426 20.96,39.0191426 C22.56,39.1216644 23.4133333,40.6082304 23.4133333,40.6082304 C24.8355556,42.9491446 27.1644444,42.282753 28.0711111,41.8897528 C28.2133333,40.8987088 28.6222222,40.2152302 29.0844444,39.839317 C25.5288889,39.4463168 21.7955556,38.1306204 21.7955556,32.2356175 C21.7955556,30.5610949 22.4177778,29.1770507 23.4488889,28.1005719 C23.2888889,27.7075717 22.7377778,26.1526579 23.6088889,24.0338742 C23.6088889,24.0338742 24.96,23.623787 28,25.605875 C29.28,25.2641357 30.6488889,25.093266 32,25.093266 C33.3511111,25.093266 34.72,25.2641357 36,25.605875 C39.0577778,23.6067001 40.3911111,24.0338742 40.3911111,24.0338742 C41.2622222,26.1526579 40.7111111,27.7075717 40.5511111,28.1005719 C41.5822222,29.1770507 42.1866667,30.5440079 42.1866667,32.2356175 C42.1866667,38.1477074 38.4533333,39.4463168 34.88,39.82223 C35.4488889,40.300665 35.9644444,41.2404481 35.9644444,42.6757532 C35.9644444,44.726189 35.9466667,46.3836246 35.9466667,46.8962336 C35.9466667,47.3063207 36.2311111,47.7847558 37.0488889,47.6309731 C43.4133333,45.5976242 48,39.839317 48,33.0387048 C48,24.5464831 40.8355556,17.6604362 32,17.6604362 L32,17.6604362 Z" id="border" stroke="#007AFF" stroke-width="2" stroke-linecap="round" stroke-linejoin="round" fill-rule="nonzero"></path>
    </g>
</svg>