<svg width="64px" height="64px" viewBox="0 0 64 64">
  <g id="github" fill="none" fill-rule="evenodd" stroke="none" stroke-width="1">
    <path id="fill" fill="#007AFF" fill-opacity="0.184058129" fill-rule="nonzero" d="M31.9917714,8 C18.745382,8 8.00434599,18.6862989 8.00434599,31.8651837 C8.00434599,42.4188983 14.8807413,51.3550838 24.422406,54.5105914 C25.6217773,54.7227264 26.0482204,53.980254 26.0482204,53.370366 C26.0482204,52.8135117 26.0215677,51.3020501 26.0215677,49.3132847 C19.358394,50.7451958 17.9458012,46.1047434 17.9458012,46.1047434 C16.8530407,43.3469888 15.2805317,42.6045164 15.2805317,42.6045164 C13.0950107,41.1460885 15.4404479,41.1460885 15.4404479,41.1460885 C17.8391904,41.3051898 19.1185197,43.6121575 19.1185197,43.6121575 C21.2507353,47.2449688 24.7422384,46.2108109 26.1015258,45.6009228 C26.3147473,44.0629443 26.9277593,43.0022695 27.6207294,42.4188983 C22.2901904,41.8090103 16.6931245,39.7672112 16.6931245,30.6188908 C16.6931245,28.0202375 17.6259688,25.8723709 19.1718251,24.2018081 C18.9319509,23.59192 18.1057173,21.1788848 19.4116994,17.8907928 C19.4116994,17.8907928 21.4373042,17.2543879 25.994915,20.3303449 C27.913909,19.8000075 29.9661665,19.5348388 31.9917714,19.5348388 C34.0173762,19.5348388 36.0696337,19.8000075 37.9886277,20.3303449 C42.5728912,17.227871 44.5718433,17.8907928 44.5718433,17.8907928 C45.8778254,21.1788848 45.0515918,23.59192 44.8117176,24.2018081 C46.3575739,25.8723709 47.2637655,27.9937206 47.2637655,30.6188908 C47.2637655,39.7937281 41.6666996,41.8090103 36.3095079,42.3923815 C37.1623942,43.1348538 37.9353223,44.5932817 37.9353223,46.8206989 C37.9353223,50.0027234 37.9086696,52.5748599 37.9086696,53.370366 C37.9086696,54.0067709 38.3351127,54.7492433 39.5611367,54.5105914 C49.1028014,51.3550838 55.9791967,42.4188983 55.9791967,31.8651837 C55.9791967,18.6862989 45.2381607,8 31.9917714,8 L31.9917714,8 Z"/>
    <path id="border" fill-rule="nonzero" stroke="#007AFF" stroke-linecap="round" stroke-linejoin="round" stroke-width="2" d="M31.9917714,8 C18.745382,8 8.00434599,18.6862989 8.00434599,31.8651837 C8.00434599,42.4188983 14.8807413,51.3550838 24.422406,54.5105914 C25.6217773,54.7227264 26.0482204,53.980254 26.0482204,53.370366 C26.0482204,52.8135117 26.0215677,51.3020501 26.0215677,49.3132847 C19.358394,50.7451958 17.9458012,46.1047434 17.9458012,46.1047434 C16.8530407,43.3469888 15.2805317,42.6045164 15.2805317,42.6045164 C13.0950107,41.1460885 15.4404479,41.1460885 15.4404479,41.1460885 C17.8391904,41.3051898 19.1185197,43.6121575 19.1185197,43.6121575 C21.2507353,47.2449688 24.7422384,46.2108109 26.1015258,45.6009228 C26.3147473,44.0629443 26.9277593,43.0022695 27.6207294,42.4188983 C22.2901904,41.8090103 16.6931245,39.7672112 16.6931245,30.6188908 C16.6931245,28.0202375 17.6259688,25.8723709 19.1718251,24.2018081 C18.9319509,23.59192 18.1057173,21.1788848 19.4116994,17.8907928 C19.4116994,17.8907928 21.4373042,17.2543879 25.994915,20.3303449 C27.913909,19.8000075 29.9661665,19.5348388 31.9917714,19.5348388 C34.0173762,19.5348388 36.0696337,19.8000075 37.9886277,20.3303449 C42.5728912,17.227871 44.5718433,17.8907928 44.5718433,17.8907928 C45.8778254,21.1788848 45.0515918,23.59192 44.8117176,24.2018081 C46.3575739,25.8723709 47.2637655,27.9937206 47.2637655,30.6188908 C47.2637655,39.7937281 41.6666996,41.8090103 36.3095079,42.3923815 C37.1623942,43.1348538 37.9353223,44.5932817 37.9353223,46.8206989 C37.9353223,50.0027234 37.9086696,52.5748599 37.9086696,53.370366 C37.9086696,54.0067709 38.3351127,54.7492433 39.5611367,54.5105914 C49.1028014,51.3550838 55.9791967,42.4188983 55.9791967,31.8651837 C55.9791967,18.6862989 45.2381607,8 31.9917714,8 L31.9917714,8 Z"/>
  </g>
</svg>
