<?xml version="1.0" encoding="UTF-8"?>
<svg width="64px" height="64px" viewBox="0 0 64 64" version="1.1" xmlns="http://www.w3.org/2000/svg" xmlns:xlink="http://www.w3.org/1999/xlink">
    <!-- Generator: Sketch Beta 57 (82921) - https://sketch.com -->
    <title>github</title>
    <desc>Created with Sketch Beta.</desc>
    <g id="github" stroke="none" stroke-width="1" fill="none" fill-rule="evenodd">
        <path d="M32,13 C20.9555556,13 12,21.7236924 12,32.4821915 C12,41.0976496 17.7333333,48.3926479 25.6888889,50.9686266 C26.6888889,51.1418016 27.0444444,50.535689 27.0444444,50.0378108 C27.0444444,49.5832263 27.0222222,48.3493542 27.0222222,46.7258382 C21.4666667,47.8947697 20.2888889,44.1065658 20.2888889,44.1065658 C19.3777778,41.8552903 18.0666667,41.2491777 18.0666667,41.2491777 C16.2444444,40.0585993 18.2,40.0585993 18.2,40.0585993 C20.2,40.1884806 21.2666667,42.0717591 21.2666667,42.0717591 C23.0444444,45.0373816 25.9555556,44.1931533 27.0888889,43.6952751 C27.2666667,42.4397561 27.7777778,41.5738809 28.3555556,41.0976496 C23.9111111,40.5997713 19.2444444,38.9329616 19.2444444,31.4647882 C19.2444444,29.343394 20.0222222,27.5899968 21.3111111,26.2262434 C21.1111111,25.7283651 20.4222222,23.7584991 21.5111111,21.074286 C21.5111111,21.074286 23.2,20.5547609 27,23.065799 C28.6,22.6328614 30.3111111,22.4163926 32,22.4163926 C33.6888889,22.4163926 35.4,22.6328614 37,23.065799 C40.8222222,20.5331141 42.4888889,21.074286 42.4888889,21.074286 C43.5777778,23.7584991 42.8888889,25.7283651 42.6888889,26.2262434 C43.9777778,27.5899968 44.7333333,29.3217471 44.7333333,31.4647882 C44.7333333,38.9546085 40.0666667,40.5997713 35.6,41.0760027 C36.3111111,41.6821153 36.9555556,42.8726937 36.9555556,44.6910316 C36.9555556,47.2886571 36.9333333,49.3884044 36.9333333,50.0378108 C36.9333333,50.5573359 37.2888889,51.1634485 38.3111111,50.9686266 C46.2666667,48.3926479 52,41.0976496 52,32.4821915 C52,21.7236924 43.0444444,13 32,13 L32,13 Z" id="fill" fill-opacity="0.184058129" fill="#007AFF" fill-rule="nonzero"></path>
        <path d="M32,13 C20.9555556,13 12,21.7236924 12,32.4821915 C12,41.0976496 17.7333333,48.3926479 25.6888889,50.9686266 C26.6888889,51.1418016 27.0444444,50.535689 27.0444444,50.0378108 C27.0444444,49.5832263 27.0222222,48.3493542 27.0222222,46.7258382 C21.4666667,47.8947697 20.2888889,44.1065658 20.2888889,44.1065658 C19.3777778,41.8552903 18.0666667,41.2491777 18.0666667,41.2491777 C16.2444444,40.0585993 18.2,40.0585993 18.2,40.0585993 C20.2,40.1884806 21.2666667,42.0717591 21.2666667,42.0717591 C23.0444444,45.0373816 25.9555556,44.1931533 27.0888889,43.6952751 C27.2666667,42.4397561 27.7777778,41.5738809 28.3555556,41.0976496 C23.9111111,40.5997713 19.2444444,38.9329616 19.2444444,31.4647882 C19.2444444,29.343394 20.0222222,27.5899968 21.3111111,26.2262434 C21.1111111,25.7283651 20.4222222,23.7584991 21.5111111,21.074286 C21.5111111,21.074286 23.2,20.5547609 27,23.065799 C28.6,22.6328614 30.3111111,22.4163926 32,22.4163926 C33.6888889,22.4163926 35.4,22.6328614 37,23.065799 C40.8222222,20.5331141 42.4888889,21.074286 42.4888889,21.074286 C43.5777778,23.7584991 42.8888889,25.7283651 42.6888889,26.2262434 C43.9777778,27.5899968 44.7333333,29.3217471 44.7333333,31.4647882 C44.7333333,38.9546085 40.0666667,40.5997713 35.6,41.0760027 C36.3111111,41.6821153 36.9555556,42.8726937 36.9555556,44.6910316 C36.9555556,47.2886571 36.9333333,49.3884044 36.9333333,50.0378108 C36.9333333,50.5573359 37.2888889,51.1634485 38.3111111,50.9686266 C46.2666667,48.3926479 52,41.0976496 52,32.4821915 C52,21.7236924 43.0444444,13 32,13 L32,13 Z" id="border" stroke="#007AFF" stroke-width="2" stroke-linecap="round" stroke-linejoin="round" fill-rule="nonzero"></path>
    </g>
</svg>