<svg width="64px" height="64px" viewBox="0 0 64 64">
  <g id="globe" fill="none" fill-rule="evenodd" stroke="none" stroke-width="1">
    <path id="fill" fill="#007AFF" fill-opacity="0.184058129" fill-rule="nonzero" d="M32,13 C42.4934102,13 51,21.5065898 51,32 C51,42.4934102 42.4934102,51 32,51 C21.5065898,51 13,42.4934102 13,32 C13,21.5065898 21.5065898,13 32,13 Z"/>
    <path id="border" fill-rule="nonzero" stroke="#007AFF" stroke-linecap="round" stroke-linejoin="round" stroke-width="2" d="M32,13 C42.4934102,13 51,21.5065898 51,32 C51,42.4934102 42.4934102,51 32,51 C21.5065898,51 13,42.4934102 13,32 C13,21.5065898 21.5065898,13 32,13 Z M17,32 L47,32 M20.0485852,22.8840913 C24.0323901,23.6280304 28.0161951,24 32,24 C35.9776849,24 39.9553698,23.6291724 43.9330547,22.8875172 M20.0414839,41.1172352 C24.0276559,40.3724117 28.013828,40 32,40 C35.9576208,40 39.9152417,40.367096 43.8728625,41.101288 M37.4316174,18.0504098 C39.0111267,21.5211922 40,26.4863267 40,32 C40,37.5589405 38.9948228,42.5602981 37.3925949,46.0347727 M26.6336831,46.0915053 C25.0161754,42.6148552 24,37.5892694 24,32 C24,26.512584 24.9794772,21.5684947 26.545857,18.1000971"/>
  </g>
</svg>
