<?xml version="1.0" encoding="UTF-8"?>
<svg width="64px" height="64px" viewBox="0 0 64 64" version="1.1" xmlns="http://www.w3.org/2000/svg" xmlns:xlink="http://www.w3.org/1999/xlink">
    <!-- Generator: Sketch Beta 57 (82921) - https://sketch.com -->
    <title>grid</title>
    <desc>Created with Sketch Beta.</desc>
    <g id="grid" stroke="none" stroke-width="1" fill="none" fill-rule="evenodd">
        <path d="M18,16 L26,16 C27.1045695,16 28,16.8954305 28,18 L28,26 C28,27.1045695 27.1045695,28 26,28 L18,28 C16.8954305,28 16,27.1045695 16,26 L16,18 C16,16.8954305 16.8954305,16 18,16 Z M38,16 L46,16 C47.1045695,16 48,16.8954305 48,18 L48,26 C48,27.1045695 47.1045695,28 46,28 L38,28 C36.8954305,28 36,27.1045695 36,26 L36,18 C36,16.8954305 36.8954305,16 38,16 Z M38,36 L46,36 C47.1045695,36 48,36.8954305 48,38 L48,46 C48,47.1045695 47.1045695,48 46,48 L38,48 C36.8954305,48 36,47.1045695 36,46 L36,38 C36,36.8954305 36.8954305,36 38,36 Z M18,36 L26,36 C27.1045695,36 28,36.8954305 28,38 L28,46 C28,47.1045695 27.1045695,48 26,48 L18,48 C16.8954305,48 16,47.1045695 16,46 L16,38 C16,36.8954305 16.8954305,36 18,36 Z" id="fill" fill-opacity="0.184058129" fill="#007AFF" fill-rule="nonzero"></path>
        <path d="M18,16 L26,16 C27.1045695,16 28,16.8954305 28,18 L28,26 C28,27.1045695 27.1045695,28 26,28 L18,28 C16.8954305,28 16,27.1045695 16,26 L16,18 C16,16.8954305 16.8954305,16 18,16 Z M38,16 L46,16 C47.1045695,16 48,16.8954305 48,18 L48,26 C48,27.1045695 47.1045695,28 46,28 L38,28 C36.8954305,28 36,27.1045695 36,26 L36,18 C36,16.8954305 36.8954305,16 38,16 Z M38,36 L46,36 C47.1045695,36 48,36.8954305 48,38 L48,46 C48,47.1045695 47.1045695,48 46,48 L38,48 C36.8954305,48 36,47.1045695 36,46 L36,38 C36,36.8954305 36.8954305,36 38,36 Z M18,36 L26,36 C27.1045695,36 28,36.8954305 28,38 L28,46 C28,47.1045695 27.1045695,48 26,48 L18,48 C16.8954305,48 16,47.1045695 16,46 L16,38 C16,36.8954305 16.8954305,36 18,36 Z" id="border" stroke="#007AFF" stroke-width="2" stroke-linecap="round" stroke-linejoin="round" fill-rule="nonzero"></path>
    </g>
</svg>