<?xml version="1.0" encoding="UTF-8"?>
<svg width="64px" height="64px" viewBox="0 0 64 64" version="1.1" xmlns="http://www.w3.org/2000/svg" xmlns:xlink="http://www.w3.org/1999/xlink">
    <!-- Generator: Sketch Beta 57 (82921) - https://sketch.com -->
    <title>group</title>
    <desc>Created with Sketch Beta.</desc>
    <g id="group" stroke="none" stroke-width="1" fill="none" fill-rule="evenodd">
        <path d="M28.9938468,16 C31.1057264,16 32.7401648,16.408876 33.8971619,17.2266279 C34.6741806,17.0755531 35.5396502,17 36.4931875,17 C41.6643958,17 44.25,19.2142857 44.25,23.6428571 C44.25,30.2857143 40.9285714,32.0921053 40.9285714,34.7142857 C40.9285714,36.0253759 52,38.1231203 52,44.6785714 C52,45.9896617 44.0315794,48 36.5,48 C28.9684206,48 21,45.9896617 21,44.6785714 C21,44.1922028 21.0609438,43.7303721 21.1737882,43.29158 C17.6114179,42.655793 15,41.7133174 15,41 C15,35.0789474 25,33.1842105 25,32 C25,29.631579 22,28 22,22 C22,18 24.3312823,16 28.9938468,16 Z" id="fill" fill-opacity="0.184058129" fill="#007AFF" fill-rule="nonzero"></path>
        <path d="M28.9938468,16 C31.1057264,16 32.7401648,16.408876 33.8971619,17.2266279 C34.6741806,17.0755531 35.5396502,17 36.4931875,17 C41.6643958,17 44.25,19.2142857 44.25,23.6428571 C44.25,30.2857143 40.9285714,32.0921053 40.9285714,34.7142857 C40.9285714,36.0253759 52,38.1231203 52,44.6785714 C52,45.9896617 44.0315794,48 36.5,48 C28.9684206,48 21,45.9896617 21,44.6785714 C21,44.1922028 21.0609438,43.7303721 21.1737882,43.29158 C17.6114179,42.655793 15,41.7133174 15,41 C15,35.0789474 25,33.1842105 25,32 C25,29.631579 22,28 22,22 C22,18 24.3312823,16 28.9938468,16 Z M36.5,48 C28.9684206,48 21,45.9896617 21,44.6785714 C21,38.1231203 32.0714286,36.0253759 32.0714286,34.7142857 C32.0714286,32.0921053 28.75,30.2857143 28.75,23.6428571 C28.75,19.2142857 31.3310625,17 36.4931875,17 C41.6643958,17 44.25,19.2142857 44.25,23.6428571 C44.25,30.2857143 40.9285714,32.0921053 40.9285714,34.7142857 C40.9285714,36.0253759 52,38.1231203 52,44.6785714 C52,45.9896617 44.0315794,48 36.5,48 Z" id="border" stroke="#007AFF" stroke-width="2" stroke-linecap="round" stroke-linejoin="round" fill-rule="nonzero"></path>
    </g>
</svg>