<svg width="64px" height="64px" viewBox="0 0 64 64">
  <g id="group-circle" fill="none" fill-rule="evenodd" stroke="none" stroke-width="1">
    <path id="fill" fill="#007AFF" fill-opacity="0.184058129" fill-rule="nonzero" d="M39.1806693,19.1304348 C42.3029767,19.1304348 43.8641304,20.4673913 43.8641304,23.1413043 C43.8641304,27.1521739 41.8586957,28.242849 41.8586957,29.826087 C41.8586957,30.6177059 48.5434783,31.8842963 48.5434783,35.8423913 C48.5434783,36.4223484 45.9611273,37.2289131 42.7920276,37.6187673 C44.4872092,38.7573014 45.8695652,40.2621308 45.8695652,42.3043478 C45.8695652,43.3598398 39.2254894,44.9782609 32.9456522,44.9782609 C26.665815,44.9782609 20.0217391,43.3598398 20.0217391,42.3043478 C20.0217391,41.1329696 20.4765286,40.1383897 21.1842186,39.2882913 C18.0313891,38.8366905 15.5652174,38.0271421 15.5652174,37.4340062 C15.5652174,33.0989498 22.886646,31.7117318 22.886646,30.8447205 C22.886646,29.1106979 20.6902174,27.9161491 20.6902174,23.5232919 C20.6902174,20.5947205 22.3970491,19.1304348 25.8107124,19.1304348 C27.6696853,19.1304348 29.0233785,19.5631514 29.8717918,20.4285846 C30.7306023,20.1571863 31.7535264,20.0217391 32.9399719,20.0217391 C33.9037265,20.0217391 34.7597729,20.1107986 35.5081112,20.2889176 C36.2815764,19.5162937 37.5062364,19.1304348 39.1806693,19.1304348 Z"/>
    <path id="border" fill-rule="nonzero" stroke="#007AFF" stroke-linecap="round" stroke-linejoin="round" stroke-width="2" d="M39.1806693,19.1304348 C42.3029767,19.1304348 43.8641304,20.4673913 43.8641304,23.1413043 C43.8641304,27.1521739 41.8586957,28.242849 41.8586957,29.826087 C41.8586957,30.6177059 48.5434783,31.8842963 48.5434783,35.8423913 C48.5434783,36.4223484 45.9611273,37.2289131 42.7920276,37.6187673 C44.4872092,38.7573014 45.8695652,40.2621308 45.8695652,42.3043478 C45.8695652,43.3598398 39.2254894,44.9782609 32.9456522,44.9782609 C26.665815,44.9782609 20.0217391,43.3598398 20.0217391,42.3043478 C20.0217391,41.1329696 20.4765286,40.1383897 21.1842186,39.2882913 C18.0313891,38.8366905 15.5652174,38.0271421 15.5652174,37.4340062 C15.5652174,33.0989498 22.886646,31.7117318 22.886646,30.8447205 C22.886646,29.1106979 20.6902174,27.9161491 20.6902174,23.5232919 C20.6902174,20.5947205 22.3970491,19.1304348 25.8107124,19.1304348 C27.6696853,19.1304348 29.0233785,19.5631514 29.8717918,20.4285846 C30.7306023,20.1571863 31.7535264,20.0217391 32.9399719,20.0217391 C33.9037265,20.0217391 34.7597729,20.1107986 35.5081112,20.2889176 C36.2815764,19.5162937 37.5062364,19.1304348 39.1806693,19.1304348 Z M32.9456522,44.9782609 C26.665815,44.9782609 20.0217391,43.3598398 20.0217391,42.3043478 C20.0217391,37.0268879 29.2531056,35.3381007 29.2531056,34.2826087 C29.2531056,32.1716247 26.4836957,30.7173913 26.4836957,25.3695652 C26.4836957,21.8043478 28.6357877,20.0217391 32.9399719,20.0217391 C37.2517298,20.0217391 39.4076087,21.8043478 39.4076087,25.3695652 C39.4076087,30.7173913 36.6381988,32.1716247 36.6381988,34.2826087 C36.6381988,35.3381007 45.8695652,37.0268879 45.8695652,42.3043478 C45.8695652,43.3598398 39.2254894,44.9782609 32.9456522,44.9782609 Z M32.5,54 C44.3741221,54 54,44.3741221 54,32.5 C54,20.6258779 44.3741221,11 32.5,11 C20.6258779,11 11,20.6258779 11,32.5 C11,44.3741221 20.6258779,54 32.5,54 Z"/>
  </g>
</svg>
