<?xml version="1.0" encoding="UTF-8"?>
<svg width="64px" height="64px" viewBox="0 0 64 64" version="1.1" xmlns="http://www.w3.org/2000/svg" xmlns:xlink="http://www.w3.org/1999/xlink">
    <!-- Generator: Sketch 54.1 (76490) - https://sketchapp.com -->
    <title>icons/hellip</title>
    <desc>Created with Sketch.</desc>
    <g id="icons/hellip" stroke="none" stroke-width="1" fill="none" fill-rule="evenodd">
        <path d="M19,35 C17.3431458,35 16,33.6568542 16,32 C16,30.3431458 17.3431458,29 19,29 C20.6568542,29 22,30.3431458 22,32 C22,33.6568542 20.6568542,35 19,35 Z M32,35 C30.3431458,35 29,33.6568542 29,32 C29,30.3431458 30.3431458,29 32,29 C33.6568542,29 35,30.3431458 35,32 C35,33.6568542 33.6568542,35 32,35 Z M45,35 C43.3431458,35 42,33.6568542 42,32 C42,30.3431458 43.3431458,29 45,29 C46.6568542,29 48,30.3431458 48,32 C48,33.6568542 46.6568542,35 45,35 Z" id="fill" fill-opacity="0.184058129" fill="#007AFF" fill-rule="nonzero"></path>
        <path d="M19,35 C17.3431458,35 16,33.6568542 16,32 C16,30.3431458 17.3431458,29 19,29 C20.6568542,29 22,30.3431458 22,32 C22,33.6568542 20.6568542,35 19,35 Z M32,35 C30.3431458,35 29,33.6568542 29,32 C29,30.3431458 30.3431458,29 32,29 C33.6568542,29 35,30.3431458 35,32 C35,33.6568542 33.6568542,35 32,35 Z M45,35 C43.3431458,35 42,33.6568542 42,32 C42,30.3431458 43.3431458,29 45,29 C46.6568542,29 48,30.3431458 48,32 C48,33.6568542 46.6568542,35 45,35 Z" id="border" stroke="#007AFF" stroke-width="2" stroke-linecap="round" stroke-linejoin="round" fill-rule="nonzero"></path>
    </g>
</svg>