<svg width="64px" height="64px" viewBox="0 0 64 64">
  <g id="hellip" fill="none" fill-rule="evenodd" stroke="none" stroke-width="1">
    <path id="fill" fill="#007AFF" fill-opacity="0.184058129" fill-rule="nonzero" d="M19,29 C20.6568542,29 22,30.3431458 22,32 C22,33.6568542 20.6568542,35 19,35 C17.3431458,35 16,33.6568542 16,32 C16,30.3431458 17.3431458,29 19,29 Z M32,29 C33.6568542,29 35,30.3431458 35,32 C35,33.6568542 33.6568542,35 32,35 C30.3431458,35 29,33.6568542 29,32 C29,30.3431458 30.3431458,29 32,29 Z M45,29 C46.6568542,29 48,30.3431458 48,32 C48,33.6568542 46.6568542,35 45,35 C43.3431458,35 42,33.6568542 42,32 C42,30.3431458 43.3431458,29 45,29 Z"/>
    <path id="border" fill-rule="nonzero" stroke="#007AFF" stroke-linecap="round" stroke-linejoin="round" stroke-width="2" d="M19,29 C20.6568542,29 22,30.3431458 22,32 C22,33.6568542 20.6568542,35 19,35 C17.3431458,35 16,33.6568542 16,32 C16,30.3431458 17.3431458,29 19,29 Z M32,29 C33.6568542,29 35,30.3431458 35,32 C35,33.6568542 33.6568542,35 32,35 C30.3431458,35 29,33.6568542 29,32 C29,30.3431458 30.3431458,29 32,29 Z M45,29 C46.6568542,29 48,30.3431458 48,32 C48,33.6568542 46.6568542,35 45,35 C43.3431458,35 42,33.6568542 42,32 C42,30.3431458 43.3431458,29 45,29 Z"/>
  </g>
</svg>
