<svg width="64px" height="64px" viewBox="0 0 64 64">
  <g id="holiday" fill="none" fill-rule="evenodd" stroke="none" stroke-width="1">
    <path id="fill" fill="#007AFF" fill-opacity="0.184058129" fill-rule="nonzero" d="M47,16 C48.1045695,16 49,16.8954305 49,18 L49,46 C49,47.1045695 48.1045695,48 47,48 L17,48 C15.8954305,48 15,47.1045695 15,46 L15,18 C15,16.8954305 15.8954305,16 17,16 L47,16 Z M32.450542,23.0183213 C31.919108,22.7694938 31.2865811,22.9985917 31.0377536,23.5300257 L31.0377536,23.5300257 L29.1800541,27.4976126 C29.0271548,27.8241676 28.7190725,28.0508914 28.3618224,28.0997652 L28.3618224,28.0997652 L24.0610457,28.6881362 C23.8266327,28.7202053 23.6096295,28.8295975 23.4444334,28.9989732 C23.0347167,29.4190558 23.04312,30.0917411 23.4632027,30.5014578 L23.4632027,30.5014578 L26.6371203,33.5970556 C26.8893617,33.8430728 27.0032342,34.1981358 26.941126,34.5449682 L26.941126,34.5449682 L26.1553304,38.9331043 C26.1123,39.1734002 26.1533281,39.4211845 26.2715149,39.634786 C26.555608,40.1482335 27.2021424,40.334162 27.7155899,40.0500689 L27.7155899,40.0500689 L31.485604,37.9641013 C31.805671,37.7870065 32.194329,37.7870065 32.514396,37.9641013 L32.514396,37.9641013 L36.2844101,40.0500689 C36.4980116,40.1682557 36.7457959,40.2092838 36.9860918,40.1662534 C37.5637062,40.0628184 37.9481046,39.5107187 37.8446696,38.9331043 L37.8446696,38.9331043 L37.058874,34.5449682 C36.9967658,34.1981358 37.1106383,33.8430728 37.3628797,33.5970556 L37.3628797,33.5970556 L40.5367973,30.5014578 C40.706173,30.3362617 40.8155652,30.1192585 40.8476343,29.8848455 C40.9271714,29.3034583 40.5203415,28.7676733 39.9389543,28.6881362 L39.9389543,28.6881362 L35.6381776,28.0997652 C35.2809275,28.0508914 34.9728452,27.8241676 34.8199459,27.4976126 L34.8199459,27.4976126 L32.9622464,23.5300257 C32.8568086,23.3048365 32.6757312,23.1237591 32.450542,23.0183213 Z"/>
    <path id="border" fill-rule="nonzero" stroke="#007AFF" stroke-linecap="round" stroke-linejoin="round" stroke-width="2" d="M17,16 L47,16 C48.1045695,16 49,16.8954305 49,18 L49,46 C49,47.1045695 48.1045695,48 47,48 L17,48 C15.8954305,48 15,47.1045695 15,46 L15,18 C15,16.8954305 15.8954305,16 17,16 Z M40,14 L40,18 M24,14 L24,18 M31.485604,37.9641013 L27.7155899,40.0500689 C27.2021424,40.334162 26.555608,40.1482335 26.2715149,39.634786 C26.1533281,39.4211845 26.1123,39.1734002 26.1553304,38.9331043 L26.941126,34.5449682 C27.0032342,34.1981358 26.8893617,33.8430728 26.6371203,33.5970556 L23.4632027,30.5014578 C23.04312,30.0917411 23.0347167,29.4190558 23.4444334,28.9989732 C23.6096295,28.8295975 23.8266327,28.7202053 24.0610457,28.6881362 L28.3618224,28.0997652 C28.7190725,28.0508914 29.0271548,27.8241676 29.1800541,27.4976126 L31.0377536,23.5300257 C31.2865811,22.9985917 31.919108,22.7694938 32.450542,23.0183213 C32.6757312,23.1237591 32.8568086,23.3048365 32.9622464,23.5300257 L34.8199459,27.4976126 C34.9728452,27.8241676 35.2809275,28.0508914 35.6381776,28.0997652 L39.9389543,28.6881362 C40.5203415,28.7676733 40.9271714,29.3034583 40.8476343,29.8848455 C40.8155652,30.1192585 40.706173,30.3362617 40.5367973,30.5014578 L37.3628797,33.5970556 C37.1106383,33.8430728 36.9967658,34.1981358 37.058874,34.5449682 L37.8446696,38.9331043 C37.9481046,39.5107187 37.5637062,40.0628184 36.9860918,40.1662534 C36.7457959,40.2092838 36.4980116,40.1682557 36.2844101,40.0500689 L32.514396,37.9641013 C32.194329,37.7870065 31.805671,37.7870065 31.485604,37.9641013 Z"/>
  </g>
</svg>
