<svg width="64px" height="64px" viewBox="0 0 64 64">
  <g id="home" fill="none" fill-rule="evenodd" stroke="none" stroke-width="1">
    <path id="fill" fill="#007AFF" fill-opacity="0.184058129" fill-rule="nonzero" d="M32.6180087,14.2771468 L47.4751515,23.8930084 C47.802263,24.104722 48,24.4693689 48,24.8608818 L48,45 C48,45.6354676 47.6311826,46 47,46 L36,46 L36,35 L28,35 L28,46 L17,46 C16.3688174,46 16,45.6354676 16,45 L16,24.8608818 C16,24.4693689 16.197737,24.104722 16.5248485,23.8930084 L31.3819913,14.2771468 C31.7584572,14.03349 32.2415428,14.03349 32.6180087,14.2771468 Z"/>
    <path id="border" fill-rule="nonzero" stroke="#007AFF" stroke-linecap="round" stroke-linejoin="round" stroke-width="2" d="M32.6180087,14.2771468 L47.4751515,23.8930084 C47.802263,24.104722 48,24.4693689 48,24.8608818 L48,45 C48,45.6354676 47.6311826,46 47,46 L36,46 L36,35 L28,35 L28,46 L17,46 C16.3688174,46 16,45.6354676 16,45 L16,24.8608818 C16,24.4693689 16.197737,24.104722 16.5248485,23.8930084 L31.3819913,14.2771468 C31.7584572,14.03349 32.2415428,14.03349 32.6180087,14.2771468 Z"/>
  </g>
</svg>
