<svg width="64px" height="64px" viewBox="0 0 64 64">
  <g id="http" fill="none" fill-rule="evenodd" stroke="none" stroke-width="1">
    <path id="border" fill-rule="nonzero" stroke="#007AFF" stroke-linecap="round" stroke-linejoin="round" stroke-width="2" d="M22,36 C23.1045695,36 24,36.8954305 24,38 C24,39.1045695 23.1045695,40 22,40 C20.8954305,40 20,39.1045695 20,38 C20,36.8954305 20.8954305,36 22,36 Z M22,24 C23.1045695,24 24,24.8954305 24,26 C24,27.1045695 23.1045695,28 22,28 C20.8954305,28 20,27.1045695 20,26 C20,24.8954305 20.8954305,24 22,24 Z M28,48 L36,16 M36,48 L44,16"/>
  </g>
</svg>
