<?xml version="1.0" encoding="UTF-8"?>
<svg width="64px" height="64px" viewBox="0 0 64 64" version="1.1" xmlns="http://www.w3.org/2000/svg" xmlns:xlink="http://www.w3.org/1999/xlink">
    <!-- Generator: Sketch Beta 57 (82921) - https://sketch.com -->
    <title>http</title>
    <desc>Created with Sketch Beta.</desc>
    <g id="http" stroke="none" stroke-width="1" fill="none" fill-rule="evenodd" stroke-linecap="round" stroke-linejoin="round">
        <path d="M22,28 C23.1045695,28 24,27.1045695 24,26 C24,24.8954305 23.1045695,24 22,24 C20.8954305,24 20,24.8954305 20,26 C20,27.1045695 20.8954305,28 22,28 Z M22,40 C23.1045695,40 24,39.1045695 24,38 C24,36.8954305 23.1045695,36 22,36 C20.8954305,36 20,36.8954305 20,38 C20,39.1045695 20.8954305,40 22,40 Z M28,48 L36,16 M36,48 L44,16" id="border" stroke="#007AFF" stroke-width="2" fill-rule="nonzero"></path>
    </g>
</svg>