<?xml version="1.0" encoding="UTF-8"?>
<svg width="24px" height="24px" viewBox="0 0 24 24" version="1.1" xmlns="http://www.w3.org/2000/svg" xmlns:xlink="http://www.w3.org/1999/xlink">
    <!-- Generator: Sketch 51.2 (57519) - http://www.bohemiancoding.com/sketch -->
    <title>Latency</title>
    <desc>Created with Sketch.</desc>
    <defs></defs>
    <g id="Latency" stroke="none" stroke-width="1" fill="none" fill-rule="evenodd">
        <path d="M19.4629686,12.75 L15.75,12.75 C15.3357864,12.75 15,12.4142136 15,12 C15,11.5857864 15.3357864,11.25 15.75,11.25 L20.940979,11.25 C20.9411417,11.2508632 20.9413039,11.2517271 20.9414657,11.2525919 L20.9670289,11.2525919 C20.9871494,11.4982035 20.9974081,11.7466077 20.9974081,11.9974081 C20.9974081,16.9679708 16.9679708,20.9974081 11.9974081,20.9974081 C7.0268453,20.9974081 2.99740803,16.9679708 2.99740803,11.9974081 C2.99740803,7.0268453 7.0268453,2.99740803 11.9974081,2.99740803 C12.100614,2.99740803 12.2034142,2.9991452 12.305781,3.00259189 L12.2389118,3.00259189 C12.4555027,3.0102775 12.6258654,3.02917874 12.75,3.05929561 L12.75,5.24999997 C12.75,5.66421353 12.4142136,5.99999998 12,5.99999998 C11.5857864,5.99999998 11.25,5.66421353 11.25,5.24999997 L11.25,4.5370314 C7.46000796,4.91332472 4.49999997,8.1109889 4.49999997,12 C4.49999997,16.1421356 7.85786436,19.5 12,19.5 C15.8890111,19.5 19.0866752,16.539992 19.4629686,12.75 Z M11.039018,11.8200048 C11.4175483,11.2787681 12.4770339,9.70716045 14.2174747,7.10518178 C13.5042199,10.0147478 13.0452221,11.8537099 12.840481,12.6220679 C12.5557654,13.2615497 12.0794034,13.8216547 11.3703182,13.5 C10.661233,13.1783453 10.7543023,12.4594867 11.039018,11.8200048 Z" fill="#000000" fill-rule="nonzero"></path>
    </g>
</svg>