<?xml version="1.0" encoding="UTF-8"?>
<svg width="24px" height="24px" viewBox="0 0 24 24" version="1.1" xmlns="http://www.w3.org/2000/svg" xmlns:xlink="http://www.w3.org/1999/xlink">
    <!-- Generator: Sketch 51.2 (57519) - http://www.bohemiancoding.com/sketch -->
    <title>Key / No</title>
    <desc>Created with Sketch.</desc>
    <defs></defs>
    <g id="Key-/-No" stroke="none" stroke-width="1" fill="none" fill-rule="evenodd">
        <path d="M11.2039045,11.665054 L11.2039045,7.46719915 L12.1269815,7.46719915 L12.1269815,11.0496695 L12.2273727,10.982742 L14.0735266,10.059665 L16.3812189,10.059665 L16.8427574,10.5212035 L17.3042958,12.8288958 L16.8427574,15.1365881 L16.3812189,15.5981266 L14.0735266,15.5981266 L12.2273727,14.6750497 L12.1269815,14.5746584 L12.1269815,18.8336994 L11.2039045,18.8336994 L11.2039045,13.6515815 L10.8427573,13.2904343 L10.8215536,13.3222399 L10.8215536,11.9058189 L10.8427573,11.9058189 L11.2039045,11.665054 Z M9.89847668,11.9058189 L9.89847668,14.643244 L8.99660352,13.2904343 L8.07352659,14.6750497 L7.15044966,13.2904343 L6.22737274,14.6750497 L4.84275735,12.8288958 L5.76583427,11.9058189 L9.89847668,11.9058189 Z M14.0735266,11.9058189 L14.0735266,13.7519728 L14.9966035,14.2135112 L15.9196804,13.7519728 L16.3812189,12.8288958 L15.9196804,11.9058189 L14.9966035,11.4442804 L14.0735266,11.9058189 Z" id="No-Key" fill="#000000" fill-rule="nonzero" transform="translate(11.073527, 13.150449) rotate(-45.000000) translate(-11.073527, -13.150449) "></path>
    </g>
</svg>