<?xml version="1.0" encoding="UTF-8"?>
<svg width="24px" height="24px" viewBox="0 0 24 24" version="1.1" xmlns="http://www.w3.org/2000/svg" xmlns:xlink="http://www.w3.org/1999/xlink">
    <!-- Generator: Sketch 51.2 (57519) - http://www.bohemiancoding.com/sketch -->
    <title>IconObjectMove</title>
    <desc>Created with Sketch.</desc>
    <defs></defs>
    <g id="IconObjectMove"  stroke-width="1"  fill-rule="evenodd">
        <path d="M6.5,9.00048475 C6.22385763,9.00048475 6,8.67064747 6,8.3945051 L6,6.5 C6,6.22385763 6.22385763,6 6.5,6 L17.5,6 C17.7761424,6 18,6.22385763 18,6.5 L18,17.5 C18,17.7761424 17.7761424,18 17.5,18 L9.73849506,18 C9.58744227,18 9.44426143,17.9326252 9.34797543,17.8162381 C9.26179489,17.7120662 9.26899191,17.5594352 9.36459234,17.4638348 L11.4142136,15.4142136 C12.1952621,14.633165 12.1952621,13.366835 11.4142136,12.5857864 L8.41421356,9.58578644 C8.03492329,9.20649616 7.5411922,9.0113956 7.04416905,9.00048475 L6.5,9.00048475 Z M7.58578644,15 L5,15 C4.44771525,15 4,14.5522847 4,14 C4,13.4477153 4.44771525,13 5,13 L7.58578644,13 L6.29289322,11.7071068 C5.90236893,11.3165825 5.90236893,10.6834175 6.29289322,10.2928932 C6.68341751,9.90236893 7.31658249,9.90236893 7.70710678,10.2928932 L10.7071068,13.2928932 C11.0976311,13.6834175 11.0976311,14.3165825 10.7071068,14.7071068 L7.70710678,17.7071068 C7.31658249,18.0976311 6.68341751,18.0976311 6.29289322,17.7071068 C5.90236893,17.3165825 5.90236893,16.6834175 6.29289322,16.2928932 L7.58578644,15 Z" id="Move-Object" fill-rule="nonzero"></path>
    </g>
</svg>