<?xml version="1.0" encoding="UTF-8"?>
<svg width="24px" height="24px" viewBox="0 0 24 24" version="1.1" xmlns="http://www.w3.org/2000/svg" xmlns:xlink="http://www.w3.org/1999/xlink">
    <!-- Generator: Sketch 51.2 (57519) - http://www.bohemiancoding.com/sketch -->
    <title>File-Download</title>
    <desc>Created with Sketch.</desc>
    <defs></defs>
    <g id="File-Download" stroke="none" stroke-width="1" fill="none" fill-rule="evenodd">
        <path d="M11.25,12.1893398 L10.0303301,10.9696699 C9.73743686,10.6767767 9.26256312,10.6767767 8.9696699,10.9696699 C8.67677669,11.2625631 8.67677669,11.7374369 8.9696699,12.0303301 L12,15.0606602 L15.0303301,12.0303301 C15.3232233,11.7374369 15.3232233,11.2625631 15.0303301,10.9696699 C14.7374369,10.6767767 14.2625631,10.6767767 13.9696699,10.9696699 L12.75,12.1893398 L12.75,7.49999998 C12.75,7.08578642 12.4142136,6.74999998 12,6.74999998 C11.5857864,6.74999998 11.25,7.08578642 11.25,7.49999998 L11.25,12.1893398 Z M6.49999998,3.99999997 L16,3.99999997 L18,5.99999997 L18,19.5 C18,19.7761424 17.7761424,20 17.5,20 L6.49999998,20 C6.22385761,20 5.99999997,19.7761424 5.99999997,19.5 L5.99999997,4.49999997 C5.99999997,4.2238576 6.22385761,3.99999997 6.49999998,3.99999997 Z M8.49999999,17.25 L15.5,17.25 C15.9142136,17.25 16.25,16.9142136 16.25,16.5 C16.25,16.0857864 15.9142136,15.75 15.5,15.75 L8.49999999,15.75 C8.08578642,15.75 7.74999998,16.0857864 7.74999998,16.5 C7.74999998,16.9142136 8.08578642,17.25 8.49999999,17.25 Z" id="Download-Spec" fill="#000000" fill-rule="nonzero"></path>
    </g>
</svg>