<?xml version="1.0" encoding="UTF-8"?>
<svg width="24px" height="24px" viewBox="0 0 24 24" version="1.1" xmlns="http://www.w3.org/2000/svg" xmlns:xlink="http://www.w3.org/1999/xlink">
    <!-- Generator: Sketch 51.2 (57519) - http://www.bohemiancoding.com/sketch -->
    <title>Fabric</title>
    <desc>Created with Sketch.</desc>
    <defs></defs>
    <g id="Fabric" stroke="none" stroke-width="1" fill="none" fill-rule="evenodd">
        <path d="M21,15.4648712 L21,19 C21,20.1045695 20.1045695,21 19,21 L4.99999997,21 C3.89543047,21 2.99999996,20.1045695 2.99999996,19 L2.99999996,15.4648712 C3.58834669,15.8052114 4.27142568,16 4.99999997,16 L4.99999997,19 L19,19 L19,16 C19.7285743,16 20.4116533,15.8052114 21,15.4648712 Z M21,8.53512877 C20.4116533,8.19478855 19.7285743,7.99999998 19,7.99999998 L19,4.99999997 L4.99999997,4.99999997 L4.99999997,7.99999998 C4.27142568,7.99999998 3.58834669,8.19478855 2.99999996,8.53512877 L2.99999996,4.99999997 C2.99999996,3.89543047 3.89543047,2.99999996 4.99999997,2.99999996 L19,2.99999996 C20.1045695,2.99999996 21,3.89543047 21,4.99999997 L21,8.53512877 Z M11.4719384,11.4545455 C9.96570725,11.4545455 8.74466566,10.2335039 8.74466566,8.72727272 C8.74466566,7.22104157 9.96570725,5.99999997 11.4719384,5.99999997 C12.9781695,5.99999997 14.1992111,7.22104157 14.1992111,8.72727272 C14.1992111,10.2335039 12.9781695,11.4545455 11.4719384,11.4545455 Z M4.92648382,14.7272727 C3.42025268,14.7272727 2.19921108,13.5062311 2.19921108,12 C2.19921108,10.4937689 3.42025268,9.27272726 4.92648382,9.27272726 C6.43271497,9.27272726 7.65375656,10.4937689 7.65375656,12 C7.65375656,13.5062311 6.43271497,14.7272727 4.92648382,14.7272727 Z M12.5628475,18 C11.0566164,18 9.83557475,16.7789584 9.83557475,15.2727273 C9.83557475,13.7664961 11.0566164,12.5454545 12.5628475,12.5454545 C14.0690786,12.5454545 15.2901202,13.7664961 15.2901202,15.2727273 C15.2901202,16.7789584 14.0690786,18 12.5628475,18 Z M19.108302,14.7272727 C17.6020709,14.7272727 16.3810293,13.5062311 16.3810293,12 C16.3810293,10.4937689 17.6020709,9.27272726 19.108302,9.27272726 C20.6145332,9.27272726 21.8355748,10.4937689 21.8355748,12 C21.8355748,13.5062311 20.6145332,14.7272727 19.108302,14.7272727 Z" fill="#000000" fill-rule="nonzero"></path>
    </g>
</svg>