<?xml version="1.0" encoding="UTF-8"?>
<svg width="24px" height="24px" viewBox="0 0 24 24" version="1.1" xmlns="http://www.w3.org/2000/svg" xmlns:xlink="http://www.w3.org/1999/xlink">
    <!-- Generator: Sketch 51.2 (57519) - http://www.bohemiancoding.com/sketch -->
    <title>File-Photo</title>
    <desc>Created with Sketch.</desc>
    <defs></defs>
    <g id="File-Photo" stroke="none" stroke-width="1" fill="none" fill-rule="evenodd">
        <path d="M6.49999998,3.99999997 L16,3.99999997 L18,5.99999997 L18,19.5 C18,19.7761424 17.7761424,20 17.5,20 L6.49999998,20 C6.22385761,20 5.99999997,19.7761424 5.99999997,19.5 L5.99999997,4.49999997 C5.99999997,4.2238576 6.22385761,3.99999997 6.49999998,3.99999997 Z M14,12 C15.1045695,12 16,11.1045695 16,9.99999999 C16,8.8954305 15.1045695,7.99999999 14,7.99999999 C12.8954305,7.99999999 12,8.8954305 12,9.99999999 C12,11.1045695 12.8954305,12 14,12 Z M7.81409011,14.5055195 C7.72515485,14.4337168 7.61430271,14.3945534 7.5,14.3945534 C7.22385763,14.3945534 7,14.6184111 7,14.8945534 L7,18.75 C7,18.8880712 7.11192881,19 7.25,19 L16.75,19 C16.8880712,19 17,18.8880712 17,18.75 L17,16.1291691 C17,15.9195088 16.8691959,15.7321152 16.6723915,15.6598279 L14.9844863,15.0398515 C14.861503,14.9946791 14.7257025,14.9995832 14.6062979,15.053509 L10.9663109,16.6974081 C10.7943235,16.7750815 10.5932559,16.7493045 10.4464239,16.6307583 L7.81409011,14.5055195 Z" fill="#000000" fill-rule="nonzero"></path>
    </g>
</svg>