<?xml version="1.0" encoding="UTF-8"?>
<svg width="24px" height="24px" viewBox="0 0 24 24" version="1.1" xmlns="http://www.w3.org/2000/svg" xmlns:xlink="http://www.w3.org/1999/xlink">
    <!-- Generator: Sketch 51.2 (57519) - http://www.bohemiancoding.com/sketch -->
    <title>File / Many Files</title>
    <desc>Created with Sketch.</desc>
    <defs></defs>
    <g id="File-/-Many-Files" stroke="none" stroke-width="1" fill="none" fill-rule="evenodd">
        <path d="M5.49999998,3.99999997 L14,3.99999997 L16,5.99999997 L16,19.5 C16,19.7761424 15.7761424,20 15.5,20 L5.49999998,20 C5.22385761,20 4.99999997,19.7761424 4.99999997,19.5 L4.99999997,4.49999997 C4.99999997,4.2238576 5.22385761,3.99999997 5.49999998,3.99999997 Z M18.1464466,4.85355339 C17.9511845,4.65829124 17.9511845,4.34170876 18.1464466,4.14644661 C18.3417088,3.95118446 18.6582912,3.95118446 18.8535534,4.14644661 L19.5606602,4.85355339 C19.8419647,5.13485796 20,5.51638883 20,5.91421356 L20,19.5 C20,19.7761424 19.7761424,20 19.5,20 C19.2238576,20 19,19.7761424 19,19.5 L19,5.70075989 L18.1464466,4.85355339 Z M16.1464466,4.85355339 C15.9511845,4.65829124 15.9511845,4.34170876 16.1464466,4.14644661 C16.3417088,3.95118446 16.6582912,3.95118446 16.8535534,4.14644661 L17.5606602,4.85355339 C17.8419647,5.13485796 18,5.51638883 18,5.91421356 L18,19.5 C18,19.7761424 17.7761424,20 17.5,20 C17.2238576,20 17,19.7761424 17,19.5 L17,5.70075989 L16.1464466,4.85355339 Z" id="File-Document" fill="#000000" fill-rule="nonzero"></path>
    </g>
</svg>