<?xml version="1.0" encoding="UTF-8"?>
<svg width="24px" height="24px" viewBox="0 0 24 24" version="1.1" xmlns="http://www.w3.org/2000/svg" xmlns:xlink="http://www.w3.org/1999/xlink">
    <!-- Generator: Sketch 51.2 (57519) - http://www.bohemiancoding.com/sketch -->
    <title>Globe</title>
    <desc>Created with Sketch.</desc>
    <defs></defs>
    <g id="Globe" stroke="none" stroke-width="1" fill="none" fill-rule="evenodd">
        <path d="M12,19.25 C16.0053422,19.25 19.25,15.9992943 19.25,11.9892094 C19.25,7.9838716 16.0100893,4.74999997 12,4.74999997 C7.9899107,4.74999997 4.74999997,7.9838716 4.74999997,11.9892094 C4.74999997,15.9992943 7.99465778,19.25 12,19.25 Z M12,20.75 C7.16560469,20.75 3.24999996,16.8270967 3.24999996,11.9892094 C3.24999996,7.15481735 7.1621094,3.24999996 12,3.24999996 C16.8378906,3.24999996 20.75,7.15481735 20.75,11.9892094 C20.75,16.8270967 16.8343953,20.75 12,20.75 Z M12,19.25 C13.6386049,19.25 15.25,16.0350429 15.25,11.9892094 C15.25,7.94729462 13.6414723,4.74999997 12,4.74999997 C10.3585276,4.74999997 8.74999999,7.94729459 8.74999999,11.9892094 C8.74999999,16.035043 10.361395,19.25 12,19.25 Z M12,20.75 C9.25136826,20.75 7.24999998,16.7569922 7.24999998,11.9892094 C7.24999998,7.22562239 9.25009674,3.24999996 12,3.24999996 C14.7499032,3.24999996 16.75,7.22562243 16.75,11.9892094 C16.75,16.7569921 14.7486317,20.75 12,20.75 Z M11.5,5.99999997 C11.5,5.7238576 11.7238576,5.49999997 12,5.49999997 C12.2761424,5.49999997 12.5,5.7238576 12.5,5.99999997 L12.5,18 C12.5,18.2761424 12.2761424,18.5 12,18.5 C11.7238576,18.5 11.5,18.2761424 11.5,18 L11.5,5.99999997 Z M18,11.5 C18.2761424,11.5 18.5,11.7238576 18.5,12 C18.5,12.2761424 18.2761424,12.5 18,12.5 L5.99999997,12.5 C5.7238576,12.5 5.49999997,12.2761424 5.49999997,12 C5.49999997,11.7238576 5.7238576,11.5 5.99999997,11.5 L18,11.5 Z M17,7.49999998 C17.2761424,7.49999998 17.5,7.72385761 17.5,7.99999998 C17.5,8.27614236 17.2761424,8.49999999 17,8.49999999 L6.99999998,8.49999999 C6.7238576,8.49999999 6.49999998,8.27614236 6.49999998,7.99999998 C6.49999998,7.72385761 6.7238576,7.49999998 6.99999998,7.49999998 L17,7.49999998 Z M17,15.5 C17.2761424,15.5 17.5,15.7238576 17.5,16 C17.5,16.2761424 17.2761424,16.5 17,16.5 L6.99999998,16.5 C6.7238576,16.5 6.49999998,16.2761424 6.49999998,16 C6.49999998,15.7238576 6.7238576,15.5 6.99999998,15.5 L17,15.5 Z" fill="#000000" fill-rule="nonzero"></path>
    </g>
</svg>