<?xml version="1.0" encoding="UTF-8"?>
<svg width="24px" height="24px" viewBox="0 0 24 24" version="1.1" xmlns="http://www.w3.org/2000/svg" xmlns:xlink="http://www.w3.org/1999/xlink">
    <!-- Generator: Sketch 51.2 (57519) - http://www.bohemiancoding.com/sketch -->
    <title>IconObjectVideo</title>
    <desc>Created with Sketch.</desc>
    <defs></defs>
    <g id="IconObjectVideo" stroke-width="1" fill-rule="evenodd">
        <path d="M6.5,6 L17.5,6 C17.7761424,6 18,6.22385763 18,6.5 L18,17.5 C18,17.7761424 17.7761424,18 17.5,18 L6.5,18 C6.22385763,18 6,17.7761424 6,17.5 L6,6.5 C6,6.22385763 6.22385763,6 6.5,6 Z M10.7922159,8.95947399 C10.7071096,8.89817727 10.6048826,8.86519544 10.5,8.86519544 C10.2238576,8.86519544 9.99999999,9.08905307 9.99999999,9.36519544 L9.99999999,14.7459011 C9.99999999,14.8507837 10.0329818,14.9530107 10.0942785,15.038117 C10.2556649,15.2621907 10.5681421,15.3130089 10.7922159,15.1516226 L14.5275842,12.4612697 C14.5712855,12.4297944 14.6096145,12.3914654 14.6410898,12.3477641 C14.8024762,12.1236904 14.751658,11.8112132 14.5275842,11.6498268 L10.7922159,8.95947399 Z" id="Object-Video" fill-rule="nonzero"></path>
    </g>
</svg>