<svg version="1.1" xmlns="http://www.w3.org/2000/svg" xmlns:xlink="http://www.w3.org/1999/xlink" viewBox="0 0 24 24" preserveAspectRatio="xMaxYMax meet" width="24px" height="24px" focusable="false" id="Timer"><g title="Timer" fill="currentColor"><title>Timer</title><path d="M12,20 C7.581722,20 4,16.418278 4,12 C4,7.581722 7.581722,4 12,4 C16.418278,4 20,7.581722 20,12 C20,16.418278 16.418278,20 12,20 Z M12,19 C15.8659932,19 19,15.8659932 19,12 C19,8.13400675 15.8659932,5 12,5 C8.13400675,5 5,8.13400675 5,12 C5,15.8659932 8.13400675,19 12,19 Z M16.240877,7.75912299 L12,12 L12,6.00249421 C13.6561655,6.00249421 15.1555419,6.67378791 16.240877,7.75912299 Z M14,3.27103069 L14,3.27103069 C13.3569385,3.12430119 12.6875191,3.04680732 12,3.04680732 C11.3124809,3.04680732 10.6430615,3.12430119 10,3.27103069 L10,3 C10,2.44771525 10.4477153,2 11,2 L13,2 C13.5522847,2 14,2.44771525 14,3 L14,3.27103069 Z" id="Combined-Shape"></path></g></svg>