<?xml version="1.0" encoding="UTF-8"?>
<svg width="24px" height="24px" viewBox="0 0 24 24" version="1.1" xmlns="http://www.w3.org/2000/svg" xmlns:xlink="http://www.w3.org/1999/xlink">
    <!-- Generator: Sketch 51.2 (57519) - http://www.bohemiancoding.com/sketch -->
    <title>Chevron-left-double</title>
    <desc>Created with Sketch.</desc>
    <defs></defs>
    <g id="Chevron-left-double" stroke="none" stroke-width="1" fill="none" fill-rule="evenodd">
        <path d="M11.8409903,7.53033005 L7.37132032,12 L11.8409903,16.4696699 C12.1338835,16.7625632 12.1338835,17.2374369 11.8409903,17.5303301 C11.5480971,17.8232233 11.0732233,17.8232233 10.7803301,17.5303301 L5.24999996,12 L10.7803301,6.46966987 C11.0732233,6.17677665 11.5480971,6.17677665 11.8409903,6.46966987 C12.1338835,6.76256309 12.1338835,7.23743683 11.8409903,7.53033005 Z M17.8409903,7.53033005 L13.3713203,12 L17.8409903,16.4696699 C18.1338835,16.7625632 18.1338835,17.2374369 17.8409903,17.5303301 C17.5480971,17.8232233 17.0732233,17.8232233 16.7803301,17.5303301 L11.25,12 L16.7803301,6.46966987 C17.0732233,6.17677665 17.5480971,6.17677665 17.8409903,6.46966987 C18.1338835,6.76256309 18.1338835,7.23743683 17.8409903,7.53033005 Z" id="path-1" fill="#000000" fill-rule="nonzero"></path>
    </g>
</svg>