<?xml version="1.0" encoding="UTF-8"?>
<svg width="24px" height="24px" viewBox="0 0 24 24" version="1.1" xmlns="http://www.w3.org/2000/svg" xmlns:xlink="http://www.w3.org/1999/xlink">
    <!-- Generator: Sketch 51.2 (57519) - http://www.bohemiancoding.com/sketch -->
    <title>IconObjectDocument</title>
    <desc>Created with Sketch.</desc>
    <defs></defs>
    <g id="IconObjectDocument" stroke-width="1" fill-rule="evenodd">
        <path d="M6.5,6 L17.5,6 C17.7761424,6 18,6.22385763 18,6.5 L18,17.5 C18,17.7761424 17.7761424,18 17.5,18 L6.5,18 C6.22385763,18 6,17.7761424 6,17.5 L6,6.5 C6,6.22385763 6.22385763,6 6.5,6 Z M8.5,8 C8.22385762,8 8,8.22385763 8,8.5 C8,8.77614237 8.22385762,9 8.5,9 L10.5,9 C10.7761424,9 11,8.77614237 11,8.5 C11,8.22385763 10.7761424,8 10.5,8 L8.5,8 Z M8.5,11 C8.22385762,11 8,11.2238576 8,11.5 C8,11.7761424 8.22385762,12 8.5,12 L14.5,12 C14.7761424,12 15,11.7761424 15,11.5 C15,11.2238576 14.7761424,11 14.5,11 L8.5,11 Z M8.5,13 C8.22385762,13 8,13.2238576 8,13.5 C8,13.7761424 8.22385762,14 8.5,14 L13.5,14 C13.7761424,14 14,13.7761424 14,13.5 C14,13.2238576 13.7761424,13 13.5,13 L8.5,13 Z M8.5,15 C8.22385762,15 8,15.2238576 8,15.5 C8,15.7761424 8.22385762,16 8.5,16 L14.5,16 C14.7761424,16 15,15.7761424 15,15.5 C15,15.2238576 14.7761424,15 14.5,15 L8.5,15 Z" id="Object-Document" fill-rule="nonzero"></path>
    </g>
</svg>