<?xml version="1.0" encoding="UTF-8"?>
<svg width="24px" height="24px" viewBox="0 0 24 24" version="1.1" xmlns="http://www.w3.org/2000/svg" xmlns:xlink="http://www.w3.org/1999/xlink">
    <!-- Generator: Sketch 51.2 (57519) - http://www.bohemiancoding.com/sketch -->
    <title>HTTP</title>
    <desc>Created with Sketch.</desc>
    <defs></defs>
    <g id="HTTP" stroke="none" stroke-width="1" fill="none" fill-rule="evenodd">
        <path d="M5.54434449,12 L8.20861423,13.4801499 C8.57070203,13.6813097 8.70115987,14.1379122 8.49999999,14.5 C8.2988401,14.8620878 7.84223763,14.9925457 7.48014983,14.7913858 L3.63576777,12.655618 C3.1214107,12.369864 3.1214107,11.630136 3.63576777,11.344382 L7.48014983,9.20861423 C7.84223763,9.00745434 8.2988401,9.13791219 8.49999999,9.49999999 C8.70115987,9.86208779 8.57070203,10.3186903 8.20861423,10.5198501 L5.54434449,12 Z M12.7884875,7.26282916 C12.9194734,6.86987167 13.3442133,6.65750167 13.7371708,6.7884875 C14.1301283,6.91947333 14.3424983,7.34421332 14.2115125,7.73717081 L11.2115125,16.7371708 C11.0805266,17.1301283 10.6557867,17.3424983 10.2628292,17.2115125 C9.86987168,17.0805267 9.65750169,16.6557867 9.78848752,16.2628292 L12.7884875,7.26282916 Z M18.4556555,12 L15.7913858,10.5198501 C15.429298,10.3186903 15.2988401,9.86208779 15.5,9.49999999 C15.7011599,9.13791219 16.1577624,9.00745434 16.5198502,9.20861423 L20.3642322,11.344382 C20.8785893,11.630136 20.8785893,12.369864 20.3642322,12.655618 L16.5198502,14.7913858 C16.1577624,14.9925457 15.7011599,14.8620878 15.5,14.5 C15.2988401,14.1379122 15.429298,13.6813097 15.7913858,13.4801499 L18.4556555,12 Z" fill="#000000" fill-rule="nonzero"></path>
    </g>
</svg>