<?xml version="1.0" encoding="UTF-8"?>
<svg width="24px" height="24px" viewBox="0 0 24 24" version="1.1" xmlns="http://www.w3.org/2000/svg" xmlns:xlink="http://www.w3.org/1999/xlink">
    <!-- Generator: Sketch 51.2 (57519) - http://www.bohemiancoding.com/sketch -->
    <title>Frame-Triangle B</title>
    <desc>Created with Sketch.</desc>
    <defs></defs>
    <g id="Frame-Triangle-B" stroke="none" stroke-width="1" fill="none" fill-rule="evenodd">
        <path d="M12.4231164,5.1104235 C12.38326,5.04712208 12.329708,4.99357016 12.2664066,4.95371371 C12.0327259,4.80658139 11.7240159,4.87674275 11.5768836,5.1104235 L4.25859144,16.7335934 C4.2083607,16.8133716 4.18170786,16.9057254 4.18170786,17 C4.18170786,17.2761424 4.40556549,17.5 4.68170786,17.5 L19.3182921,17.5 C19.4125667,17.5 19.5049205,17.4733472 19.5846988,17.4231164 C19.8183795,17.2759841 19.8885409,16.9672741 19.7414086,16.7335934 L12.4231164,5.1104235 Z M13.2693493,4.57761023 L20.5876414,16.2007801 C21.0290384,16.9018223 20.8185543,17.8279523 20.117512,18.2693493 C19.8781773,18.4200415 19.6011159,18.5 19.3182921,18.5 L4.68170786,18.5 C3.85328074,18.5 3.18170786,17.8284271 3.18170786,17 C3.18170786,16.7171763 3.26166637,16.4401148 3.4123586,16.2007801 L10.7306507,4.57761023 C11.1720477,3.87656799 12.0981777,3.66608391 12.7992199,4.10748087 C12.9891241,4.22705021 13.1497799,4.38770598 13.2693493,4.57761023 Z" id="B" fill="#000000" fill-rule="nonzero"></path>
    </g>
</svg>