<?xml version="1.0" encoding="UTF-8"?>
<svg width="24px" height="24px" viewBox="0 0 24 24" version="1.1" xmlns="http://www.w3.org/2000/svg" xmlns:xlink="http://www.w3.org/1999/xlink">
    <!-- Generator: Sketch 51.2 (57519) - http://www.bohemiancoding.com/sketch -->
    <title>Configuration</title>
    <desc>Created with Sketch.</desc>
    <defs></defs>
    <g id="Configuration" stroke="none" stroke-width="1" fill="none" fill-rule="evenodd">
        <path d="M9,6 L15,6 C16.6568542,6 18,7.34314575 18,9 C18,10.6568542 16.6568542,12 15,12 L9,12 C7.34314575,12 6,10.6568542 6,9 C6,7.34314575 7.34314575,6 9,6 Z M15,7 C13.8954305,7 13,7.8954305 13,9 C13,10.1045695 13.8954305,11 15,11 C16.1045695,11 17,10.1045695 17,9 C17,7.8954305 16.1045695,7 15,7 Z M11,14 C12.1045695,14 13,14.8954305 13,16 C13,17.1045695 12.1045695,18 11,18 C9.8954305,18 9,17.1045695 9,16 C9,14.8954305 9.8954305,14 11,14 Z M6,16 C6,15.4477153 6.44771525,15 7,15 L7.5,15 C8.05228475,15 8.5,15.4477153 8.5,16 C8.5,16.5522847 8.05228475,17 7.5,17 L7,17 C6.44771525,17 6,16.5522847 6,16 Z M13.5,16 C13.5,15.4477153 13.9477153,15 14.5,15 L17,15 C17.5522847,15 18,15.4477153 18,16 C18,16.5522847 17.5522847,17 17,17 L14.5,17 C13.9477153,17 13.5,16.5522847 13.5,16 Z" fill="#000000" fill-rule="nonzero"></path>
    </g>
</svg>