<?xml version="1.0" encoding="UTF-8"?>
<svg width="24px" height="24px" viewBox="0 0 24 24" version="1.1" xmlns="http://www.w3.org/2000/svg" xmlns:xlink="http://www.w3.org/1999/xlink">
    <!-- Generator: Sketch 51.2 (57519) - http://www.bohemiancoding.com/sketch -->
    <title>Classification-Secret</title>
    <desc>Created with Sketch.</desc>
    <defs></defs>
    <g id="Classification-Secret" stroke="none" stroke-width="1" fill="none" fill-rule="evenodd">
        <path d="M4.49999997,3.99999997 L19.5,3.99999997 C19.7761424,3.99999997 20,4.22385759 20,4.49999997 C20,4.77614235 19.7761424,4.99999997 19.5,4.99999997 L4.49999997,4.99999997 C4.22385759,4.99999997 3.99999997,4.77614235 3.99999997,4.49999997 C3.99999997,4.22385759 4.22385759,3.99999997 4.49999997,3.99999997 Z M4.49999997,19 L19.5,19 C19.7761424,19 20,19.2238577 20,19.5 C20,19.7761424 19.7761424,20 19.5,20 L4.49999997,20 C4.22385759,20 3.99999997,19.7761424 3.99999997,19.5 C3.99999997,19.2238577 4.22385759,19 4.49999997,19 Z M8.4580078,13.5917969 L10.5087891,13.5917969 C10.5615234,14.2070312 11.1767578,14.5996094 12.0673828,14.5996094 C12.8701172,14.5996094 13.4208984,14.2128906 13.4208984,13.65625 C13.4208984,13.1875 13.0517578,12.9355469 12.0849609,12.7421875 L10.9716797,12.5195312 C9.42480468,12.2265625 8.62792968,11.3828125 8.62792968,10.0527344 C8.62792968,8.40039061 9.95214843,7.31640623 11.9912109,7.31640623 C13.9716797,7.31640623 15.3427734,8.38867186 15.3779297,9.95312499 L13.3916016,9.95312499 C13.3447266,9.35546874 12.7763672,8.93945311 12.0205078,8.93945311 C11.2646484,8.93945311 10.7666016,9.29687499 10.7666016,9.85937499 C10.7666016,10.3222656 11.1416016,10.5917969 12.0322266,10.7675781 L13.1220703,10.9785156 C14.7919922,11.3007812 15.5419922,12.0566406 15.5419922,13.3984375 C15.5419922,15.1621094 14.1943359,16.2285156 11.9794922,16.2285156 C9.8408203,16.2285156 8.49316405,15.2207031 8.4580078,13.5917969 Z" id="Secret" fill="#000000" fill-rule="nonzero"></path>
    </g>
</svg>