<?xml version="1.0" encoding="UTF-8"?>
<svg width="24px" height="24px" viewBox="0 0 24 24" version="1.1" xmlns="http://www.w3.org/2000/svg" xmlns:xlink="http://www.w3.org/1999/xlink">
    <!-- Generator: Sketch 51.2 (57519) - http://www.bohemiancoding.com/sketch -->
    <title>X-Small</title>
    <desc>Created with Sketch.</desc>
    <defs></defs>
    <g id="X-Small" stroke="none" stroke-width="1" fill="none" fill-rule="evenodd">
        <path d="M12.5,11.4586922 L15.7430303,8.21566189 C16.0305795,7.92811268 16.4967889,7.92811268 16.7843381,8.21566189 C17.0718873,8.50321112 17.0718873,8.96942051 16.7843381,9.25696973 L13.5413078,12.5 L16.7843381,15.7430303 C17.0718873,16.0305795 17.0718873,16.4967889 16.7843381,16.7843381 C16.4967889,17.0718873 16.0305795,17.0718873 15.7430303,16.7843381 L12.5,13.5413078 L9.25696973,16.7843381 C8.96942051,17.0718873 8.50321112,17.0718873 8.21566189,16.7843381 C7.92811268,16.4967889 7.92811268,16.0305795 8.21566189,15.7430303 L11.4586922,12.5 L8.21566189,9.25696973 C7.92811268,8.96942051 7.92811268,8.50321112 8.21566189,8.21566189 C8.50321112,7.92811268 8.96942051,7.92811268 9.25696973,8.21566189 L12.5,11.4586922 Z" id="Small" fill="#000000" fill-rule="nonzero"></path>
    </g>
</svg>