<?xml version="1.0" encoding="UTF-8"?>
<svg width="24px" height="24px" viewBox="0 0 24 24" version="1.1" xmlns="http://www.w3.org/2000/svg" xmlns:xlink="http://www.w3.org/1999/xlink">
    <!-- Generator: Sketch 51.2 (57519) - http://www.bohemiancoding.com/sketch -->
    <title>Eye-No</title>
    <desc>Created with Sketch.</desc>
    <defs></defs>
    <g id="Eye-No" stroke="none" stroke-width="1" fill="none" fill-rule="evenodd">
        <path d="M5.81331356,15.446287 C5.77827686,15.419062 5.74734335,15.3945595 5.72051302,15.3727794 C4.59402426,14.4583272 3.75407788,13.2999381 3.32353959,12 C4.37383377,8.82881298 7.86056283,6.49999998 12,6.49999998 C12.8053573,6.49999998 13.586008,6.58815138 14.3288158,6.75350735 C14.3433341,6.75673926 14.3585555,6.76020061 14.3744799,6.76389141 L14.3744827,6.76387936 C14.5586624,6.80656661 14.6733646,6.99047859 14.6306774,7.17465824 C14.6162162,7.23705259 14.584541,7.29413862 14.539252,7.33942758 L12.9682496,8.91043006 L12.9682787,8.91045913 C12.851565,9.02717283 12.6847738,9.0787717 12.5225429,9.04835289 C12.4391941,9.03272473 12.3695423,9.02200468 12.3135877,9.01619275 C12.2105193,9.00548718 12.1059004,8.99999999 12,8.99999999 C10.3431458,8.99999999 8.99999999,10.3431458 8.99999999,12 C8.99999999,12.0799878 9.0031304,12.1592444 9.0092754,12.237654 C9.01511804,12.3122057 9.02867273,12.4073781 9.04993945,12.5231713 L9.04988159,12.523182 C9.07957308,12.6848464 9.02790261,12.850777 8.91167659,12.9670031 L6.47365855,15.4050211 C6.29541623,15.5832682 6.01236124,15.6009557 5.81331356,15.446287 Z M9.37642777,16.7448926 L11.0321405,15.0891798 L11.032183,15.0892223 C11.1487679,14.9726374 11.3153378,14.9210302 11.4774151,14.9512791 C11.5687399,14.9683232 11.6446905,14.9797987 11.7052668,14.9857057 C11.8022326,14.995161 11.9005512,15 12,15 C13.6568542,15 15,13.6568542 15,12 C15,11.87407 14.9922409,11.7499521 14.9771746,11.6280986 C14.9720454,11.5866148 14.9639005,11.5364258 14.9527397,11.4775317 C14.9219422,11.3150366 14.9734936,11.1478267 15.0904404,11.0308799 L17.526295,8.59502531 L17.5263208,8.59505109 C17.7045186,8.41685324 17.987487,8.39913678 18.1865198,8.55371647 C18.2256489,8.58410626 18.2599316,8.6112854 18.2893678,8.63525387 C19.4108875,9.54845279 20.2471819,10.7038655 20.6764604,12 C19.6261662,15.171187 16.1394371,17.5 12,17.5 C11.1351908,17.5 10.2988707,17.3983535 9.50730498,17.208615 C9.35902292,17.1730717 9.26763006,17.0240518 9.30317331,16.8757698 C9.31504996,16.8262219 9.34040577,16.7809268 9.37643389,16.7448987 L9.37642777,16.7448926 Z M18.4696699,4.46966988 C18.7625631,4.17677667 19.2374369,4.17677667 19.5303301,4.46966988 C19.8232233,4.7625631 19.8232233,5.23743684 19.5303301,5.53033006 L5.53033006,19.5303301 C5.23743684,19.8232233 4.7625631,19.8232233 4.46966988,19.5303301 C4.17677667,19.2374369 4.17677667,18.7625631 4.46966988,18.4696699 L18.4696699,4.46966988 Z" fill="#000000" fill-rule="nonzero"></path>
    </g>
</svg>