<?xml version="1.0" encoding="UTF-8"?>
<svg width="24px" height="24px" viewBox="0 0 24 24" version="1.1" xmlns="http://www.w3.org/2000/svg" xmlns:xlink="http://www.w3.org/1999/xlink">
    <!-- Generator: Sketch 51.2 (57519) - http://www.bohemiancoding.com/sketch -->
    <title>Chevron-right-double</title>
    <desc>Created with Sketch.</desc>
    <defs>
        <path d="M6.46966988,7.53033005 C6.17677666,7.23743683 6.17677666,6.76256309 6.46966988,6.46966987 C6.7625631,6.17677665 7.23743684,6.17677665 7.53033006,6.46966987 L13.0606602,12 L7.53033006,17.5303301 C7.23743684,17.8232233 6.7625631,17.8232233 6.46966988,17.5303301 C6.17677666,17.2374369 6.17677666,16.7625632 6.46966988,16.4696699 L10.9393398,12 L6.46966988,7.53033005 Z M12.4696699,7.53033005 C12.1767767,7.23743683 12.1767767,6.76256309 12.4696699,6.46966987 C12.7625631,6.17677665 13.2374369,6.17677665 13.5303301,6.46966987 L19.0606602,12 L13.5303301,17.5303301 C13.2374369,17.8232233 12.7625631,17.8232233 12.4696699,17.5303301 C12.1767767,17.2374369 12.1767767,16.7625632 12.4696699,16.4696699 L16.9393398,12 L12.4696699,7.53033005 Z" id="path-1"></path>
    </defs>
    <g id="Chevron-right-double" stroke="none" stroke-width="1" fill="none" fill-rule="evenodd">
        <mask id="mask-2" fill="white">
            <use xlink:href="#path-1"></use>
        </mask>
        <use id="path-1" fill="#000000" xlink:href="#path-1"></use>
    </g>
</svg>