<?xml version="1.0" encoding="UTF-8"?>
<svg width="24px" height="24px" viewBox="0 0 24 24" version="1.1" xmlns="http://www.w3.org/2000/svg" xmlns:xlink="http://www.w3.org/1999/xlink">
    <!-- Generator: Sketch 51.2 (57519) - http://www.bohemiancoding.com/sketch -->
    <title>Bell</title>
    <desc>Created with Sketch.</desc>
    <defs></defs>
    <g id="Bell" stroke="none" stroke-width="1" fill="none" fill-rule="evenodd">
        <path d="M18.1869472,15.7692308 L5.80520122,15.7692308 C5.52905885,15.7692308 5.30520122,15.5453732 5.30520122,15.2692308 L5.30520122,15.0481474 C5.30520122,14.8587614 5.41220242,14.6856298 5.58159444,14.6009338 L6.52259254,14.1304348 C7.25858857,13.4201729 7.16828676,12.3412947 7.53150558,10.6163729 C8.06938477,8.07494136 9.60913762,6.82366032 10.3991108,6.33416519 C10.4977091,6.27307024 10.5875472,6.22087566 10.6686253,6.17758146 L10.6685966,6.17752765 C10.7972563,6.1088257 10.8894983,5.98736369 10.9211408,5.84498376 C10.9539838,5.69720155 10.9934663,5.58600941 11.0395882,5.51140733 C11.229335,5.20449256 11.568914,4.99999997 11.9562548,4.99999997 L12.0342927,4.99999997 C12.4624407,4.99999997 12.8322332,5.24984975 13.0058216,5.61170087 C13.0321788,5.66664338 13.0551435,5.74254551 13.0747156,5.83940723 L13.0747988,5.83939041 C13.1042947,5.98536432 13.1973355,6.11058758 13.3285842,6.18095912 C13.4156631,6.22764813 13.5122018,6.28428257 13.6182002,6.35086246 C14.4156998,6.85178892 15.9271737,8.10334322 16.4590418,10.6163729 C16.8222607,12.3505189 16.7431183,13.4293971 17.4791143,14.1304348 L18.4119663,14.6005519 C18.5805816,14.6855267 18.6869472,14.8582397 18.6869472,15.0470566 L18.6869472,15.2692308 C18.6869472,15.5453732 18.4630896,15.7692308 18.1869472,15.7692308 Z M12.0008534,19 C11.1362486,19 10.2496893,18.2496158 9.95112341,17.417749 C9.93450319,17.3714416 9.92600575,17.3226116 9.92600575,17.2734119 C9.92600575,17.0374367 10.1173014,16.8461411 10.3532766,16.8461411 L10.3532766,16.8461538 C10.4081444,16.8461538 10.4562245,16.8461538 10.497517,16.8461538 C11.7996463,16.8461538 12.800474,16.8461538 13.5,16.8461538 C13.5603611,16.8461538 13.6319958,16.8461538 13.7149043,16.8461726 C13.7672045,16.8461726 13.8190577,16.8558013 13.8678712,16.8745773 C14.0875042,16.9590586 14.1970663,17.2055919 14.1125851,17.4252249 C13.793758,18.2541061 12.8628674,19 12.0008534,19 Z" fill="#000000" fill-rule="nonzero"></path>
    </g>
</svg>