<?xml version="1.0" encoding="UTF-8"?>
<svg width="24px" height="24px" viewBox="0 0 24 24" version="1.1" xmlns="http://www.w3.org/2000/svg" xmlns:xlink="http://www.w3.org/1999/xlink">
    <!-- Generator: Sketch 51.2 (57519) - http://www.bohemiancoding.com/sketch -->
    <title>Card</title>
    <desc>Created with Sketch.</desc>
    <defs></defs>
    <g id="Card" stroke="none" stroke-width="1" fill="none" fill-rule="evenodd">
        <path d="M8,5 L16,5 C17.1045695,5 18,5.8954305 18,7 L18,17 C18,18.1045695 17.1045695,19 16,19 L8,19 C6.8954305,19 6,18.1045695 6,17 L6,7 C6,5.8954305 6.8954305,5 8,5 Z M8,6 C7.44771525,6 7,6.44771525 7,7 L7,17 C7,17.5522847 7.44771525,18 8,18 L16,18 C16.5522847,18 17,17.5522847 17,17 L17,7 C17,6.44771525 16.5522847,6 16,6 L8,6 Z M8.5,14 L14.5,14 C14.7761424,14 15,14.2238576 15,14.5 C15,14.7761424 14.7761424,15 14.5,15 L8.5,15 C8.22385763,15 8,14.7761424 8,14.5 C8,14.2238576 8.22385763,14 8.5,14 Z M8.5,16 L11.5,16 C11.7761424,16 12,16.2238576 12,16.5 C12,16.7761424 11.7761424,17 11.5,17 L8.5,17 C8.22385763,17 8,16.7761424 8,16.5 C8,16.2238576 8.22385763,16 8.5,16 Z M8.5,7 L15.5,7 C15.7761424,7 16,7.22385763 16,7.5 L16,12.5 C16,12.7761424 15.7761424,13 15.5,13 L8.5,13 C8.22385763,13 8,12.7761424 8,12.5 L8,7.5 C8,7.22385763 8.22385763,7 8.5,7 Z" fill="#000000" fill-rule="nonzero"></path>
    </g>
</svg>