<?xml version="1.0" encoding="UTF-8"?>
<svg width="24px" height="24px" viewBox="0 0 24 24" version="1.1" xmlns="http://www.w3.org/2000/svg" xmlns:xlink="http://www.w3.org/1999/xlink">
    <!-- Generator: Sketch 51.2 (57519) - http://www.bohemiancoding.com/sketch -->
    <title>Brands / Finagle</title>
    <desc>Created with Sketch.</desc>
    <defs></defs>
    <g id="Brands-/-Finagle" stroke="none" stroke-width="1" fill="none" fill-rule="evenodd">
        <path d="M12.5294643,7.06010962 C12.1243199,7.28929803 11.8699997,7.62397305 11.7585598,8.08062057 C11.6806862,8.03162405 11.615232,7.9927727 11.5520156,7.95023219 C10.6001892,7.30981892 9.61546783,6.72566517 8.63466255,6.13459427 C8.15589619,5.8460336 7.68283611,5.54825008 7.24714642,5.19120959 C6.75931719,4.79128274 6.3824803,4.30177873 6.09459393,3.73422615 C5.80301525,3.15952584 5.59233121,2.55219962 5.41845813,1.93207667 C5.24738224,1.32163773 5.09879572,0.704627486 4.94036311,0.0903841104 C4.93499251,0.0691715013 4.93040512,0.0478436063 4.91932827,-5.00000006e-08 C4.99608305,0.0659434956 5.05460018,0.11298015 5.1096488,0.164167099 C5.60777167,0.627155349 6.10477568,1.09141174 6.60289856,1.5544 C7.2304752,2.13763146 7.85894693,2.71994063 8.48685925,3.30271095 C9.03186296,3.80847028 9.576531,4.31457546 10.1215347,4.82033479 C10.749447,5.40310511 11.3774712,5.98587542 12.0057192,6.56829989 C12.1386415,6.69165582 12.273242,6.8130519 12.4062762,6.93629254 C12.4451012,6.97214646 12.481017,7.01122839 12.5294643,7.06010962 Z M12.7228729,15.818035 C12.7142576,15.9115319 12.7076562,15.9834703 12.7004954,16.0612883 C12.5929716,16.1306904 12.48914,16.1019842 12.3734484,16.0566768 C12.4097,15.7449437 12.3394347,15.4666435 12.1214779,15.2451793 C11.9669614,15.0880446 11.777424,15.0022718 11.5559988,14.9945477 C11.2731474,14.9846331 11.0407572,15.0888516 10.8567023,15.3088171 C10.6764517,15.5242865 10.6285638,15.7792989 10.6597804,16.050682 C10.5606482,16.1185854 10.4297399,15.9742474 10.3629431,16.1290764 C10.2826079,15.960759 10.2968176,15.8191879 10.4450684,15.2737702 C10.2254334,15.3214985 10.0185535,15.3122757 9.82565957,15.1739326 C9.84669441,15.1309309 9.861016,15.098305 9.87813478,15.0670625 C9.91170101,15.0060763 9.95656788,14.9876305 10.0242598,15.0150686 C10.0772944,15.0367423 10.135364,15.0516142 10.1920909,15.0561104 C10.3854324,15.0710975 10.5325644,14.9808287 10.6297946,14.8159698 C10.7222136,14.6594115 10.7225493,14.4923622 10.6360603,14.3288868 C10.6220744,14.302371 10.6069696,14.2766623 10.5789977,14.2263976 C10.7276961,14.2981055 10.8266046,14.3884896 10.9021286,14.5021615 C10.9267439,14.539053 10.9267439,14.597503 10.9275271,14.6462689 C10.9280865,14.6905387 10.9145481,14.7350391 10.9026881,14.8062858 C11.088645,14.7114055 11.2646439,14.6541084 11.4517197,14.6415422 C11.6379004,14.6288608 11.8150182,14.6741681 12.0034367,14.742648 C11.9947094,14.6613714 11.9871011,14.5946208 11.9804997,14.5276397 C11.9331714,14.0497796 12.0853383,13.6309458 12.3319382,13.2367833 C12.6872927,12.6688849 13.1677374,12.2459008 13.7375801,11.9224085 C13.8737471,11.8450517 14.0252427,11.7929424 14.1341092,11.6685489 C14.1536895,11.6461835 14.1877032,11.6362689 14.2164583,11.6237027 C14.4221074,11.5333186 14.6277565,11.4430497 14.8344126,11.354856 C14.8655173,11.3415981 14.907587,11.3247663 14.9339924,11.3359491 C15.0064955,11.3667304 15.0518099,11.3193479 15.1093201,11.3015939 C15.0953341,11.1908041 15.0803412,11.0914276 15.0710546,10.9914747 C15.0668028,10.9460521 15.061656,10.8946346 15.0772084,10.8543998 C15.1225228,10.7374999 15.0613204,10.67709 14.982104,10.6122994 C14.4218836,10.1540378 13.8626702,9.69439286 13.3059183,9.2315199 C13.2368838,9.17410751 13.1782548,9.15900506 13.0882973,9.17618266 C12.3672946,9.31394933 11.9443601,8.76645651 11.9599125,8.2367177 C11.9760242,7.6857663 12.3953784,7.3721886 12.7480476,7.32837995 C13.2692193,7.26381984 13.6725735,7.61705589 13.7636498,8.04534308 C13.7787547,8.11658978 13.7856917,8.19175619 13.7827826,8.26450161 C13.7799854,8.34059031 13.8003489,8.39073969 13.8611038,8.43962093 C14.3294646,8.8172976 14.7945807,9.19923984 15.2605919,9.57979866 C15.4113043,9.70280874 15.5629117,9.82478124 15.7119458,9.94986646 C15.763414,9.99309868 15.8127564,10.0068177 15.8823504,10.001284 C15.9966993,9.99217639 16.1130623,10.0071636 16.2285301,10.0138502 C16.3088653,10.0185769 16.3241939,10.083137 16.3416483,10.1470054 C16.3610048,10.2175604 16.3432147,10.2800453 16.2897325,10.319819 C16.2642222,10.3388412 16.2146561,10.3352673 16.1794115,10.3269667 C15.9352731,10.2692085 15.7283933,10.3376883 15.5564223,10.5199553 C15.3441718,10.7448782 15.3229132,11.0925805 15.5005904,11.3743393 C15.5221847,11.4085792 15.5467999,11.4409745 15.5710795,11.4756756 C15.5592195,11.4985022 15.5522824,11.5219053 15.537849,11.5382759 C15.4800031,11.6043347 15.5003667,11.6586344 15.5490377,11.7205429 C15.5975968,11.7819903 15.6705475,11.8343301 15.6556664,11.9436211 C15.6118065,11.9566484 15.5657089,11.970598 15.5193875,11.9838559 C15.3347733,12.0366569 15.1713057,12.1250812 15.0390548,12.2719554 C14.9377966,12.3842439 14.8848739,12.5162463 14.86093,12.6773007 C15.7048969,13.0547468 16.4580112,13.5748016 17.1635734,14.1829348 C17.083462,14.2861157 17.0140918,14.3790362 16.9968611,14.5046978 C16.9574768,14.7912986 17.1633496,15.0503461 17.4436277,15.0580702 C17.4615297,15.0586467 17.4794317,15.0583008 17.4973337,15.0579549 C17.6717662,15.0546116 17.7499755,15.1549104 17.7142834,15.3362551 C17.6009414,15.3143508 17.4873757,15.2933688 17.3742575,15.2706575 C17.1216156,15.2199317 16.8753514,15.2653543 16.6314368,15.3264558 C16.2364741,15.4256017 15.8744064,15.6038338 15.5309119,15.8249522 C15.4860451,15.8538889 15.4401712,15.8810964 15.3742695,15.9214465 C15.3841156,15.8673774 15.386689,15.8337139 15.3963113,15.8023561 C15.5168141,15.4121133 15.5746599,15.0127629 15.5511636,14.6037284 C15.5187162,14.0359453 15.3379061,13.5241911 14.9885935,13.079418 C14.9634188,13.0474838 14.9416008,13.0126675 14.9182163,12.9792345 C14.9060206,12.9881116 14.8939367,12.9968733 14.881741,13.0055197 C14.9223562,13.1054726 14.9563699,13.2088841 15.0047053,13.3045714 C15.1643687,13.6205701 15.2981861,13.9464834 15.3524515,14.3001806 C15.3922834,14.5587669 15.4181294,14.8197742 15.3550249,15.1081043 C15.3184377,14.9729892 15.2895707,14.864044 15.2591373,14.7556753 C15.2442563,14.702759 15.2292634,14.6492664 15.2090118,14.5984253 C15.0908586,14.3014487 14.9064681,14.0355994 14.8222169,13.7227134 C14.5447361,13.2257158 14.074585,12.9371552 13.4618894,13.0105923 C12.9435149,13.0727314 12.4881331,13.5117402 12.3652807,14.0520853 C12.243659,14.587012 12.4572521,15.1537575 12.900662,15.4729842 C12.940494,15.5016904 12.9806616,15.5298202 13.0275424,15.5631378 C13.0051649,15.6824588 12.9834587,15.7982058 12.9581722,15.9332056 C12.8767181,15.8933167 12.8110402,15.8611519 12.7228729,15.818035 Z M5.32130627,5.89092594 C5.53400429,5.94257403 5.72410104,5.98857311 5.91408591,6.03491806 C7.04023299,6.30952912 8.16638005,6.58379432 9.29196768,6.86059581 C9.36458263,6.87834984 9.43798079,6.90728661 9.50142097,6.94729082 C10.2257802,7.40486063 10.9484612,7.86531259 11.6706946,8.32645626 C11.7033657,8.34732301 11.7380509,8.37602921 11.7549459,8.41003856 C11.8447915,8.58988459 11.9294903,8.77249749 12.015196,8.95453395 C12.0304127,8.9869293 12.0421609,9.02105393 12.0643146,9.0761606 C12.0070283,9.07350902 11.9649586,9.07500774 11.9238959,9.06912816 C11.4151437,8.99776617 10.9068391,8.92271504 10.3978631,8.85377406 C9.89761438,8.78587066 9.39557545,8.7314557 8.8963337,8.65755743 C8.25298092,8.56233126 7.65639711,8.34190457 7.14507151,7.91292567 C6.85707325,7.67105582 6.58238959,7.41465993 6.33746799,7.12586871 C6.01691048,6.7477309 5.69702428,6.36901665 5.37780942,5.98972597 C5.35912422,5.96770636 5.34815925,5.93865431 5.32130627,5.89092594 Z M11.86059,13.9261008 C11.7401991,14.1102125 11.7162552,14.2826802 11.7672759,14.4836236 C11.5228018,14.4610275 11.2887333,14.4648319 11.0617137,14.5511811 C10.8906378,14.2821038 10.6605972,14.1067539 10.3514522,14.0058787 C10.4081791,14.0860024 10.4556194,14.1461817 10.4955632,14.2112029 C10.548486,14.2973215 10.5865277,14.3889738 10.5894368,14.4951521 C10.5968214,14.7663046 10.422277,14.9387724 10.1603485,14.9173292 C10.0687127,14.9098356 10.0014683,14.8609544 9.94194419,14.7957025 C9.91453177,14.7656129 9.8901403,14.7324106 9.86429431,14.7005916 C9.79212691,14.6117062 9.75151177,14.599947 9.64152642,14.6360315 C9.62877125,14.6401818 9.61444966,14.6420264 9.60359658,14.6494047 C9.37937415,14.7983541 9.11890019,14.795472 8.86894366,14.8331705 C8.50676402,14.887816 8.14413683,14.9393488 7.7809502,14.9861549 C7.49306382,15.0231616 7.20450612,15.0564793 6.91550087,15.0818422 C6.64428572,15.1055911 6.37206358,15.1279565 6.10017711,15.1306081 C5.75858475,15.1338361 5.43511817,15.0591309 5.1578611,14.8329399 C4.54527737,14.3330601 3.83736555,14.0296276 3.10327207,13.7808406 C3.08201345,13.7735776 3.06086673,13.7664299 3.03994378,13.7582446 C3.03211166,13.7551318 3.02528652,13.7493675 2.99999996,13.7336887 C3.05683878,13.7310371 3.09711826,13.7271174 3.13739774,13.7275785 C3.88827434,13.7374931 4.63926282,13.7472924 5.39013942,13.7582446 C5.9443179,13.7665451 6.4983845,13.7768056 7.05245109,13.7855673 C7.65127266,13.795136 8.25020612,13.8033213 8.84891581,13.8138124 C9.14373921,13.8190002 9.43845072,13.8300677 9.73316223,13.8331804 C9.78351158,13.8337568 9.84191682,13.8201531 9.88320328,13.7920233 C10.4048225,13.4395943 10.9427773,13.44997 11.4909139,13.7122455 C11.6152208,13.7716177 11.7306887,13.8501274 11.86059,13.9261008 Z M8.58063211,9.33852829 C8.61162493,9.33310985 8.62796049,9.32838313 8.64451983,9.32769141 C8.91249025,9.31731568 9.18057255,9.30751638 9.44854296,9.2974865 C9.97564468,9.27765733 10.5036415,9.27039431 11.0295125,9.23234996 C11.2793571,9.21425007 11.5189081,9.24606898 11.7612563,9.28399805 C12.202876,9.35328489 12.6443839,9.42257173 13.0854441,9.49577828 C13.1453039,9.50569287 13.2094154,9.52609848 13.2586459,9.56103011 C13.7782512,9.92936862 14.294276,10.3032409 14.8141051,10.6712335 C14.8872794,10.7228816 14.8853774,10.7892863 14.8920906,10.8656056 C14.7471964,10.8656056 14.6055469,10.8664126 14.4640093,10.8650291 C14.4284291,10.8646833 14.3930726,10.8554604 14.3573805,10.8537311 C13.9064742,10.8320574 13.4555678,10.8106142 13.0045495,10.789978 C12.5804961,10.77061 12.1563309,10.7513572 11.7321656,10.7340643 C11.4820972,10.7239192 11.2315812,10.7220746 10.9817365,10.708125 C10.7634441,10.6959047 10.5444804,10.6812634 10.3280901,10.6509432 C10.0645952,10.6139364 9.83723992,10.4822799 9.62924118,10.3178822 C9.4873679,10.2058243 9.34829182,10.0891549 9.21559332,9.96579897 C9.0197903,9.78376251 8.83047676,9.59411717 8.63892546,9.4072387 C8.62024026,9.38902352 8.60502357,9.36746506 8.58063211,9.33852829 Z M8.12206143,19.4666614 C8.09867696,19.4198553 8.07932043,19.3860765 8.06410374,19.3503379 C8.00771247,19.2179897 7.91674799,19.1212648 7.78863687,19.0620078 C7.71926666,19.0299583 7.64877757,19.0005604 7.58041435,18.9664358 C7.37118484,18.8622173 7.26164704,18.5948693 7.33314311,18.3707534 C7.37040163,18.2538535 7.44715641,18.1764967 7.55109984,18.1212747 C7.65202231,18.0676668 7.70707093,17.9871972 7.67607811,17.8495458 C7.62640008,17.8444732 7.57593885,17.8392854 7.51675039,17.8334058 C7.56609275,17.6330389 7.58321153,17.4344012 7.43160405,17.2627405 C7.55546345,17.239568 7.63893148,17.2773818 7.70214788,17.3852894 C7.78147607,17.5206351 7.80116826,17.6694692 7.78740611,17.8246441 C7.77968587,17.9106473 7.77968587,17.9106473 7.8613637,17.9882348 C7.89783901,17.969789 7.93823037,17.9518044 7.97660776,17.9300154 C8.36396207,17.7095887 8.75176394,17.4898537 9.13710428,17.2657379 C9.19315989,17.2332273 9.24362112,17.1835391 9.28446004,17.1316604 C9.41693476,16.9638041 9.53721376,16.7854568 9.7105274,16.6562213 C9.79835904,16.5906236 9.89010674,16.5392061 9.99841378,16.5161489 C10.0421618,16.5068107 10.0850147,16.4731472 10.1191403,16.4405213 C10.2369578,16.3280023 10.3506354,16.2111023 10.473376,16.0884381 C10.647249,16.1555345 10.7839755,16.0727592 10.9000028,15.934762 C10.9789953,15.8409193 11.0521697,15.7416581 11.131386,15.6480459 C11.2440566,15.5146601 11.3735104,15.4159754 11.5596911,15.4373033 C11.6957462,15.4526363 11.8099833,15.5050914 11.8862905,15.6264874 C11.9421224,15.7153729 11.9948213,15.8064488 12.0487511,15.8966024 C12.0628489,15.9201207 12.0756041,15.944446 12.0902613,15.9676185 C12.2855049,16.2787752 12.4993218,16.3508289 12.8344247,16.2189418 C12.8537812,16.2112176 12.8734734,16.2043005 12.914648,16.1888522 C12.8044388,16.3743472 12.685055,16.5215673 12.5521327,16.6558754 C12.3445815,16.8654652 12.1061493,17.0243292 11.8171441,17.0893505 C11.6055649,17.1368483 11.3919718,17.1314298 11.1769242,17.1197859 C11.0084217,17.1107936 10.8390241,17.1235904 10.6699622,17.1248585 C10.5952214,17.1255502 10.5603125,17.1623264 10.5433056,17.2372623 C10.5149981,17.3620017 10.4496558,17.4662201 10.3444816,17.5385044 C10.3200902,17.5553361 10.2823841,17.5730902 10.2595591,17.5649049 C10.2304683,17.5542986 10.1999231,17.5213268 10.190077,17.4911219 C10.1835875,17.4712927 10.2058531,17.4279452 10.2268879,17.4144568 C10.3216566,17.3539316 10.370999,17.2651615 10.3911387,17.156908 C10.4192224,17.0059987 10.3542158,16.8757257 10.2058531,16.8047095 C10.2278949,16.8572799 10.2519507,16.8961313 10.2602304,16.9383259 C10.2748876,17.0134923 10.2908875,17.0915409 10.2859645,17.1669379 C10.2805939,17.2498285 10.2289019,17.3053963 10.1459933,17.3326038 C9.89335147,17.4152638 9.89413469,17.4171083 9.98632993,17.6711985 C9.99069354,17.6834188 9.98867957,17.6980601 9.99013411,17.7171976 C9.97212023,17.728265 9.95477768,17.7424452 9.9349736,17.7506305 C9.51830478,17.9237899 9.16015309,18.1896393 8.83433687,18.5019488 C8.66818403,18.6611587 8.51579334,18.8365086 8.36385019,19.0108209 C8.26460603,19.1247234 8.18941767,19.2558034 8.16357167,19.4112089 C8.16111015,19.426196 8.1437676,19.4385316 8.12206143,19.4666614 Z M12.8697252,17.4759157 C13.0513185,17.3781532 13.2361565,17.2865009 13.41361,17.1813602 C13.7398738,16.9882562 14.0106414,16.7273642 14.2345281,16.4174757 C14.3003179,16.3266304 14.3512267,16.2198756 14.3884852,16.1126597 C14.4690442,15.8812809 14.410639,15.6992444 14.2127101,15.5580191 C14.1029485,15.4796247 13.9842359,15.4129895 13.8651877,15.3501586 C13.6618882,15.2428274 13.4574699,15.1382631 13.2809115,14.9859704 C13.1365767,14.8613463 13.0318501,14.7118205 12.9958223,14.5156039 C12.9300325,14.1570647 13.1435137,13.8050967 13.490141,13.7321208 C14.1041793,13.6031158 14.6643997,13.8213521 14.9832789,14.4322521 C15.1384667,14.7294592 15.217683,15.0489165 15.230662,15.384975 C15.2371515,15.5506408 15.2292075,15.7168831 15.2328997,15.8827796 C15.2345781,15.9656701 15.2079488,16.0335736 15.1644246,16.1010158 C14.7217979,16.7871976 14.0998157,17.2053396 13.3318203,17.403862 C13.1812198,17.4428286 13.0267032,17.4655399 12.8739769,17.4957449 C12.8726342,17.4890583 12.8711797,17.4826023 12.8697252,17.4759157 Z M12.9808406,14.8081419 C13.1546018,15.0643072 13.4043345,15.2085299 13.6554099,15.3520608 C13.811381,15.4414074 13.9701493,15.5276413 14.1173932,15.6310528 C14.3477694,15.7926836 14.3853636,15.992013 14.240805,16.2393013 C13.8805275,16.8563115 13.3460412,17.214159 12.6655418,17.3493894 C12.3071663,17.4206361 11.9470006,17.4220195 11.5671428,17.3651836 C11.6287928,17.3410888 11.6755617,17.3216055 11.723002,17.3041973 C12.0814894,17.1736936 12.4079769,16.9876222 12.6751641,16.7047105 C13.0338752,16.3248434 13.1699303,15.8733838 13.0737072,15.3497551 C13.0405885,15.1696785 13.0116096,14.9886796 12.9808406,14.8081419 Z M10.7960369,11.6309081 C11.1714193,11.5292259 11.5469135,11.4273132 11.9224078,11.3258615 C12.3500416,11.2102298 12.7756614,11.0854904 13.2065399,10.9843847 C13.3598257,10.9485307 13.5256429,10.9669765 13.6857538,10.9670918 C13.7926063,10.9672071 13.8994588,10.9806955 14.0064232,10.9849611 C14.2741698,10.9956827 14.5419165,11.0044444 14.809775,11.0145896 C14.8270057,11.0152813 14.8441245,11.0211609 14.8593411,11.0242736 C14.8894389,11.1500505 14.8896626,11.1521257 14.7923206,11.1944356 C14.2943096,11.4112884 13.7956273,11.6260661 13.2980638,11.8440717 C12.929171,12.0057026 12.5457327,12.0853652 12.146854,12.0353311 C11.9306875,12.0082389 11.7160874,11.9567061 11.5055152,11.8979103 C11.2655166,11.8308139 11.0308887,11.7435424 10.7937992,11.6649174 C10.7945824,11.6536194 10.7953656,11.6423214 10.7960369,11.6309081 Z M17.7892032,14.9352561 C17.9685588,14.6990353 17.986237,14.4927888 17.851077,14.2919607 C17.7249798,14.1048517 17.5173167,14.0487074 17.2373744,14.1345954 C16.792398,13.5754587 16.1816045,13.2361723 15.5486573,12.8746356 C15.5962094,12.8746356 15.6129926,12.8707159 15.6273141,12.8752121 C16.1619123,13.0421461 16.6978532,13.2043534 17.2299898,13.3791268 C17.5626312,13.4884179 17.8847551,13.6271068 18.181033,13.8215942 C18.3216755,13.9138229 18.4481083,14.0218458 18.5429889,14.1660685 C18.6282471,14.2958804 18.6834076,14.4371057 18.6665126,14.5941251 C18.6539812,14.7116015 18.6961628,14.7838857 18.7866797,14.846486 C18.8372529,14.8814176 18.8782037,14.933988 18.9166929,14.9841374 C19.0233217,15.1229416 19.0217552,15.2740814 18.9451123,15.4241837 C18.8844694,15.5430435 18.7984279,15.6417282 18.6787084,15.7197768 C18.5631286,15.4435517 18.3331999,15.3764553 18.0779847,15.3535134 C18.0116354,15.3475186 17.9458456,15.3358747 17.8678601,15.3251531 C17.8420141,15.1967246 17.8159443,15.0677197 17.7892032,14.9352561 Z M9.71677072,15.2883077 C9.49825455,15.3635894 9.28801806,15.4389864 9.07610325,15.5083886 C8.69322444,15.6339349 8.31213581,15.7655914 7.91527107,15.8408731 C7.51628047,15.9165007 7.11650665,15.9301044 6.71662095,15.8639303 C6.34672108,15.8028288 5.97883517,15.7286999 5.61027795,15.6590672 C5.563509,15.6503055 5.51819459,15.6335891 5.47120187,15.5946224 C5.5947256,15.5722569 5.71813744,15.5481622 5.84210872,15.5277566 C6.26504325,15.4581239 6.68820154,15.3899899 7.11124794,15.3207031 C7.59605621,15.2415016 8.08086448,15.1617238 8.56567276,15.0821765 C8.81686006,15.0409042 9.06871868,15.0029751 9.3187871,14.9557079 C9.40908026,14.9387608 9.46793306,14.9491366 9.5191775,15.0384831 C9.5681842,15.12391 9.6412467,15.1948109 9.71677072,15.2883077 Z M17.1751985,10.5902797 C17.3560086,11.3086263 16.9773815,11.8593471 16.2872598,12.0307773 C16.2539174,11.8952011 16.1431488,11.8512771 16.0285761,11.8065462 C15.8449688,11.7347231 15.7080186,11.609292 15.6378651,11.4151505 C15.5648026,11.2125931 15.5716278,10.8644297 15.8243815,10.6640627 C15.9347025,10.576676 16.0981701,10.565378 16.2117358,10.6484991 C16.2618614,10.6851601 16.3016933,10.7366929 16.3471196,10.7803862 C16.392434,10.8239643 16.4345037,10.8733067 16.4856362,10.9080077 C16.7009077,11.0539597 16.9287105,10.9896302 17.0495489,10.7551386 C17.0797585,10.6965734 17.0869193,10.6193318 17.1751985,10.5902797 Z M12.8314261,13.6364219 C12.8000976,13.5939967 12.7656363,13.5473059 12.7190911,13.4841292 C12.8052444,13.4086169 12.8882649,13.3359868 12.9655791,13.2681987 C12.9860545,13.2725796 12.9986978,13.2714267 13.0020544,13.2766146 C13.0757883,13.3913241 13.1639556,13.4151882 13.2800947,13.3370244 C13.319591,13.3105086 13.3725137,13.3041679 13.4201778,13.2921782 C13.4630307,13.2814566 13.5071143,13.2756923 13.5541071,13.2671611 C13.570107,13.2019093 13.584988,13.1406925 13.6044564,13.061491 C13.7100781,13.0719821 13.8143572,13.0823578 13.9272517,13.0936558 L13.9272517,13.2837623 C14.0638662,13.3553549 14.1981311,13.4256793 14.3470533,13.5037278 C14.3857664,13.4772121 14.4368989,13.4422804 14.5019055,13.3977801 C14.5719471,13.4829764 14.6427718,13.5692102 14.7236664,13.6676644 C14.6690654,13.7158539 14.619723,13.759432 14.5674716,13.8057769 C14.3822979,13.6982152 14.1894039,13.6261615 13.9837548,13.6002221 C13.6722602,13.5610249 13.3744158,13.5878866 13.1329627,13.828373 C12.9106424,14.0497219 12.8249366,14.3179923 12.8787545,14.6328381 C12.9020271,14.7687602 12.9250759,14.9046823 12.9458869,15.0410656 C12.9710616,15.2063856 12.9699427,15.2065008 12.8139717,15.3027646 C12.7180841,15.2436229 12.6657208,15.1421713 12.5935534,15.0483286 C12.6400986,14.9978333 12.6822801,14.9522954 12.7183079,14.9132135 C12.6710914,14.7559635 12.6263364,14.6074752 12.580015,14.4531074 C12.5276517,14.4412329 12.4715961,14.4284362 12.4016664,14.4122962 C12.4072608,14.30093 12.4129671,14.188872 12.4192328,14.063441 C12.4892743,14.0680524 12.5455537,14.0717416 12.6055254,14.0756613 C12.6791473,13.9325914 12.7535524,13.7880229 12.8314261,13.6364219 Z M10.588262,13.3330586 C11.1500488,13.0621366 11.724367,12.9191821 12.2887273,12.7256171 C12.0779313,13.0198267 11.8999184,13.3268331 11.8279748,13.7094671 C11.4449841,13.4831608 11.041518,13.3676443 10.588262,13.3330586 Z M7.08074743,18.6895767 C7.15090085,18.8493629 7.21467669,18.9857462 7.27129173,19.1252421 C7.33943118,19.2932137 7.33227039,19.4584184 7.22944583,19.6111723 C7.09462147,19.8114239 6.91907008,19.9555313 6.67985474,19.9940368 C6.51247113,20.0210137 6.37663978,19.9557619 6.26911595,19.8124615 C6.35627627,19.7740713 6.43985618,19.7472097 6.51314245,19.702594 C6.63062426,19.6310015 6.71107133,19.5185977 6.78357439,19.4018131 C6.91672044,19.1870354 7.00768493,18.953005 7.08074743,18.6895767 Z M16.1485977,10.498028 C16.1902198,10.4739332 16.2425832,10.447648 16.2908067,10.4149068 C16.41075,10.3333997 16.4472253,10.2355219 16.4066102,10.0942967 C16.3901627,10.0374607 16.3611839,9.98442918 16.3369043,9.9302448 C16.3206806,9.89439087 16.3025548,9.85945924 16.272569,9.7983577 C16.3256036,9.8188786 16.3540231,9.82614161 16.3788621,9.84009121 C16.5596722,9.94211924 16.7379089,10.0481823 16.8800059,10.2063546 C16.8982436,10.2266449 16.9174882,10.2461282 16.9348307,10.2671103 C17.0944941,10.4599836 17.0995291,10.5529041 16.9621313,10.7609951 C16.8663556,10.9059095 16.712958,10.9507558 16.5626931,10.868211 C16.5048473,10.8365074 16.4556168,10.7864733 16.4058269,10.7410507 C16.3203449,10.6632327 16.2374363,10.582302 16.1485977,10.498028 Z M10.7397576,16.0248349 C10.6743034,15.9633875 10.7017158,15.8927172 10.6993662,15.8174355 C10.7960369,15.8098266 10.8466101,15.7562187 10.8610436,15.6564964 C10.8686519,15.6040413 10.900316,15.5553906 10.922246,15.5021285 C10.8951692,15.4678886 10.8702183,15.4363003 10.8375472,15.3949126 C10.8856588,15.3425728 10.9338823,15.2901177 10.9885952,15.2307455 C11.0233922,15.2543791 11.0551683,15.2760528 11.0915317,15.3006087 C11.1737689,15.2614115 11.2585796,15.2211767 11.3515581,15.1770222 C11.3592783,15.1452033 11.3686769,15.106352 11.3800894,15.0597765 C11.4442009,15.0513606 11.5092075,15.0427141 11.581263,15.0332607 C11.5946895,15.0801821 11.6067733,15.1223767 11.6191928,15.1654936 C11.7089266,15.1982348 11.796982,15.2303996 11.8902961,15.2645242 C11.918268,15.2434269 11.9499321,15.2195627 11.9879738,15.1909718 C12.0411204,15.2376626 12.0910222,15.2815866 12.1466302,15.3305831 C12.1208961,15.3750834 12.0990781,15.4128972 12.0778194,15.449904 C12.1033298,15.5014368 12.1347702,15.5481276 12.1499868,15.599891 C12.1748259,15.6838191 12.2127557,15.7419232 12.3192725,15.7258985 L12.3192725,15.9485156 C12.2552729,15.9858682 12.2098466,15.9605053 12.1721406,15.9051681 C12.113064,15.8184731 12.0533161,15.7322392 11.9946871,15.6451983 C11.8823521,15.4782643 11.7407026,15.3639007 11.5333752,15.3542167 C11.3997816,15.3479913 11.2822998,15.3859203 11.1942443,15.4872566 C11.0930981,15.6036954 11.0023574,15.7293571 10.90826,15.8520213 C10.8592534,15.916005 10.8175193,15.9871364 10.7397576,16.0248349 Z M7.27059803,18.8188237 C7.1034382,18.6219153 7.07434747,18.4247764 7.16106023,18.2186452 C7.2397171,18.0315362 7.38886305,17.9326208 7.6146519,17.9187865 C7.59003667,17.9595977 7.5808619,17.9898027 7.56105782,18.0045593 C7.51417698,18.0393756 7.46069479,18.0648538 7.4124713,18.0979408 C7.25638833,18.2051568 7.18500414,18.3519157 7.22069623,18.5467489 C7.23557726,18.6272185 7.25023452,18.7078034 7.27059803,18.8188237 Z M17.5695209,14.9334427 C17.4262368,14.9270904 17.34376,14.8370233 17.3479612,14.6904657 C17.3517202,14.5484454 17.4465796,14.4483961 17.5774811,14.4486229 C17.7150162,14.4488498 17.8291128,14.5738548 17.8178358,14.7120182 C17.8065588,14.8508623 17.707056,14.9393413 17.5695209,14.9334427 Z" id="Finagle" fill="#000000" fill-rule="nonzero"></path>
    </g>
</svg>