<?xml version="1.0" encoding="UTF-8"?>
<svg width="24px" height="24px" viewBox="0 0 24 24" version="1.1" xmlns="http://www.w3.org/2000/svg" xmlns:xlink="http://www.w3.org/1999/xlink">
    <!-- Generator: Sketch 51.2 (57519) - http://www.bohemiancoding.com/sketch -->
    <title>Cloud-Upload</title>
    <desc>Created with Sketch.</desc>
    <defs></defs>
    <g id="Cloud-Upload" stroke="none" stroke-width="1" fill="none" fill-rule="evenodd">
        <path d="M12.75,13.8106602 L12.75,18 C12.75,18.4142136 12.4142136,18.75 12,18.75 C11.5857864,18.75 11.25,18.4142136 11.25,18 L11.25,13.8106602 L9.53033009,15.5303301 C9.23743687,15.8232233 8.76256314,15.8232233 8.46966992,15.5303301 C8.17677669,15.2374369 8.17677669,14.7625632 8.46966992,14.4696699 L11.4696699,11.4696699 C11.7625631,11.1767767 12.2374369,11.1767767 12.5303301,11.4696699 L15.5303301,14.4696699 C15.8232233,14.7625632 15.8232233,15.2374369 15.5303301,15.5303301 C15.2374369,15.8232233 14.7625632,15.8232233 14.4696699,15.5303301 L12.75,13.8106602 Z M6.49999998,15 L5.99999997,15 C4.34314572,15 2.99999996,13.6568542 2.99999996,12 C2.99999996,10.3431458 4.34314572,8.99999999 5.99999997,8.99999999 C6.03335946,8.99999999 6.06659177,9.00054448 6.0996885,9.00162507 C6.56233067,6.71857513 8.58046797,4.99999997 11,4.99999997 C13.4198175,4.99999997 15.4381455,6.71898067 15.9004752,9.00243315 C15.9334466,9.00081735 15.9666278,8.99999999 16,8.99999999 C16.7819854,8.99999999 17.4591504,9.44878994 17.7879799,10.102855 C18.0136389,10.0359296 18.2526236,9.99999999 18.5,9.99999999 C19.8807119,9.99999999 21,11.1192881 21,12.5 C21,13.8807119 19.8807119,15 18.5,15 L17.5,15 C17.2238576,15 17,14.7761424 17,14.5 L17,14.4249394 C17,14.1533805 16.889561,13.8934987 16.6940634,13.7050182 C14.503287,11.5929009 13.397595,10.5273195 13.3769757,10.5082863 C12.5653343,9.75907874 11.3000162,9.80969146 10.5508086,10.6213329 L7.31067177,13.7043894 C7.11229313,13.8931508 6.99999998,14.1550049 6.99999998,14.4288386 L6.99999998,14.5 C6.99999998,14.7761424 6.77614235,15 6.49999998,15 Z" id="Upload" fill="#000000" fill-rule="nonzero"></path>
    </g>
</svg>