<?xml version="1.0" encoding="UTF-8"?>
<svg width="24px" height="24px" viewBox="0 0 24 24" version="1.1" xmlns="http://www.w3.org/2000/svg" xmlns:xlink="http://www.w3.org/1999/xlink">
    <!-- Generator: Sketch 51.2 (57519) - http://www.bohemiancoding.com/sketch -->
    <title>Bars</title>
    <desc>Created with Sketch.</desc>
    <defs></defs>
    <g id="Bars" stroke="none" stroke-width="1" fill="none" fill-rule="evenodd">
        <path d="M4.49999997,5.99999997 L19.5,5.99999997 C19.7761424,5.99999997 20,6.2238576 20,6.49999997 L20,7.46412378 C20,7.74026616 19.7761424,7.96412378 19.5,7.96412378 L4.49999997,7.96412378 C4.22385759,7.96412378 3.99999997,7.74026616 3.99999997,7.46412378 L3.99999997,6.49999997 C3.99999997,6.2238576 4.22385759,5.99999997 4.49999997,5.99999997 Z M4.49999997,11 L19.5,11 C19.7761424,11 20,11.2238576 20,11.5 L20,12.3997293 C20,12.6758717 19.7761424,12.8997293 19.5,12.8997293 L4.49999997,12.8997293 C4.22385759,12.8997293 3.99999997,12.6758717 3.99999997,12.3997293 L3.99999997,11.5 C3.99999997,11.2238576 4.22385759,11 4.49999997,11 Z M4.49999997,16 L19.5,16 C19.7761424,16 20,16.2238576 20,16.5 L20,17.4329068 C20,17.7090492 19.7761424,17.9329068 19.5,17.9329068 L4.49999997,17.9329068 C4.22385759,17.9329068 3.99999997,17.7090492 3.99999997,17.4329068 L3.99999997,16.5 C3.99999997,16.2238576 4.22385759,16 4.49999997,16 Z" fill="#000000" fill-rule="nonzero"></path>
    </g>
</svg>