<?xml version="1.0" encoding="UTF-8"?>
<svg width="24px" height="24px" viewBox="0 0 24 24" version="1.1" xmlns="http://www.w3.org/2000/svg" xmlns:xlink="http://www.w3.org/1999/xlink">
    <!-- Generator: Sketch 51.2 (57519) - http://www.bohemiancoding.com/sketch -->
    <title>Frame-Triangle A</title>
    <desc>Created with Sketch.</desc>
    <defs></defs>
    <g id="Frame-Triangle-A" stroke="none" stroke-width="1" fill="none" fill-rule="evenodd">
        <path d="M12.39961,5.68057057 C12.0490888,5.45987209 11.5860239,5.56511413 11.3653254,5.91563525 L4.95270198,16.10039 C4.87735586,16.2200574 4.83737661,16.3585881 4.83737661,16.5 C4.83737661,16.9142136 5.17316305,17.25 5.58737661,17.25 L18.4126234,17.25 C18.5540353,17.25 18.692566,17.2100207 18.8122333,17.1346746 C19.1627545,16.9139761 19.2679965,16.4509112 19.047298,16.10039 L12.6346746,5.91563525 C12.57489,5.82068313 12.4945621,5.74035524 12.39961,5.68057057 Z M20.3166473,15.3011701 C20.9787427,16.3527335 20.6630166,17.7419284 19.6114532,18.4040239 C19.2524512,18.6300622 18.836859,18.75 18.4126234,18.75 L5.58737661,18.75 C4.34473592,18.75 3.33737661,17.7426407 3.33737661,16.5 C3.33737661,16.0757644 3.45731437,15.6601722 3.68335272,15.3011701 L10.0959761,5.11641534 C10.7580716,4.06485199 12.1472665,3.74912586 13.1988299,4.41122131 C13.4836862,4.59057532 13.7246699,4.83155898 13.9040239,5.11641534 L20.3166473,15.3011701 Z" id="A" fill="#000000" fill-rule="nonzero"></path>
    </g>
</svg>