<?xml version="1.0" encoding="UTF-8"?>
<svg width="24px" height="24px" viewBox="0 0 24 24" version="1.1" xmlns="http://www.w3.org/2000/svg" xmlns:xlink="http://www.w3.org/1999/xlink">
    <!-- Generator: Sketch 51.2 (57519) - http://www.bohemiancoding.com/sketch -->
    <title>List / Grid</title>
    <desc>Created with Sketch.</desc>
    <defs></defs>
    <g id="List-/-Grid" stroke="none" stroke-width="1" fill="none" fill-rule="evenodd">
        <path d="M6.49999998,5.99999997 L6.90909089,5.99999997 L10.5,5.99999997 C10.7761424,5.99999997 11,6.22385761 11,6.49999998 L11,10.5 C11,10.7761424 10.7761424,11 10.5,11 L6.49999998,11 C6.22385761,11 5.99999997,10.7761424 5.99999997,10.5 L5.99999997,6.49999998 C5.99999997,6.22385761 6.22385761,5.99999997 6.49999998,5.99999997 Z M6.49999998,13 L6.90909089,13 L10.5,13 C10.7761424,13 11,13.2238576 11,13.5 L11,17.5 C11,17.7761424 10.7761424,18 10.5,18 L6.49999998,18 C6.22385761,18 5.99999997,17.7761424 5.99999997,17.5 L5.99999997,13.5 C5.99999997,13.2238576 6.22385761,13 6.49999998,13 Z M13.5,5.99999997 L13.9090909,5.99999997 L17.5,5.99999997 C17.7761424,5.99999997 18,6.22385761 18,6.49999998 L18,10.5 C18,10.7761424 17.7761424,11 17.5,11 L13.5,11 C13.2238576,11 13,10.7761424 13,10.5 L13,6.49999998 C13,6.22385761 13.2238576,5.99999997 13.5,5.99999997 Z M13.5,13 L13.9090909,13 L17.5,13 C17.7761424,13 18,13.2238576 18,13.5 L18,17.5 C18,17.7761424 17.7761424,18 17.5,18 L13.5,18 C13.2238576,18 13,17.7761424 13,17.5 L13,13.5 C13,13.2238576 13.2238576,13 13.5,13 Z" id="Grid" fill="#000000" fill-rule="nonzero"></path>
    </g>
</svg>