<?xml version="1.0" encoding="UTF-8"?>
<svg width="24px" height="24px" viewBox="0 0 24 24" version="1.1" xmlns="http://www.w3.org/2000/svg" xmlns:xlink="http://www.w3.org/1999/xlink">
    <!-- Generator: Sketch 51.2 (57519) - http://www.bohemiancoding.com/sketch -->
    <title>Brands / LinkedIn</title>
    <desc>Created with Sketch.</desc>
    <defs></defs>
    <g id="Brands-/-LinkedIn" stroke="none" stroke-width="1" fill="none" fill-rule="evenodd">
        <path d="M7.62936219,20 L7.62936219,9.20578979 L4.20216603,9.20578979 L4.20216603,20 L7.62936219,20 Z M5.91576411,7.7356828 L5.91576411,7.72561357 L5.8965102,7.72561357 C4.74127554,7.72561357 3.99999997,6.89993705 3.99999997,5.86280677 C3.99999997,4.80553804 4.77015641,3.99999997 5.94464498,3.99999997 C7.11913355,3.99999997 7.84115521,4.80553804 7.86040913,5.87287599 C7.86040913,6.91000627 7.1095066,7.7356828 5.91576411,7.7356828 Z M9.53549939,20 C9.53549939,20 9.57400721,10.2127124 9.53549939,9.20578979 L12.9530686,9.20578979 L12.9530686,10.776589 L12.9338147,10.776589 C13.3862816,10.0314663 14.2045728,8.95405915 16.0529483,8.95405915 C18.3056558,8.95405915 20,10.4946507 20,13.8074261 L20,20 L16.5728039,20 L16.5728039,14.2202643 C16.5728039,12.7702958 16.0818291,11.7835116 14.8399519,11.7835116 C13.8868833,11.7835116 13.3285199,12.4480806 13.078219,13.092511 C12.9819495,13.3241032 12.9626956,13.6463184 12.9626956,13.9685337 L12.9626956,20 L9.53549939,20 Z" id="LinkedIn" fill="#000000" fill-rule="nonzero"></path>
    </g>
</svg>