<?xml version="1.0" encoding="UTF-8"?>
<svg width="24px" height="24px" viewBox="0 0 24 24" version="1.1" xmlns="http://www.w3.org/2000/svg" xmlns:xlink="http://www.w3.org/1999/xlink">
    <!-- Generator: Sketch 51.2 (57519) - http://www.bohemiancoding.com/sketch -->
    <title>Folder-Shared Folder</title>
    <desc>Created with Sketch.</desc>
    <defs></defs>
    <g id="Folder-Shared-Folder" stroke="none" stroke-width="1" fill="none" fill-rule="evenodd">
        <path d="M19.5150135,14.8437076 C18.7902677,14.0440032 17.5088608,13.5714286 17.5088608,13.5714286 C17.5088608,13.5714286 17.196468,13.4478356 17.196468,13.3137704 C17.196468,13.1797052 17.3940305,13.066755 17.5088608,13 C18.0319131,12.6457143 18.095973,12.0914286 18.1308017,10.7142857 C18.0232059,9.33485713 16.969638,8.99999999 16.2649789,8.99999999 C15.5603198,8.99999999 14.5067519,9.33542856 14.3991561,10.7142857 C14.4339848,12.0914286 14.4980447,12.6457143 15.0210971,13 C15.1523986,13.0558404 15.3373521,13.1416704 15.3385463,13.3137704 C15.3397405,13.4858704 15.0210971,13.5714286 15.0210971,13.5714286 C15.0210971,13.5714286 12.5333333,14.4287619 12.5333333,15.9333333 L12.5333333,16.4946961 C12.5333333,16.7737678 12.307101,17 12.0280294,17 L4.49999997,17 C4.2238576,17 3.99999997,16.7761424 3.99999997,16.5 L3.99999997,6.49999998 C3.99999997,6.22385761 4.2238576,5.99999998 4.49999997,5.99999998 L8.19098299,5.99999998 C8.38036901,5.99999998 8.55350058,6.10700117 8.63819659,6.27639318 L8.74999999,6.49999998 C8.90321651,6.80643301 9.21641444,6.99999998 9.55901698,6.99999998 L19.5,6.99999998 C19.7761424,6.99999998 20,7.22385761 20,7.49999998 L20,14.6566186 L20.0000555,14.6566186 C20.0000555,14.8104866 19.8753208,14.9352213 19.7214527,14.9352213 C19.6428076,14.9352213 19.5678258,14.9019822 19.5150135,14.8437076 Z" id="Shared-Folder" fill="#000000" fill-rule="nonzero"></path>
    </g>
</svg>