<?xml version="1.0" encoding="UTF-8"?>
<svg width="24px" height="24px" viewBox="0 0 24 24" version="1.1" xmlns="http://www.w3.org/2000/svg" xmlns:xlink="http://www.w3.org/1999/xlink">
    <!-- Generator: Sketch 51.2 (57519) - http://www.bohemiancoding.com/sketch -->
    <title>Magnifier-EKG</title>
    <desc>Created with Sketch.</desc>
    <defs></defs>
    <g id="Magnifier-EKG" stroke="none" stroke-width="1" fill="none" fill-rule="evenodd">
        <path d="M3.0113636,12.3708222 C2.59715004,12.3708222 2.2613636,12.0350358 2.2613636,11.6208222 C2.2613636,11.2066086 2.59715004,10.8708222 3.0113636,10.8708222 L3.09304643,10.8708222 C3.50726,10.8708222 3.84304644,11.2066086 3.84304644,11.6208222 C3.84304644,12.0350358 3.50726,12.3708222 3.09304643,12.3708222 L3.0113636,12.3708222 Z M8.17921841,11.2293157 L7.6072134,12.0497582 C7.46695952,12.2509282 7.23721423,12.3708222 6.99197859,12.3708222 L6.89744122,12.3708222 C6.48322765,12.3708222 6.14744122,12.0350358 6.14744122,11.6208222 C6.14744122,11.337675 6.30434698,11.0911752 6.53595252,10.9635287 L7.65415021,9.35966688 C7.97573274,8.89841219 8.67173583,8.94197135 8.93329928,9.43972207 L10.3522449,12.139951 L12.2713449,7.95051871 C12.5328299,7.37969185 13.3380684,7.36364538 13.6220872,7.92360165 L15.1755763,10.9863775 C15.3858056,11.1192518 15.5254193,11.3537327 15.5254193,11.6208222 C15.5254193,12.0350358 15.1896329,12.3708222 14.7754193,12.3708222 L14.6564171,12.3708222 C14.3738926,12.3708222 14.1153398,12.2120543 13.9875385,11.9600882 L12.9875995,9.98866216 L11.0802594,14.1524224 C10.820864,14.7186876 10.0242154,14.7403131 9.73448143,14.1889544 L8.17921841,11.2293157 Z M18.865867,12.3708222 C18.4516535,12.3708222 18.115867,12.0350358 18.115867,11.6208222 C18.115867,11.2066086 18.4516535,10.8708222 18.865867,10.8708222 L19.4886364,10.8708222 C19.90285,10.8708222 20.2386364,11.2066086 20.2386364,11.6208222 C20.2386364,12.0350358 19.90285,12.3708222 19.4886364,12.3708222 L18.865867,12.3708222 Z M15.8958417,15.3026084 L17.0570544,15.923721 L20.4333333,19.3 C20.7462947,19.6129614 20.7462947,20.120372 20.4333333,20.4333333 C20.120372,20.7462947 19.6129614,20.7462947 19.3,20.4333333 L15.8984049,17.0317382 L15.3333333,15.9 L15.8958417,15.3026084 Z M11,17.75 C7.27207792,17.75 4.24999997,14.7279221 4.24999997,11 C4.24999997,7.27207792 7.27207792,4.24999997 11,4.24999997 C14.7279221,4.24999997 17.75,7.27207792 17.75,11 C17.75,14.7279221 14.7279221,17.75 11,17.75 Z M11,16.25 C13.8994949,16.25 16.25,13.8994949 16.25,11 C16.25,8.10050505 13.8994949,5.74999997 11,5.74999997 C8.10050505,5.74999997 5.74999997,8.10050505 5.74999997,11 C5.74999997,13.8994949 8.10050505,16.25 11,16.25 Z" id="Explorer" fill="#000000" fill-rule="nonzero"></path>
    </g>
</svg>