<?xml version="1.0" encoding="UTF-8"?>
<svg width="24px" height="24px" viewBox="0 0 24 24" version="1.1" xmlns="http://www.w3.org/2000/svg" xmlns:xlink="http://www.w3.org/1999/xlink">
    <!-- Generator: Sketch 51.2 (57519) - http://www.bohemiancoding.com/sketch -->
    <title>Drive</title>
    <desc>Created with Sketch.</desc>
    <defs></defs>
    <g id="Drive" stroke="none" stroke-width="1" fill="none" fill-rule="evenodd">
        <path d="M19,15 L4.99999997,15 L4.99999997,3.49999996 C4.99999997,3.22385759 5.2238576,2.99999996 5.49999997,2.99999996 L18.5,2.99999996 C18.7761424,2.99999996 19,3.22385759 19,3.49999996 L19,15 Z M19,16 L19,20.5 C19,20.7761424 18.7761424,21 18.5,21 L5.49999997,21 C5.2238576,21 4.99999997,20.7761424 4.99999997,20.5 L4.99999997,16 L19,16 Z M9.49999999,9.99999999 C10.8807119,9.99999999 12,8.88071186 12,7.49999998 C12,6.11928811 10.8807119,4.99999997 9.49999999,4.99999997 C8.11928811,4.99999997 6.99999998,6.11928811 6.99999998,7.49999998 C6.99999998,8.88071186 8.11928811,9.99999999 9.49999999,9.99999999 Z M15.5,18 C15.2238576,18 15,18.2238576 15,18.5 C15,18.7761424 15.2238576,19 15.5,19 L16.5,19 C16.7761424,19 17,18.7761424 17,18.5 C17,18.2238576 16.7761424,18 16.5,18 L15.5,18 Z" id="Workspace" fill="#000000" fill-rule="nonzero"></path>
    </g>
</svg>