<?xml version="1.0" encoding="UTF-8"?>
<svg width="24px" height="24px" viewBox="0 0 24 24" version="1.1" xmlns="http://www.w3.org/2000/svg" xmlns:xlink="http://www.w3.org/1999/xlink">
    <!-- Generator: Sketch 51.2 (57519) - http://www.bohemiancoding.com/sketch -->
    <title>IconObject</title>
    <desc>Created with Sketch.</desc>
    <defs></defs>
    <g id="IconObject" stroke="none" stroke-width="1" fill="#000" fill-rule="evenodd">
        <path d="M6.49999999,5.99999999 L17.5,5.99999999 C17.7761424,5.99999999 18,6.22385762 18,6.49999999 L18,17.5 C18,17.7761424 17.7761424,18 17.5,18 L6.49999999,18 C6.22385762,18 5.99999999,17.7761424 5.99999999,17.5 L5.99999999,6.49999999 C5.99999999,6.22385762 6.22385762,5.99999999 6.49999999,5.99999999 Z M7.25,7 C7.11192881,7 7,7.11192881 7,7.25 L7,16.75 C7,16.8880712 7.11192883,17 7.25,17 L16.75,17 C16.8880711,17 17,16.8880711 17,16.75 L17,7.25 C17,7.11192883 16.8880712,7 16.75,7 L7.25,7 Z M8.125,8 L15.875,8 C15.9440356,8 16,8.05596441 16,8.125 L16,15.875 C16,15.9440356 15.9440356,16 15.875,16 L8.125,16 C8.05596441,16 8,15.9440356 8,15.875 L8,8.125 C8,8.05596441 8.05596441,8 8.125,8 Z" id="Object" fill-rule="nonzero"></path>
    </g>
</svg>