<?xml version="1.0" encoding="UTF-8"?>
<svg width="24px" height="24px" viewBox="0 0 24 24" version="1.1" xmlns="http://www.w3.org/2000/svg" xmlns:xlink="http://www.w3.org/1999/xlink">
    <!-- Generator: Sketch 51.2 (57519) - http://www.bohemiancoding.com/sketch -->
    <title>IconObjectAdd</title>
    <desc>Created with Sketch.</desc>
    <defs></defs>
    <g id="IconObjectAdd" stroke="none" stroke-width="1" fill="#000" fill-rule="evenodd">
        <path d="M8.99999998,12.5 L8.99999998,12 C8.99999998,11 8,10 7,10 L6.49999999,10 C6.22385762,10 6,9.77614238 6,9.50000001 L6,6.5 C6,6.22385763 6.22385763,6 6.5,6 L17.5,6 C17.7761424,6 18,6.22385763 18,6.5 L18,17.5 C18,17.7761424 17.7761424,18 17.5,18 L9.5,18 C9.22386328,18 9.00001024,17.776147 9.00001024,17.5000102 C8.99999998,17.2238576 9.2238576,17 9.49999996,17 L9.99999999,17 C11.1045695,17 12,16.1045695 12,15 C12,13.8954305 11.1045695,13 9.99999999,13 L9.49999998,13 C9.22385761,13 8.99999998,12.7761424 8.99999998,12.5 Z M7.74999998,14.25 L9.99999999,14.25 C10.4142136,14.25 10.75,14.5857864 10.75,15 C10.75,15.4142136 10.4142136,15.75 9.99999999,15.75 L7.74999998,15.75 L7.74999998,18 C7.74999998,18.4142136 7.41421354,18.75 6.99999998,18.75 C6.58578641,18.75 6.24999997,18.4142136 6.24999997,18 L6.24999997,15.75 L3.99999996,15.75 C3.5857864,15.75 3.24999996,15.4142136 3.24999996,15 C3.24999996,14.5857864 3.5857864,14.25 3.99999996,14.25 L6.24999997,14.25 L6.24999997,12 C6.24999997,11.5857864 6.58578641,11.25 6.99999998,11.25 C7.41421354,11.25 7.74999998,11.5857864 7.74999998,12 L7.74999998,14.25 Z" id="Add-Object" fill-rule="nonzero"></path>
    </g>
</svg>