<?xml version="1.0" encoding="UTF-8"?>
<svg width="24px" height="24px" viewBox="0 0 24 24" version="1.1" xmlns="http://www.w3.org/2000/svg" xmlns:xlink="http://www.w3.org/1999/xlink">
    <!-- Generator: Sketch 51.2 (57519) - http://www.bohemiancoding.com/sketch -->
    <title>LinkOut</title>
    <desc>Created with Sketch.</desc>
    <defs></defs>
    <g id="LinkOut" stroke="none" stroke-width="1" fill="none" fill-rule="evenodd">
        <path d="M16.25,12.5 C16.25,12.0857864 16.5857865,11.75 17,11.75 C17.4142136,11.75 17.75,12.0857864 17.75,12.5 L17.75,17 C17.75,17.9664983 16.9664983,18.75 16,18.75 L6.99999998,18.75 C6.03350167,18.75 5.24999997,17.9664983 5.24999997,17 L5.24999997,7.99999998 C5.24999997,7.03350167 6.03350166,6.24999998 6.99999998,6.24999998 L11.5,6.24999998 C11.9142136,6.24999998 12.25,6.58578642 12.25,6.99999998 C12.25,7.41421354 11.9142136,7.74999998 11.5,7.74999998 L6.99999998,7.74999998 C6.86192879,7.74999998 6.74999998,7.8619288 6.74999998,7.99999998 L6.74999998,17 C6.74999998,17.1380712 6.86192881,17.25 6.99999998,17.25 L16,17.25 C16.1380712,17.25 16.25,17.1380712 16.25,17 L16.25,12.5 Z M17.9696699,4.96966988 L19.0303301,6.03033006 L14.0606602,11 C13.767767,11.2928932 13.2928932,11.2928932 13,11 C12.7071068,10.7071068 12.7071068,10.232233 13,9.93933982 L17.9696699,4.96966988 Z M18.25,5.74999997 L14,5.74999997 C13.5857864,5.74999997 13.25,5.41421353 13.25,4.99999997 C13.25,4.58578641 13.5857864,4.24999997 14,4.24999997 L19.75,4.24999997 L19.75,10.0249378 C19.75,10.4391514 19.4142136,10.7749378 19,10.7749378 C18.5857865,10.7749378 18.25,10.4391514 18.25,10.0249378 L18.25,5.74999997 Z" fill="#000000" fill-rule="nonzero"></path>
    </g>
</svg>