<?xml version="1.0" encoding="UTF-8"?>
<svg width="24px" height="24px" viewBox="0 0 24 24" version="1.1" xmlns="http://www.w3.org/2000/svg" xmlns:xlink="http://www.w3.org/1999/xlink">
    <!-- Generator: Sketch 51.2 (57519) - http://www.bohemiancoding.com/sketch -->
    <title>EKG-No</title>
    <desc>Created with Sketch.</desc>
    <defs></defs>
    <g id="EKG-No" stroke="none" stroke-width="1" fill="none" fill-rule="evenodd">
        <path d="M9.9284576,12.3319432 L8.30397571,13.956425 L8.04134305,13.0109475 L7.73921402,13.5144958 C7.55849078,13.8157013 7.23298395,14.0000001 6.8817211,14.0000001 L3.3817211,13.5000001 C3.27353599,13.4459075 3.18581365,13.3581852 3.1317211,13.2500001 C2.99364991,12.9738577 3.10557872,12.6380713 3.3817211,12.5000001 L6.31553072,12.0000001 L7.52422817,9.98550434 C7.97618084,9.23224989 9.11013045,9.3859654 9.34523901,10.2323562 L9.9284576,12.3319432 Z M11.9262522,10.3341486 L13.4062801,3.77973922 C13.6414512,2.73826699 15.1262929,2.74080085 15.3579082,3.78306963 L15.925076,6.33532478 L11.9262522,10.3341486 Z M16.6964652,9.80657626 L17.1838927,12.0000001 L21.8817211,12.5000001 C21.9899062,12.5540926 22.0776285,12.641815 22.1317211,12.7500001 C22.2697923,13.0261425 22.1578635,13.3619289 21.8817211,13.5000001 L16.3817211,14.0000001 C15.9130225,14.0000001 15.5072091,13.6744681 15.405534,13.2169305 L15.0201844,11.4828571 L16.6964652,9.80657626 Z M13.3371901,13.1658514 L11.8571621,19.720261 C11.6282255,20.7341229 10.1963891,20.7691132 9.91820319,19.767644 L9.22628891,17.2767525 L13.3371901,13.1658514 Z M18.851391,4.46966991 C19.1442842,4.1767767 19.619158,4.1767767 19.9120512,4.46966991 C20.2049444,4.76256313 20.2049444,5.23743687 19.9120512,5.53033009 L5.91205118,19.5303301 C5.61915797,19.8232233 5.14428423,19.8232233 4.85139101,19.5303301 C4.55849779,19.2374369 4.55849779,18.7625631 4.85139101,18.4696699 L18.851391,4.46966991 Z" id="No-Meter" fill="#000000" fill-rule="nonzero"></path>
    </g>
</svg>