<?xml version="1.0" encoding="UTF-8"?>
<svg width="24px" height="24px" viewBox="0 0 24 24" version="1.1" xmlns="http://www.w3.org/2000/svg" xmlns:xlink="http://www.w3.org/1999/xlink">
    <!-- Generator: Sketch 51.2 (57519) - http://www.bohemiancoding.com/sketch -->
    <title>IconObjectUpload</title>
    <desc>Created with Sketch.</desc>
    <defs></defs>
    <g id="IconObjectUpload" stroke-width="1" fill-rule="evenodd">
        <path d="M12.75,9.62132033 L13.9696699,10.8409903 C14.2625631,11.1338835 14.7374369,11.1338835 15.0303301,10.8409903 C15.3232233,10.548097 15.3232233,10.0732233 15.0303301,9.78033008 L12,6.74999998 L8.9696699,9.78033008 C8.67677669,10.0732233 8.67677669,10.548097 8.9696699,10.8409903 C9.26256312,11.1338835 9.73743686,11.1338835 10.0303301,10.8409903 L11.25,9.62132033 L11.25,14 C11.25,14.4142136 11.5857864,14.75 12,14.75 C12.4142136,14.75 12.75,14.4142136 12.75,14 L12.75,9.62132033 Z M6.5,6 L17.5,6 C17.7973841,6 18,6.20261591 18,6.5 L18,17.5 C18,17.7973841 17.7973841,18 17.5,18 L6.5,18 C6.20261591,18 6,17.7973841 6,17.5 L6,6.5 C6,6.20261591 6.20261591,6 6.5,6 Z M8.5,17 L15.5,17 C15.7761424,17 16,16.7761424 16,16.5 C16,16.2238576 15.7761424,16 15.5,16 L8.5,16 C8.22385763,16 8,16.2238576 8,16.5 C8,16.7761424 8.22385763,17 8.5,17 Z" id="Upload-Object" fill-rule="nonzero"></path>
    </g>
</svg>