<?xml version="1.0" encoding="UTF-8"?>
<svg width="24px" height="24px" viewBox="0 0 24 24" version="1.1" xmlns="http://www.w3.org/2000/svg" xmlns:xlink="http://www.w3.org/1999/xlink">
    <!-- Generator: Sketch 51.2 (57519) - http://www.bohemiancoding.com/sketch -->
    <title>Memory</title>
    <desc>Created with Sketch.</desc>
    <defs></defs>
    <g id="Memory" stroke="none" stroke-width="1" fill="none" fill-rule="evenodd">
        <path d="M4.49999997,6.99999998 L19.5,6.99999998 C19.7761424,6.99999998 20,7.22385761 20,7.49999998 L20,13.5 C20,13.7761424 19.7761424,14 19.5,14 L4.49999997,14 C4.2238576,14 3.99999997,13.7761424 3.99999997,13.5 L3.99999997,7.49999998 C3.99999997,7.22385761 4.2238576,6.99999998 4.49999997,6.99999998 Z M6.49999998,7.99999998 C6.22385761,7.99999998 5.99999997,8.22385761 5.99999997,8.49999999 L5.99999997,12.5 C5.99999997,12.7761424 6.22385761,13 6.49999998,13 L8.49999999,13 C8.77614236,13 8.99999999,12.7761424 8.99999999,12.5 L8.99999999,8.49999999 C8.99999999,8.22385761 8.77614236,7.99999998 8.49999999,7.99999998 L6.49999998,7.99999998 Z M10.5,7.99999998 C10.2238576,7.99999998 9.99999999,8.22385761 9.99999999,8.49999999 L9.99999999,12.5 C9.99999999,12.7761424 10.2238576,13 10.5,13 L13.5,13 C13.7761424,13 14,12.7761424 14,12.5 L14,8.49999999 C14,8.22385761 13.7761424,7.99999998 13.5,7.99999998 L10.5,7.99999998 Z M15.5,7.99999998 C15.2238576,7.99999998 15,8.22385761 15,8.49999999 L15,12.5 C15,12.7761424 15.2238576,13 15.5,13 L17.5,13 C17.7761424,13 18,12.7761424 18,12.5 L18,8.49999999 C18,8.22385761 17.7761424,7.99999998 17.5,7.99999998 L15.5,7.99999998 Z M4.99999997,15 L14,15 L14,16.5 C14,16.7761424 13.7761424,17 13.5,17 L5.49999997,17 C5.2238576,17 4.99999997,16.7761424 4.99999997,16.5 L4.99999997,15 Z M16,15 L19,15 L19,16.5 C19,16.7761424 18.7761424,17 18.5,17 L16.5,17 C16.2238576,17 16,16.7761424 16,16.5 L16,15 Z" fill="#000000" fill-rule="nonzero"></path>
    </g>
</svg>