<?xml version="1.0" encoding="UTF-8"?>
<svg width="24px" height="24px" viewBox="0 0 24 24" version="1.1" xmlns="http://www.w3.org/2000/svg" xmlns:xlink="http://www.w3.org/1999/xlink">
    <!-- Generator: Sketch 51.2 (57519) - http://www.bohemiancoding.com/sketch -->
    <title>Media-Step Backward</title>
    <desc>Created with Sketch.</desc>
    <defs></defs>
    <g id="Media-Step-Backward" stroke="none" stroke-width="1" fill="none" fill-rule="evenodd">
        <path d="M18.3816206,6.05992507 C18.4458387,6.02076317 18.5200264,6 18.5957354,6 C18.8190046,6 19,6.17676781 19,6.39482196 L19,17.605125 C19,17.6790652 18.9787405,17.7515196 18.9386425,17.8142374 C18.8203908,17.9991962 18.5710041,18.0555122 18.3816218,17.9400226 L9.19020531,12.3348916 C9.13803625,12.3030777 9.09398749,12.2600579 9.06141258,12.2091076 C8.94316024,12.0241491 9.00082228,11.7805873 9.19020418,11.6650971 L18.3816206,6.05992507 Z M6.66666668,5.99999997 C6.85076161,5.99999997 7.00000001,6.20147184 7.00000001,6.44999997 L7.00000001,17.55 C7.00000001,17.7985281 6.85076161,18 6.66666668,18 L5.33333334,18 C5.1492384,18 5,17.7985281 5,17.55 L5,6.44999997 C5,6.20147184 5.1492384,5.99999997 5.33333334,5.99999997 L6.66666668,5.99999997 Z" id="Play" fill="#000000" fill-rule="nonzero"></path>
    </g>
</svg>