<?xml version="1.0" encoding="UTF-8"?>
<svg width="24px" height="24px" viewBox="0 0 24 24" version="1.1" xmlns="http://www.w3.org/2000/svg" xmlns:xlink="http://www.w3.org/1999/xlink">
    <!-- Generator: Sketch 51.2 (57519) - http://www.bohemiancoding.com/sketch -->
    <title>Brands-Twitter</title>
    <desc>Created with Sketch.</desc>
    <defs></defs>
    <g id="Brands-Twitter" stroke="none" stroke-width="1" fill="none" fill-rule="evenodd">
        <path d="M21,6.65075837 C20.3487824,6.92493605 19.6463343,7.1146784 18.9123599,7.20101116 C19.6640679,6.76460377 20.2384399,6.08058263 20.5103553,5.26563925 C19.8079072,5.66409817 19.0305839,5.95725009 18.201045,6.10999269 C17.5370198,5.42692024 16.5922124,4.99999997 15.5459293,4.99999997 C13.5351348,4.99999997 11.9075834,6.57486143 11.9075834,8.51023334 C11.9075834,8.78535974 11.940095,9.05005031 12.0031479,9.30620247 C8.97562631,9.15535731 6.29686579,7.76928948 4.50183024,5.64417523 C4.18853644,6.15647956 4.00922992,6.76460377 4.00922992,7.40877903 C4.00922992,8.62407875 4.65059553,9.69612299 5.62791456,10.3222727 C5.02989778,10.3023498 4.46833342,10.1505559 3.9786887,9.88491662 L3.9786887,9.92286509 C3.9786887,11.6201104 5.23383431,13.0431779 6.89783818,13.3676373 C6.59242598,13.4425856 6.27026538,13.480534 5.93923796,13.480534 C5.70476021,13.480534 5.47816406,13.4615598 5.25452352,13.42456 C5.71953822,14.8182176 7.06138148,15.8333391 8.65445091,15.8618004 C7.4091573,16.7915379 5.83973269,17.3512778 4.1353356,17.3512778 C3.84076062,17.3512778 3.55209682,17.3417907 3.26638864,17.3038423 C4.87719168,18.2999896 6.78946611,18.8787037 8.84459463,18.8787037 C15.5360773,18.8787037 19.1970828,13.5384055 19.1970828,8.91723067 C19.1970828,8.76543679 19.193142,8.61364292 19.1842752,8.46184904 C19.8955901,7.96851894 20.5113405,7.35090761 21,6.65075837" id="Twitter" fill="#000000" fill-rule="nonzero"></path>
    </g>
</svg>