<?xml version="1.0" encoding="UTF-8"?>
<svg width="24px" height="24px" viewBox="0 0 24 24" version="1.1" xmlns="http://www.w3.org/2000/svg" xmlns:xlink="http://www.w3.org/1999/xlink">
    <!-- Generator: Sketch 51.2 (57519) - http://www.bohemiancoding.com/sketch -->
    <title>IconObjectGhost</title>
    <desc>Created with Sketch.</desc>
    <defs></defs>
    <g id="IconObjectGhost" stroke-width="1" fill-rule="evenodd">
        <path d="M9.00389998,6.99999998 L7.99989998,6.99999998 C7.72389997,6.99999998 7.49489997,6.77599997 7.49489997,6.49999997 C7.49489997,6.22499997 7.71389997,6.00099997 7.98989997,5.99999997 L7.98989997,6.00599997 L9.00389998,5.99999997 C9.27989998,5.99999997 9.50389998,6.22399997 9.50389998,6.49999997 C9.50389998,6.77599997 9.27989998,6.99999998 9.00389998,6.99999998 Z M12.6549,6.99999998 L11.6409,6.99999998 C11.3639,6.99999998 11.1409,6.77599997 11.1409,6.49999997 C11.1409,6.22399997 11.3639,5.99999997 11.6409,5.99999997 L12.6549,5.99999997 C12.9319,5.99999997 13.1549,6.22399997 13.1549,6.49999997 C13.1549,6.77599997 12.9319,6.99999998 12.6549,6.99999998 Z M16.3069,6.99999998 L15.2919,6.99999998 C15.0159,6.99999998 14.7919,6.77599997 14.7919,6.49999997 C14.7919,6.22399997 15.0159,5.99999997 15.2919,5.99999997 L16.3069,5.99999997 C16.5829,5.99999997 16.8069,6.22399997 16.8069,6.49999997 C16.8069,6.77599997 16.5829,6.99999998 16.3069,6.99999998 Z M17.4999,9.32399999 C17.2239,9.32399999 16.9999,9.10099999 16.9999,8.82399999 L16.9999,7.80999998 C16.9999,7.53299998 17.2239,7.30999998 17.4999,7.30999998 C17.7759,7.30999998 17.9999,7.53299998 17.9999,7.80999998 L17.9999,8.82399999 C17.9999,9.10099999 17.7759,9.32399999 17.4999,9.32399999 Z M6.49989997,9.37599999 C6.22389997,9.37599999 5.99989997,9.15299999 5.99989997,8.87599999 L5.99989997,7.86199998 C5.99989997,7.58599998 6.22389997,7.36199998 6.49989997,7.36199998 C6.77589997,7.36199998 6.99989998,7.58599998 6.99989998,7.86199998 L6.99989998,8.87599999 C6.99989998,9.15299999 6.77589997,9.37599999 6.49989997,9.37599999 Z M17.4999,12.976 C17.2239,12.976 16.9999,12.752 16.9999,12.476 L16.9999,11.461 C16.9999,11.185 17.2239,10.961 17.4999,10.961 C17.7759,10.961 17.9999,11.185 17.9999,11.461 L17.9999,12.476 C17.9999,12.752 17.7759,12.976 17.4999,12.976 Z M6.49989997,13.027 C6.22389997,13.027 5.99989997,12.804 5.99989997,12.528 L5.99989997,11.514 C5.99989997,11.237 6.22389997,11.014 6.49989997,11.014 C6.77589997,11.014 6.99989998,11.237 6.99989998,11.514 L6.99989998,12.528 C6.99989998,12.804 6.77589997,13.027 6.49989997,13.027 Z M17.4999,16.627 C17.2239,16.627 16.9999,16.403 16.9999,16.127 L16.9999,15.113 C16.9999,14.837 17.2239,14.613 17.4999,14.613 C17.7759,14.613 17.9999,14.837 17.9999,15.113 L17.9999,16.127 C17.9999,16.403 17.7759,16.627 17.4999,16.627 Z M6.49989997,16.68 C6.22389997,16.68 5.99989997,16.456 5.99989997,16.18 L5.99989997,15.165 C5.99989997,14.889 6.22389997,14.665 6.49989997,14.665 C6.77589997,14.665 6.99989998,14.889 6.99989998,15.165 L6.99989998,16.18 C6.99989998,16.456 6.77589997,16.68 6.49989997,16.68 Z M8.69689999,18 L7.68289999,18 C7.40589999,18 7.18289999,17.776 7.18289999,17.5 C7.18289999,17.224 7.40589999,17 7.68289999,17 L8.69689999,17 C8.9739,17 9.1969,17.224 9.1969,17.5 C9.1969,17.776 8.9739,18 8.69689999,18 Z M12.3489,18 L11.3339,18 C11.0579,18 10.8339,17.776 10.8339,17.5 C10.8339,17.224 11.0579,17 11.3339,17 L12.3489,17 C12.6249,17 12.8489,17.224 12.8489,17.5 C12.8489,17.776 12.6249,18 12.3489,18 Z M14.9849,18 C14.7089,18 14.4849,17.776 14.4849,17.5 C14.4849,17.224 14.7089,17 14.9849,17 L15.9999,17 C16.2759,17 16.5109,17.224 16.5109,17.499 C16.5109,17.775 16.2979,17.999 16.0219,17.999 L16.0219,17.499 L16.0199,17.999 L14.9849,18 Z" id="Object-Ghost"></path>
    </g>
</svg>