<?xml version="1.0" encoding="UTF-8"?>
<svg width="24px" height="24px" viewBox="0 0 24 24" version="1.1" xmlns="http://www.w3.org/2000/svg" xmlns:xlink="http://www.w3.org/1999/xlink">
    <!-- Generator: Sketch 51.2 (57519) - http://www.bohemiancoding.com/sketch -->
    <title>Lock-Unlock</title>
    <desc>Created with Sketch.</desc>
    <defs></defs>
    <g id="Lock-Unlock" stroke="none" stroke-width="1" fill="none" fill-rule="evenodd">
        <path d="M9.19538788,7.71904503 C9.35055501,8.10309716 9.16500706,8.54022075 8.78095494,8.69538788 C8.3969028,8.85055501 7.95977922,8.66500706 7.80461209,8.28095493 C6.92533168,6.10465954 7.97677006,3.62762592 10.1530655,2.7483455 C12.3293609,1.86906509 14.8063945,2.92050347 15.6856749,5.09679887 C15.840842,5.480851 15.6552941,5.91797458 15.2712419,6.07314172 C14.8871898,6.22830885 14.4500662,6.0427609 14.2948991,5.65870876 C13.7259529,4.25051763 12.1231665,3.57017513 10.7149754,4.13912129 C9.30678422,4.70806744 8.62644173,6.3108539 9.19538788,7.71904503 Z M7.48480773,9.67364817 L16.3480775,11.2364818 C16.8919718,11.332385 17.2551403,11.8510434 17.1592371,12.3949377 L15.9436999,19.288592 C15.8477966,19.8324863 15.3291382,20.1956548 14.7852439,20.0997516 L5.92197412,18.536918 C5.37807982,18.4410147 5.01491131,17.9223563 5.11081455,17.378462 L6.3263518,10.4848078 C6.42225504,9.94091344 6.94091343,9.57774493 7.48480773,9.67364817 Z" id="Unlock" fill="#000000" fill-rule="nonzero"></path>
    </g>
</svg>