<?xml version="1.0" encoding="UTF-8"?>
<svg width="24px" height="24px" viewBox="0 0 24 24" version="1.1" xmlns="http://www.w3.org/2000/svg" xmlns:xlink="http://www.w3.org/1999/xlink">
    <!-- Generator: Sketch 51.2 (57519) - http://www.bohemiancoding.com/sketch -->
    <title>IconObjectSpreadsheet</title>
    <desc>Created with Sketch.</desc>
    <defs></defs>
    <g id="IconObjectSpreadsheet"  stroke-width="1" fill-rule="evenodd">
        <path d="M6.5,6 L17.5,6 C17.7761424,6 18,6.22385763 18,6.5 L18,17.5 C18,17.7761424 17.7761424,18 17.5,18 L6.5,18 C6.22385763,18 6,17.7761424 6,17.5 L6,6.5 C6,6.22385763 6.22385763,6 6.5,6 Z M9.17647058,7.99999998 C8.52672381,7.99999998 7.99999998,8.52672381 7.99999998,9.17647058 L7.99999998,14.8235294 C7.99999998,15.4732762 8.52672381,16 9.17647058,16 L14.8235294,16 C15.4732762,16 16,15.4732762 16,14.8235294 L16,9.17647058 C16,8.52672381 15.4732762,7.99999998 14.8235294,7.99999998 L9.17647058,7.99999998 Z M12.4963562,9.99999999 L14.75,9.99999999 C14.8880712,9.99999999 15,10.1119288 15,10.25 L15,12 L12.4963562,12 L12.4963562,9.99999999 Z M11.5049221,9.99999999 L11.5049221,12 L8.99999999,12 L8.99999999,10.25 C8.99999999,10.1119288 9.1119288,9.99999999 9.24999999,9.99999999 L11.5049221,9.99999999 Z M12.4963562,15 L12.4963562,12.9934608 L15,12.9934608 L15,14.75 C15,14.8880712 14.8880712,15 14.75,15 L12.4963562,15 Z M11.5049221,15 L9.24999999,15 C9.1119288,15 8.99999999,14.8880712 8.99999999,14.75 L8.99999999,12.9934608 L11.5049221,12.9934608 L11.5049221,15 Z" id="Object-Spreadsheet" fill-rule="nonzero"></path>
    </g>
</svg>