<?xml version="1.0" encoding="UTF-8"?>
<svg width="24px" height="24px" viewBox="0 0 24 24" version="1.1" xmlns="http://www.w3.org/2000/svg" xmlns:xlink="http://www.w3.org/1999/xlink">
    <!-- Generator: Sketch 51.2 (57519) - http://www.bohemiancoding.com/sketch -->
    <title>Brands / GitHub</title>
    <desc>Created with Sketch.</desc>
    <defs></defs>
    <g id="Brands-/-GitHub" stroke="none" stroke-width="1" fill="none" fill-rule="evenodd">
        <path d="M12,2.99999996 C7.02999998,2.99999996 2.99999996,7.0398142 2.99999996,12.0219176 C2.99999996,16.0116101 5.57999997,19.389817 9.15999999,20.582715 C9.60999999,20.6629098 9.76999999,20.3822279 9.76999999,20.1516678 C9.76999999,19.9411564 9.75999999,19.3697683 9.75999999,18.6179418 C7.25999998,19.1592569 6.72999998,17.4049951 6.72999998,17.4049951 C6.31999998,16.3624624 5.72999997,16.0817805 5.72999997,16.0817805 C4.90999997,15.5304411 5.78999997,15.5304411 5.78999997,15.5304411 C6.68999998,15.5905872 7.16999998,16.4627059 7.16999998,16.4627059 C7.96999998,17.8360423 9.27999999,17.4450925 9.78999999,17.2145324 C9.86999999,16.6331199 10.1,16.2321458 10.36,16.0116101 C8.35999998,15.7810499 6.25999998,15.0091748 6.25999998,11.550773 C6.25999998,10.5683864 6.60999998,9.75641384 7.18999998,9.12487961 C7.09999998,8.89431949 6.78999998,7.98210337 7.27999998,6.73908361 C7.27999998,6.73908361 8.03999998,6.49849914 9.74999999,7.66132408 C10.47,7.46083702 11.24,7.36059349 12,7.36059349 C12.76,7.36059349 13.53,7.46083702 14.25,7.66132408 C15.97,6.48847479 16.72,6.73908361 16.72,6.73908361 C17.21,7.98210337 16.9,8.89431949 16.81,9.12487961 C17.39,9.75641384 17.73,10.5583621 17.73,11.550773 C17.73,15.0191991 15.63,15.7810499 13.62,16.0015857 C13.94,16.2822676 14.23,16.833607 14.23,17.6756526 C14.23,18.878575 14.22,19.8509372 14.22,20.1516678 C14.22,20.3922523 14.38,20.6729342 14.84,20.582715 C18.42,19.389817 21,16.0116101 21,12.0219176 C21,7.0398142 16.97,2.99999996 12,2.99999996 Z" id="GitHub" fill="#000000" fill-rule="nonzero"></path>
    </g>
</svg>