<?xml version="1.0" encoding="UTF-8"?>
<svg width="24px" height="24px" viewBox="0 0 24 24" version="1.1" xmlns="http://www.w3.org/2000/svg" xmlns:xlink="http://www.w3.org/1999/xlink">
    <!-- Generator: Sketch 51.2 (57519) - http://www.bohemiancoding.com/sketch -->
    <title>Brands / GRPC</title>
    <desc>Created with Sketch.</desc>
    <defs></defs>
    <g id="Brands-/-GRPC" stroke="none" stroke-width="1" fill="none" fill-rule="evenodd">
        <path d="M9.20125127,11.045 L9.82265291,11.045 C10.0155027,11.045 10.1690659,11.0218154 10.2833472,10.9754455 C10.3976286,10.9290757 10.4851239,10.8626132 10.5458358,10.7760561 C10.6065478,10.689499 10.647617,10.5828499 10.6690448,10.4561055 C10.6904725,10.3293612 10.7011863,10.1825255 10.7011863,10.0155939 C10.7011863,9.84866236 10.6904725,9.70182662 10.6690448,9.57508231 C10.647617,9.44833798 10.6029766,9.34014323 10.535122,9.2504948 C10.4672675,9.16084638 10.3726297,9.09438388 10.2512058,9.05110534 C10.1297818,9.00782678 9.96907613,8.98618783 9.7690838,8.98618783 L9.20125127,8.98618783 L9.20125127,11.045 Z M8.10844147,8.05801103 L9.86550819,8.05801103 C11.1511732,8.05801103 11.793996,8.73157704 11.793996,10.0787293 C11.793996,10.4783629 11.7243569,10.8215916 11.5850765,11.1084254 C11.4457962,11.3952593 11.2011663,11.6256897 10.8511798,11.7997237 L12.0297001,14.941989 L10.8726074,14.941989 L9.83751691,11.9517416 L9.20125127,11.9517416 L9.20125127,14.941989 L8.10844147,14.941989 L8.10844147,8.05801103 Z M12.6725294,8.05801103 L14.311744,8.05801103 C14.6117325,8.05801103 14.8760041,8.09346188 15.1045668,8.16436462 C15.3331295,8.23526737 15.5402613,8.36095672 15.7259685,8.54143645 C15.9116757,8.72191617 16.0402402,8.93300983 16.111666,9.17472375 C16.1830919,9.41643766 16.2188043,9.74355226 16.2188043,10.1560773 C16.2188043,10.4590254 16.1918317,10.6758839 16.1525475,10.891815 C16.1132633,11.1077461 15.9864758,11.4833872 15.4883308,11.7382664 C15.1767669,11.8976802 14.7295851,11.9550337 14.3224578,11.9550337 L13.7653392,11.9550337 L13.7653392,14.941989 L12.6725294,14.941989 L12.6725294,8.05801103 Z M13.7653392,11.045 L14.2903164,11.045 C14.5117365,11.045 14.683156,11.0194778 14.8045798,10.9684326 C14.9260037,10.9173874 15.0152847,10.8479103 15.0724254,10.7599991 C15.129566,10.672088 15.1634927,10.5657454 15.1742066,10.4409683 C15.1849205,10.3161912 15.1902774,10.177237 15.1902774,10.0241014 C15.1902774,9.88230922 15.1849205,9.74760867 15.1742066,9.61999571 C15.1634927,9.49238274 15.1313516,9.38178651 15.0777823,9.28820366 C15.0242129,9.19462083 14.9402888,9.12089 14.8260075,9.06700897 C14.7117262,9.01312794 14.5474492,8.98618783 14.3331717,8.98618783 L13.7653392,8.98618783 L13.7653392,11.045 Z M20.5043328,13.4046961 C20.5043328,13.6174044 20.4596923,13.820441 20.3704101,14.0138122 C20.2811277,14.2071833 20.15792,14.3763805 20.0007832,14.5214089 C19.8436464,14.6664372 19.6597276,14.7824581 19.4490214,14.8694752 C19.2383151,14.9564922 19.0115416,15 18.7686937,15 C18.5615588,15 18.3508557,14.9742176 18.1365782,14.9226519 C17.9223008,14.8710863 17.729454,14.7824592 17.5580319,14.656768 C17.3866099,14.5310767 17.245546,14.3651023 17.134836,14.1588398 C17.0241259,13.9525772 16.9687717,13.6915301 16.9687717,13.3756906 L16.9687717,9.58563535 C16.9687717,9.3600357 17.0116266,9.15055344 17.0973376,8.95718231 C17.1830486,8.76381117 17.3044707,8.59622537 17.4616076,8.45441987 C17.6187443,8.31261438 17.8062344,8.20142764 18.0240831,8.12085634 C18.241932,8.04028503 18.4829905,7.99999998 18.7472661,7.99999998 C18.9972565,7.99999998 19.229387,8.04028503 19.4436645,8.12085634 C19.6579419,8.20142764 19.8436464,8.31422578 20.0007832,8.45925413 C20.15792,8.60428248 20.2811277,8.77831389 20.3704101,8.98135358 C20.4596923,9.18439327 20.5043328,9.40515534 20.5043328,9.6436464 L20.5043328,10.0303867 L19.411523,10.0303867 L19.411523,9.70165745 C19.411523,9.50828632 19.3508119,9.34070051 19.2293881,9.19889501 C19.1079642,9.05708952 18.9436872,8.98618783 18.7365522,8.98618783 C18.4651341,8.98618783 18.2847865,9.06192372 18.1955043,9.21339778 C18.106222,9.36487184 18.0615816,9.55662866 18.0615816,9.78867402 L18.0615816,13.3080111 C18.0615816,13.5078279 18.1097933,13.6754137 18.2062182,13.8107735 C18.3026429,13.9461333 18.4758481,14.0138122 18.7258385,14.0138122 C18.7972643,14.0138122 18.8740459,14.0025323 18.9561856,13.9799724 C19.0383254,13.9574124 19.1133213,13.9203502 19.1811759,13.8687845 C19.2490304,13.8172189 19.3043846,13.7463172 19.3472401,13.6560774 C19.3900956,13.5658375 19.411523,13.4530394 19.411523,13.3176796 L19.411523,12.9792818 L20.5043328,12.9792818 L20.5043328,13.4046961 Z M22.6454467,11.4912488 C22.6454467,11.2399592 22.4199037,11.0362488 22.1416823,11.0362488 L19.4125109,11.0362487 L19.4125109,11.9462487 L21.637918,11.9462488 L21.637918,12.9612488 L21.2949514,12.9612488 L22.1474757,14.0462488 L23,12.9612488 L22.6454467,12.9612488 L22.6454467,11.4912488 Z M3.48007064,11.955 L3.48007064,13.3176796 C3.48007064,13.6012906 3.53363921,13.8478351 3.64077797,14.0573204 C3.74791671,14.2668058 3.88898062,14.4408373 4.06397392,14.5794199 C4.23896721,14.7180025 4.4353853,14.8227437 4.65323408,14.8936464 C4.87108288,14.9645492 5.09071401,15 5.31213409,15 C5.53355418,15 5.75318532,14.9645492 5.97103411,14.8936464 C6.18888291,14.8227437 6.385301,14.7180025 6.56029429,14.5794199 C6.73528758,14.4408373 6.87635148,14.2668058 6.98349024,14.0573204 C7.09062899,13.8478351 7.14419756,13.6012906 7.14419756,13.3176796 L7.14419756,11.0469337 L5.18604876,11.0442438 L5.18356827,11.9547647 L6.05138782,11.9547647 L6.05138778,13.3176796 C6.05138778,13.5561706 5.97817739,13.7318134 5.83175444,13.8446133 C5.68533148,13.9574131 5.51212643,14.0138122 5.31213409,14.0138122 C5.11214176,14.0138122 4.93893672,13.9574131 4.79251376,13.8446133 C4.6460908,13.7318134 4.57288042,13.5561706 4.57288042,13.3176796 L4.57288042,9.68232043 C4.57288042,9.44382937 4.6460908,9.26818656 4.79251376,9.15538673 C4.93893672,9.04258691 5.11214176,8.98618783 5.31213409,8.98618783 C5.51212643,8.98618783 5.68533148,9.04258691 5.83175444,9.15538673 C5.97817739,9.26818656 6.05138778,9.44382937 6.05138778,9.68232043 L6.05138778,10.0303867 L7.14419756,10.0303867 L7.14419756,9.68232043 C7.14419756,9.40515514 7.09062899,9.16022205 6.98349024,8.9475138 C6.87635148,8.73480555 6.73528758,8.55916274 6.56029429,8.4205801 C6.385301,8.28199745 6.18888291,8.17725632 5.97103411,8.10635358 C5.75318532,8.03545083 5.53355418,7.99999998 5.31213409,7.99999998 C5.09071401,7.99999998 4.87108288,8.03545083 4.65323408,8.10635358 C4.4353853,8.17725632 4.23896721,8.28199745 4.06397392,8.4205801 C3.88898062,8.55916274 3.74791671,8.73480555 3.64077797,8.9475138 C3.53363921,9.16022205 3.48007064,9.40515514 3.48007064,9.68232043 L3.48007064,11.045 L2.36208201,11.045 L2.36208201,10.03 L2.70504855,10.03 L1.85252425,8.94499999 L0.999999954,10.03 L1.3545533,10.03 L1.3545533,11.5 C1.3545533,11.7512896 1.58009628,11.955 1.85831766,11.955 L3.48007064,11.955 Z" id="GRPC" fill="#000000" fill-rule="nonzero"></path>
    </g>
</svg>