<?xml version="1.0" encoding="UTF-8"?>
<svg width="24px" height="24px" viewBox="0 0 24 24" version="1.1" xmlns="http://www.w3.org/2000/svg" xmlns:xlink="http://www.w3.org/1999/xlink">
    <!-- Generator: Sketch 51.2 (57519) - http://www.bohemiancoding.com/sketch -->
    <title>Parent</title>
    <desc>Created with Sketch.</desc>
    <defs></defs>
    <g id="Parent" stroke="none" stroke-width="1" fill="none" fill-rule="evenodd">
        <path d="M14.9448132,7.74999998 L14.9448132,9.24999999 L4.99999997,9.24999999 L4.99999997,7.74999998 L14.9448132,7.74999998 Z M5.56066014,8.49999999 L7.03033007,9.96966991 C7.32322329,10.2625631 7.32322329,10.7374369 7.03033007,11.0303301 C6.73743685,11.3232233 6.26256311,11.3232233 5.96966989,11.0303301 L3.43933979,8.49999999 L5.96966989,5.96966989 C6.26256311,5.67677667 6.73743685,5.67677667 7.03033007,5.96966989 C7.32322329,6.26256311 7.32322329,6.73743685 7.03033007,7.03033007 L5.56066014,8.49999999 Z M9.74999999,8.49999999 L11.25,8.49999999 L11.25,14 C11.25,14.4142135 11.5857865,14.75 12,14.75 L15,14.75 L15,16.25 L12,16.25 C10.7573593,16.25 9.74999999,15.2426407 9.74999999,14 L9.74999999,8.49999999 Z M17.5,9.99999999 C18.3284272,9.99999999 19,9.32842711 19,8.49999999 C19,7.67157286 18.3284272,6.99999998 17.5,6.99999998 C16.6715729,6.99999998 16,7.67157286 16,8.49999999 C16,9.32842711 16.6715729,9.99999999 17.5,9.99999999 Z M17.5,17 C18.3284272,17 19,16.3284271 19,15.5 C19,14.6715729 18.3284272,14 17.5,14 C16.6715729,14 16,14.6715729 16,15.5 C16,16.3284271 16.6715729,17 17.5,17 Z" fill="#000000" fill-rule="nonzero"></path>
    </g>
</svg>