<?xml version="1.0" encoding="UTF-8"?>
<svg width="24px" height="24px" viewBox="0 0 24 24" version="1.1" xmlns="http://www.w3.org/2000/svg" xmlns:xlink="http://www.w3.org/1999/xlink">
    <!-- Generator: Sketch 51.2 (57519) - http://www.bohemiancoding.com/sketch -->
    <title>Scatterplot</title>
    <desc>Created with Sketch.</desc>
    <defs></defs>
    <g id="Scatterplot" stroke="none" stroke-width="1" fill="none" fill-rule="evenodd">
        <path d="M5.99999997,11 C5.44771522,11 4.99999997,10.5522847 4.99999997,9.99999999 C4.99999997,9.44771524 5.44771522,8.99999999 5.99999997,8.99999999 C6.55228473,8.99999999 6.99999998,9.44771524 6.99999998,9.99999999 C6.99999998,10.5522847 6.55228473,11 5.99999997,11 Z M9.99999999,18 C9.44771524,18 8.99999999,17.5522847 8.99999999,17 C8.99999999,16.4477153 9.44771524,16 9.99999999,16 C10.5522847,16 11,16.4477153 11,17 C11,17.5522847 10.5522847,18 9.99999999,18 Z M18,11 C17.4477153,11 17,10.5522847 17,9.99999999 C17,9.44771524 17.4477153,8.99999999 18,8.99999999 C18.5522847,8.99999999 19,9.44771524 19,9.99999999 C19,10.5522847 18.5522847,11 18,11 Z M7.99999998,16 C7.44771523,16 6.99999998,15.5522847 6.99999998,15 C6.99999998,14.4477153 7.44771523,14 7.99999998,14 C8.55228474,14 8.99999999,14.4477153 8.99999999,15 C8.99999999,15.5522847 8.55228474,16 7.99999998,16 Z M9.99999999,9.99999999 C9.44771524,9.99999999 8.99999999,9.55228474 8.99999999,8.99999999 C8.99999999,8.44771524 9.44771524,7.99999998 9.99999999,7.99999998 C10.5522847,7.99999998 11,8.44771524 11,8.99999999 C11,9.55228474 10.5522847,9.99999999 9.99999999,9.99999999 Z M5.99999997,20 C5.44771522,20 4.99999997,19.5522847 4.99999997,19 C4.99999997,18.4477153 5.44771522,18 5.99999997,18 C6.55228473,18 6.99999998,18.4477153 6.99999998,19 C6.99999998,19.5522847 6.55228473,20 5.99999997,20 Z M4.99999997,17 C4.44771522,17 3.99999997,16.5522847 3.99999997,16 C3.99999997,15.4477153 4.44771522,15 4.99999997,15 C5.55228472,15 5.99999997,15.4477153 5.99999997,16 C5.99999997,16.5522847 5.55228472,17 4.99999997,17 Z M15,7.99999998 C14.4477153,7.99999998 14,7.55228473 14,6.99999998 C14,6.44771523 14.4477153,5.99999998 15,5.99999998 C15.5522847,5.99999998 16,6.44771523 16,6.99999998 C16,7.55228473 15.5522847,7.99999998 15,7.99999998 Z M14,11 C13.4477153,11 13,10.5522847 13,9.99999999 C13,9.44771524 13.4477153,8.99999999 14,8.99999999 C14.5522847,8.99999999 15,9.44771524 15,9.99999999 C15,10.5522847 14.5522847,11 14,11 Z M19,6.99999998 C18.4477153,6.99999998 18,6.55228473 18,5.99999997 C18,5.44771522 18.4477153,4.99999997 19,4.99999997 C19.5522847,4.99999997 20,5.44771522 20,5.99999997 C20,6.55228473 19.5522847,6.99999998 19,6.99999998 Z M11.25,3.99999997 C11.25,3.5857864 11.5857864,3.24999996 12,3.24999996 C12.4142136,3.24999996 12.75,3.5857864 12.75,3.99999997 L12.75,20 C12.75,20.4142136 12.4142136,20.75 12,20.75 C11.5857864,20.75 11.25,20.4142136 11.25,20 L11.25,3.99999997 Z M20,11.25 C20.4142136,11.25 20.75,11.5857864 20.75,12 C20.75,12.4142136 20.4142136,12.75 20,12.75 L3.99999997,12.75 C3.5857864,12.75 3.24999996,12.4142136 3.24999996,12 C3.24999996,11.5857864 3.5857864,11.25 3.99999997,11.25 L20,11.25 Z" fill="#000000" fill-rule="nonzero"></path>
    </g>
</svg>