<?xml version="1.0" encoding="UTF-8"?>
<svg width="24px" height="24px" viewBox="0 0 24 24" version="1.1" xmlns="http://www.w3.org/2000/svg" xmlns:xlink="http://www.w3.org/1999/xlink">
    <!-- Generator: Sketch 51.2 (57519) - http://www.bohemiancoding.com/sketch -->
    <title>Services</title>
    <desc>Created with Sketch.</desc>
    <defs></defs>
    <g id="Services" stroke="none" stroke-width="1" fill="none" fill-rule="evenodd">
        <path d="M11.2727273,11.4545455 C9.76649613,11.4545455 8.54545454,10.2335039 8.54545454,8.72727272 C8.54545454,7.22104157 9.76649613,5.99999997 11.2727273,5.99999997 C12.7789584,5.99999997 14,7.22104157 14,8.72727272 C14,10.2335039 12.7789584,11.4545455 11.2727273,11.4545455 Z M4.7272727,14.7272727 C3.22104155,14.7272727 1.99999996,13.5062311 1.99999996,12 C1.99999996,10.4937689 3.22104155,9.27272726 4.7272727,9.27272726 C6.23350384,9.27272726 7.45454543,10.4937689 7.45454543,12 C7.45454543,13.5062311 6.23350384,14.7272727 4.7272727,14.7272727 Z M12.3636364,18 C10.8574052,18 9.63636363,16.7789584 9.63636363,15.2727273 C9.63636363,13.7664961 10.8574052,12.5454545 12.3636364,12.5454545 C13.8698675,12.5454545 15.0909091,13.7664961 15.0909091,15.2727273 C15.0909091,16.7789584 13.8698675,18 12.3636364,18 Z M18.9090909,14.7272727 C17.4028598,14.7272727 16.1818182,13.5062311 16.1818182,12 C16.1818182,10.4937689 17.4028598,9.27272726 18.9090909,9.27272726 C20.415322,9.27272726 21.6363636,10.4937689 21.6363636,12 C21.6363636,13.5062311 20.415322,14.7272727 18.9090909,14.7272727 Z" fill="#000000" fill-rule="nonzero"></path>
    </g>
</svg>