<?xml version="1.0" encoding="UTF-8"?>
<svg width="24px" height="24px" viewBox="0 0 24 24" version="1.1" xmlns="http://www.w3.org/2000/svg" xmlns:xlink="http://www.w3.org/1999/xlink">
    <!-- Generator: Sketch 51.2 (57519) - http://www.bohemiancoding.com/sketch -->
    <title>Pencil-Graph</title>
    <desc>Created with Sketch.</desc>
    <defs></defs>
    <g id="Pencil-Graph" stroke="none" stroke-width="1" fill="none" fill-rule="evenodd">
        <path d="M16.6079365,12.991201 L14.4840278,12.0896553 L17.4253186,5.16040855 C17.6742736,4.57390738 18.3515446,4.30027216 18.9380458,4.54922712 C19.5245469,4.79818209 19.7981822,5.47545312 19.5492273,6.06195428 L16.6079365,12.991201 Z M16.1839285,13.9901013 L14.0619543,16.0365787 L14.0600199,13.0885555 L16.1839285,13.9901013 Z M4.80466981,15.6779807 C4.53461624,15.9920571 4.06108538,16.0277446 3.74700904,15.757691 C3.4329327,15.4876375 3.39724517,15.0141067 3.66729874,14.7000303 L6.01799908,11.9661305 C6.28805265,11.6520541 6.7615835,11.6163666 7.07565984,11.8864202 L8.04025615,12.715813 L9.74800667,11.7350065 C10.1694097,11.4929835 10.7061897,11.7094835 10.8417563,12.1761497 L11.8418362,15.6187634 L13.0397324,16.6487556 C13.3538089,16.9188091 13.3894964,17.3923399 13.1194428,17.7064163 C12.8493892,18.0204927 12.3758584,18.0561802 12.0617821,17.7861266 L10.6948322,16.6107764 C10.5845153,16.5159224 10.5041687,16.3910298 10.4635819,16.2513166 L9.66752442,13.5110171 L8.32715867,14.2808248 C8.05141347,14.4391926 7.70577214,14.4064585 7.46465928,14.1991414 L6.66639491,13.5127665 L4.80466981,15.6779807 Z" id="edit-graph" fill="#000000" fill-rule="nonzero"></path>
    </g>
</svg>