<?xml version="1.0" encoding="UTF-8"?>
<svg width="24px" height="24px" viewBox="0 0 24 24" version="1.1" xmlns="http://www.w3.org/2000/svg" xmlns:xlink="http://www.w3.org/1999/xlink">
    <!-- Generator: Sketch 51.2 (57519) - http://www.bohemiancoding.com/sketch -->
    <title>Running</title>
    <desc>Created with Sketch.</desc>
    <defs></defs>
    <g id="Running" stroke="none" stroke-width="1" fill="none" fill-rule="evenodd">
        <path d="M12,21 C7.02943723,21 2.99999996,16.9705628 2.99999996,12 C2.99999996,7.02943723 7.02943723,2.99999996 12,2.99999996 C16.9705628,2.99999996 21,7.02943723 21,12 C21,16.9705628 16.9705628,21 12,21 Z M12,20 C16.418278,20 20,16.418278 20,12 C20,7.58172198 16.418278,3.99999997 12,3.99999997 C7.58172198,3.99999997 3.99999997,7.58172198 3.99999997,12 C3.99999997,16.418278 7.58172198,20 12,20 Z M10,9.31102305 L10,14.6889769 C10,14.8270481 10.1119288,14.9389769 10.25,14.9389769 C10.2954687,14.9389769 10.3400765,14.9265767 10.379022,14.9031108 L14.8418331,12.2141339 C14.960096,12.142877 14.9982018,11.9892408 14.9269449,11.870978 C14.9059294,11.8360991 14.876712,11.8068817 14.8418331,11.7858661 L10.379022,9.09688918 C10.2607592,9.02563227 10.107123,9.06373813 10.0358661,9.182001 C10.0124003,9.22094655 10,9.26555435 10,9.31102305 Z M15.6432027,12.8479983 L10.5299989,16.0437507 C10.0616624,16.336461 9.44471202,16.1940878 9.15200169,15.7257513 C9.05266944,15.5668197 8.99999999,15.3831721 8.99999999,15.1957524 L8.99999999,8.80424763 C8.99999999,8.25196288 9.44771524,7.80424763 9.99999999,7.80424763 C10.1874197,7.80424763 10.3710673,7.85691707 10.5299989,7.95624932 L15.6432027,11.1520017 C16.1115393,11.444712 16.2539124,12.0616624 15.9612021,12.5299989 C15.8807214,12.6587681 15.7719719,12.7675176 15.6432027,12.8479983 Z" fill="#000000" fill-rule="nonzero"></path>
    </g>
</svg>