<?xml version="1.0" encoding="UTF-8"?>
<svg width="24px" height="24px" viewBox="0 0 24 24" version="1.1" xmlns="http://www.w3.org/2000/svg" xmlns:xlink="http://www.w3.org/1999/xlink">
    <!-- Generator: Sketch 51.2 (57519) - http://www.bohemiancoding.com/sketch -->
    <title>Paused</title>
    <desc>Created with Sketch.</desc>
    <defs></defs>
    <g id="Paused" stroke="none" stroke-width="1" fill="none" fill-rule="evenodd">
        <path d="M12.8438196,4.82686495 L20.5227823,16.9016574 C20.8191532,17.3676861 20.6816183,17.985733 20.2155897,18.2821039 C20.0551932,18.384108 19.8690465,18.4382843 19.6789627,18.4382843 L4.32103731,18.4382843 C3.76875256,18.4382843 3.32103731,17.9905691 3.32103731,17.4382843 C3.32103731,17.2482005 3.37521361,17.0620538 3.47721772,16.9016574 L11.1561804,4.82686495 C11.4525513,4.36083625 12.0705983,4.22330143 12.536627,4.51967232 C12.6602986,4.59832128 12.7651706,4.7031933 12.8438196,4.82686495 Z M12.2119996,5.83919932 C12.1918794,5.80700704 12.164692,5.77981966 12.1324997,5.75969948 C12.0154156,5.6865219 11.861178,5.72211519 11.7880004,5.83919932 L4.73906233,17.1175003 C4.71422927,17.1572332 4.70106191,17.2031451 4.70106191,17.25 C4.70106191,17.3880712 4.81299072,17.5 4.95106191,17.5 L19.0489381,17.5 C19.095793,17.5 19.1417049,17.4868326 19.1814378,17.4619996 C19.298522,17.388822 19.3341152,17.2345844 19.2609377,17.1175003 L12.2119996,5.83919932 Z M10.5,11 L11,11 C11.2761424,11 11.5,11.2238576 11.5,11.5 L11.5,14.5 C11.5,14.7761424 11.2761424,15 11,15 L10.5,15 C10.2238576,15 9.99999999,14.7761424 9.99999999,14.5 L9.99999999,11.5 C9.99999999,11.2238576 10.2238576,11 10.5,11 Z M13,11 L13.5,11 C13.7761424,11 14,11.2238576 14,11.5 L14,14.5 C14,14.7761424 13.7761424,15 13.5,15 L13,15 C12.7238576,15 12.5,14.7761424 12.5,14.5 L12.5,11.5 C12.5,11.2238576 12.7238576,11 13,11 Z" fill="#000000" fill-rule="nonzero"></path>
    </g>
</svg>