<?xml version="1.0" encoding="UTF-8"?>
<svg width="24px" height="24px" viewBox="0 0 24 24" version="1.1" xmlns="http://www.w3.org/2000/svg" xmlns:xlink="http://www.w3.org/1999/xlink">
    <!-- Generator: Sketch 51.2 (57519) - http://www.bohemiancoding.com/sketch -->
    <title>Summary</title>
    <desc>Created with Sketch.</desc>
    <defs></defs>
    <g id="Summary" stroke="none" stroke-width="1" fill="none" fill-rule="evenodd">
        <path d="M13,3.49877907 L13,7.85773824 C13,8.41042283 12.5522847,8.85013368 12,8.85013368 C11.4438648,8.85013368 11,8.40582311 11,7.85773824 L11,3.49877907 C11,3.2221885 11.2259549,2.99999996 11.5046844,2.99999996 L12.4953156,2.99999996 C12.785965,2.99999996 13,3.22331097 13,3.49877907 Z M18.7183777,6.69583582 L15.6361281,9.7780854 C15.2453211,10.1688924 14.6178161,10.1632325 14.2272918,9.77270816 C13.8340449,9.37946121 13.8343601,8.75142637 14.2219146,8.36387183 L17.3041642,5.28162225 C17.4997432,5.08604318 17.8166285,5.08870642 18.01372,5.28579795 L18.714202,5.98627992 C18.9197222,6.19180011 18.9131631,6.50105046 18.7183777,6.69583582 Z M20.5012209,13 L16.1422617,13 C15.5895772,13 15.1498663,12.5522847 15.1498663,12 C15.1498663,11.4438648 15.5941769,11 16.1422617,11 L20.5012209,11 C20.7778115,11 21,11.2259549 21,11.5046844 L21,12.4953156 C21,12.785965 20.776689,13 20.5012209,13 Z M17.3041642,18.7183777 L14.2219146,15.6361281 C13.8311076,15.2453211 13.8367675,14.6178161 14.2272918,14.2272918 C14.6205388,13.8340449 15.2485736,13.8343601 15.6361281,14.2219146 L18.7183777,17.3041642 C18.9139568,17.4997432 18.9112936,17.8166285 18.714202,18.01372 L18.01372,18.714202 C17.8081999,18.9197222 17.4989495,18.9131631 17.3041642,18.7183777 Z M11,20.5012209 L11,16.1422617 C11,15.5895772 11.4477153,15.1498663 12,15.1498663 C12.5561352,15.1498663 13,15.5941769 13,16.1422617 L13,20.5012209 C13,20.7778115 12.7740451,21 12.4953156,21 L11.5046844,21 C11.214035,21 11,20.776689 11,20.5012209 Z M5.28162225,17.3041642 L8.36387183,14.2219146 C8.75467886,13.8311076 9.38218387,13.8367675 9.77270816,14.2272918 C10.1659551,14.6205388 10.1656399,15.2485736 9.7780854,15.6361281 L6.69583582,18.7183777 C6.50025676,18.9139568 6.18337147,18.9112936 5.98627992,18.714202 L5.28579795,18.01372 C5.08027778,17.8081999 5.08683689,17.4989495 5.28162225,17.3041642 Z M3.49877907,11 L7.85773824,11 C8.41042283,11 8.85013368,11.4477153 8.85013368,12 C8.85013368,12.5561352 8.40582311,13 7.85773824,13 L3.49877907,13 C3.2221885,13 2.99999996,12.7740451 2.99999996,12.4953156 L2.99999996,11.5046844 C2.99999996,11.214035 3.22331097,11 3.49877907,11 Z M6.69583582,5.28162225 L9.7780854,8.36387183 C10.1688924,8.75467886 10.1632325,9.38218387 9.77270816,9.77270816 C9.37946121,10.1659551 8.75142637,10.1656399 8.36387183,9.7780854 L5.28162225,6.69583582 C5.08604318,6.50025676 5.08870642,6.18337147 5.28579795,5.98627992 L5.98627992,5.28579795 C6.19180011,5.08027778 6.50105046,5.08683689 6.69583582,5.28162225 Z" fill="#000000" fill-rule="nonzero"></path>
    </g>
</svg>