<?xml version="1.0" encoding="UTF-8"?>
<svg width="24px" height="24px" viewBox="0 0 24 24" version="1.1" xmlns="http://www.w3.org/2000/svg" xmlns:xlink="http://www.w3.org/1999/xlink">
    <!-- Generator: Sketch 51.2 (57519) - http://www.bohemiancoding.com/sketch -->
    <title>Stopped</title>
    <desc>Created with Sketch.</desc>
    <defs></defs>
    <g id="Stopped" stroke="none" stroke-width="1" fill="none" fill-rule="evenodd">
        <path d="M4.99999997,4.99999997 L4.99999997,19 L19,19 L19,4.99999997 L4.99999997,4.99999997 Z M4.99999997,3.99999997 L19,3.99999997 C19.5522848,3.99999997 20,4.44771522 20,4.99999997 L20,19 C20,19.5522848 19.5522848,20 19,20 L4.99999997,20 C4.44771522,20 3.99999997,19.5522848 3.99999997,19 L3.99999997,4.99999997 C3.99999997,4.44771522 4.44771522,3.99999997 4.99999997,3.99999997 Z M7.14644659,7.85355337 L16.1464466,16.8535534 C16.3417088,17.0488155 16.6582912,17.0488155 16.8535534,16.8535534 C17.0488155,16.6582912 17.0488155,16.3417088 16.8535534,16.1464466 L7.85355337,7.14644659 C7.65829122,6.95118444 7.34170874,6.95118444 7.14644659,7.14644659 C6.95118444,7.34170874 6.95118444,7.65829122 7.14644659,7.85355337 Z" fill="#000000" fill-rule="nonzero"></path>
    </g>
</svg>