<?xml version="1.0" encoding="UTF-8"?>
<svg width="24px" height="24px" viewBox="0 0 24 24" version="1.1" xmlns="http://www.w3.org/2000/svg" xmlns:xlink="http://www.w3.org/1999/xlink">
    <!-- Generator: Sketch 51.2 (57519) - http://www.bohemiancoding.com/sketch -->
    <title>Frame-Square A</title>
    <desc>Created with Sketch.</desc>
    <defs></defs>
    <g id="Frame-Square-A" stroke="none" stroke-width="1" fill="none" fill-rule="evenodd">
        <path d="M5.5,4.75 C5.08578644,4.75 4.75,5.08578644 4.75,5.5 L4.75,18.5 C4.75,18.9142136 5.08578644,19.25 5.5,19.25 L18.5,19.25 C18.9142136,19.25 19.25,18.9142136 19.25,18.5 L19.25,5.5 C19.25,5.08578644 18.9142136,4.75 18.5,4.75 L5.5,4.75 Z M5.5,3.25 L18.5,3.25 C19.7426407,3.25 20.75,4.25735931 20.75,5.5 L20.75,18.5 C20.75,19.7426407 19.7426407,20.75 18.5,20.75 L5.5,20.75 C4.25735931,20.75 3.25,19.7426407 3.25,18.5 L3.25,5.5 C3.25,4.25735931 4.25735931,3.25 5.5,3.25 Z" id="A" fill="#000000" fill-rule="nonzero"></path>
    </g>
</svg>