<svg xmlns="http://www.w3.org/2000/svg" width="24" height="24" viewBox="0 0 24 24"><path fill="currentColor" d="M13.9874369,12.5732233 L17.6767555,16.2625419 C18.0672798,16.6530662 18.0672798,17.2862312 17.6767555,17.6767555 C17.2862312,18.0672798 16.6530662,18.0672798 16.2625419,17.6767555 L15.5554352,18.3838623 C15.1649109,18.7743866 14.5317459,18.7743866 14.1412216,18.3838623 L12.727008,16.9696487 C12.3364838,16.5791244 12.3364838,15.9459595 12.727008,15.5554352 L13.4341148,14.8483284 L12.5732233,13.9874369 L13.9874369,12.5732233 Z M12.3933296,9.21758308 L9.21758308,12.3933296 C7.96000789,12.6332135 6.60954714,12.2664014 5.63603897,11.2928932 C4.0739418,9.73079605 4.0739418,7.19813614 5.63603897,5.63603897 C7.19813614,4.0739418 9.73079605,4.0739418 11.2928932,5.63603897 C12.2664014,6.60954714 12.6332135,7.96000789 12.3933296,9.21758308 Z M7.05025253,9.87867966 C7.83130112,10.6597282 9.09763107,10.6597282 9.87867966,9.87867966 C10.6597282,9.09763107 10.6597282,7.83130112 9.87867966,7.05025253 C9.09763107,6.26920395 7.83130112,6.26920395 7.05025253,7.05025253 C6.26920395,7.83130112 6.26920395,9.09763107 7.05025253,9.87867966 Z M18.4393398,4.58578644 C18.732233,4.29289322 19.2071068,4.29289322 19.5,4.58578644 C19.7928932,4.87867966 19.7928932,5.35355339 19.5,5.64644661 L5.5,19.6464466 C5.20710678,19.9393398 4.73223305,19.9393398 4.43933983,19.6464466 C4.14644661,19.3535534 4.14644661,18.8786797 4.43933983,18.5857864 L18.4393398,4.58578644 Z"/></svg>