<?xml version="1.0" encoding="UTF-8"?>
<svg width="24px" height="24px" viewBox="0 0 24 24" version="1.1" xmlns="http://www.w3.org/2000/svg" xmlns:xlink="http://www.w3.org/1999/xlink">
    <!-- Generator: Sketch 51.2 (57519) - http://www.bohemiancoding.com/sketch -->
    <title>File / Files Shared with Others</title>
    <desc>Created with Sketch.</desc>
    <defs></defs>
    <g id="File-/-Files-Shared-with-Others" stroke="none" stroke-width="1" fill="none" fill-rule="evenodd">
        <path d="M17.4666667,19.7333334 L17.4666667,18.8 C17.4666667,17.1764128 14.6418927,16.1428571 14.6418927,16.1428571 C14.6418927,16.1428571 14.2876616,16.003815 14.2876616,15.8529917 C14.2876616,15.7021684 14.5116834,15.5750994 14.6418927,15.5 C15.2349967,15.1014286 15.3076361,14.4778571 15.3471293,12.9285714 C15.2251234,11.3767143 14.0304526,11 13.2314195,11 C12.4323865,11 11.2377157,11.3773571 11.1157098,12.9285714 C11.155203,14.4778571 11.2278424,15.1014286 11.8209464,15.5 C11.969833,15.5628205 12.179557,15.6593792 12.1809111,15.8529917 C12.1822652,16.0466042 11.8209464,16.1428571 11.8209464,16.1428571 C11.8209464,16.1428571 8.99999999,17.1073571 8.99999999,18.8 L8.99999999,19 C8.99999999,19.5522848 8.55228474,20 7.99999999,20 L6.49999998,20 C6.22385761,20 5.99999997,19.7761424 5.99999997,19.5 L5.99999997,4.49999997 C5.99999997,4.2238576 6.22385761,3.99999997 6.49999998,3.99999997 L16,3.99999997 L18,5.99999998 L18,19.7333334 C18,19.8806093 17.8806093,20 17.7333334,20 L17.7333334,20 C17.5860574,20 17.4666667,19.8806093 17.4666667,19.7333334 Z" id="File-Shared-with-Others" fill="#000000" fill-rule="nonzero"></path>
    </g>
</svg>