<?xml version="1.0" encoding="UTF-8"?>
<svg width="24px" height="24px" viewBox="0 0 24 24" version="1.1" xmlns="http://www.w3.org/2000/svg" xmlns:xlink="http://www.w3.org/1999/xlink">
    <!-- Generator: Sketch 51.2 (57519) - http://www.bohemiancoding.com/sketch -->
    <title>File-Document</title>
    <desc>Created with Sketch.</desc>
    <defs></defs>
    <g id="File-Document" stroke="none" stroke-width="1" fill="none" fill-rule="evenodd">
        <path d="M6.49999998,3.99999997 L16,3.99999997 L18,5.99999997 L18,19.5 C18,19.7761424 17.7761424,20 17.5,20 L6.49999998,20 C6.22385761,20 5.99999997,19.7761424 5.99999997,19.5 L5.99999997,4.49999997 C5.99999997,4.2238576 6.22385761,3.99999997 6.49999998,3.99999997 Z M7.75404165,15.5 C7.75404165,15.7761424 7.97789927,16 8.25404165,16 L15.7540417,16 C16.0301841,16 16.2540417,15.7761424 16.2540417,15.5 C16.2540417,15.2238576 16.0301841,15 15.7540417,15 L8.25404165,15 C7.97789927,15 7.75404165,15.2238576 7.75404165,15.5 Z M7.75404165,17.5 C7.75404165,17.7761424 7.97789927,18 8.25404165,18 L15.7540417,18 C16.0301841,18 16.2540417,17.7761424 16.2540417,17.5 C16.2540417,17.2238576 16.0301841,17 15.7540417,17 L8.25404165,17 C7.97789927,17 7.75404165,17.2238576 7.75404165,17.5 Z M7.75404165,13.5 C7.75404165,13.7761424 7.97789927,14 8.25404165,14 L15.7540417,14 C16.0301841,14 16.2540417,13.7761424 16.2540417,13.5 C16.2540417,13.2238576 16.0301841,13 15.7540417,13 L8.25404165,13 C7.97789927,13 7.75404165,13.2238576 7.75404165,13.5 Z M7.75295856,6.99999997 C7.75295856,7.55228472 8.20067381,7.99999997 8.75295856,7.99999997 L10.7510831,7.99999997 C11.3033678,7.99999997 11.7510831,7.55228472 11.7510831,6.99999997 C11.7510831,6.44771523 11.3033678,5.99999997 10.7510831,5.99999997 L8.75295856,5.99999997 C8.20067381,5.99999997 7.75295856,6.44771523 7.75295856,6.99999997 Z" fill="#000000" fill-rule="nonzero"></path>
    </g>
</svg>