<?xml version="1.0" encoding="UTF-8"?>
<svg width="24px" height="24px" viewBox="0 0 24 24" version="1.1" xmlns="http://www.w3.org/2000/svg" xmlns:xlink="http://www.w3.org/1999/xlink">
    <!-- Generator: Sketch 51.2 (57519) - http://www.bohemiancoding.com/sketch -->
    <title>Comment-Add Comment</title>
    <desc>Created with Sketch.</desc>
    <defs></defs>
    <g id="Comment-Add-Comment" stroke="none" stroke-width="1" fill="none" fill-rule="evenodd">
        <path d="M9.83964466,16.8157426 C10.5247636,16.498395 11,15.8046962 11,15 C11,13.8954305 10.1045695,13 8.99999999,13 L7.99999998,13 L7.99999998,12 C7.99999998,10.8954305 7.10456948,9.99999999 5.99999997,9.99999999 C5.22025595,9.99999999 4.54473241,10.4462209 4.21485622,11.0972358 C4.06055462,9.04347601 4.48893587,7.51106408 5.49999997,6.49999998 C7.99999998,3.99999997 16,3.99999997 18.5,6.49999998 C20.7615776,8.76157758 20.1394026,12.0869438 18.8934133,14.582659 C18.8189934,14.7317219 18.7084144,14.9355236 18.5616761,15.1940639 C18.5089847,15.2868435 18.4873817,15.3940509 18.5,15.5 C18.5297467,15.7497663 18.5527593,15.9429905 18.5690378,16.0796726 C18.6604734,16.8474067 18.8171288,17.8294218 19,18.6982233 C19,18.7313754 18.9868304,18.7631696 18.9633883,18.7866117 C18.9145728,18.8354272 18.8354272,18.8354272 18.7866117,18.7866117 C17.7672665,17.8563098 17.0027577,17.1585834 16.4930851,16.6934325 C16.427545,16.6336174 16.3424039,16.5559137 16.2376619,16.4603213 C16.0941069,16.3292373 15.8875819,16.293286 15.7081564,16.3681029 C15.6403644,16.3963709 15.5832279,16.4195108 15.5367468,16.4375227 C13.5484894,17.2079925 11.6584562,17.1425908 9.83964466,16.8157426 Z M6.74999998,14.25 L8.99999999,14.25 C9.41421355,14.25 9.74999999,14.5857864 9.74999999,15 C9.74999999,15.4142136 9.41421355,15.75 8.99999999,15.75 L6.74999998,15.75 L6.74999998,18 C6.74999998,18.4142136 6.41421354,18.75 5.99999998,18.75 C5.58578641,18.75 5.24999997,18.4142136 5.24999997,18 L5.24999997,15.75 L2.99999996,15.75 C2.5857864,15.75 2.24999996,15.4142136 2.24999996,15 C2.24999996,14.5857864 2.5857864,14.25 2.99999996,14.25 L5.24999997,14.25 L5.24999997,12 C5.24999997,11.5857864 5.58578641,11.25 5.99999998,11.25 C6.41421354,11.25 6.74999998,11.5857864 6.74999998,12 L6.74999998,14.25 Z" id="Add-Comment" fill="#000000" fill-rule="nonzero"></path>
    </g>
</svg>