<?xml version="1.0" encoding="UTF-8"?>
<svg width="24px" height="24px" viewBox="0 0 24 24" version="1.1" xmlns="http://www.w3.org/2000/svg" xmlns:xlink="http://www.w3.org/1999/xlink">
    <!-- Generator: Sketch 51.2 (57519) - http://www.bohemiancoding.com/sketch -->
    <title>File /</title>
    <desc>Created with Sketch.</desc>
    <defs></defs>
    <g id="File-/" stroke="none" stroke-width="1" fill="none" fill-rule="evenodd">
        <path d="M6.49999997,3.99999997 L16,3.99999997 L18,5.99999997 L18,19.5 C18,19.7761424 17.7761424,20 17.5,20 L6.49999997,20 C6.2238576,20 5.99999997,19.7761424 5.99999997,19.5 L5.99999997,4.49999997 C5.99999997,4.22385759 6.2238576,3.99999997 6.49999997,3.99999997 Z M8,6 L15.2100526,6 L16,6.77688591 L16,18 L8,18 L8,6 Z M7.24999998,4.99999997 C7.11192879,4.99999997 6.99999998,5.11192878 6.99999998,5.24999997 L6.99999998,18.75 C6.99999998,18.8880712 7.11192882,19 7.24999998,19 L16.75,19 C16.8880712,19 17,18.8880712 17,18.75 L17,6.42067412 L15.6068933,4.99999997 L7.24999998,4.99999997 Z" id="File" fill="#000000" fill-rule="nonzero"></path>
    </g>
</svg>