<?xml version="1.0" encoding="UTF-8"?>
<svg width="24px" height="24px" viewBox="0 0 24 24" version="1.1" xmlns="http://www.w3.org/2000/svg" xmlns:xlink="http://www.w3.org/1999/xlink">
    <!-- Generator: Sketch 51.2 (57519) - http://www.bohemiancoding.com/sketch -->
    <title>EKG /</title>
    <desc>Created with Sketch.</desc>
    <defs></defs>
    <g id="EKG-/" stroke="none" stroke-width="1" fill="none" fill-rule="evenodd">
        <path d="M7.65962193,13.0109475 L9.53648208,19.767644 C9.81466797,20.7691132 11.2465044,20.7341229 11.475441,19.720261 L13.9921935,8.5746429 L15.0238129,13.2169305 C15.125488,13.6744681 15.5313014,14.0000001 16,14.0000001 C19.6666667,13.6666668 21.5,13.5000001 21.5,13.5000001 C21.5,13.5000001 21.5,13.5000001 21.5,13.5000001 C21.7761424,13.3619289 21.8880712,13.0261425 21.75,12.7500001 C21.6959074,12.641815 21.6081851,12.5540926 21.5,12.5000001 L16.8021716,12.0000001 L14.9761871,3.7830696 C14.7445718,2.74080081 13.2597301,2.73826695 13.024559,3.77973919 L10.3998872,15.4032857 L8.9635179,10.2323562 C8.72840934,9.38596539 7.59445972,9.23224988 7.14250705,9.98550433 L5.93380959,12.0000001 C3.97793651,12.3333334 2.99999996,12.5000001 2.99999996,12.5000001 C2.99999996,12.5000001 2.99999996,12.5000001 2.99999996,12.5000001 C2.72385759,12.6380713 2.61192877,12.9738577 2.74999996,13.2500001 C2.80409251,13.3581852 2.89181485,13.4459075 2.99999996,13.5000001 L6.49999998,14.0000001 C6.85126283,14.0000001 7.17676966,13.8157013 7.35749291,13.5144958 L7.65962193,13.0109475 Z" id="EKG" fill="#000000" fill-rule="nonzero"></path>
    </g>
</svg>