<?xml version="1.0" encoding="UTF-8"?>
<svg width="24px" height="24px" viewBox="0 0 24 24" version="1.1" xmlns="http://www.w3.org/2000/svg" xmlns:xlink="http://www.w3.org/1999/xlink">
    <!-- Generator: Sketch 51.2 (57519) - http://www.bohemiancoding.com/sketch -->
    <title>IconObjectMail</title>
    <desc>Created with Sketch.</desc>
    <defs></defs>
    <g id="IconObjectMail" stroke-width="1" fill-rule="evenodd">
        <path d="M15,17.5 L15,13 C15,11.8954305 14.1045695,11 13,11 L6.5,11 C6.22385763,11 6,10.7761424 6,10.5 L6,6.5 C6,6.22385763 6.22385763,6 6.5,6 L17.5,6 C17.7761424,6 18,6.22385763 18,6.5 L18,17.5 C18,17.7761424 17.7761424,18 17.5,18 L15.5,18 C15.2238576,18 15,17.7761424 15,17.5 Z M5,13.75 L5,17.25 C5,17.6642136 5.33578644,18 5.75,18 L12.25,18 C12.6642136,18 13,17.6642136 13,17.25 L13,13.75 C13,13.7098275 12.9968416,13.6703927 12.9907595,13.6319304 L9,16.625 L5.00924053,13.6319304 C5.00315843,13.6703927 5,13.7098275 5,13.75 Z M5.83333333,13 L9,15.375 L12.1666667,13 L5.83333333,13 Z M5.5,12 L12.5,12 C13.3284271,12 14,12.6715729 14,13.5 L14,17.5 C14,18.3284271 13.3284271,19 12.5,19 L5.5,19 C4.67157288,19 4,18.3284271 4,17.5 L4,13.5 C4,12.6715729 4.67157288,12 5.5,12 Z" id="Mail-Object" fill-rule="nonzero"></path>
    </g>
</svg>