<?xml version="1.0" encoding="UTF-8"?>
<svg width="24px" height="24px" viewBox="0 0 24 24" version="1.1" xmlns="http://www.w3.org/2000/svg" xmlns:xlink="http://www.w3.org/1999/xlink">
    <!-- Generator: Sketch 51.2 (57519) - http://www.bohemiancoding.com/sketch -->
    <title>Ingress-Egress</title>
    <desc>Created with Sketch.</desc>
    <defs></defs>
    <g id="Ingress-Egress" stroke="none" stroke-width="1" fill="none" fill-rule="evenodd">
        <path d="M9.5606602,10 C9.14644664,10 8.8106602,9.66421358 8.8106602,9.25000001 C8.8106602,8.83578645 9.14644664,8.50000001 9.5606602,8.50000001 L19.5606602,8.50000001 C19.9748738,8.50000001 20.3106602,8.83578645 20.3106602,9.25000001 C20.3106602,9.66421358 19.9748738,10 19.5606602,10 L9.5606602,10 Z M16.5303301,7.28033009 C16.2374369,6.98743687 16.2374369,6.51256314 16.5303301,6.21966992 C16.8232234,5.92677669 17.2980971,5.92677669 17.5909903,6.21966992 L20.6213204,9.25000001 L17.5909903,12.2803301 C17.2980971,12.5732233 16.8232234,12.5732233 16.5303301,12.2803301 C16.2374369,11.9874369 16.2374369,11.5125632 16.5303301,11.2196699 L18.5000001,9.25000001 L16.5303301,7.28033009 Z" fill="#000000" fill-rule="nonzero"></path>
        <path d="M5.87132036,14 L7.09099027,15.21967 C7.38388349,15.5125632 7.38388349,15.9874369 7.09099027,16.2803301 C6.79809705,16.5732233 6.32322332,16.5732233 6.0303301,16.2803301 L3,13.25 L6.0303301,10.2196699 C6.32322332,9.92677671 6.79809705,9.92677671 7.09099027,10.2196699 C7.38388349,10.5125632 7.38388349,10.9874369 7.09099027,11.2803301 L5.87132036,12.5 L14.0606602,12.5 C14.4748738,12.5 14.8106602,12.8357865 14.8106602,13.25 C14.8106602,13.6642136 14.4748738,14 14.0606602,14 L5.87132036,14 Z" id="Combined-Shape" fill="#000000" fill-rule="nonzero"></path>
    </g>
</svg>