<?xml version="1.0" encoding="UTF-8"?>
<svg width="24px" height="24px" viewBox="0 0 24 24" version="1.1" xmlns="http://www.w3.org/2000/svg" xmlns:xlink="http://www.w3.org/1999/xlink">
    <!-- Generator: Sketch 51.2 (57519) - http://www.bohemiancoding.com/sketch -->
    <title>IconObjectExpand</title>
    <desc>Created with Sketch.</desc>
    <defs></defs>
    <g id="IconObjectExpand"  stroke-width="1"  fill-rule="evenodd">
        <path d="M6.5,6 L17.5,6 C17.7761424,6 18,6.22385763 18,6.5 L18,17.5 C18,17.7761424 17.7761424,18 17.5,18 L6.5,18 C6.22385763,18 6,17.7761424 6,17.5 L6,6.5 C6,6.22385763 6.22385763,6 6.5,6 Z M14.5,9.50000001 L14.5,11.25 C14.5,11.6642136 14.8357864,12 15.25,12 C15.6642136,12 16,11.6642136 16,11.25 L16,8.75 C16,8.33578644 15.6642136,8 15.25,8 L12.75,8 C12.3357864,8 12,8.33578644 12,8.75 C12,9.16421357 12.3357864,9.50000001 12.75,9.50000001 L14.5,9.50000001 Z M9.50000001,14.5 L9.50000001,12.75 C9.50000001,12.3357864 9.16421357,12 8.75,12 C8.33578644,12 8,12.3357864 8,12.75 L8,15.25 C8,15.6642136 8.33578644,16 8.75,16 L11.25,16 C11.6642136,16 12,15.6642136 12,15.25 C12,14.8357864 11.6642136,14.5 11.25,14.5 L9.50000001,14.5 Z" id="Expand-Object" fill-rule="nonzero"></path>
    </g>
</svg>