<?xml version="1.0" encoding="UTF-8"?>
<svg width="24px" height="24px" viewBox="0 0 24 24" version="1.1" xmlns="http://www.w3.org/2000/svg" xmlns:xlink="http://www.w3.org/1999/xlink">
    <!-- Generator: Sketch 51.2 (57519) - http://www.bohemiancoding.com/sketch -->
    <title>Warning</title>
    <desc>Created with Sketch.</desc>
    <defs></defs>
    <g id="Warning" stroke="none" stroke-width="1" fill="none" fill-rule="evenodd">
        <path d="M12.8438196,4.82686495 L20.5227823,16.9016574 C20.8191532,17.3676861 20.6816183,17.985733 20.2155897,18.2821039 C20.0551932,18.384108 19.8690465,18.4382843 19.6789627,18.4382843 L4.32103731,18.4382843 C3.76875256,18.4382843 3.32103731,17.9905691 3.32103731,17.4382843 C3.32103731,17.2482005 3.37521361,17.0620538 3.47721772,16.9016574 L11.1561804,4.82686495 C11.4525513,4.36083625 12.0705983,4.22330143 12.536627,4.51967232 C12.6602986,4.59832128 12.7651706,4.7031933 12.8438196,4.82686495 Z M12.2119996,5.83919932 C12.1918794,5.80700704 12.164692,5.77981966 12.1324997,5.75969948 C12.0154156,5.6865219 11.861178,5.72211519 11.7880004,5.83919932 L4.73906233,17.1175003 C4.71422927,17.1572332 4.70106191,17.2031451 4.70106191,17.25 C4.70106191,17.3880712 4.81299072,17.5 4.95106191,17.5 L19.0489381,17.5 C19.095793,17.5 19.1417049,17.4868326 19.1814378,17.4619996 C19.298522,17.388822 19.3341152,17.2345844 19.2609377,17.1175003 L12.2119996,5.83919932 Z M11.25,14 L12.75,14 C12.8880712,14 13,14.1119288 13,14.25 L13,15.75 C13,15.8880712 12.8880712,16 12.75,16 L11.25,16 C11.1119288,16 11,15.8880712 11,15.75 L11,14.25 C11,14.1119288 11.1119288,14 11.25,14 Z M11.25,8.99999998 L12.75,8.99999998 C12.8880712,8.99999998 13,9.1119288 13,9.24999998 L13,10.9761465 C13,10.9966564 12.9974761,11.0170883 12.9924852,11.0369816 L12.547458,12.8108351 C12.5195616,12.9220287 12.4196124,13 12.3049728,13 L11.6950272,13 C11.5803876,13 11.4804384,12.9220287 11.452542,12.8108351 L11.0075148,11.0369816 C11.0025239,11.0170883 11,10.9966564 11,10.9761465 L11,9.24999998 C11,9.1119288 11.1119288,8.99999998 11.25,8.99999998 Z" fill="#000000" fill-rule="nonzero"></path>
    </g>
</svg>