<?xml version="1.0" encoding="UTF-8"?>
<svg width="24px" height="24px" viewBox="0 0 24 24" version="1.1" xmlns="http://www.w3.org/2000/svg" xmlns:xlink="http://www.w3.org/1999/xlink">
    <!-- Generator: Sketch 51.2 (57519) - http://www.bohemiancoding.com/sketch -->
    <title>Dashboards</title>
    <desc>Created with Sketch.</desc>
    <defs></defs>
    <g id="Dashboards" stroke="none" stroke-width="1" fill="none" fill-rule="evenodd">
        <path d="M21,7.3357864 L14,14.3357864 L12.9142136,13.25 C12.133165,12.4689514 10.866835,12.4689514 10.0857864,13.25 L7.25,16.0857864 C6.18349414,15.0193364 5.64572822,14.4817381 5.63670224,14.4729913 C4.90416176,13.7675641 3.77280834,13.7318606 2.99999996,14.3516006 L2.99999996,4.99999997 C2.99999996,3.89543047 3.89543047,2.99999996 4.99999997,2.99999996 L19,2.99999996 C20.1045695,2.99999996 21,3.89543047 21,4.99999997 L21,7.3357864 Z M21,10.1672893 L21,19 C21,20.1045695 20.1045695,21 19,21 L4.99999997,21 C3.89543047,21 2.99999996,20.1045695 2.99999996,19 L2.99999996,17.2753018 L4.24940066,15.9136142 L5.83578644,17.5 C6.61683502,18.2810486 7.88316498,18.2810486 8.66421356,17.5 L11.5,14.6642136 L12.5857864,15.75 C13.366835,16.5310486 14.633165,16.5310486 15.4142136,15.75 L21,10.1672893 Z" fill="#000000" fill-rule="nonzero"></path>
    </g>
</svg>