<?xml version="1.0" encoding="UTF-8"?>
<svg width="24px" height="24px" viewBox="0 0 24 24" version="1.1" xmlns="http://www.w3.org/2000/svg" xmlns:xlink="http://www.w3.org/1999/xlink">
    <!-- Generator: Sketch 51.2 (57519) - http://www.bohemiancoding.com/sketch -->
    <title>File / Many Files Shared with Others</title>
    <desc>Created with Sketch.</desc>
    <defs></defs>
    <g id="File-/-Many-Files-Shared-with-Others" stroke="none" stroke-width="1" fill="none" fill-rule="evenodd">
        <path d="M16.4666667,19.6344715 L16.4666667,18.8 C16.4666667,17.1764128 13.6418927,16.1428571 13.6418927,16.1428571 C13.6418927,16.1428571 13.2876616,16.003815 13.2876616,15.8529917 C13.2876616,15.7021684 13.5116834,15.5750994 13.6418927,15.5 C14.2349967,15.1014286 14.3076361,14.4778571 14.3471293,12.9285714 C14.2251234,11.3767143 13.0304526,11 12.2314195,11 C11.4323865,11 10.2377157,11.3773571 10.1157098,12.9285714 C10.155203,14.4778571 10.2278424,15.1014286 10.8209464,15.5 C10.969833,15.5628205 11.179557,15.6593792 11.1809111,15.8529917 C11.1822652,16.0466042 10.8209464,16.1428571 10.8209464,16.1428571 C10.8209464,16.1428571 7.99999999,17.1073571 7.99999999,18.8 L7.99999999,19 C7.99999999,19.5522848 7.55228474,20 6.99999999,20 L5.49999998,20 C5.22385761,20 4.99999997,19.7761424 4.99999997,19.5 L4.99999997,4.49999997 C4.99999997,4.2238576 5.22385761,3.99999997 5.49999998,3.99999997 L15,3.99999997 L17,5.99999998 L17,19.1344715 C17,19.3676845 16.903471,19.590496 16.7333334,19.75 C16.6695287,19.8098169 16.5693137,19.8065841 16.5094968,19.7427795 C16.4819801,19.7134283 16.4666667,19.6747041 16.4666667,19.6344715 Z M19.1464466,4.85355339 C18.9511845,4.65829124 18.9511845,4.34170876 19.1464466,4.14644661 C19.3417088,3.95118446 19.6582912,3.95118446 19.8535534,4.14644661 L20.5606602,4.85355339 C20.8419647,5.13485796 21,5.51638883 21,5.91421356 L21,19.5 C21,19.7761424 20.7761424,20 20.5,20 C20.2238576,20 20,19.7761424 20,19.5 L20,5.70075989 L19.1464466,4.85355339 Z M17.1464466,4.85355339 C16.9511845,4.65829124 16.9511845,4.34170876 17.1464466,4.14644661 C17.3417088,3.95118446 17.6582912,3.95118446 17.8535534,4.14644661 L18.5606602,4.85355339 C18.8419647,5.13485796 19,5.51638883 19,5.91421356 L19,19.5 C19,19.7761424 18.7761424,20 18.5,20 C18.2238576,20 18,19.7761424 18,19.5 L18,5.70075989 L17.1464466,4.85355339 Z" id="File-Shared-with-Others" fill="#000000" fill-rule="nonzero"></path>
    </g>
</svg>