<?xml version="1.0" encoding="UTF-8"?>
<svg width="24px" height="24px" viewBox="0 0 24 24" version="1.1" xmlns="http://www.w3.org/2000/svg" xmlns:xlink="http://www.w3.org/1999/xlink">
    <!-- Generator: Sketch 51.2 (57519) - http://www.bohemiancoding.com/sketch -->
    <title>File-Audio</title>
    <desc>Created with Sketch.</desc>
    <defs></defs>
    <g id="File-Audio" stroke="none" stroke-width="1" fill="none" fill-rule="evenodd">
        <path d="M6.49999998,3.99999997 L16,3.99999997 L18,5.99999997 L18,19.5 C18,19.7761424 17.7761424,20 17.5,20 L6.49999998,20 C6.22385761,20 5.99999997,19.7761424 5.99999997,19.5 L5.99999997,4.49999997 C5.99999997,4.2238576 6.22385761,3.99999997 6.49999998,3.99999997 Z M8.49999999,8.99999999 C8.22385761,8.99999999 7.99999998,9.22385762 7.99999998,9.49999999 L7.99999998,14.5 C7.99999998,14.7761424 8.22385761,15 8.49999999,15 C8.77614236,15 8.99999999,14.7761424 8.99999999,14.5 L8.99999999,9.49999999 C8.99999999,9.22385762 8.77614236,8.99999999 8.49999999,8.99999999 Z M10.5,9.99999999 C10.2238576,9.99999999 9.99999999,10.2238576 9.99999999,10.5 L9.99999999,13.5 C9.99999999,13.7761424 10.2238576,14 10.5,14 C10.7761424,14 11,13.7761424 11,13.5 L11,10.5 C11,10.2238576 10.7761424,9.99999999 10.5,9.99999999 Z M12.5,8.99999999 C12.2238576,8.99999999 12,9.22385762 12,9.49999999 L12,14.5 C12,14.7761424 12.2238576,15 12.5,15 C12.7761424,15 13,14.7761424 13,14.5 L13,9.49999999 C13,9.22385762 12.7761424,8.99999999 12.5,8.99999999 Z M14.5,7.99999998 C14.2238576,7.99999998 14,8.22385761 14,8.49999999 L14,15.5 C14,15.7761424 14.2238576,16 14.5,16 C14.7761424,16 15,15.7761424 15,15.5 L15,8.49999999 C15,8.22385761 14.7761424,7.99999998 14.5,7.99999998 Z M16.5,9.99999999 C16.2238576,9.99999999 16,10.2238576 16,10.5 L16,13.5 C16,13.7761424 16.2238576,14 16.5,14 C16.7761424,14 17,13.7761424 17,13.5 L17,10.5 C17,10.2238576 16.7761424,9.99999999 16.5,9.99999999 Z" fill="#000000" fill-rule="nonzero"></path>
    </g>
</svg>