<?xml version="1.0" encoding="UTF-8"?>
<svg width="24px" height="24px" viewBox="0 0 24 24" version="1.1" xmlns="http://www.w3.org/2000/svg" xmlns:xlink="http://www.w3.org/1999/xlink">
    <!-- Generator: Sketch 51.2 (57519) - http://www.bohemiancoding.com/sketch -->
    <title>File-Spreadsheet</title>
    <desc>Created with Sketch.</desc>
    <defs></defs>
    <g id="File-Spreadsheet" stroke="none" stroke-width="1" fill="none" fill-rule="evenodd">
        <path d="M6.49999998,3.99999997 L16,3.99999997 L18,5.99999997 L18,19.5 C18,19.7761424 17.7761424,20 17.5,20 L6.49999998,20 C6.22385761,20 5.99999998,19.7761424 5.99999998,19.5 L5.99999998,4.49999997 C5.99999998,4.2238576 6.22385761,3.99999997 6.49999998,3.99999997 Z M9.17647058,7.99999998 C8.52672381,7.99999998 7.99999998,8.52672381 7.99999998,9.17647058 L7.99999998,14.8235294 C7.99999998,15.4732762 8.52672381,16 9.17647058,16 L14.8235294,16 C15.4732762,16 16,15.4732762 16,14.8235294 L16,9.17647058 C16,8.52672381 15.4732762,7.99999998 14.8235294,7.99999998 L9.17647058,7.99999998 Z M12.5,9.99999999 L14.75,9.99999999 C14.8880712,9.99999999 15,10.1119288 15,10.25 L15,12 L12.5,12 L12.5,9.99999999 Z M11.5,9.99999999 L11.5,12 L8.99999999,12 L8.99999999,10.25 C8.99999999,10.1119288 9.1119288,9.99999999 9.24999999,9.99999999 L11.5,9.99999999 Z M12.5,15 L12.5,13 L15,13 L15,14.75 C15,14.8880712 14.8880712,15 14.75,15 L12.5,15 Z M11.5,15 L9.24999999,15 C9.1119288,15 8.99999999,14.8880712 8.99999999,14.75 L8.99999999,13 L11.5,13 L11.5,15 Z" fill="#000000" fill-rule="nonzero"></path>
    </g>
</svg>