<?xml version="1.0" encoding="UTF-8"?>
<svg width="24px" height="24px" viewBox="0 0 24 24" version="1.1" xmlns="http://www.w3.org/2000/svg" xmlns:xlink="http://www.w3.org/1999/xlink">
    <!-- Generator: Sketch 51.2 (57519) - http://www.bohemiancoding.com/sketch -->
    <title>Idle</title>
    <desc>Created with Sketch.</desc>
    <defs></defs>
    <g id="Idle" stroke="none" stroke-width="1" fill="none" fill-rule="evenodd">
        <path d="M12.8438196,4.82686495 L20.5227823,16.9016574 C20.8191532,17.3676861 20.6816183,17.985733 20.2155897,18.2821039 C20.0551932,18.384108 19.8690465,18.4382843 19.6789627,18.4382843 L4.32103731,18.4382843 C3.76875256,18.4382843 3.32103731,17.9905691 3.32103731,17.4382843 C3.32103731,17.2482005 3.37521361,17.0620538 3.47721772,16.9016574 L11.1561804,4.82686495 C11.4525513,4.36083625 12.0705983,4.22330143 12.536627,4.51967232 C12.6602986,4.59832128 12.7651706,4.7031933 12.8438196,4.82686495 Z M12.2119996,5.83919932 C12.1918794,5.80700704 12.164692,5.77981966 12.1324997,5.75969948 C12.0154156,5.6865219 11.861178,5.72211519 11.7880004,5.83919932 L4.73906233,17.1175003 C4.71422927,17.1572332 4.70106191,17.2031451 4.70106191,17.25 C4.70106191,17.3880712 4.81299072,17.5 4.95106191,17.5 L19.0489381,17.5 C19.095793,17.5 19.1417049,17.4868326 19.1814378,17.4619996 C19.298522,17.388822 19.3341152,17.2345844 19.2609377,17.1175003 L12.2119996,5.83919932 Z M14.5,12 L15.5,12 C15.7761424,12 16,12.2238576 16,12.5 L16,13.5 C16,13.7761424 15.7761424,14 15.5,14 L14.5,14 C14.2238576,14 14,13.7761424 14,13.5 L14,12.5 C14,12.2238576 14.2238576,12 14.5,12 Z M11.5,12 L12.5,12 C12.7761424,12 13,12.2238576 13,12.5 L13,13.5 C13,13.7761424 12.7761424,14 12.5,14 L11.5,14 C11.2238576,14 11,13.7761424 11,13.5 L11,12.5 C11,12.2238576 11.2238576,12 11.5,12 Z M8.49999998,12 L9.49999999,12 C9.77614237,12 9.99999999,12.2238576 9.99999999,12.5 L9.99999999,13.5 C9.99999999,13.7761424 9.77614237,14 9.49999999,14 L8.49999998,14 C8.22385761,14 7.99999998,13.7761424 7.99999998,13.5 L7.99999998,12.5 C7.99999998,12.2238576 8.22385761,12 8.49999998,12 Z" fill="#000000" fill-rule="nonzero"></path>
    </g>
</svg>