<?xml version="1.0" encoding="UTF-8"?>
<svg width="24px" height="24px" viewBox="0 0 24 24" version="1.1" xmlns="http://www.w3.org/2000/svg" xmlns:xlink="http://www.w3.org/1999/xlink">
    <!-- Generator: Sketch 51.2 (57519) - http://www.bohemiancoding.com/sketch -->
    <title>List /</title>
    <desc>Created with Sketch.</desc>
    <defs></defs>
    <g id="List-/" stroke="none" stroke-width="1" fill="none" fill-rule="evenodd">
        <path d="M5.24999997,8.00000001 C4.55964403,8.00000001 3.99999997,7.44035595 3.99999997,6.75000001 C3.99999997,6.05964406 4.55964403,5.5 5.24999997,5.5 C5.94035591,5.5 6.49999998,6.05964406 6.49999998,6.75000001 C6.49999998,7.44035595 5.94035591,8.00000001 5.24999997,8.00000001 Z M5.24999997,13.0311815 C4.55964403,13.0311815 3.99999997,12.4715374 3.99999997,11.7811815 C3.99999997,11.0908256 4.55964403,10.5311815 5.24999997,10.5311815 C5.94035591,10.5311815 6.49999998,11.0908256 6.49999998,11.7811815 C6.49999998,12.4715374 5.94035591,13.0311815 5.24999997,13.0311815 Z M5.24999997,18.0507799 C4.55964403,18.0507799 3.99999997,17.4911358 3.99999997,16.8007799 C3.99999997,16.110424 4.55964403,15.5507799 5.24999997,15.5507799 C5.94035591,15.5507799 6.49999998,16.110424 6.49999998,16.8007799 C6.49999998,17.4911358 5.94035591,18.0507799 5.24999997,18.0507799 Z M8.74999999,16.0507799 L19.25,16.0507799 C19.6642136,16.0507799 20,16.3865663 20,16.8007799 C20,17.2149935 19.6642136,17.5507799 19.25,17.5507799 L8.74999999,17.5507799 C8.33578642,17.5507799 7.99999998,17.2149935 7.99999998,16.8007799 C7.99999998,16.3865663 8.33578642,16.0507799 8.74999999,16.0507799 Z M8.74999999,11.0311815 L19.25,11.0311815 C19.6642136,11.0311815 20,11.3669679 20,11.7811815 C20,12.1953951 19.6642136,12.5311815 19.25,12.5311815 L8.74999999,12.5311815 C8.33578642,12.5311815 7.99999998,12.1953951 7.99999998,11.7811815 C7.99999998,11.3669679 8.33578642,11.0311815 8.74999999,11.0311815 Z M8.74999999,5.99999999 L19.25,5.99999999 C19.6642136,5.99999999 20,6.33578644 20,6.75 C20,7.16421356 19.6642136,7.5 19.25,7.5 L8.74999999,7.5 C8.33578642,7.5 7.99999998,7.16421356 7.99999998,6.75 C7.99999998,6.33578644 8.33578642,5.99999999 8.74999999,5.99999999 Z" id="List" fill="#000000" fill-rule="nonzero"></path>
    </g>
</svg>