<?xml version="1.0" encoding="UTF-8"?>
<svg width="24px" height="24px" viewBox="0 0 24 24" version="1.1" xmlns="http://www.w3.org/2000/svg" xmlns:xlink="http://www.w3.org/1999/xlink">
    <!-- Generator: Sketch 51.2 (57519) - http://www.bohemiancoding.com/sketch -->
    <title>Person-Group</title>
    <desc>Created with Sketch.</desc>
    <defs></defs>
    <g id="Person-Group" stroke="none" stroke-width="1" fill="none" fill-rule="evenodd">
        <path d="M17.3369825,14.2398769 C17.1118039,14.0916063 16.8875266,13.9539483 16.6675596,13.8269246 C16.6230171,13.8012028 16.5715881,13.7722009 16.5132726,13.7399188 L16.513235,13.7399868 C16.2801131,13.6109362 16.1891233,13.3217621 16.306346,13.0824742 C16.3457886,13.0019597 16.3774401,12.9302631 16.4013007,12.8673843 C16.7124977,12.0472989 16.8107369,10.9108877 16.8560244,9.12019822 L16.8520744,8.96992223 C16.7093446,7.14005886 15.8548879,5.87239608 14.6377018,5.16623629 C14.6280271,5.16062348 14.6180252,5.15492854 14.6076961,5.14915147 L14.6077038,5.14913759 C14.369933,5.01615325 14.2849867,4.71559679 14.4179711,4.47782595 C14.4712112,4.3826347 14.5544986,4.30777242 14.6548076,4.26494726 C14.6548076,4.26494726 14.6548076,4.26494726 14.6548076,4.26494726 C15.1102989,4.07048317 15.5900483,3.99999997 15.9972875,3.99999997 C17.1297753,3.99999997 18.8230095,4.54414283 18.9959313,6.78571427 C18.9399566,9.02357142 18.8370032,9.9242857 17.9963834,10.5 C17.8118348,10.6084769 17.4943235,10.792021 17.4943235,11.0098769 C17.4943235,11.2277328 17.9963834,11.4285714 17.9963834,11.4285714 C17.9963834,11.4285714 22,12.9214852 22,15.2666667 C22,15.6252121 21.4718334,16.1219909 20.4155001,16.7570031 C20.4096055,16.7605465 20.4035096,16.7641037 20.3972123,16.7676749 L20.3971715,16.7676029 C20.1570045,16.9037983 19.8519025,16.8195127 19.7157071,16.5793457 C19.7155557,16.5790787 19.7154045,16.5788116 19.7152536,16.5785443 C19.709627,16.5685796 19.7041875,16.5590948 19.6989352,16.55009 C19.1944032,15.6851024 18.375285,14.9235555 17.3369825,14.2398769 Z M7.14177596,8.96987552 L7.13782234,9.12019822 C7.18327053,10.917241 7.28204674,12.0553545 7.59586643,12.8761012 C7.61679637,12.9308403 7.64384585,12.9927045 7.67701486,13.061694 L7.6770854,13.0616601 C7.79267562,13.3020805 7.69920138,13.5909035 7.46466544,13.7180096 C7.42433879,13.7398645 7.38796408,13.759887 7.3555413,13.7780771 C7.13030554,13.9044403 6.90050911,14.042209 6.66974043,14.1915197 C5.65077441,14.8508054 4.84141019,15.5984523 4.33313045,16.4551479 C4.30481947,16.5028655 4.2726391,16.5614885 4.23658933,16.631017 L4.23661927,16.6310325 C4.12293167,16.8502996 3.85566586,16.9396567 3.63296213,16.8328579 C3.63296213,16.8328579 3.63296213,16.8328579 3.63296213,16.8328579 C2.54432068,16.3107942 1.99999996,15.7887304 1.99999996,15.2666667 C1.99999996,12.8217381 5.99819166,11.4285714 5.99819166,11.4285714 C5.99819166,11.4285714 6.51029717,11.2895394 6.50837794,11.0098769 C6.50645871,10.7302145 6.20921209,10.5907407 5.99819166,10.5 C5.15757186,9.9242857 5.05461842,9.02357142 4.99864374,6.78571427 C5.17156553,4.5450714 6.86479972,3.99999997 7.99728751,3.99999997 C8.42641629,3.99999997 8.93605966,4.07813056 9.41299151,4.29713965 C9.41299151,4.29713965 9.41299151,4.29713965 9.41299151,4.29713965 C9.6438225,4.4031382 9.74501919,4.67619249 9.63902064,4.90702348 C9.59724386,4.99799998 9.52692364,5.07286104 9.43873572,5.12024156 C9.42145338,5.12953472 9.40503859,5.13859959 9.38949466,5.14744232 C8.15469874,5.84990094 7.2858144,7.12399989 7.14177596,8.96987552 Z M15.8181237,20 L8.07465811,19.9999921 C7.77567792,19.9999921 7.48050154,19.9329603 7.21084599,19.8038284 C6.04805976,19.2469967 5.46666664,18.690165 5.46666664,18.1333333 C5.46666664,15.5003333 9.82025316,14 9.82025316,14 C9.82025316,14 10.3778792,13.8502732 10.3757893,13.5490982 C10.3736995,13.2479233 10.050031,13.0977207 9.82025316,13 C8.9049116,12.38 8.79280675,11.41 8.73185654,8.99999999 C8.92014915,6.58699998 10.763893,5.99999998 11.9970464,5.99999998 C13.2301998,5.99999998 15.0739437,6.58599998 15.2622363,8.99999999 C15.2012861,11.41 15.0891812,12.38 14.1738397,13 C13.9728868,13.1168213 13.6271523,13.3144842 13.6271523,13.5490982 C13.6271523,13.7837123 14.1738397,14 14.1738397,14 C14.1738397,14 18.5333333,15.6077533 18.5333333,18.1333333 C18.5333333,18.5153155 17.970496,19.0429864 16.8448212,19.716346 C16.5345255,19.9019761 16.1797063,20 15.8181237,20 Z" id="Group" fill="#000000" fill-rule="nonzero"></path>
    </g>
</svg>