<?xml version="1.0" encoding="UTF-8"?>
<svg width="24px" height="24px" viewBox="0 0 24 24" version="1.1" xmlns="http://www.w3.org/2000/svg" xmlns:xlink="http://www.w3.org/1999/xlink">
    <!-- Generator: Sketch 51.2 (57519) - http://www.bohemiancoding.com/sketch -->
    <title>Instances</title>
    <desc>Created with Sketch.</desc>
    <defs></defs>
    <g id="Instances" stroke="none" stroke-width="1" fill="none" fill-rule="evenodd">
        <path d="M5.99999997,7.99999998 C4.89543047,7.99999998 3.99999997,7.10456948 3.99999997,5.99999997 C3.99999997,4.89543047 4.89543047,3.99999997 5.99999997,3.99999997 C7.10456948,3.99999997 7.99999998,4.89543047 7.99999998,5.99999997 C7.99999998,7.10456948 7.10456948,7.99999998 5.99999997,7.99999998 Z M9.99999999,12 C8.89543049,12 7.99999998,11.1045695 7.99999998,9.99999999 C7.99999998,8.89543049 8.89543049,7.99999998 9.99999999,7.99999998 C11.1045695,7.99999998 12,8.89543049 12,9.99999999 C12,11.1045695 11.1045695,12 9.99999999,12 Z M14,16 C12.8954305,16 12,15.1045695 12,14 C12,12.8954305 12.8954305,12 14,12 C15.1045695,12 16,12.8954305 16,14 C16,15.1045695 15.1045695,16 14,16 Z M18,20 C16.8954305,20 16,19.1045695 16,18 C16,16.8954305 16.8954305,16 18,16 C19.1045695,16 20,16.8954305 20,18 C20,19.1045695 19.1045695,20 18,20 Z" fill="#000000" fill-rule="nonzero"></path>
    </g>
</svg>