<svg version="1.1" xmlns="http://www.w3.org/2000/svg" xmlns:xlink="http://www.w3.org/1999/xlink" viewBox="0 0 24 24" preserveAspectRatio="xMaxYMax meet" width="24px" height="24px" focusable="false" id="Poll"><g title="Poll" fill="currentColor"><title>Poll</title><path d="M14.9840176,4.61673196 C17.8864554,5.80181797 19.9317664,8.65279612 19.9317664,11.9814822 C19.9317664,16.3731065 16.3716515,19.9332214 11.9800272,19.9332214 C7.58840298,19.9332214 4.02828809,16.3731065 4.02828809,11.9814822 C4.02828809,8.78101943 5.91906039,6.02217015 8.64450856,4.76103084 L5.27758564,4.46646325 L5.39309226,3.14621652 L10.8941203,3.62749411 L10.4128427,9.12852216 L9.09259598,9.01301553 L9.32170102,6.39433295 C7.22022775,7.39505768 5.79534124,9.54048188 5.79534124,11.9814822 C5.79534124,15.39719 8.56431948,18.1661683 11.9800272,18.1661683 C15.395735,18.1661683 18.1647133,15.39719 18.1647133,11.9814822 C18.1647133,9.69401394 16.9113633,7.64421418 14.9840176,6.57297136 L14.9840176,8.00561267 L13.7470804,8.00561267 L13.7470804,3.14621652 L14.9840176,3.14621652 L14.9840176,4.61673196 L14.9840176,4.61673196 Z" id="Combined-Shape"></path></g></svg>