<svg xmlns="http://www.w3.org/2000/svg" width="24" height="24" viewBox="0 0 24 24"><path fill="currentColor" fill-rule="evenodd" d="M16.2625419,17.6767555 L15.5554352,18.3838623 C15.1649109,18.7743866 14.5317459,18.7743866 14.1412216,18.3838623 L12.727008,16.9696487 C12.3364838,16.5791244 12.3364838,15.9459595 12.727008,15.5554352 L13.4341148,14.8483284 L10.4966786,11.9108922 C8.96277309,12.8168264 6.95397247,12.6108267 5.63603897,11.2928932 C4.0739418,9.73079605 4.0739418,7.19813614 5.63603897,5.63603897 C7.19813614,4.0739418 9.73079605,4.0739418 11.2928932,5.63603897 C12.6108267,6.95397247 12.8168264,8.96277309 11.9108922,10.4966786 L17.6767555,16.2625419 C18.0672798,16.6530662 18.0672798,17.2862312 17.6767555,17.6767555 C17.2862312,18.0672798 16.6530662,18.0672798 16.2625419,17.6767555 Z M7.05025253,9.87867966 C7.83130112,10.6597282 9.09763107,10.6597282 9.87867966,9.87867966 C10.6597282,9.09763107 10.6597282,7.83130112 9.87867966,7.05025253 C9.09763107,6.26920395 7.83130112,6.26920395 7.05025253,7.05025253 C6.26920395,7.83130112 6.26920395,9.09763107 7.05025253,9.87867966 Z"/></svg>