<?xml version="1.0" encoding="UTF-8"?>
<svg width="24px" height="24px" viewBox="0 0 24 24" version="1.1" xmlns="http://www.w3.org/2000/svg" xmlns:xlink="http://www.w3.org/1999/xlink">
    <!-- Generator: Sketch 51.2 (57519) - http://www.bohemiancoding.com/sketch -->
    <title>HTTP2</title>
    <desc>Created with Sketch.</desc>
    <defs></defs>
    <g id="HTTP2" stroke="none" stroke-width="1" fill="none" fill-rule="evenodd">
        <path d="M6.49999998,11 C7.32842711,11 7.99999998,10.3284271 7.99999998,9.49999999 C7.99999998,8.67157286 7.32842711,7.99999998 6.49999998,7.99999998 C5.67157285,7.99999998 4.99999997,8.67157286 4.99999997,9.49999999 C4.99999997,10.3284271 5.67157285,11 6.49999998,11 Z M6.49999998,16 C7.32842711,16 7.99999998,15.3284271 7.99999998,14.5 C7.99999998,13.6715729 7.32842711,13 6.49999998,13 C5.67157285,13 4.99999997,13.6715729 4.99999997,14.5 C4.99999997,15.3284271 5.67157285,16 6.49999998,16 Z M10.1878025,17.7990446 C10.0226448,18.1789075 9.58081826,18.3529603 9.2009554,18.1878026 C8.82109255,18.0226448 8.64703968,17.5808183 8.81219744,17.2009554 L13.8121975,5.70095539 C13.9773552,5.32109253 14.4191817,5.14703967 14.7990446,5.31219743 C15.1789075,5.47735519 15.3529603,5.9191817 15.1878026,6.29904456 L10.1878025,17.7990446 Z M14.1878026,17.7990446 C14.0226448,18.1789075 13.5808183,18.3529603 13.2009554,18.1878026 C12.8210926,18.0226448 12.6470397,17.5808183 12.8121975,17.2009554 L17.8121975,5.70095539 C17.9773552,5.32109253 18.4191818,5.14703967 18.7990446,5.31219743 C19.1789075,5.47735519 19.3529603,5.9191817 19.1878026,6.29904456 L14.1878026,17.7990446 Z" fill="#000000" fill-rule="nonzero"></path>
    </g>
</svg>