<?xml version="1.0" encoding="UTF-8"?>
<svg width="24px" height="24px" viewBox="0 0 24 24" version="1.1" xmlns="http://www.w3.org/2000/svg" xmlns:xlink="http://www.w3.org/1999/xlink">
    <!-- Generator: Sketch 51.2 (57519) - http://www.bohemiancoding.com/sketch -->
    <title>Classification-Unclassified</title>
    <desc>Created with Sketch.</desc>
    <defs></defs>
    <g id="Classification-Unclassified" stroke="none" stroke-width="1" fill="none" fill-rule="evenodd">
        <path d="M4.49999997,3.99999997 L19.5,3.99999997 C19.7761424,3.99999997 20,4.22385759 20,4.49999997 C20,4.77614235 19.7761424,4.99999997 19.5,4.99999997 L4.49999997,4.99999997 C4.22385759,4.99999997 3.99999997,4.77614235 3.99999997,4.49999997 C3.99999997,4.22385759 4.22385759,3.99999997 4.49999997,3.99999997 Z M4.49999997,19 L19.5,19 C19.7761424,19 20,19.2238577 20,19.5 C20,19.7761424 19.7761424,20 19.5,20 L4.49999997,20 C4.22385759,20 3.99999997,19.7761424 3.99999997,19.5 C3.99999997,19.2238577 4.22385759,19 4.49999997,19 Z M10.5087891,7.54492186 L10.5087891,12.8535156 C10.5087891,13.8378906 11.0478516,14.4179688 12.0029297,14.4179688 C12.9580078,14.4179688 13.4912109,13.8378906 13.4912109,12.8535156 L13.4912109,7.54492186 L15.6416016,7.54492186 L15.6416016,13.0820312 C15.6416016,14.9804688 14.2001953,16.2285156 12.0029297,16.2285156 C9.80566405,16.2285156 8.35839842,14.9804688 8.35839842,13.0820312 L8.35839842,7.54492186 L10.5087891,7.54492186 Z" id="Unclassified" fill="#000000" fill-rule="nonzero"></path>
    </g>
</svg>