<?xml version="1.0" encoding="UTF-8"?>
<svg width="24px" height="24px" viewBox="0 0 24 24" version="1.1" xmlns="http://www.w3.org/2000/svg" xmlns:xlink="http://www.w3.org/1999/xlink">
    <!-- Generator: Sketch 51.2 (57519) - http://www.bohemiancoding.com/sketch -->
    <title>Person-Share</title>
    <desc>Created with Sketch.</desc>
    <defs></defs>
    <g id="Person-Share" stroke="none" stroke-width="1" fill="none" fill-rule="evenodd">
        <path d="M7.94721287,18.4584353 C7.98173799,18.3112215 7.99999998,18.1577434 7.99999998,18 L7.99999998,17.5 C7.99999998,17.2238576 8.22385761,17 8.49999998,17 L8.99999999,17 C10.1045695,17 11,16.1045695 11,15 C11,14.0417266 10.3260547,13.2408616 9.42628768,13.0455285 C9.42018693,13.044204 9.41333839,13.0429005 9.40574209,13.0416178 L9.4057494,13.0415745 C9.30405813,13.0244034 9.23554097,12.9280464 9.25271205,12.8263551 C9.26355566,12.7621367 9.30707432,12.7082072 9.36755259,12.6840417 C9.55424637,12.6094438 9.66455696,12.5714286 9.66455696,12.5714286 C9.66455696,12.5714286 10.2620134,12.411007 10.2597743,12.0883195 C10.2575352,11.7656321 9.91074745,11.6047008 9.66455696,11.5 C8.68383386,10.8357143 8.56372152,9.79642856 8.49841772,7.21428569 C8.70015981,4.62892854 10.6755997,3.99999997 11.9968355,3.99999997 C13.3180712,3.99999997 15.2935111,4.62785711 15.4952532,7.21428569 C15.4299494,9.79642856 15.309837,10.8357143 14.3291139,11.5 C14.1138073,11.6251657 13.7433774,11.8369473 13.7433774,12.0883195 C13.7433774,12.3396917 14.3291139,12.5714286 14.3291139,12.5714286 C14.3291139,12.5714286 19,14.2940214 19,17 L19,18.5 C19,18.7761424 18.7761424,19 18.5,19 L8.376485,19 L8.376485,19.0000291 C8.13297195,19.0000291 7.93556562,18.8026228 7.93556562,18.5591098 C7.93556562,18.5252155 7.93947385,18.4914343 7.94721287,18.4584353 Z M5.24999997,12 C5.24999997,11.5857864 5.58578641,11.25 5.99999998,11.25 C6.41421354,11.25 6.74999998,11.5857864 6.74999998,12 L6.74999998,18 C6.74999998,18.4142136 6.41421354,18.75 5.99999998,18.75 C5.58578641,18.75 5.24999997,18.4142136 5.24999997,18 L5.24999997,12 Z M8.99999999,14.25 C9.41421355,14.25 9.74999999,14.5857864 9.74999999,15 C9.74999999,15.4142136 9.41421355,15.75 8.99999999,15.75 L2.99999996,15.75 C2.5857864,15.75 2.24999996,15.4142136 2.24999996,15 C2.24999996,14.5857864 2.5857864,14.25 2.99999996,14.25 L8.99999999,14.25 Z" id="Share" fill="#000000" fill-rule="nonzero"></path>
    </g>
</svg>