<?xml version="1.0" encoding="UTF-8"?>
<svg width="24px" height="24px" viewBox="0 0 24 24" version="1.1" xmlns="http://www.w3.org/2000/svg" xmlns:xlink="http://www.w3.org/1999/xlink">
    <!-- Generator: Sketch 51.2 (57519) - http://www.bohemiancoding.com/sketch -->
    <title>Scale</title>
    <desc>Created with Sketch.</desc>
    <defs></defs>
    <g id="Scale" stroke="none" stroke-width="1" fill="none" fill-rule="evenodd">
        <path d="M13.5656501,15.8463369 L15,18 L8.99999999,18 L10.4268378,15.8576163 C10.7767647,15.3322043 11.36498,15.0151107 11.9962439,15.0115847 C12.6265052,15.0080644 13.216279,15.3217595 13.5656501,15.8463369 Z M6.49999998,12 C5.1192881,12 3.99999997,10.8807119 3.99999997,9.49999999 C3.99999997,8.11928811 5.1192881,6.99999998 6.49999998,6.99999998 C7.88071185,6.99999998 8.99999999,8.11928811 8.99999999,9.49999999 C8.99999999,10.8807119 7.88071185,12 6.49999998,12 Z M17.5,12 C16.1192881,12 15,10.8807119 15,9.49999999 C15,8.11928811 16.1192881,6.99999998 17.5,6.99999998 C18.8807119,6.99999998 20,8.11928811 20,9.49999999 C20,10.8807119 18.8807119,12 17.5,12 Z M4.99999997,14.25 C4.58578641,14.25 4.24999997,13.9142136 4.24999997,13.5 C4.24999997,13.0857864 4.58578641,12.75 4.99999997,12.75 L19,12.75 C19.4142136,12.75 19.75,13.0857864 19.75,13.5 C19.75,13.9142136 19.4142136,14.25 19,14.25 L4.99999997,14.25 Z" fill="#000000" fill-rule="nonzero"></path>
    </g>
</svg>