<?xml version="1.0" encoding="UTF-8"?>
<svg width="24px" height="24px" viewBox="0 0 24 24" version="1.1" xmlns="http://www.w3.org/2000/svg" xmlns:xlink="http://www.w3.org/1999/xlink">
    <!-- Generator: Sketch 51.2 (57519) - http://www.bohemiancoding.com/sketch -->
    <title>Error List</title>
    <desc>Created with Sketch.</desc>
    <defs></defs>
    <g id="Error-List" stroke="none" stroke-width="1" fill="none" fill-rule="evenodd">
        <path d="M5.20801254,5.31201883 L6.74088328,7.61132493 C6.8174714,7.7262071 6.78642793,7.88142444 6.67154576,7.95801255 C6.63047888,7.98539047 6.58222695,7.99999998 6.53287071,7.99999998 L3.46712923,7.99999998 C3.32905805,7.99999998 3.21712923,7.88807117 3.21712923,7.74999998 C3.21712923,7.70064373 3.23173874,7.65239181 3.25911666,7.61132493 L4.7919874,5.31201883 C4.86857551,5.19713666 5.02379285,5.16609319 5.13867502,5.24268131 C5.16613809,5.26099002 5.18970383,5.28455576 5.20801254,5.31201883 Z M5.20801254,10.3120189 L6.74088328,12.611325 C6.8174714,12.7262071 6.78642793,12.8814245 6.67154576,12.9580126 C6.63047888,12.9853905 6.58222695,13 6.53287071,13 L3.46712923,13 C3.32905805,13 3.21712923,12.8880712 3.21712923,12.75 C3.21712923,12.7006438 3.23173874,12.6523918 3.25911666,12.611325 L4.7919874,10.3120189 C4.86857551,10.1971367 5.02379285,10.1660932 5.13867502,10.2426813 C5.16613809,10.2609901 5.18970383,10.2845558 5.20801254,10.3120189 Z M5.20801254,15.3120189 L6.74088328,17.611325 C6.8174714,17.7262071 6.78642793,17.8814245 6.67154576,17.9580126 C6.63047888,17.9853905 6.58222695,18 6.53287071,18 L3.46712923,18 C3.32905805,18 3.21712923,17.8880712 3.21712923,17.75 C3.21712923,17.7006438 3.23173874,17.6523918 3.25911666,17.611325 L4.7919874,15.3120189 C4.86857551,15.1971367 5.02379285,15.1660932 5.13867502,15.2426813 C5.16613809,15.2609901 5.18970383,15.2845558 5.20801254,15.3120189 Z M8.99999999,6.99999998 C8.99999999,6.44771523 9.44771524,5.99999997 9.99999999,5.99999997 L19.0013678,5.99999997 C19.5528972,5.99999997 20,6.44710282 20,6.99863213 C20,7.55020161 19.5529373,7.99737547 19.0013679,7.99751264 L9.99999999,7.99999995 C9.44771529,8.0001373 8.99988871,7.55253341 8.99975135,7.00024868 C8.99975133,7.00016578 8.99975132,7.00008288 8.99975132,6.99999998 L8.99999999,6.99999998 Z M8.99999999,12 C8.99999999,11.4477153 9.44771524,11 9.99999999,11 L19.0013678,11 C19.5528972,11 20,11.4471028 20,11.9986322 C20,12.5502016 19.5529373,12.9973755 19.0013679,12.9975127 L9.99999999,13 C9.44771529,13.0001373 8.99988871,12.5525334 8.99975135,12.0002487 C8.99975133,12.0001658 8.99975132,12.0000829 8.99975132,12 L8.99999999,12 Z M8.99999999,17 C8.99999999,16.4477153 9.44771524,16 9.99999999,16 L19.0013678,16 C19.5528972,16 20,16.4471028 20,16.9986322 C20,17.5502016 19.5529373,17.9973755 19.0013679,17.9975127 L9.99999999,18 C9.44771529,18.0001373 8.99988871,17.5525334 8.99975135,17.0002487 C8.99975133,17.0001658 8.99975132,17.0000829 8.99975132,17 L8.99999999,17 Z" fill="#000000" fill-rule="nonzero"></path>
    </g>
</svg>