<svg xmlns="http://www.w3.org/2000/svg" xmlns:xlink="http://www.w3.org/1999/xlink" width="24" height="24" viewBox="0 0 24 24"><defs><path id="key-a" d="M4,13 C3.44771525,13 3,12.5522847 3,12 C3,11.4477153 3.44771525,11 4,11 L12.1541621,11 C12.5982049,9.27477279 14.1643052,8 16.0281446,8 C18.2372836,8 20.0281446,9.790861 20.0281446,12 C20.0281446,14.209139 18.2372836,16 16.0281446,16 C14.1643052,16 12.5982049,14.7252272 12.1541621,13 L8,13 L8,14 C8,14.5522847 7.55228475,15 7,15 L5,15 C4.44771525,15 4,14.5522847 4,14 L4,13 Z M16.0281446,14 C17.1327141,14 18.0281446,13.1045695 18.0281446,12 C18.0281446,10.8954305 17.1327141,10 16.0281446,10 C14.9235751,10 14.0281446,10.8954305 14.0281446,12 C14.0281446,13.1045695 14.9235751,14 16.0281446,14 Z"/></defs><use fill="currentColor" fill-rule="evenodd" transform="scale(-1 1) rotate(-45 -.486 39.7974)" xlink:href="#key-a"/></svg>