<?xml version="1.0" encoding="UTF-8"?>
<svg width="24px" height="24px" viewBox="0 0 24 24" version="1.1" xmlns="http://www.w3.org/2000/svg" xmlns:xlink="http://www.w3.org/1999/xlink">
    <!-- Generator: Sketch 51.2 (57519) - http://www.bohemiancoding.com/sketch -->
    <title>IconObjectPlay</title>
    <desc>Created with Sketch.</desc>
    <defs></defs>
    <g id="IconObjectPlay" stroke-width="1" fill-rule="evenodd">
        <path d="M6.5,6 L17.5,6 C17.7761424,6 18,6.22385763 18,6.5 L18,17.5 C18,17.7761424 17.7761424,18 17.5,18 L6.5,18 C6.22385763,18 6,17.7761424 6,17.5 L6,6.5 C6,6.22385763 6.22385763,6 6.5,6 Z M10.7764082,8.96815382 C10.6944718,8.91379695 10.5983272,8.88480539 10.5,8.88480539 C10.2238576,8.88480539 9.99999999,9.10866301 9.99999999,9.38480539 L9.99999999,14.6151946 C9.99999999,14.7135218 10.0289916,14.8096664 10.0833484,14.8916028 C10.2360044,15.1217131 10.5462979,15.1845022 10.7764082,15.0318462 L14.7184948,12.4166516 C14.7741383,12.3797375 14.8218241,12.3320517 14.8587382,12.2764082 C15.0113942,12.0462979 14.9486051,11.7360044 14.7184948,11.5833484 L10.7764082,8.96815382 Z" id="Play-Object" fill-rule="nonzero"></path>
    </g>
</svg>