<?xml version="1.0" encoding="UTF-8"?>
<svg width="24px" height="24px" viewBox="0 0 24 24" version="1.1" xmlns="http://www.w3.org/2000/svg" xmlns:xlink="http://www.w3.org/1999/xlink">
    <!-- Generator: Sketch 51.2 (57519) - http://www.bohemiancoding.com/sketch -->
    <title>List / Group Items</title>
    <desc>Created with Sketch.</desc>
    <defs></defs>
    <g id="List-/-Group-Items" stroke="none" stroke-width="1" fill="none" fill-rule="evenodd">
        <path d="M11,16 C11.5522847,16 12,16.4477153 12,17 C12,17.5522847 11.5522847,18 11,18 C10.4477153,18 9.99999999,17.5522847 9.99999999,17 C9.99999999,16.4477153 10.4477153,16 11,16 Z M6.99999998,16 C7.55228473,16 7.99999998,16.4477153 7.99999998,17 C7.99999998,17.5522847 7.55228473,18 6.99999998,18 C6.44771523,18 5.99999998,17.5522847 5.99999998,17 C5.99999998,16.4477153 6.44771523,16 6.99999998,16 Z M6.74999998,13 L17.25,13 C17.6642136,13 18,13.3357864 18,13.75 L18,13.75 C18,14.1642135 17.6642136,14.5 17.25,14.5 L6.74999998,14.5 C6.33578641,14.5 5.99999998,14.1642135 5.99999998,13.75 L5.99999998,13.75 C5.99999998,13.3357864 6.33578641,13 6.74999998,13 Z M11,8.99999999 C11.5522847,8.99999999 12,9.44771524 12,9.99999999 C12,10.5522847 11.5522847,11 11,11 C10.4477153,11 9.99999999,10.5522847 9.99999999,9.99999999 C9.99999999,9.44771524 10.4477153,8.99999999 11,8.99999999 Z M15,16 C15.5522847,16 16,16.4477153 16,17 C16,17.5522847 15.5522847,18 15,18 C14.4477153,18 14,17.5522847 14,17 C14,16.4477153 14.4477153,16 15,16 Z M15,8.99999999 C15.5522847,8.99999999 16,9.44771524 16,9.99999999 C16,10.5522847 15.5522847,11 15,11 C14.4477153,11 14,10.5522847 14,9.99999999 C14,9.44771524 14.4477153,8.99999999 15,8.99999999 Z M6.99999998,8.99999999 C7.55228473,8.99999999 7.99999998,9.44771524 7.99999998,9.99999999 C7.99999998,10.5522847 7.55228473,11 6.99999998,11 C6.44771523,11 5.99999998,10.5522847 5.99999998,9.99999999 C5.99999998,9.44771524 6.44771523,8.99999999 6.99999998,8.99999999 Z M6.74999998,5.99999998 L17.25,5.99999998 C17.6642136,5.99999998 18,6.33578641 18,6.74999998 L18,6.74999998 C18,7.16421354 17.6642136,7.49999998 17.25,7.49999998 L6.74999998,7.49999998 C6.33578641,7.49999998 5.99999998,7.16421354 5.99999998,6.74999998 L5.99999998,6.74999998 C5.99999998,6.33578641 6.33578641,5.99999998 6.74999998,5.99999998 Z" id="Group-Items" fill="#000000" fill-rule="nonzero"></path>
    </g>
</svg>