<?xml version="1.0" encoding="UTF-8"?>
<svg width="24px" height="24px" viewBox="0 0 24 24" version="1.1" xmlns="http://www.w3.org/2000/svg" xmlns:xlink="http://www.w3.org/1999/xlink">
    <!-- Generator: Sketch 51.2 (57519) - http://www.bohemiancoding.com/sketch -->
    <title>File-Ghost</title>
    <desc>Created with Sketch.</desc>
    <defs></defs>
    <g id="File-Ghost" stroke="none" stroke-width="1" fill="none" fill-rule="evenodd">
        <path d="M6.99999999,5 C6.72385761,5 6.49999999,4.77614237 6.49999999,4.5 C6.49999999,4.22385762 6.72385761,4 6.99999999,4 L8.99999999,4 C9.27614236,4 9.49999999,4.22385762 9.49999999,4.5 C9.49999999,4.77614237 9.27614236,5 8.99999999,5 L6.99999999,5 Z M11,5 C10.7238576,5 10.5,4.77614237 10.5,4.5 C10.5,4.22385762 10.7238576,4 11,4 L13,4 C13.2761424,4 13.5,4.22385762 13.5,4.5 C13.5,4.77614237 13.2761424,5 13,5 L11,5 Z M15,5 C14.7238576,5 14.5,4.77614237 14.5,4.5 C14.5,4.22385762 14.7238576,4 15,4 L15.7071067,4 L16.9142135,5.20710678 C17.1094757,5.40236893 17.1094757,5.71895142 16.9142136,5.91421357 C16.7189514,6.10947571 16.4023689,6.10947572 16.2071068,5.91421357 L15.2928932,5 L15,5 Z M17,7.17157287 C17,6.8954305 17.2238576,6.67157287 17.5,6.67157287 C17.7761424,6.67157287 18,6.8954305 18,7.17157287 L18,9.17157287 C18,9.44771525 17.7761424,9.67157287 17.5,9.67157287 C17.2238576,9.67157287 17,9.44771525 17,9.17157287 L17,7.17157287 Z M17,11.1715729 C17,10.8954305 17.2238576,10.6715729 17.5,10.6715729 C17.7761424,10.6715729 18,10.8954305 18,11.1715729 L18,13.1715729 C18,13.4477152 17.7761424,13.6715729 17.5,13.6715729 C17.2238576,13.6715729 17,13.4477152 17,13.1715729 L17,11.1715729 Z M17,15.1715729 C17,14.8954305 17.2238576,14.6715729 17.5,14.6715729 C17.7761424,14.6715729 18,14.8954305 18,15.1715729 L18,17.1715729 C18,17.4477152 17.7761424,17.6715729 17.5,17.6715729 C17.2238576,17.6715729 17,17.4477152 17,17.1715729 L17,15.1715729 Z M17.6397331,18.698504 C17.8996159,18.7918612 18.0346115,19.0782188 17.9412544,19.3381015 C17.8110968,19.7004271 17.4823629,19.95871 17.0486292,19.9977365 L15.5362821,19.9999994 C15.26014,20.0004126 15.0359477,19.7768902 15.0355345,19.5007482 C15.0351213,19.2246061 15.2586437,19.0004138 15.5347858,19.0000006 L17.0005908,18.9999785 C17.0935177,18.7401308 17.3798617,18.6051509 17.6397331,18.698504 Z M13.5355339,19 C13.8116763,19 14.0355339,19.2238576 14.0355339,19.5 C14.0355339,19.7761424 13.8116763,20 13.5355339,20 L11.5355339,20 C11.2593915,20 11.0355339,19.7761424 11.0355339,19.5 C11.0355339,19.2238576 11.2593915,19 11.5355339,19 L13.5355339,19 Z M9.53553391,19 C9.81167629,19 10.0355339,19.2238576 10.0355339,19.5 C10.0355339,19.7761424 9.81167629,20 9.53553391,20 L7.53553391,20 C7.25939154,20 7.03553391,19.7761424 7.03553391,19.5 C7.03553391,19.2238576 7.25939154,19 7.53553391,19 L9.53553391,19 Z M6.99999999,18.2426407 C6.99999999,18.5187831 6.77614236,18.7426407 6.49999999,18.7426407 C6.22385761,18.7426407 5.99999999,18.5187831 5.99999999,18.2426407 L5.99999999,16.2426407 C5.99999999,15.9664983 6.22385761,15.7426407 6.49999999,15.7426407 C6.77614236,15.7426407 6.99999999,15.9664983 6.99999999,16.2426407 L6.99999999,18.2426407 Z M6.99999999,14.2426407 C6.99999999,14.5187831 6.77614236,14.7426407 6.49999999,14.7426407 C6.22385761,14.7426407 5.99999999,14.5187831 5.99999999,14.2426407 L5.99999999,12.2426407 C5.99999999,11.9664983 6.22385761,11.7426407 6.49999999,11.7426407 C6.77614236,11.7426407 6.99999999,11.9664983 6.99999999,12.2426407 L6.99999999,14.2426407 Z M6.99999999,10.2426407 C6.99999999,10.5187831 6.77614236,10.7426407 6.49999999,10.7426407 C6.22385761,10.7426407 5.99999999,10.5187831 5.99999999,10.2426407 L5.99999999,8.24264071 C5.99999999,7.96649834 6.22385761,7.74264071 6.49999999,7.74264071 C6.77614236,7.74264071 6.99999999,7.96649834 6.99999999,8.24264071 L6.99999999,10.2426407 Z M6.99999999,6.24264071 C6.99999999,6.51878309 6.77614236,6.74264071 6.49999999,6.74264071 C6.22385761,6.74264071 5.99999999,6.51878309 5.99999999,6.24264071 L5.99999999,5 C5.99999999,4.44771525 6.44771524,4 6.99999999,4 C7.27614236,4 7.49999999,4.22385762 7.49999999,4.5 C7.49999999,4.77614237 7.27614236,5 6.99999999,5 L6.99999999,6.24264071 Z" id="File-*" fill="#000000" fill-rule="nonzero"></path>
    </g>
</svg>