<?xml version="1.0" encoding="UTF-8"?>
<svg width="24px" height="24px" viewBox="0 0 24 24" version="1.1" xmlns="http://www.w3.org/2000/svg" xmlns:xlink="http://www.w3.org/1999/xlink">
    <!-- Generator: Sketch 51.2 (57519) - http://www.bohemiancoding.com/sketch -->
    <title>IconObjectText</title>
    <desc>Created with Sketch.</desc>
    <defs></defs>
    <g id="IconObjectText"  stroke-width="1" fill-rule="evenodd">
        <path d="M6.5,6 L17.5,6 C17.7761424,6 18,6.22385763 18,6.5 L18,17.5 C18,17.7761424 17.7761424,18 17.5,18 L6.5,18 C6.22385763,18 6,17.7761424 6,17.5 L6,6.5 C6,6.22385763 6.22385763,6 6.5,6 Z M10.9048715,14.930137 L12.4392021,14.930137 L10.5788262,8.99999999 L8.85654007,8.99999999 L6.99999998,14.930137 L8.39624087,14.930137 L8.75297276,13.6273973 L10.5596471,13.6273973 L10.9048715,14.930137 Z M9.62754123,10.3356164 L9.70042193,10.3356164 L10.2949751,12.5424658 L9.02148062,12.5424658 L9.62754123,10.3356164 Z M14.4069812,15 C14.9478328,15 15.4158036,14.7534247 15.6075949,14.3630137 L15.6804756,14.3630137 L15.6804756,14.930137 L17,14.930137 L17,11.8109589 C17,10.8246575 16.3287303,10.2493151 15.1511316,10.2493151 C13.9965478,10.2493151 13.2408899,10.8 13.1795167,11.6876712 L14.3993096,11.6876712 C14.4875336,11.4452055 14.7176832,11.3178082 15.074415,11.3178082 C15.450326,11.3178082 15.6651323,11.5027397 15.6651323,11.8109589 L15.6651323,12.1684932 L14.7330265,12.2260274 C13.6321442,12.2958904 13.0260836,12.7808219 13.0260836,13.6150685 C13.0260836,14.4534247 13.5861143,15 14.4069812,15 Z M14.9018028,13.9849315 C14.5604143,13.9849315 14.3341005,13.8041096 14.3341005,13.5123288 C14.3341005,13.2369863 14.545071,13.0684932 14.9478328,13.0356164 L15.6651323,12.9863014 L15.6651323,13.2863014 C15.6651323,13.6808219 15.3314154,13.9849315 14.9018028,13.9849315 Z" id="Object-Text" fill-rule="nonzero"></path>
    </g>
</svg>