<?xml version="1.0" encoding="UTF-8"?>
<svg width="24px" height="24px" viewBox="0 0 24 24" version="1.1" xmlns="http://www.w3.org/2000/svg" xmlns:xlink="http://www.w3.org/1999/xlink">
    <!-- Generator: Sketch 51.2 (57519) - http://www.bohemiancoding.com/sketch -->
    <title>Person-Account Round</title>
    <desc>Created with Sketch.</desc>
    <defs></defs>
    <g id="Person-Account-Round" stroke="none" stroke-width="1" fill="none" fill-rule="evenodd">
        <path d="M15.5057843,20 L8.38771236,20.0000197 C8.08565867,20.0000197 7.78752814,19.931604 7.51569647,19.7999075 C6.4607877,19.2888272 5.9333333,18.7777469 5.9333333,18.2666667 C5.9333333,15.8217381 9.97594936,14.4285714 9.97594936,14.4285714 C9.97594936,14.4285714 10.4937449,14.2895394 10.4918044,14.0098769 C10.4898638,13.7302145 10.1893145,13.5907407 9.97594936,13.5 C9.12598934,12.9242857 9.02189198,12.0235714 8.96529535,9.78571428 C9.1401385,7.54507141 10.8521864,6.99999998 11.9972574,6.99999998 C13.1423284,6.99999998 14.8543763,7.54414284 15.0292194,9.78571428 C14.9726228,12.0235714 14.8685254,12.9242857 14.0185654,13.5 C13.8319663,13.6084769 13.5109271,13.792021 13.5109271,14.0098769 C13.5109271,14.2277328 14.0185654,14.4285714 14.0185654,14.4285714 C14.0185654,14.4285714 18.0666667,15.9214852 18.0666667,18.2666667 C18.0666667,18.6169066 17.5570864,19.0990498 16.5379258,19.7130962 L16.5379236,19.7130925 C16.2263678,19.9008055 15.8695193,20 15.5057843,20 Z M12,19.5 C16.1421356,19.5 19.5,16.1421356 19.5,12 C19.5,7.85786436 16.1421356,4.49999997 12,4.49999997 C7.85786436,4.49999997 4.49999997,7.85786436 4.49999997,12 C4.49999997,16.1421356 7.85786436,19.5 12,19.5 Z M12,21 C7.02943723,21 2.99999996,16.9705627 2.99999996,12 C2.99999996,7.02943723 7.02943723,2.99999996 12,2.99999996 C16.9705627,2.99999996 21,7.02943723 21,12 C21,16.9705627 16.9705627,21 12,21 Z" id="Account-Round" fill="#000000" fill-rule="nonzero"></path>
    </g>
</svg>