<?xml version="1.0" encoding="UTF-8"?>
<svg width="24px" height="24px" viewBox="0 0 24 24" version="1.1" xmlns="http://www.w3.org/2000/svg" xmlns:xlink="http://www.w3.org/1999/xlink">
    <!-- Generator: Sketch 51.2 (57519) - http://www.bohemiancoding.com/sketch -->
    <title>File / Many Files Shared with Me</title>
    <desc>Created with Sketch.</desc>
    <defs></defs>
    <g id="File-/-Many-Files-Shared-with-Me" stroke="none" stroke-width="1" fill="none" fill-rule="evenodd">
        <path d="M5.99999998,9 C5.99999998,7.99999999 5.99999998,6.49999998 5.99999998,4.49999997 C5.99999998,4.2238576 6.22385761,3.99999997 6.49999998,3.99999997 L15,3.99999997 L17,5.99999997 L17,19.5 C17,19.7761424 16.7761424,20 16.5,20 C12.9444445,20 10.1111111,20 8,20 C7.99598154,20 7.99191959,20 7.98781415,20 L7.98781415,20.0000021 C7.80346808,20.0000021 7.65402607,19.8505601 7.65402607,19.666214 C7.65402607,19.5776879 7.68919293,19.4927876 7.75179034,19.4301902 C7.75179034,19.4301902 7.75179034,19.4301902 7.75179034,19.4301902 C8.3271681,18.8548124 9.19023475,17.9917458 10.3409903,16.8409903 C11.2196699,15.9623106 11.2196699,14.5376894 10.3409903,13.6590097 C9.87933564,13.1973551 9.26697885,12.9782519 8.66227647,13.0017001 C8.6337069,13.0028079 8.60254759,13.0052397 8.56879856,13.0089953 L8.56880073,13.0090149 C8.28767959,13.0402984 8.03442555,12.837765 8.00314201,12.5566439 C8.00104895,12.5378351 8.00000001,12.5189248 8.00000001,12.5 C8.00000001,12.5 8.00000001,12.5 8.00000001,12.5 C8.00000001,12.3888889 8.00000001,12.2222222 8.00000001,12 C8.00000001,11.0320079 7.38872469,10.2067869 6.53112947,9.88929222 C6.53112947,9.88929222 6.53112947,9.88929222 6.53112947,9.88929222 L6.53112947,9.88929222 C6.21191872,9.7711156 6.00001903,9.46671221 6.00001903,9.12632828 C5.99999998,9.07999118 5.99999998,9.03788175 5.99999998,9 Z M8.21966994,14.7196699 C8.51256316,14.4267767 8.9874369,14.4267767 9.28033012,14.7196699 C9.57322334,15.0125631 9.57322334,15.4874369 9.28033012,15.7803301 L6.2803301,18.7803301 C5.98743688,19.0732233 5.51256315,19.0732233 5.21966993,18.7803301 L2.21966992,15.7803301 C1.92677669,15.4874369 1.92677669,15.0125631 2.21966992,14.7196699 C2.51256314,14.4267767 2.98743687,14.4267767 3.28033009,14.7196699 L5.75000002,17.1893398 L8.21966994,14.7196699 Z M6.50000001,18 C6.50000001,18.4142136 6.16421357,18.75 5.75,18.75 C5.33578644,18.75 5,18.4142136 5,18 L5,12 C5,11.5857864 5.33578644,11.25 5.75,11.25 C6.16421357,11.25 6.50000001,11.5857864 6.50000001,12 L6.50000001,18 Z M19.1464466,4.85355339 C18.9511845,4.65829124 18.9511845,4.34170876 19.1464466,4.14644661 C19.3417088,3.95118446 19.6582912,3.95118446 19.8535534,4.14644661 L20.5606602,4.85355339 C20.8419647,5.13485796 21,5.51638883 21,5.91421356 L21,19.5 C21,19.7761424 20.7761424,20 20.5,20 C20.2238576,20 20,19.7761424 20,19.5 L20,5.70075989 L19.1464466,4.85355339 Z M17.1464466,4.85355339 C16.9511845,4.65829124 16.9511845,4.34170876 17.1464466,4.14644661 C17.3417088,3.95118446 17.6582912,3.95118446 17.8535534,4.14644661 L18.5606602,4.85355339 C18.8419647,5.13485796 19,5.51638883 19,5.91421356 L19,19.5 C19,19.7761424 18.7761424,20 18.5,20 C18.2238576,20 18,19.7761424 18,19.5 L18,5.70075989 L17.1464466,4.85355339 Z" id="File-Shared-with-Me" fill="#000000" fill-rule="nonzero"></path>
    </g>
</svg>