<?xml version="1.0" encoding="UTF-8"?>
<svg width="24px" height="24px" viewBox="0 0 24 24" version="1.1" xmlns="http://www.w3.org/2000/svg" xmlns:xlink="http://www.w3.org/1999/xlink">
    <!-- Generator: Sketch 51.2 (57519) - http://www.bohemiancoding.com/sketch -->
    <title>IconObjectPresentation</title>
    <desc>Created with Sketch.</desc>
    <defs></defs>
    <g id="IconObjectPresentation" stroke-width="1" fill-rule="evenodd">
        <path d="M6.5,6 L17.5,6 C17.7761424,6 18,6.22385763 18,6.5 L18,17.5 C18,17.7761424 17.7761424,18 17.5,18 L6.5,18 C6.22385763,18 6,17.7761424 6,17.5 L6,6.5 C6,6.22385763 6.22385763,6 6.5,6 Z M12.6656354,8.11343963 C12.4574076,8.03997072 12.2333717,8 12,8 C10.8954305,8 10,8.8954305 10,10 C10,11.1045695 10.8954305,12 12,12 C13.1045695,12 14,11.1045695 14,10 L12,10 L12.6656354,8.11343963 Z M9.49999999,15 C9.22385762,15 8.99999999,15.2238576 8.99999999,15.5 C8.99999999,15.7761424 9.22385762,16 9.49999999,16 L12.5,16 C12.7761424,16 13,15.7761424 13,15.5 C13,15.2238576 12.7761424,15 12.5,15 L9.49999999,15 Z M9.49999999,13 C9.22385762,13 8.99999999,13.2238576 8.99999999,13.5 C8.99999999,13.7761424 9.22385762,14 9.49999999,14 L14.5,14 C14.7761424,14 15,13.7761424 15,13.5 C15,13.2238576 14.7761424,13 14.5,13 L9.49999999,13 Z" id="Object-Presentation" fill-rule="nonzero"></path>
    </g>
</svg>