<?xml version="1.0" encoding="UTF-8"?>
<svg width="24px" height="24px" viewBox="0 0 24 24" version="1.1" xmlns="http://www.w3.org/2000/svg" xmlns:xlink="http://www.w3.org/1999/xlink">
    <!-- Generator: Sketch 51.2 (57519) - http://www.bohemiancoding.com/sketch -->
    <title>Classification-Confidential</title>
    <desc>Created with Sketch.</desc>
    <defs></defs>
    <g id="Classification-Confidential" stroke="none" stroke-width="1" fill="none" fill-rule="evenodd">
        <path d="M4.49999997,3.99999997 L19.5,3.99999997 C19.7761424,3.99999997 20,4.22385759 20,4.49999997 C20,4.77614235 19.7761424,4.99999997 19.5,4.99999997 L4.49999997,4.99999997 C4.22385759,4.99999997 3.99999997,4.77614235 3.99999997,4.49999997 C3.99999997,4.22385759 4.22385759,3.99999997 4.49999997,3.99999997 Z M4.49999997,19 L19.5,19 C19.7761424,19 20,19.2238577 20,19.5 C20,19.7761424 19.7761424,20 19.5,20 L4.49999997,20 C4.22385759,20 3.99999997,19.7761424 3.99999997,19.5 C3.99999997,19.2238577 4.22385759,19 4.49999997,19 Z M12.1611328,16.2285156 C9.6298828,16.2285156 8.07128904,14.5292969 8.07128904,11.7695312 C8.07128904,9.00976561 9.62402343,7.31640623 12.1611328,7.31640623 C14.2880859,7.31640623 15.8994141,8.73437499 15.9638672,10.6503906 L13.8955078,10.6503906 C13.7841797,9.73046874 13.0869141,9.10937499 12.1611328,9.10937499 C10.9833984,9.10937499 10.2626953,10.1171875 10.2626953,11.7636719 C10.2626953,13.4160156 10.9833984,14.4355469 12.1669922,14.4355469 C13.0927734,14.4355469 13.7841797,13.8378906 13.9072266,12.9296875 L15.9697266,12.9296875 C15.8994141,14.8632812 14.3291016,16.2285156 12.1611328,16.2285156 Z" id="Confidential" fill="#000000" fill-rule="nonzero"></path>
    </g>
</svg>