<?xml version="1.0" encoding="UTF-8"?>
<svg width="24px" height="24px" viewBox="0 0 24 24" version="1.1" xmlns="http://www.w3.org/2000/svg" xmlns:xlink="http://www.w3.org/1999/xlink">
    <!-- Generator: Sketch 51.2 (57519) - http://www.bohemiancoding.com/sketch -->
    <title>List-Rows</title>
    <desc>Created with Sketch.</desc>
    <defs></defs>
    <g id="List-Rows" stroke="none" stroke-width="1" fill="none" fill-rule="evenodd">
        <path d="M5.99999997,14 C5.17157285,14 4.49999997,13.3284271 4.49999997,12.5 C4.49999997,11.6715729 5.17157285,11 5.99999997,11 C6.8284271,11 7.49999998,11.6715729 7.49999998,12.5 C7.49999998,13.3284271 6.8284271,14 5.99999997,14 Z M12,14 C11.1715729,14 10.5,13.3284271 10.5,12.5 C10.5,11.6715729 11.1715729,11 12,11 C12.8284271,11 13.5,11.6715729 13.5,12.5 C13.5,13.3284271 12.8284271,14 12,14 Z M18,14 C17.1715729,14 16.5,13.3284271 16.5,12.5 C16.5,11.6715729 17.1715729,11 18,11 C18.8284271,11 19.5,11.6715729 19.5,12.5 C19.5,13.3284271 18.8284271,14 18,14 Z M4.99999997,17.25 C4.58578641,17.25 4.24999997,16.9142136 4.24999997,16.5 C4.24999997,16.0857865 4.58578641,15.75 4.99999997,15.75 L19,15.75 C19.4142136,15.75 19.75,16.0857865 19.75,16.5 C19.75,16.9142136 19.4142136,17.25 19,17.25 L4.99999997,17.25 Z M4.99999997,9.24999999 C4.58578641,9.24999999 4.24999997,8.91421355 4.24999997,8.49999999 C4.24999997,8.08578642 4.58578641,7.74999998 4.99999997,7.74999998 L19,7.74999998 C19.4142136,7.74999998 19.75,8.08578642 19.75,8.49999999 C19.75,8.91421355 19.4142136,9.24999999 19,9.24999999 L4.99999997,9.24999999 Z" id="Rows" fill="#000000" fill-rule="nonzero"></path>
    </g>
</svg>