<svg version="1.1" xmlns="http://www.w3.org/2000/svg" xmlns:xlink="http://www.w3.org/1999/xlink" viewBox="0 0 24 24" preserveAspectRatio="xMaxYMax meet" width="24px" height="24px" focusable="false" id="Service"><g title="Service" fill="currentColor"><title>Service</title><g><path d="M17.984386,13.5637939 L20.4131073,13.9923918 C20.6850478,14.0403813 20.9444023,13.8588331 20.9923918,13.5868927 C21.0403813,13.3149522 20.8588331,13.0555977 20.5868927,13.0076082 L17.9754223,12.5467605 C17.9616189,12.6995653 17.9420865,12.8507172 17.9170416,13 C17.948111,13.1851924 17.9706969,13.3732615 17.984386,13.5637939 Z M6.02457766,13.4532395 L3.41310733,12.9923918 C3.14116686,12.9444023 2.95961873,12.6850478 3.00760822,12.4131073 C3.05559772,12.1411669 3.3149522,11.9596187 3.58689267,12.0076082 L6.01561398,12.4362061 C6.02930313,12.6267385 6.05188904,12.8148076 6.08295844,13 C6.05791354,13.1492828 6.03838112,13.3004347 6.02457766,13.4532395 Z M17.9754223,14.5467605 L20.5868927,15.0076082 C20.8588331,15.0555977 21.0403813,15.3149522 20.9923918,15.5868927 C20.9444023,15.8588331 20.6850478,16.0403813 20.4131073,15.9923918 L17.8027128,15.5317339 C17.8866218,15.2130053 17.9449667,14.8839058 17.9754223,14.5467605 Z M17.984386,11.5637939 L20.4131073,11.9923918 C20.6850478,12.0403813 20.9444023,11.8588331 20.9923918,11.5868927 C21.0403813,11.3149522 20.8588331,11.0555977 20.5868927,11.0076082 L17.9754223,10.5467605 C17.9616189,10.6995653 17.9420865,10.8507172 17.9170416,11 C17.948111,11.1851924 17.9706969,11.3732615 17.984386,11.5637939 Z M6.02457766,11.4532395 L3.41310733,10.9923918 C3.14116686,10.9444023 2.95961873,10.6850478 3.00760822,10.4131073 C3.05559772,10.1411669 3.3149522,9.95961873 3.58689267,10.0076082 L6.01561398,10.4362061 C6.02930313,10.6267385 6.05188904,10.8148076 6.08295844,11 C6.05791354,11.1492828 6.03838112,11.3004347 6.02457766,11.4532395 Z M6.19728719,8.46826608 L3.58689267,8.00760822 C3.3149522,7.95961873 3.05559772,8.14116686 3.00760822,8.41310733 C2.95961873,8.6850478 3.14116686,8.94440228 3.41310733,8.99239178 L6.02457766,9.45323948 C6.05503334,9.11609421 6.11337821,8.78699472 6.19728719,8.46826608 Z" id="Combined-Shape" fill-rule="nonzero"></path><path d="M16.7755222,13.4858426 C16.1427771,15.5217037 14.2440259,17 12,17 C9.57552754,17 7.5540907,15.2743994 7.09687398,12.9843826 C8.13482123,14.662399 9.99176712,15.7803508 12.1098246,15.7803508 C14.0090928,15.7803508 15.6984073,14.8814327 16.7755222,13.4858426 Z" id="Oval-10"></path><path d="M16.7755222,15.4858426 C16.1427771,17.5217037 14.2440259,19 12,19 C9.57552754,19 7.5540907,17.2743994 7.09687398,14.9843826 C8.13482123,16.662399 9.99176712,17.7803508 12.1098246,17.7803508 C14.0090928,17.7803508 15.6984073,16.8814327 16.7755222,15.4858426 Z" id="Oval-10"></path><path d="M7,10 C7,7.23857625 9.23857625,5 12,5 C14.7614237,5 17,7.23857625 17,10 C17,12.7614237 14.7614237,15 12,15 C9.23857625,15 7,12.7614237 7,10 Z M16.0107373,10.4288082 L16.0107373,9.51255906 L14.8991901,9.14605941 L14.641357,8.52186471 L15.145564,7.46817824 L14.4981164,6.82107731 L13.4610543,7.34219399 L12.8365252,7.08449893 L12.4411811,5.985 L11.5244411,5.985 L11.1634748,7.09595204 L10.5274865,7.3536471 L9.4732355,6.84971009 L8.82578791,7.49681102 L9.34718376,8.53331782 L9.08935065,9.15751253 L7.98926271,9.5469184 L7.98926271,10.4574409 L9.1008099,10.8239406 L9.35864301,11.4481353 L8.85443604,12.5018218 L9.50188363,13.1489227 L10.5389457,12.627806 L11.1634748,12.8855011 L11.5588189,13.985 L12.4698292,13.985 L12.8307956,12.874048 L13.4667839,12.6163529 L14.5210349,13.1202899 L15.1684825,12.473189 L14.641357,11.4366822 L14.9106494,10.8124875 L16.0107373,10.417355 L16.0107373,10.4288082 Z M12,11.7058304 C11.0488823,11.7058304 10.2811126,10.9384717 10.2811126,9.98786328 C10.2811126,9.03725483 11.0488823,8.26989621 12,8.26989621 C12.9511177,8.26989621 13.7188874,9.03725483 13.7188874,9.98786328 C13.7188874,10.9384717 12.9511177,11.7058304 12,11.7058304 Z" id="Oval-10"></path></g></g></svg>