<?xml version="1.0" encoding="UTF-8"?>
<svg width="24px" height="24px" viewBox="0 0 24 24" version="1.1" xmlns="http://www.w3.org/2000/svg" xmlns:xlink="http://www.w3.org/1999/xlink">
    <!-- Generator: Sketch 51.2 (57519) - http://www.bohemiancoding.com/sketch -->
    <title>Magnifier</title>
    <desc>Created with Sketch.</desc>
    <defs></defs>
    <g id="Magnifier" stroke="none" stroke-width="1" fill="none" fill-rule="evenodd">
        <path d="M14.8958417,14.3026084 L16.0570544,14.923721 L19.4333333,18.3 C19.7462947,18.6129614 19.7462947,19.120372 19.4333333,19.4333333 C19.120372,19.7462947 18.6129614,19.7462947 18.3,19.4333333 L14.8984049,16.0317382 L14.3333333,14.9 L14.8958417,14.3026084 Z M9.99999999,16.75 C6.27207791,16.75 3.24999996,13.7279221 3.24999996,9.99999999 C3.24999996,6.27207791 6.27207791,3.24999996 9.99999999,3.24999996 C13.7279221,3.24999996 16.75,6.27207791 16.75,9.99999999 C16.75,13.7279221 13.7279221,16.75 9.99999999,16.75 Z M9.99999999,15.25 C12.8994949,15.25 15.25,12.8994949 15.25,9.99999999 C15.25,7.10050504 12.8994949,4.74999997 9.99999999,4.74999997 C7.10050504,4.74999997 4.74999997,7.10050504 4.74999997,9.99999999 C4.74999997,12.8994949 7.10050504,15.25 9.99999999,15.25 Z" fill="#000000" fill-rule="nonzero"></path>
    </g>
</svg>