<?xml version="1.0" encoding="UTF-8"?>
<svg width="24px" height="24px" viewBox="0 0 24 24" version="1.1" xmlns="http://www.w3.org/2000/svg" xmlns:xlink="http://www.w3.org/1999/xlink">
    <!-- Generator: Sketch 51.2 (57519) - http://www.bohemiancoding.com/sketch -->
    <title>Lock-No</title>
    <desc>Created with Sketch.</desc>
    <defs></defs>
    <g id="Lock-No" stroke="none" stroke-width="1" fill="none" fill-rule="evenodd">
        <path d="M11.8365111,10.0421686 L7.09539301,14.7832867 C6.95918862,14.9194911 6.73835766,14.9194911 6.60215327,14.7832867 C6.53674562,14.717879 6.49999998,14.6291672 6.49999998,14.5366668 L6.49999998,10.5 C6.49999998,9.94771524 6.94771523,9.49999999 7.49999998,9.49999999 L11.6119375,9.49999999 C11.7873404,9.49999999 11.9295325,9.64219213 11.9295325,9.81759502 C11.9295325,9.90182646 11.8960717,9.982608 11.8365111,10.0421686 Z M16.9582317,9.65087831 C17.1341266,9.74023429 17.2563033,9.83472607 17.3247618,9.93435365 C17.4353043,10.0952259 17.5,10.2900577 17.5,10.5 L17.5,17.5 C17.5,18.0522847 17.0522847,18.5 16.5,18.5 L8.38505912,18.5 C8.21034331,18.5 8.06870815,18.3583649 8.06870815,18.1836491 C8.06870815,18.0997476 8.10203789,18.0192825 8.16136521,17.9599551 L16.3782219,9.74309847 C16.5312348,9.59009042 16.7653089,9.55287206 16.9582317,9.65087831 Z M18.4696699,4.46966988 C18.7625631,4.17677667 19.2374369,4.17677667 19.5303301,4.46966988 C19.8232233,4.7625631 19.8232233,5.23743684 19.5303301,5.53033006 L5.53033006,19.5303301 C5.23743684,19.8232233 4.7625631,19.8232233 4.46966988,19.5303301 C4.17677667,19.2374369 4.17677667,18.7625631 4.46966988,18.4696699 L18.4696699,4.46966988 Z M15.5217758,6.35690388 L15.130332,6.7483477 L15.1303583,6.74837406 C14.9484231,6.93030932 14.6534477,6.93030932 14.4715125,6.74837407 C14.4417393,6.71860094 14.4161399,6.68492898 14.3954134,6.64827803 C13.9233271,5.81348105 13.0274675,5.24999997 12,5.24999997 C10.4812169,5.24999997 9.24999999,6.48121692 9.24999999,7.99999998 C9.24999999,8.41421355 8.91421355,8.74999999 8.49999999,8.74999999 C8.08578642,8.74999999 7.74999998,8.41421355 7.74999998,7.99999998 C7.74999998,5.65278978 9.6527898,3.74999997 12,3.74999997 C13.3882867,3.74999997 14.6211028,4.41564882 15.396697,5.44519526 C15.4525658,5.51935713 15.5184094,5.61816887 15.5942279,5.74163049 L15.5943082,5.74158121 C15.7154016,5.93876782 15.6854006,6.19327903 15.5217758,6.35690388 Z M18.4696699,4.46966988 C18.7625631,4.17677667 19.2374369,4.17677667 19.5303301,4.46966988 C19.8232233,4.7625631 19.8232233,5.23743684 19.5303301,5.53033006 L5.53033006,19.5303301 C5.23743684,19.8232233 4.7625631,19.8232233 4.46966988,19.5303301 C4.17677667,19.2374369 4.17677667,18.7625631 4.46966988,18.4696699 L18.4696699,4.46966988 Z" fill="#000000" fill-rule="nonzero"></path>
    </g>
</svg>