<?xml version="1.0" encoding="UTF-8"?>
<svg width="24px" height="24px" viewBox="0 0 24 24" version="1.1" xmlns="http://www.w3.org/2000/svg" xmlns:xlink="http://www.w3.org/1999/xlink">
    <!-- Generator: Sketch 51.2 (57519) - http://www.bohemiancoding.com/sketch -->
    <title>Pencil-Paragraph</title>
    <desc>Created with Sketch.</desc>
    <defs></defs>
    <g id="Pencil-Paragraph" stroke="none" stroke-width="1" fill="none" fill-rule="evenodd">
        <path d="M5.49999997,6.99999998 C5.2238576,6.99999998 4.99999997,6.77614235 4.99999997,6.49999998 C4.99999997,6.22385761 5.2238576,5.99999997 5.49999997,5.99999997 L12.7131481,5.99999997 C12.9892905,5.99999997 13.2131481,6.22385761 13.2131481,6.49999998 C13.2131481,6.77614235 12.9892905,6.99999998 12.7131481,6.99999998 L5.49999997,6.99999998 Z M5.49999997,8.99999999 C5.2238576,8.99999999 4.99999997,8.77614236 4.99999997,8.49999999 C4.99999997,8.22385761 5.2238576,7.99999998 5.49999997,7.99999998 L10.6929957,7.99999998 C10.9691381,7.99999998 11.1929957,8.22385761 11.1929957,8.49999999 C11.1929957,8.77614236 10.9691381,8.99999999 10.6929957,8.99999999 L5.49999997,8.99999999 Z M5.49999997,11 C5.2238576,11 4.99999997,10.7761424 4.99999997,10.5 C4.99999997,10.2238576 5.2238576,9.99999999 5.49999997,9.99999999 L8.64291715,9.99999999 C8.91905953,9.99999999 9.14291715,10.2238576 9.14291715,10.5 C9.14291715,10.7761424 8.91905953,11 8.64291715,11 L5.49999997,11 Z M5.49999997,13 C5.2238576,13 4.99999997,12.7761424 4.99999997,12.5 C4.99999997,12.2238576 5.2238576,12 5.49999997,12 L6.664958,12 C6.94110038,12 7.164958,12.2238576 7.164958,12.5 C7.164958,12.7761424 6.94110038,13 6.664958,13 L5.49999997,13 Z M14.3626272,15 C14.0864848,15 13.8626272,14.7761424 13.8626272,14.5 C13.8626272,14.2238576 14.0864848,14 14.3626272,14 L18.5,14 C18.7761424,14 19,14.2238576 19,14.5 C19,14.7761424 18.7761424,15 18.5,15 L14.3626272,15 Z M12.3887121,17 C12.1125698,17 11.8887121,16.7761424 11.8887121,16.5 C11.8887121,16.2238576 12.1125698,16 12.3887121,16 L18.5,16 C18.7761424,16 19,16.2238576 19,16.5 C19,16.7761424 18.7761424,17 18.5,17 L12.3887121,17 Z M19,10.5 C19,10.7761424 18.7761424,11 18.5,11 C18.2238576,11 18,10.7761424 18,10.5 C18,10.2238576 18.2238576,9.99999999 18.5,9.99999999 C18.7761424,9.99999999 19,10.2238576 19,10.5 Z M5.99999997,14.5 C5.99999997,14.7761424 5.77614234,15 5.49999997,15 C5.2238576,15 4.99999997,14.7761424 4.99999997,14.5 C4.99999997,14.2238576 5.2238576,14 5.49999997,14 C5.77614234,14 5.99999997,14.2238576 5.99999997,14.5 Z M18.5,12 C18.7761424,12 19,12.2238576 19,12.5 C19,12.7761424 18.7761424,13 18.5,13 L16.4102793,13 C16.1341369,13 15.9102793,12.7761424 15.9102793,12.5 C15.9102793,12.2238576 16.1341369,12 16.4102793,12 L18.5,12 Z M18.0671766,8.63753369 L15.3624663,5.93282337 L16.2640364,5.03125327 C17.0109215,4.28436814 18.2218616,4.28436814 18.9687467,5.03125327 C19.7156318,5.77813839 19.7156318,6.98907846 18.9687467,7.73596358 L18.0671766,8.63753369 Z M17.1656065,9.5391038 L9.50226063,17.2024497 L4.9944101,19.0055899 L6.79755031,14.4977394 L14.4608962,6.83439348 L17.1656065,9.5391038 Z" id="Edit-Long-Text" fill="#000000" fill-rule="nonzero"></path>
    </g>
</svg>