<?xml version="1.0" encoding="UTF-8"?>
<svg width="24px" height="24px" viewBox="0 0 24 24" version="1.1" xmlns="http://www.w3.org/2000/svg" xmlns:xlink="http://www.w3.org/1999/xlink">
    <!-- Generator: Sketch 51.2 (57519) - http://www.bohemiancoding.com/sketch -->
    <title>X /</title>
    <desc>Created with Sketch.</desc>
    <defs></defs>
    <g id="X-/" stroke="none" stroke-width="1" fill="none" fill-rule="evenodd">
        <path d="M12,10.5205767 L17.3033009,5.21727585 C17.5961941,4.92438263 18.0710678,4.92438263 18.363961,5.21727585 C18.6568542,5.51016906 18.6568542,5.9850428 18.363961,6.27793603 L13.0606602,11.5812369 L18.363961,16.8845378 C18.6568542,17.177431 18.6568542,17.6523047 18.363961,17.9451979 C18.0710678,18.2380912 17.5961941,18.2380912 17.3033009,17.9451979 L12,12.6418971 L6.69669912,17.9451979 C6.4038059,18.2380912 5.92893216,18.2380912 5.63603894,17.9451979 C5.34314572,17.6523047 5.34314572,17.177431 5.63603894,16.8845378 L10.9393398,11.5812369 L5.63603894,6.27793603 C5.34314572,5.9850428 5.34314572,5.51016906 5.63603894,5.21727585 C5.92893216,4.92438263 6.4038059,4.92438263 6.69669912,5.21727585 L12,10.5205767 Z" id="X" fill="#000000" fill-rule="nonzero"></path>
    </g>
</svg>