<?xml version="1.0" encoding="UTF-8"?>
<svg width="24px" height="24px" viewBox="0 0 24 24" version="1.1" xmlns="http://www.w3.org/2000/svg" xmlns:xlink="http://www.w3.org/1999/xlink">
    <!-- Generator: Sketch 51.2 (57519) - http://www.bohemiancoding.com/sketch -->
    <title>CPU</title>
    <desc>Created with Sketch.</desc>
    <defs></defs>
    <g id="CPU" stroke="none" stroke-width="1" fill="none" fill-rule="evenodd">
        <path d="M5.99999997,14 L5.99999997,13 L4.49999997,13 C4.2238576,13 3.99999997,12.7761424 3.99999997,12.5 L3.99999997,11.5 C3.99999997,11.2238576 4.2238576,11 4.49999997,11 L5.99999997,11 L5.99999997,9.99999999 L4.49999997,9.99999999 C4.2238576,9.99999999 3.99999997,9.77614236 3.99999997,9.49999999 L3.99999997,8.49999999 C3.99999997,8.22385761 4.2238576,7.99999998 4.49999997,7.99999998 L5.99999997,7.99999998 C5.99999997,6.89543048 6.89543048,5.99999997 7.99999998,5.99999997 L7.99999998,4.49999997 C7.99999998,4.2238576 8.22385761,3.99999997 8.49999999,3.99999997 L9.49999999,3.99999997 C9.77614236,3.99999997 9.99999999,4.2238576 9.99999999,4.49999997 L9.99999999,5.99999997 L11,5.99999997 L11,4.49999997 C11,4.2238576 11.2238576,3.99999997 11.5,3.99999997 L12.5,3.99999997 C12.7761424,3.99999997 13,4.2238576 13,4.49999997 L13,5.99999997 L14,5.99999997 L14,4.49999997 C14,4.2238576 14.2238576,3.99999997 14.5,3.99999997 L15.5,3.99999997 C15.7761424,3.99999997 16,4.2238576 16,4.49999997 L16,5.99999997 C17.1045695,5.99999997 18,6.89543048 18,7.99999998 L19.5,7.99999998 C19.7761424,7.99999998 20,8.22385761 20,8.49999999 L20,9.49999999 C20,9.77614236 19.7761424,9.99999999 19.5,9.99999999 L18,9.99999999 L18,11 L19.5,11 C19.7761424,11 20,11.2238576 20,11.5 L20,12.5 C20,12.7761424 19.7761424,13 19.5,13 L18,13 L18,14 L19.5,14 C19.7761424,14 20,14.2238576 20,14.5 L20,15.5 C20,15.7761424 19.7761424,16 19.5,16 L18,16 C18,17.1045695 17.1045695,18 16,18 L16,19.5 C16,19.7761424 15.7761424,20 15.5,20 L14.5,20 C14.2238576,20 14,19.7761424 14,19.5 L14,18 L13,18 L13,19.5 C13,19.7761424 12.7761424,20 12.5,20 L11.5,20 C11.2238576,20 11,19.7761424 11,19.5 L11,18 L9.99999999,18 L9.99999999,19.5 C9.99999999,19.7761424 9.77614236,20 9.49999999,20 L8.49999999,20 C8.22385761,20 7.99999998,19.7761424 7.99999998,19.5 L7.99999998,18 C6.89543048,18 5.99999997,17.1045695 5.99999997,16 L4.49999997,16 C4.2238576,16 3.99999997,15.7761424 3.99999997,15.5 L3.99999997,14.5 C3.99999997,14.2238576 4.2238576,14 4.49999997,14 L5.99999997,14 Z M7.99999998,6.99999998 C7.44771523,6.99999998 6.99999998,7.44771523 6.99999998,7.99999998 L6.99999998,16 C6.99999998,16.5522847 7.44771523,17 7.99999998,17 L16,17 C16.5522847,17 17,16.5522847 17,16 L17,7.99999998 C17,7.44771523 16.5522847,6.99999998 16,6.99999998 L7.99999998,6.99999998 Z M9.49999999,8.99999999 L14.5,8.99999999 C14.7761424,8.99999999 15,9.22385762 15,9.49999999 L15,14.5 C15,14.7761424 14.7761424,15 14.5,15 L9.49999999,15 C9.22385762,15 8.99999999,14.7761424 8.99999999,14.5 L8.99999999,9.49999999 C8.99999999,9.22385762 9.22385762,8.99999999 9.49999999,8.99999999 Z" fill="#000000" fill-rule="nonzero"></path>
    </g>
</svg>