<?xml version="1.0" encoding="UTF-8"?>
<svg width="24px" height="24px" viewBox="0 0 24 24" version="1.1" xmlns="http://www.w3.org/2000/svg" xmlns:xlink="http://www.w3.org/1999/xlink">
    <!-- Generator: Sketch 51.2 (57519) - http://www.bohemiancoding.com/sketch -->
    <title>Trash</title>
    <desc>Created with Sketch.</desc>
    <defs></defs>
    <g id="Trash" stroke="none" stroke-width="1" fill="none" fill-rule="evenodd">
        <path d="M6.53993863,6.99999998 L17.4600614,6.99999998 C17.7362037,6.99999998 17.9600614,7.22385761 17.9600614,7.49999998 C17.9600614,7.51279687 17.9595701,7.52558904 17.9585886,7.53834823 L17.0355117,19.5383482 C17.0154733,19.7988468 16.7982526,20 16.5369844,20 L7.46301555,20 C7.2017474,20 6.98452666,19.7988468 6.96448831,19.5383482 L6.04141138,7.53834823 C6.02023222,7.26301924 6.22626138,7.02265189 6.50159038,7.00147274 C6.51434957,7.00049126 6.52714174,6.99999998 6.53993863,6.99999998 Z M6.49999998,4.99999997 L9.440983,4.99999997 C9.78358554,4.99999997 10.0967835,4.806433 10.25,4.49999997 L10.3618034,4.27639317 C10.4464994,4.10700116 10.619631,3.99999997 10.809017,3.99999997 L13.190983,3.99999997 C13.380369,3.99999997 13.5535006,4.10700116 13.6381966,4.27639317 L13.75,4.49999997 C13.9032165,4.806433 14.2164144,4.99999997 14.559017,4.99999997 L17.5,4.99999997 C17.7761424,4.99999997 18,5.2238576 18,5.49999997 C18,5.77614234 17.7761424,5.99999998 17.5,5.99999998 L6.49999998,5.99999998 C6.22385761,5.99999998 5.99999997,5.77614234 5.99999997,5.49999997 C5.99999997,5.2238576 6.22385761,4.99999997 6.49999998,4.99999997 Z" fill="#000000" fill-rule="nonzero"></path>
    </g>
</svg>