<?xml version="1.0" encoding="UTF-8"?>
<svg width="24px" height="24px" viewBox="0 0 24 24" version="1.1" xmlns="http://www.w3.org/2000/svg" xmlns:xlink="http://www.w3.org/1999/xlink">
    <!-- Generator: Sketch 51.2 (57519) - http://www.bohemiancoding.com/sketch -->
    <title>Entities / Observation</title>
    <desc>Created with Sketch.</desc>
    <defs></defs>
    <g id="Entities-/-Observation" stroke="none" stroke-width="1" fill="none" fill-rule="evenodd">
        <path d="M6.49999998,3.99999997 L16,3.99999997 L18,5.99999997 L18,19.5 C18,19.7761424 17.7761424,20 17.5,20 L6.49999998,20 C6.22385761,20 5.99999997,19.7761424 5.99999997,19.5 L5.99999997,4.49999997 C5.99999997,4.2238576 6.22385761,3.99999997 6.49999998,3.99999997 Z M7.5,9 C7.22385763,9 7,9.22385763 7,9.5 C7,9.77614237 7.22385763,10 7.5,10 L8,10 C8.27614237,10 8.5,9.77614237 8.5,9.5 C8.5,9.22385763 8.27614237,9 8,9 L7.5,9 Z M16,9 C15.7238576,9 15.5,9.22385763 15.5,9.5 C15.5,9.77614237 15.7238576,10 16,10 L16.5,10 C16.7761424,10 17,9.77614237 17,9.5 C17,9.22385763 16.7761424,9 16.5,9 L16,9 Z M16,14 C15.7238576,14 15.5,14.2238576 15.5,14.5 C15.5,14.7761424 15.7238576,15 16,15 L16.5,15 C16.7761424,15 17,14.7761424 17,14.5 C17,14.2238576 16.7761424,14 16.5,14 L16,14 Z M7.5,14 C7.22385763,14 7,14.2238576 7,14.5 C7,14.7761424 7.22385763,15 7.5,15 L8,15 C8.27614237,15 8.5,14.7761424 8.5,14.5 C8.5,14.2238576 8.27614237,14 8,14 L7.5,14 Z M9.5,7 C9.22385763,7 9,7.22385763 9,7.5 L9,8 C9,8.27614237 9.22385763,8.5 9.5,8.5 C9.77614237,8.5 10,8.27614237 10,8 L10,7.5 C10,7.22385763 9.77614237,7 9.5,7 Z M14.5,7 C14.2238576,7 14,7.22385763 14,7.5 L14,8 C14,8.27614237 14.2238576,8.5 14.5,8.5 C14.7761424,8.5 15,8.27614237 15,8 L15,7.5 C15,7.22385763 14.7761424,7 14.5,7 Z M14.5,15.5 C14.2238576,15.5 14,15.7238576 14,16 L14,16.5 C14,16.7761424 14.2238576,17 14.5,17 C14.7761424,17 15,16.7761424 15,16.5 L15,16 C15,15.7238576 14.7761424,15.5 14.5,15.5 Z M9.5,15.5 C9.22385763,15.5 9,15.7238576 9,16 L9,16.5 C9,16.7761424 9.22385763,17 9.5,17 C9.77614237,17 10,16.7761424 10,16.5 L10,16 C10,15.7238576 9.77614237,15.5 9.5,15.5 Z M14,15 C14.5522847,15 15,14.5522847 15,14 L15,10 C15,9.44771525 14.5522847,9 14,9 L10,9 C9.44771525,9 9,9.44771525 9,10 L9,14 C9,14.5522847 9.44771525,15 10,15 L14,15 Z M10.5,14 C10.2238576,14 10,13.7761424 10,13.5 L10,10.5 C10,10.2238576 10.2238576,10 10.5,10 L13.5,10 C13.7761424,10 14,10.2238576 14,10.5 L14,13.5 C14,13.7761424 13.7761424,14 13.5,14 L10.5,14 Z" id="Pawn" fill="#000000" fill-rule="nonzero"></path>
    </g>
</svg>