<?xml version="1.0" encoding="utf-8"?>
<svg xmlns="http://www.w3.org/2000/svg" xmlns:xlink="http://www.w3.org/1999/xlink" version="1.1" viewBox="0 0 24 24" xml:space="preserve">
    <g id="Chevron-left-double">
        <path fill="#000000" d="M7.5,12.2L12,7.7l4.5,4.5c0.3,0.3,0.8,0.3,1.1,0c0.3-0.3,0.3-0.8,0-1.1L12,5.6l-5.5,5.5
		c-0.3,0.3-0.3,0.8,0,1.1C6.8,12.5,7.2,12.5,7.5,12.2z M7.5,18.2l4.5-4.5l4.5,4.5c0.3,0.3,0.8,0.3,1.1,0c0.3-0.3,0.3-0.8,0-1.1
		L12,11.6l-5.5,5.5c-0.3,0.3-0.3,0.8,0,1.1C6.8,18.5,7.2,18.5,7.5,18.2z"/>
    </g>
</svg>
