<?xml version="1.0" encoding="UTF-8"?>
<svg width="24px" height="24px" viewBox="0 0 24 24" version="1.1" xmlns="http://www.w3.org/2000/svg" xmlns:xlink="http://www.w3.org/1999/xlink">
    <!-- Generator: Sketch 51.2 (57519) - http://www.bohemiancoding.com/sketch -->
    <title>Files-Find in File</title>
    <desc>Created with Sketch.</desc>
    <defs></defs>
    <g id="Files-Find-in-File" stroke="none" stroke-width="1" fill="none" fill-rule="evenodd">
        <path d="M15.2712226,15.0432108 L15.4952092,15.4918161 C15.5415028,15.584534 15.6019274,15.6694924 15.674319,15.7436487 L17.7155694,17.8346566 C17.8979213,18.0214536 18,18.2721517 18,18.5331983 L18,19.5 C18,19.7761424 17.7761424,20 17.5,20 L6.49999998,20 C6.22385761,20 5.99999997,19.7761424 5.99999997,19.5 L5.99999997,4.49999997 C5.99999997,4.2238576 6.22385761,3.99999997 6.49999998,3.99999997 L16,3.99999997 L18,5.99999997 L18,15.5 C18,15.574513 17.9395953,15.6349178 17.8650823,15.6349178 C17.8287314,15.6349178 17.7939185,15.6202493 17.7685288,15.5942349 L16.831566,14.6342193 C16.7600929,14.5609877 16.677803,14.4991602 16.5875706,14.4508964 L16.0675864,14.1727659 C15.8920919,14.0788969 15.8259214,13.8605347 15.9197903,13.6850402 C15.9262902,13.6728883 15.9334818,13.6611192 15.9413296,13.649791 C15.9696994,13.6088477 15.9940333,13.5723676 16.014335,13.5403534 C16.4802316,12.8056703 16.75,11.934339 16.75,11 C16.75,8.37664742 14.6233526,6.24999997 12,6.24999997 C9.37664742,6.24999997 7.24999997,8.37664742 7.24999997,11 C7.24999997,13.6233526 9.37664742,15.75 12,15.75 C13.0109093,15.75 13.9480606,15.4342041 14.7181844,14.8958814 C14.8875503,14.7774933 15.120821,14.818819 15.2392091,14.9881849 C15.2497158,15.0032158 15.2591032,15.0189988 15.2672954,15.0354063 L15.2712226,15.0432108 Z M12,14.25 C10.2050745,14.25 8.74999997,12.7949254 8.74999997,11 C8.74999997,9.20507455 10.2050745,7.74999997 12,7.74999997 C13.7949254,7.74999997 15.25,9.20507455 15.25,11 C15.25,12.7949254 13.7949254,14.25 12,14.25 Z" id="Explorer" fill="#000000" fill-rule="nonzero"></path>
    </g>
</svg>