<?xml version="1.0" encoding="UTF-8"?>
<svg width="24px" height="24px" viewBox="0 0 24 24" version="1.1" xmlns="http://www.w3.org/2000/svg" xmlns:xlink="http://www.w3.org/1999/xlink">
    <!-- Generator: Sketch 51.2 (57519) - http://www.bohemiancoding.com/sketch -->
    <title>Child</title>
    <desc>Created with Sketch.</desc>
    <defs></defs>
    <g id="Child" stroke="none" stroke-width="1" fill="none" fill-rule="evenodd">
        <path d="M17.9448132,7.74999998 L17.9448132,9.24999999 L7.99999998,9.24999999 L7.99999998,7.74999998 L17.9448132,7.74999998 Z M15.9696699,7.03033007 C15.6767767,6.73743685 15.6767767,6.26256311 15.9696699,5.96966989 C16.2625632,5.67677667 16.7374369,5.67677667 17.0303301,5.96966989 L19.5606602,8.49999999 L17.0303301,11.0303301 C16.7374369,11.3232233 16.2625632,11.3232233 15.9696699,11.0303301 C15.6767767,10.7374369 15.6767767,10.2625631 15.9696699,9.96966991 L17.4393399,8.49999999 L15.9696699,7.03033007 Z M15.9696699,14.0303301 C15.6767767,13.7374369 15.6767767,13.2625631 15.9696699,12.9696699 C16.2625632,12.6767767 16.7374369,12.6767767 17.0303301,12.9696699 L19.5606602,15.5 L17.0303301,18.0303301 C16.7374369,18.3232233 16.2625632,18.3232233 15.9696699,18.0303301 C15.6767767,17.7374369 15.6767767,17.2625632 15.9696699,16.9696699 L17.4393399,15.5 L15.9696699,14.0303301 Z M10.75,8.49999999 L12.25,8.49999999 L12.25,14 C12.25,14.4142135 12.5857865,14.75 13,14.75 L18,14.75 L18,16.25 L13,16.25 C11.7573593,16.25 10.75,15.2426407 10.75,14 L10.75,8.49999999 Z M5.49999997,9.99999999 C6.3284271,9.99999999 6.99999998,9.32842711 6.99999998,8.49999999 C6.99999998,7.67157286 6.3284271,6.99999998 5.49999997,6.99999998 C4.67157284,6.99999998 3.99999997,7.67157286 3.99999997,8.49999999 C3.99999997,9.32842711 4.67157284,9.99999999 5.49999997,9.99999999 Z" fill="#000000" fill-rule="nonzero"></path>
    </g>
</svg>