<?xml version="1.0" encoding="UTF-8"?>
<svg width="24px" height="24px" viewBox="0 0 24 24" version="1.1" xmlns="http://www.w3.org/2000/svg" xmlns:xlink="http://www.w3.org/1999/xlink">
    <!-- Generator: Sketch 51.2 (57519) - http://www.bohemiancoding.com/sketch -->
    <title>Checklist</title>
    <desc>Created with Sketch.</desc>
    <defs></defs>
    <g id="Checklist" stroke="none" stroke-width="1" fill="none" fill-rule="evenodd">
        <path d="M5.74999997,4.99999997 L9.24999999,4.99999997 C10.2164983,4.99999997 11,5.78350166 11,6.74999998 L11,10.25 C11,11.2164983 10.2164983,12 9.24999999,12 L5.74999997,12 C4.78350166,12 3.99999997,11.2164983 3.99999997,10.25 L3.99999997,6.74999998 C3.99999997,5.78350166 4.78350166,4.99999997 5.74999997,4.99999997 Z M9.1464466,6.93933981 L6.49999998,9.58578643 L5.70710675,8.79289321 C5.51184461,8.59763106 5.19526212,8.59763106 4.99999997,8.79289321 C4.80473782,8.98815535 4.80473782,9.30473784 4.99999997,9.49999999 L6.49999998,11 L9.85355338,7.64644659 C10.0488155,7.45118444 10.0488155,7.13460195 9.85355338,6.93933981 C9.65829123,6.74407766 9.34170875,6.74407766 9.1464466,6.93933981 Z M13.1428571,17 C12.5116746,17 12,16.5522847 12,16 C12,15.4477153 12.5116746,15 13.1428571,15 L18.8571429,15 C19.4883254,15 20,15.4477153 20,16 C20,16.5522847 19.4883254,17 18.8571429,17 L13.1428571,17 Z M13.1428571,8.99999999 C12.5116746,8.99999999 12,8.55228474 12,7.99999998 C12,7.44771523 12.5116746,6.99999998 13.1428571,6.99999998 L18.8571429,6.99999998 C19.4883254,6.99999998 20,7.44771523 20,7.99999998 C20,8.55228474 19.4883254,8.99999999 18.8571429,8.99999999 L13.1428571,8.99999999 Z M5.49999997,14.5 L5.49999997,18.5 L9.49999999,18.5 L9.49999999,14.5 L5.49999997,14.5 Z M5.24999997,13 L9.74999999,13 C10.440356,13 11,13.559644 11,14.25 L11,18.75 C11,19.440356 10.440356,20 9.74999999,20 L5.24999997,20 C4.55964403,20 3.99999997,19.440356 3.99999997,18.75 L3.99999997,14.25 C3.99999997,13.559644 4.55964403,13 5.24999997,13 Z" fill="#000000" fill-rule="nonzero"></path>
    </g>
</svg>