<?xml version="1.0" encoding="UTF-8"?>
<svg width="24px" height="24px" viewBox="0 0 24 24" version="1.1" xmlns="http://www.w3.org/2000/svg" xmlns:xlink="http://www.w3.org/1999/xlink">
    <!-- Generator: Sketch 51.2 (57519) - http://www.bohemiancoding.com/sketch -->
    <title>IconObjectAudio</title>
    <desc>Created with Sketch.</desc>
    <defs></defs>
    <g id="IconObjectAudio" stroke="none" stroke-width="1" fill-rule="evenodd">
        <path d="M6.5,6 L17.5,6 C17.7761424,6 18,6.22385763 18,6.5 L18,17.5 C18,17.7761424 17.7761424,18 17.5,18 L6.5,18 C6.22385763,18 6,17.7761424 6,17.5 L6,6.5 C6,6.22385763 6.22385763,6 6.5,6 Z M8.49999999,11 C8.22385761,11 7.99999998,11.2238576 7.99999998,11.5 L7.99999998,12.5 C7.99999998,12.7761424 8.22385761,13 8.49999999,13 C8.77614236,13 8.99999999,12.7761424 8.99999999,12.5 L8.99999999,11.5 C8.99999999,11.2238576 8.77614236,11 8.49999999,11 Z M10.5,9.99999999 C10.2238576,9.99999999 9.99999999,10.2238576 9.99999999,10.5 L9.99999999,13.5 C9.99999999,13.7761424 10.2238576,14 10.5,14 C10.7761424,14 11,13.7761424 11,13.5 L11,10.5 C11,10.2238576 10.7761424,9.99999999 10.5,9.99999999 Z M12.5,8.99999999 C12.2238576,8.99999999 12,9.22385762 12,9.49999999 L12,14.5 C12,14.7761424 12.2238576,15 12.5,15 C12.7761424,15 13,14.7761424 13,14.5 L13,9.49999999 C13,9.22385762 12.7761424,8.99999999 12.5,8.99999999 Z M14.5,11 C14.2238576,11 14,11.2238576 14,11.5 L14,12.5 C14,12.7761424 14.2238576,13 14.5,13 C14.7761424,13 15,12.7761424 15,12.5 L15,11.5 C15,11.2238576 14.7761424,11 14.5,11 Z M16.5,11.5 C16.2238576,11.5 16,11.7238576 16,12 C16,12.2761424 16.2238576,12.5 16.5,12.5 C16.7761424,12.5 17,12.2761424 17,12 C17,11.7238576 16.7761424,11.5 16.5,11.5 Z" id="Object-Audio" fill-rule="nonzero"></path>
    </g>
</svg>