<?xml version="1.0" encoding="UTF-8"?>
<svg width="24px" height="24px" viewBox="0 0 24 24" version="1.1" xmlns="http://www.w3.org/2000/svg" xmlns:xlink="http://www.w3.org/1999/xlink">
    <!-- Generator: Sketch 51.2 (57519) - http://www.bohemiancoding.com/sketch -->
    <title>File-Presentation</title>
    <desc>Created with Sketch.</desc>
    <defs></defs>
    <g id="File-Presentation" stroke="none" stroke-width="1" fill="none" fill-rule="evenodd">
        <path d="M6.49999998,3.99999997 L16,3.99999997 L18,5.99999997 L18,19.5 C18,19.7761424 17.7761424,20 17.5,20 L6.49999998,20 C6.22385761,20 5.99999998,19.7761424 5.99999998,19.5 L5.99999998,4.49999997 C5.99999998,4.2238576 6.22385761,3.99999997 6.49999998,3.99999997 Z M9.15316501,9.0510864 C9.04842954,9.36530391 8.99434754,9.70235298 9.00045689,10.0523572 C9.02937298,11.7089591 10.3957553,13.0284591 12.0523572,12.9995431 C13.7089591,12.970627 15.0284592,11.6042447 14.9995431,9.94764275 C14.970627,8.29104081 13.6042447,6.97154079 11.9476428,7.00045688 L12,9.99999997 L9.15316501,9.0510864 Z M8.49999999,16 C8.22385762,16 7.99999999,16.2238576 7.99999999,16.5 C7.99999999,16.7761424 8.22385762,17 8.49999999,17 L12.5,17 C12.7761424,17 13,16.7761424 13,16.5 C13,16.2238576 12.7761424,16 12.5,16 L8.49999999,16 Z M8.49999999,14 C8.22385762,14 7.99999999,14.2238576 7.99999999,14.5 C7.99999999,14.7761424 8.22385762,15 8.49999999,15 L15.5,15 C15.7761424,15 16,14.7761424 16,14.5 C16,14.2238576 15.7761424,14 15.5,14 L8.49999999,14 Z M11.286576,8.86002983 L11.1880486,6.27120799 C10.2058727,6.37501239 9.35466436,6.99723886 8.95768089,7.90158893 L8.91435751,8.00028198 L11.286576,8.86002983 Z" fill="#000000" fill-rule="nonzero"></path>
    </g>
</svg>