<?xml version="1.0" encoding="UTF-8"?>
<svg width="24px" height="24px" viewBox="0 0 24 24" version="1.1" xmlns="http://www.w3.org/2000/svg" xmlns:xlink="http://www.w3.org/1999/xlink">
    <!-- Generator: Sketch 51.2 (57519) - http://www.bohemiancoding.com/sketch -->
    <title>Tape</title>
    <desc>Created with Sketch.</desc>
    <defs></defs>
    <g id="Tape" stroke="none" stroke-width="1" fill="none" fill-rule="evenodd">
        <path d="M6.49999998,16.25 C4.15278978,16.25 2.24999996,14.3472102 2.24999996,12 C2.24999996,9.6527898 4.15278978,7.74999998 6.49999998,7.74999998 C8.84721017,7.74999998 10.75,9.6527898 10.75,12 C10.75,14.3472102 8.84721017,16.25 6.49999998,16.25 Z M6.49999998,14.75 C8.01878305,14.75 9.24999999,13.5187831 9.24999999,12 C9.24999999,10.4812169 8.01878305,9.24999999 6.49999998,9.24999999 C4.98121691,9.24999999 3.74999997,10.4812169 3.74999997,12 C3.74999997,13.5187831 4.98121691,14.75 6.49999998,14.75 Z M17.5,16.25 C15.1527898,16.25 13.25,14.3472102 13.25,12 C13.25,9.6527898 15.1527898,7.74999998 17.5,7.74999998 C19.8472102,7.74999998 21.75,9.6527898 21.75,12 C21.75,14.3472102 19.8472102,16.25 17.5,16.25 Z M17.5,14.75 C19.0187831,14.75 20.25,13.5187831 20.25,12 C20.25,10.4812169 19.0187831,9.24999999 17.5,9.24999999 C15.981217,9.24999999 14.75,10.4812169 14.75,12 C14.75,13.5187831 15.981217,14.75 17.5,14.75 Z M13,14.5 C13.4142136,14.5 13.75,14.8357864 13.75,15.25 C13.75,15.6642136 13.4142136,16 13,16 L11,16 C10.5857864,16 10.25,15.6642136 10.25,15.25 C10.25,14.8357864 10.5857864,14.5 11,14.5 L13,14.5 Z" fill="#000000" fill-rule="nonzero"></path>
    </g>
</svg>