<?xml version="1.0" encoding="UTF-8"?>
<svg width="24px" height="24px" viewBox="0 0 24 24" version="1.1" xmlns="http://www.w3.org/2000/svg" xmlns:xlink="http://www.w3.org/1999/xlink">
    <!-- Generator: Sketch 51.2 (57519) - http://www.bohemiancoding.com/sketch -->
    <title>NLP</title>
    <desc>Created with Sketch.</desc>
    <defs></defs>
    <g id="NLP" stroke="none" stroke-width="1" fill="none" fill-rule="evenodd">
        <path d="M5.46507723,5.99999998 L18.5349227,5.99999998 C19.044362,5.99999998 19.229097,6.05374112 19.4153404,6.15465576 C19.6015838,6.25557039 19.7477487,6.40365851 19.8473527,6.59235247 C19.9469568,6.78104642 20,6.96821214 20,7.48435457 L20,15.5156454 C20,16.0317878 19.9469568,16.2189536 19.8473527,16.4076475 C19.7477487,16.5963415 19.6015838,16.7444296 19.4153404,16.8453442 C19.229097,16.9462589 19.044362,17 18.5349227,17 L5.46507723,17 C4.95563795,17 4.77090295,16.9462589 4.58465957,16.8453442 C4.39841618,16.7444296 4.25225128,16.5963415 4.15264723,16.4076475 C4.05304318,16.2189536 3.99999997,16.0317878 3.99999997,15.5156454 L3.99999997,7.48435457 C3.99999997,6.96821214 4.05304318,6.78104642 4.15264723,6.59235247 C4.25225128,6.40365851 4.39841618,6.25557039 4.58465957,6.15465576 C4.77090295,6.05374112 4.95563795,5.99999998 5.46507723,5.99999998 Z M6.57254462,14.1052632 L6.57254462,10.7740543 L6.62946427,10.7740543 L8.99999999,14.1052632 L9.74665178,14.1052632 L9.74665178,9.21021792 L8.91629463,9.21021792 L8.91629463,12.5380345 L8.85937499,12.5380345 L6.48883927,9.21021792 L5.73883926,9.21021792 L5.73883926,14.1052632 L6.57254462,14.1052632 Z M14.0223214,13.3386102 L11.8058036,13.3386102 L11.8058036,9.21021792 L10.9419643,9.21021792 L10.9419643,14.1052632 L14.0223214,14.1052632 L14.0223214,13.3386102 Z M14.953125,9.21021792 L14.953125,14.1052632 L15.8169643,14.1052632 L15.8169643,12.5007196 L16.8649554,12.5007196 C17.8426339,12.5007196 18.5256696,11.8358347 18.5256696,10.8656456 C18.5256696,9.87849506 17.8660714,9.21021792 16.9017857,9.21021792 L14.953125,9.21021792 Z M15.8169643,9.94294818 L16.6741071,9.94294818 C17.296875,9.94294818 17.6484375,10.2652138 17.6484375,10.8656456 C17.6484375,11.449116 17.2868304,11.7747738 16.6707589,11.7747738 L15.8169643,11.7747738 L15.8169643,9.94294818 Z" fill="#000000" fill-rule="nonzero"></path>
    </g>
</svg>