<?xml version="1.0" encoding="UTF-8"?>
<svg width="24px" height="24px" viewBox="0 0 24 24" version="1.1" xmlns="http://www.w3.org/2000/svg" xmlns:xlink="http://www.w3.org/1999/xlink">
    <!-- Generator: Sketch 51.2 (57519) - http://www.bohemiancoding.com/sketch -->
    <title>Cycle</title>
    <desc>Created with Sketch.</desc>
    <defs></defs>
    <g id="Cycle" stroke="none" stroke-width="1" fill="none" fill-rule="evenodd">
        <path d="M8.55588334,6.65008632 C6.77172382,7.79955394 5.63888886,9.79442368 5.63888886,12 C5.63888886,15.5131447 8.48685532,18.3611111 12,18.3611111 C15.5131447,18.3611111 18.3611111,15.5131447 18.3611111,12 C18.3611111,9.38729692 16.7714723,7.06985624 14.3914635,6.10351308 C14.0076784,5.94768671 13.8228813,5.51024516 13.9787077,5.12646004 C14.1345341,4.74267492 14.5719756,4.55787784 14.9557607,4.71370421 C17.8967375,5.9078144 19.8611111,8.77155892 19.8611111,12 C19.8611111,16.3415718 16.3415718,19.8611111 12,19.8611111 C7.6584282,19.8611111 4.13888886,16.3415718 4.13888886,12 C4.13888886,9.31108333 5.50156117,6.87552657 7.65543685,5.44666903 L6.44735948,5.1907108 C6.04214117,5.10485623 5.78324572,4.70676302 5.86910029,4.30154472 C5.95495485,3.89632642 6.35304808,3.63743096 6.75826637,3.72328553 L10.7761975,4.57457419 L9.61752653,8.28147387 C9.49395125,8.6768244 9.07327878,8.89714175 8.67792827,8.77356647 C8.28257775,8.6499912 8.06226039,8.22931872 8.18583567,7.83396821 L8.55588334,6.65008632 Z" fill="#000000" fill-rule="nonzero"></path>
    </g>
</svg>