<svg version="1.1" xmlns="http://www.w3.org/2000/svg" xmlns:xlink="http://www.w3.org/1999/xlink" viewBox="0 0 24 24" preserveAspectRatio="xMaxYMax meet" width="24px" height="24px" focusable="false" id="Exclamation"><g title="Exclamation" fill="currentColor"><title>Exclamation</title><path d="M11.25,14 L12.75,14 C12.8880712,14 13,14.1119288 13,14.25 L13,15.75 C13,15.8880712 12.8880712,16 12.75,16 L11.25,16 C11.1119288,16 11,15.8880712 11,15.75 L11,14.25 C11,14.1119288 11.1119288,14 11.25,14 Z M11.25,8.99999998 L12.75,8.99999998 C12.8880712,8.99999998 13,9.1119288 13,9.24999998 L13,10.9761465 C13,10.9966564 12.9974761,11.0170883 12.9924852,11.0369816 L12.547458,12.8108351 C12.5195616,12.9220287 12.4196124,13 12.3049728,13 L11.6950272,13 C11.5803876,13 11.4804384,12.9220287 11.452542,12.8108351 L11.0075148,11.0369816 C11.0025239,11.0170883 11,10.9966564 11,10.9761465 L11,9.24999998 C11,9.1119288 11.1119288,8.99999998 11.25,8.99999998 Z" id="path-1"></path></g></svg>