<?xml version="1.0" encoding="UTF-8"?>
<svg width="24px" height="24px" viewBox="0 0 24 24" version="1.1" xmlns="http://www.w3.org/2000/svg" xmlns:xlink="http://www.w3.org/1999/xlink">
    <!-- Generator: Sketch 51.2 (57519) - http://www.bohemiancoding.com/sketch -->
    <title>Plus-Small</title>
    <desc>Created with Sketch.</desc>
    <defs></defs>
    <g id="Plus-Small" stroke="none" stroke-width="1" fill="none" fill-rule="evenodd">
        <path d="M12.5,11.5 L12.5,6.49999998 C12.5,6.22385761 12.2761424,5.99999997 12,5.99999997 C11.7238576,5.99999997 11.5,6.22385761 11.5,6.49999998 L11.5,11.5 L6.49999998,11.5 C6.22385761,11.5 5.99999997,11.7238576 5.99999997,12 C5.99999997,12.2761424 6.22385761,12.5 6.49999998,12.5 L11.5,12.5 L11.5,17.5 C11.5,17.7761424 11.7238576,18 12,18 C12.2761424,18 12.5,17.7761424 12.5,17.5 L12.5,12.5 L17.5,12.5 C17.7761424,12.5 18,12.2761424 18,12 C18,11.7238576 17.7761424,11.5 17.5,11.5 L12.5,11.5 Z" id="Small" fill="#000000" fill-rule="nonzero"></path>
    </g>
</svg>