<?xml version="1.0" encoding="UTF-8"?>
<svg width="24px" height="24px" viewBox="0 0 24 24" version="1.1" xmlns="http://www.w3.org/2000/svg" xmlns:xlink="http://www.w3.org/1999/xlink">
    <!-- Generator: Sketch 51.2 (57519) - http://www.bohemiancoding.com/sketch -->
    <title>Folder-Add Folder</title>
    <desc>Created with Sketch.</desc>
    <defs></defs>
    <g id="Folder-Add-Folder" stroke="none" stroke-width="1" fill="none" fill-rule="evenodd">
        <path d="M10.6459297,16.2404719 C10.8819766,15.8516645 11,15.4381739 11,15 C11,13.8954305 10.1045695,13 8.99999999,13 L8.49999998,13 C8.22385761,13 7.99999998,12.7761424 7.99999998,12.5 L7.99999998,12 C7.99999998,10.8954305 7.10456948,9.99999999 5.99999998,9.99999999 C5.52360644,9.99999999 5.07638999,10.0697552 4.65835062,10.2092657 L4.65837255,10.2093315 C4.39639545,10.29676 4.11314625,10.1552604 4.02571775,9.89328327 C4.00868422,9.84224277 3.99999997,9.7887877 3.99999997,9.73497996 L3.99999997,6.49999998 C3.99999997,6.22385761 4.2238576,5.99999998 4.49999997,5.99999998 L8.19098299,5.99999998 C8.38036901,5.99999998 8.55350058,6.10700117 8.63819659,6.27639318 L8.74999999,6.49999998 C8.90321651,6.80643301 9.21641444,6.99999998 9.55901698,6.99999998 L19.5,6.99999998 C19.7761424,6.99999998 20,7.22385761 20,7.49999998 L20,16.5 C20,16.7761424 19.7761424,17 19.5,17 L11.0734145,17.0000981 C10.797218,17.0000981 10.5733164,16.7761966 10.5733164,16.5 C10.5733164,16.4084759 10.5984329,16.3187068 10.6459297,16.2404719 Z M5.24999997,12 C5.24999997,11.5857864 5.58578641,11.25 5.99999998,11.25 C6.41421354,11.25 6.74999998,11.5857864 6.74999998,12 L6.74999998,18 C6.74999998,18.4142136 6.41421354,18.75 5.99999998,18.75 C5.58578641,18.75 5.24999997,18.4142136 5.24999997,18 L5.24999997,12 Z M9.24999999,14.25 C9.66421355,14.25 9.99999999,14.5857864 9.99999999,15 C9.99999999,15.4142136 9.66421355,15.75 9.24999999,15.75 L3.24999996,15.75 C2.8357864,15.75 2.49999996,15.4142136 2.49999996,15 C2.49999996,14.5857864 2.8357864,14.25 3.24999996,14.25 L9.24999999,14.25 Z" id="Add-Folder" fill="#000000" fill-rule="nonzero"></path>
    </g>
</svg>