<?xml version="1.0" encoding="UTF-8"?>
<svg width="24px" height="24px" viewBox="0 0 24 24" version="1.1" xmlns="http://www.w3.org/2000/svg" xmlns:xlink="http://www.w3.org/1999/xlink">
    <!-- Generator: Sketch 51.2 (57519) - http://www.bohemiancoding.com/sketch -->
    <title>Cog</title>
    <desc>Created with Sketch.</desc>
    <defs></defs>
    <g id="Cog" stroke="none" stroke-width="1" fill="none" fill-rule="evenodd">
        <path d="M20.6853937,10.820498 C20.8772994,10.8838071 21.0122242,11.0564166 21.0273243,11.2579305 C21.0493016,11.5506947 21.0602706,11.7812559 21.0602706,11.9496113 C21.0602706,12.1182239 21.0492681,12.3457235 21.0272629,12.63211 C21.0121706,12.8285297 20.8831683,12.9977878 20.6977777,13.0644126 L18.5314286,13.8428571 L17.9271429,15.2442857 L18.9814631,17.2985719 C19.0723792,17.4757171 19.0495471,17.6899183 18.9233335,17.8439192 C18.7256522,18.084969 18.5644829,18.2678907 18.4397507,18.3926229 C18.3187994,18.5135743 18.1542897,18.6604181 17.9462218,18.8331542 C17.7964649,18.9574811 17.5881695,18.9836022 17.4123505,18.9001038 L15.2914286,17.8928571 L13.8642857,18.4714286 L13.122768,20.6874441 C13.0579527,20.8811439 12.8818304,21.0159401 12.677925,21.0279073 C12.3913845,21.0447481 12.1654091,21.0530099 12,21.0527164 C11.8352743,21.0524242 11.6148672,21.0434418 11.3387787,21.0257692 C11.13896,21.0129788 10.9660401,20.8822181 10.8993016,20.6934403 L10.1228571,18.4971429 L8.72142856,17.9185714 L6.6669708,18.9535536 C6.4858224,19.0448114 6.2674903,19.0175861 6.11429583,18.8846418 C5.88868137,18.6888388 5.71556201,18.5302458 5.59493774,18.4088628 C5.47479112,18.2879606 5.32164631,18.1183607 5.13550334,17.9000634 C5.00697379,17.7493316 4.97956498,17.5369275 5.06562025,17.3585055 L6.07285712,15.27 L5.49428568,13.8685714 L3.31642914,13.1501033 C3.12365149,13.0865066 2.98844966,12.9126779 2.97426017,12.7101774 C2.95323283,12.4093289 2.94269252,12.1726043 2.94269252,12 C2.94269252,11.8298535 2.95293479,11.6058255 2.97341932,11.3279158 C2.98800133,11.1300845 3.11815579,10.9595819 3.30514289,10.8933573 L5.4685714,10.1271429 L6.04714284,8.72571428 L5.02390371,6.69048042 C4.9340708,6.51180176 4.95932917,6.29678405 5.0881243,6.14378788 C5.28031427,5.91561997 5.4366424,5.74124153 5.5571753,5.62070862 C5.67828956,5.49959436 5.85283148,5.3432773 6.08080107,5.15175744 C6.23101988,5.02555689 6.44116397,4.99887156 6.61815772,5.08352075 L8.69571428,6.07714284 L10.1228571,5.4985714 L10.8312221,3.31725684 C10.8933204,3.12603358 11.0639151,2.99060527 11.2642399,2.97350162 C11.5765158,2.94683937 11.8217692,2.93350825 12,2.93350825 C12.1739886,2.93350825 12.3980006,2.94621232 12.672036,2.97162045 C12.8653204,2.98954148 13.0307656,3.1177122 13.0964145,3.30038745 L13.8771429,5.47285711 L15.2785714,6.05142855 L17.3117527,5.02922142 C17.4912782,4.93896271 17.7073972,4.96496398 17.8603917,5.09522818 C18.0920508,5.29235646 18.2692339,5.45233495 18.3919968,5.57509788 C18.5134956,5.69659663 18.6665171,5.86647026 18.8510616,6.08471879 C18.978097,6.23495524 19.0052045,6.44573157 18.9203173,6.6232229 L17.9271429,8.69999999 L18.5057143,10.1014286 L20.6853937,10.820498 Z M12,17.25 C14.905,17.25 17.25,14.905 17.25,12 C17.25,9.09499999 14.905,6.74999998 12,6.74999998 C9.09499999,6.74999998 6.74999998,9.09499999 6.74999998,12 C6.74999998,14.905 9.09499999,17.25 12,17.25 Z" fill="#000000" fill-rule="nonzero"></path>
    </g>
</svg>