<?xml version="1.0" encoding="UTF-8"?>
<svg width="24px" height="24px" viewBox="0 0 24 24" version="1.1" xmlns="http://www.w3.org/2000/svg" xmlns:xlink="http://www.w3.org/1999/xlink">
    <!-- Generator: Sketch 51.2 (57519) - http://www.bohemiancoding.com/sketch -->
    <title>List-Sort Items</title>
    <desc>Created with Sketch.</desc>
    <defs></defs>
    <g id="List-Sort-Items" stroke="none" stroke-width="1" fill="none" fill-rule="evenodd">
        <path d="M12,6.99999998 C12.5522847,6.99999998 13,7.44771523 13,7.99999998 C13,8.55228474 12.5522847,8.99999999 12,8.99999999 C11.4477153,8.99999999 11,8.55228474 11,7.99999998 C11,7.44771523 11.4477153,6.99999998 12,6.99999998 Z M12,11 C12.5522847,11 13,11.4477153 13,12 C13,12.5522847 12.5522847,13 12,13 C11.4477153,13 11,12.5522847 11,12 C11,11.4477153 11.4477153,11 12,11 Z M12,15 C12.5522847,15 13,15.4477153 13,16 C13,16.5522847 12.5522847,17 12,17 C11.4477153,17 11,16.5522847 11,16 C11,15.4477153 11.4477153,15 12,15 Z M17.75,10.8106602 L17.75,15.5 C17.75,15.9142136 17.4142136,16.25 17,16.25 C16.5857865,16.25 16.25,15.9142136 16.25,15.5 L16.25,10.8106602 L15.5303301,11.5303301 C15.2374369,11.8232233 14.7625631,11.8232233 14.4696699,11.5303301 C14.1767767,11.2374369 14.1767767,10.7625631 14.4696699,10.4696699 L16.4696699,8.46966991 C16.7625632,8.17677669 17.2374369,8.17677669 17.5303301,8.46966991 L19.5303301,10.4696699 C19.8232233,10.7625631 19.8232233,11.2374369 19.5303301,11.5303301 C19.2374369,11.8232233 18.7625632,11.8232233 18.4696699,11.5303301 L17.75,10.8106602 Z M7.74999998,13.6893398 L8.4696699,12.9696699 C8.76256312,12.6767767 9.23743686,12.6767767 9.53033008,12.9696699 C9.8232233,13.2625631 9.8232233,13.7374369 9.53033008,14.0303301 L7.53033007,16.0303301 C7.23743685,16.3232233 6.76256311,16.3232233 6.46966989,16.0303301 L4.46966988,14.0303301 C4.17677666,13.7374369 4.17677666,13.2625631 4.46966988,12.9696699 C4.7625631,12.6767767 5.23743684,12.6767767 5.53033006,12.9696699 L6.24999998,13.6893398 L6.24999998,8.99999999 C6.24999998,8.58578642 6.58578642,8.24999998 6.99999998,8.24999998 C7.41421354,8.24999998 7.74999998,8.58578642 7.74999998,8.99999999 L7.74999998,13.6893398 Z" id="Sort-Items" fill="#000000" fill-rule="nonzero"></path>
    </g>
</svg>