<?xml version="1.0" encoding="UTF-8"?>
<svg width="24px" height="24px" viewBox="0 0 24 24" version="1.1" xmlns="http://www.w3.org/2000/svg" xmlns:xlink="http://www.w3.org/1999/xlink">
    <!-- Generator: Sketch 51.2 (57519) - http://www.bohemiancoding.com/sketch -->
    <title>Cloud</title>
    <desc>Created with Sketch.</desc>
    <defs></defs>
    <g id="Cloud" stroke="none" stroke-width="1" fill="none" fill-rule="evenodd">
        <path d="M18.5,16 L5.99999997,16 C4.34314572,16 2.99999996,14.6568542 2.99999996,13 C2.99999996,11.3431458 4.34314572,9.99999999 5.99999997,9.99999999 C6.03335946,9.99999999 6.06659177,10.0005445 6.0996885,10.0016251 C6.56233067,7.71857513 8.58046797,5.99999998 11,5.99999998 C13.4198175,5.99999998 15.4381455,7.71898067 15.9004752,10.0024332 C15.9334466,10.0008174 15.9666278,9.99999999 16,9.99999999 C16.7819854,9.99999999 17.4591504,10.44879 17.7879799,11.102855 C18.0136389,11.0359296 18.2526236,11 18.5,11 C19.8807119,11 21,12.1192881 21,13.5 C21,14.8807119 19.8807119,16 18.5,16 Z" fill="#000000" fill-rule="nonzero"></path>
    </g>
</svg>