<?xml version="1.0" encoding="UTF-8"?>
<svg width="24px" height="24px" viewBox="0 0 24 24" version="1.1" xmlns="http://www.w3.org/2000/svg" xmlns:xlink="http://www.w3.org/1999/xlink">
    <!-- Generator: Sketch 51.2 (57519) - http://www.bohemiancoding.com/sketch -->
    <title>Files-Find in Files</title>
    <desc>Created with Sketch.</desc>
    <defs></defs>
    <g id="Files-Find-in-Files" stroke="none" stroke-width="1" fill="none" fill-rule="evenodd">
        <path d="M14.2712226,15.0432108 L14.4952092,15.4918161 C14.5415028,15.584534 14.6019274,15.6694924 14.674319,15.7436487 L16.7155694,17.8346566 C16.8979213,18.0214536 17,18.2721517 17,18.5331983 L17,19.5 C17,19.7761424 16.7761424,20 16.5,20 L5.49999998,20 C5.22385761,20 4.99999997,19.7761424 4.99999997,19.5 L4.99999997,4.49999997 C4.99999997,4.2238576 5.22385761,3.99999997 5.49999998,3.99999997 L15,3.99999997 L17,5.99999997 L17,15.5 C17,15.574513 16.9395953,15.6349178 16.8650823,15.6349178 C16.8287314,15.6349178 16.7939185,15.6202493 16.7685288,15.5942349 L15.831566,14.6342193 C15.7600929,14.5609877 15.677803,14.4991602 15.5875706,14.4508964 L15.0675864,14.1727659 C14.8920919,14.0788969 14.8259214,13.8605347 14.9197903,13.6850402 C14.9262902,13.6728883 14.9334818,13.6611192 14.9413296,13.649791 C14.9696994,13.6088477 14.9940333,13.5723676 15.014335,13.5403534 C15.4802316,12.8056703 15.75,11.934339 15.75,11 C15.75,8.37664742 13.6233526,6.24999997 11,6.24999997 C8.37664742,6.24999997 6.24999997,8.37664742 6.24999997,11 C6.24999997,13.6233526 8.37664742,15.75 11,15.75 C12.0109093,15.75 12.9480606,15.4342041 13.7181844,14.8958814 C13.8875503,14.7774933 14.120821,14.818819 14.2392091,14.9881849 C14.2497158,15.0032158 14.2591032,15.0189988 14.2672954,15.0354063 L14.2712226,15.0432108 Z M11,14.25 C9.20507455,14.25 7.74999997,12.7949254 7.74999997,11 C7.74999997,9.20507455 9.20507455,7.74999997 11,7.74999997 C12.7949254,7.74999997 14.25,9.20507455 14.25,11 C14.25,12.7949254 12.7949254,14.25 11,14.25 Z M19.1464466,4.85355339 C18.9511845,4.65829124 18.9511845,4.34170876 19.1464466,4.14644661 C19.3417088,3.95118446 19.6582912,3.95118446 19.8535534,4.14644661 L20.5606602,4.85355339 C20.8419647,5.13485796 21,5.51638883 21,5.91421356 L21,19.5 C21,19.7761424 20.7761424,20 20.5,20 C20.2238576,20 20,19.7761424 20,19.5 L20,5.70075989 L19.1464466,4.85355339 Z M17.1464466,4.85355339 C16.9511845,4.65829124 16.9511845,4.34170876 17.1464466,4.14644661 C17.3417088,3.95118446 17.6582912,3.95118446 17.8535534,4.14644661 L18.5606602,4.85355339 C18.8419647,5.13485796 19,5.51638883 19,5.91421356 L19,19.5 C19,19.7761424 18.7761424,20 18.5,20 C18.2238576,20 18,19.7761424 18,19.5 L18,5.70075989 L17.1464466,4.85355339 Z" id="Explorer" fill="#000000" fill-rule="nonzero"></path>
    </g>
</svg>