<?xml version="1.0" encoding="UTF-8"?>
<svg width="24px" height="24px" viewBox="0 0 24 24" version="1.1" xmlns="http://www.w3.org/2000/svg" xmlns:xlink="http://www.w3.org/1999/xlink">
    <!-- Generator: Sketch 51.2 (57519) - http://www.bohemiancoding.com/sketch -->
    <title>Threads</title>
    <desc>Created with Sketch.</desc>
    <defs></defs>
    <g id="Threads" stroke="none" stroke-width="1" fill="none" fill-rule="evenodd">
        <path d="M6.99999998,8.74999999 C6.58578642,8.74999999 6.24999998,8.41421355 6.24999998,7.99999998 C6.24999998,7.58578642 6.58578642,7.24999998 6.99999998,7.24999998 L19,7.24999998 C19.4142136,7.24999998 19.75,7.58578642 19.75,7.99999998 C19.75,8.41421355 19.4142136,8.74999999 19,8.74999999 L6.99999998,8.74999999 Z M5.99999997,12.75 C5.58578641,12.75 5.24999997,12.4142136 5.24999997,12 C5.24999997,11.5857864 5.58578641,11.25 5.99999997,11.25 L18,11.25 C18.4142136,11.25 18.75,11.5857864 18.75,12 C18.75,12.4142136 18.4142136,12.75 18,12.75 L5.99999997,12.75 Z M4.99999997,16.75 C4.58578641,16.75 4.24999997,16.4142136 4.24999997,16 C4.24999997,15.5857865 4.58578641,15.25 4.99999997,15.25 L17,15.25 C17.4142136,15.25 17.75,15.5857865 17.75,16 C17.75,16.4142136 17.4142136,16.75 17,16.75 L4.99999997,16.75 Z" fill="#000000" fill-rule="nonzero"></path>
    </g>
</svg>