<?xml version="1.0" encoding="utf-8"?>
<svg xmlns="http://www.w3.org/2000/svg" xmlns:xlink="http://www.w3.org/1999/xlink" version="1.1" viewBox="0 0 24 24" xml:space="preserve">
    <g id="Chevron-left-double">
        <path fill="#000000" d="M7.5,11.8l4.5,4.5l4.5-4.5c0.3-0.3,0.8-0.3,1.1,0c0.3,0.3,0.3,0.8,0,1.1L12,18.4l-5.5-5.5
		c-0.3-0.3-0.3-0.8,0-1.1C6.8,11.5,7.2,11.5,7.5,11.8z M7.5,5.8l4.5,4.5l4.5-4.5c0.3-0.3,0.8-0.3,1.1,0c0.3,0.3,0.3,0.8,0,1.1
		L12,12.4L6.5,6.9c-0.3-0.3-0.3-0.8,0-1.1C6.8,5.5,7.2,5.5,7.5,5.8z"/>
    </g>
</svg>
