<?xml version="1.0" encoding="UTF-8"?>
<svg width="24px" height="24px" viewBox="0 0 24 24" version="1.1" xmlns="http://www.w3.org/2000/svg" xmlns:xlink="http://www.w3.org/1999/xlink">
    <!-- Generator: Sketch 51.2 (57519) - http://www.bohemiancoding.com/sketch -->
    <title>Classification-TS</title>
    <desc>Created with Sketch.</desc>
    <defs></defs>
    <g id="Classification-TS" stroke="none" stroke-width="1" fill="none" fill-rule="evenodd">
        <path d="M4.49999997,3.99999997 L19.5,3.99999997 C19.7761424,3.99999997 20,4.22385759 20,4.49999997 C20,4.77614235 19.7761424,4.99999997 19.5,4.99999997 L4.49999997,4.99999997 C4.22385759,4.99999997 3.99999997,4.77614235 3.99999997,4.49999997 C3.99999997,4.22385759 4.22385759,3.99999997 4.49999997,3.99999997 Z M4.49999997,19 L19.5,19 C19.7761424,19 20,19.2238577 20,19.5 C20,19.7761424 19.7761424,20 19.5,20 L4.49999997,20 C4.22385759,20 3.99999997,19.7761424 3.99999997,19.5 C3.99999997,19.2238577 4.22385759,19 4.49999997,19 Z M9.20039063,16 L7.05585937,16 L7.05585937,9.27343749 L4.61835936,9.27343749 L4.61835936,7.54492186 L11.64375,7.54492186 L11.64375,9.27343749 L9.20039063,9.27343749 L9.20039063,16 Z M12.2039062,13.5917969 L14.2546875,13.5917969 C14.3074219,14.2070312 14.9226562,14.5996094 15.8132812,14.5996094 C16.6160156,14.5996094 17.1667969,14.2128906 17.1667969,13.65625 C17.1667969,13.1875 16.7976562,12.9355469 15.8308594,12.7421875 L14.7175781,12.5195312 C13.1707031,12.2265625 12.3738281,11.3828125 12.3738281,10.0527344 C12.3738281,8.40039061 13.6980469,7.31640623 15.7371094,7.31640623 C17.7175781,7.31640623 19.0886719,8.38867186 19.1238281,9.95312499 L17.1375,9.95312499 C17.090625,9.35546874 16.5222656,8.93945311 15.7664062,8.93945311 C15.0105469,8.93945311 14.5125,9.29687499 14.5125,9.85937499 C14.5125,10.3222656 14.8875,10.5917969 15.778125,10.7675781 L16.8679687,10.9785156 C18.5378906,11.3007812 19.2878906,12.0566406 19.2878906,13.3984375 C19.2878906,15.1621094 17.9402344,16.2285156 15.7253906,16.2285156 C13.5867187,16.2285156 12.2390625,15.2207031 12.2039062,13.5917969 Z" id="TS" fill="#000000" fill-rule="nonzero"></path>
    </g>
</svg>