<?xml version="1.0" encoding="UTF-8"?>
<svg width="24px" height="24px" viewBox="0 0 24 24" version="1.1" xmlns="http://www.w3.org/2000/svg" xmlns:xlink="http://www.w3.org/1999/xlink">
    <!-- Generator: Sketch 51.2 (57519) - http://www.bohemiancoding.com/sketch -->
    <title>Plus-Extra Small</title>
    <desc>Created with Sketch.</desc>
    <defs></defs>
    <g id="Plus-Extra-Small" stroke="none" stroke-width="1" fill="none" fill-rule="evenodd">
        <path d="M11.5,12.5 L11.5,15.5 C11.5,15.7761424 11.7238576,16 12,16 C12.2761424,16 12.5,15.7761424 12.5,15.5 L12.5,12.5 L15.5,12.5 C15.7761424,12.5 16,12.2761424 16,12 C16,11.7238576 15.7761424,11.5 15.5,11.5 L12.5,11.5 L12.5,8.49999999 C12.5,8.22385761 12.2761424,7.99999998 12,7.99999998 C11.7238576,7.99999998 11.5,8.22385761 11.5,8.49999999 L11.5,11.5 L8.49999999,11.5 C8.22385761,11.5 7.99999998,11.7238576 7.99999998,12 C7.99999998,12.2761424 8.22385761,12.5 8.49999999,12.5 L11.5,12.5 Z" id="Extra-Small" fill="#000000" fill-rule="nonzero"></path>
    </g>
</svg>