<svg version="1.1" xmlns="http://www.w3.org/2000/svg" xmlns:xlink="http://www.w3.org/1999/xlink" viewBox="0 0 24 24" preserveAspectRatio="xMaxYMax meet" width="24px" height="24px" focusable="false" id="ServiceInstance"><g title="ServiceInstance" fill="currentColor"><title>ServiceInstance</title><path d="M6.19728719,10.4682661 L3.58689267,10.0076082 C3.3149522,9.95961873 3.05559772,10.1411669 3.00760822,10.4131073 C2.95961873,10.6850478 3.14116686,10.9444023 3.41310733,10.9923918 L6.02457766,11.4532395 C6.05503334,11.1160942 6.11337821,10.7869947 6.19728719,10.4682661 Z M17.9754223,12.5467605 L20.5868927,13.0076082 C20.8588331,13.0555977 21.0403813,13.3149522 20.9923918,13.5868927 C20.9444023,13.8588331 20.6850478,14.0403813 20.4131073,13.9923918 L17.8027128,13.5317339 C17.8866218,13.2130053 17.9449667,12.8839058 17.9754223,12.5467605 Z M7,12 C7,9.23857625 9.23857625,7 12,7 C14.7614237,7 17,9.23857625 17,12 C17,14.7614237 14.7614237,17 12,17 C9.23857625,17 7,14.7614237 7,12 Z M16.0107373,12.4288082 L16.0107373,11.5125591 L14.8991901,11.1460594 L14.641357,10.5218647 L15.145564,9.46817824 L14.4981164,8.82107731 L13.4610543,9.34219399 L12.8365252,9.08449893 L12.4411811,7.985 L11.5244411,7.985 L11.1634748,9.09595204 L10.5274865,9.3536471 L9.4732355,8.84971009 L8.82578791,9.49681102 L9.34718376,10.5333178 L9.08935065,11.1575125 L7.98926271,11.5469184 L7.98926271,12.4574409 L9.1008099,12.8239406 L9.35864301,13.4481353 L8.85443604,14.5018218 L9.50188363,15.1489227 L10.5389457,14.627806 L11.1634748,14.8855011 L11.5588189,15.985 L12.4698292,15.985 L12.8307956,14.874048 L13.4667839,14.6163529 L14.5210349,15.1202899 L15.1684825,14.473189 L14.641357,13.4366822 L14.9106494,12.8124875 L16.0107373,12.417355 L16.0107373,12.4288082 Z M12,13.7058304 C11.0488823,13.7058304 10.2811126,12.9384717 10.2811126,11.9878633 C10.2811126,11.0372548 11.0488823,10.2698962 12,10.2698962 C12.9511177,10.2698962 13.7188874,11.0372548 13.7188874,11.9878633 C13.7188874,12.9384717 12.9511177,13.7058304 12,13.7058304 Z" id="Combined-Shape"></path></g></svg>