<?xml version="1.0" encoding="UTF-8"?>
<svg width="24px" height="24px" viewBox="0 0 24 24" version="1.1" xmlns="http://www.w3.org/2000/svg" xmlns:xlink="http://www.w3.org/1999/xlink">
    <!-- Generator: Sketch 51.2 (57519) - http://www.bohemiancoding.com/sketch -->
    <title>Media-Pause</title>
    <desc>Created with Sketch.</desc>
    <defs></defs>
    <g id="Media-Pause" stroke="none" stroke-width="1" fill="none" fill-rule="evenodd">
        <path d="M7.49999998,4.99999997 L9.49999999,4.99999997 C9.77614236,4.99999997 9.99999999,5.23505048 9.99999999,5.52499997 L9.99999999,18.475 C9.99999999,18.7649495 9.77614236,19 9.49999999,19 L7.49999998,19 C7.22385761,19 6.99999998,18.7649495 6.99999998,18.475 L6.99999998,5.52499997 C6.99999998,5.23505048 7.22385761,4.99999997 7.49999998,4.99999997 Z M14.5,4.99999997 L16.5,4.99999997 C16.7761424,4.99999997 17,5.23505048 17,5.52499997 L17,18.475 C17,18.7649495 16.7761424,19 16.5,19 L14.5,19 C14.2238576,19 14,18.7649495 14,18.475 L14,5.52499997 C14,5.23505048 14.2238576,4.99999997 14.5,4.99999997 Z" id="Pause" fill="#000000" fill-rule="nonzero"></path>
    </g>
</svg>