<?xml version="1.0" encoding="UTF-8"?>
<svg width="24px" height="24px" viewBox="0 0 24 24" version="1.1" xmlns="http://www.w3.org/2000/svg" xmlns:xlink="http://www.w3.org/1999/xlink">
    <!-- Generator: Sketch 51.2 (57519) - http://www.bohemiancoding.com/sketch -->
    <title>Stack</title>
    <desc>Created with Sketch.</desc>
    <defs></defs>
    <g id="Stack" stroke="none" stroke-width="1" fill="none" fill-rule="evenodd">
        <path d="M4.49999997,6.99999998 L20.5,6.99999998 C20.7761424,6.99999998 21,7.22385761 21,7.49999998 L21,8.49999999 C21,8.77614236 20.7761424,8.99999999 20.5,8.99999999 L4.49999997,8.99999999 C4.2238576,8.99999999 3.99999997,8.77614236 3.99999997,8.49999999 L3.99999997,7.49999998 C3.99999997,7.22385761 4.2238576,6.99999998 4.49999997,6.99999998 Z M4.49999997,11 L18.5,11 C18.7761424,11 19,11.2238576 19,11.5 L19,12.5 C19,12.7761424 18.7761424,13 18.5,13 L4.49999997,13 C4.2238576,13 3.99999997,12.7761424 3.99999997,12.5 L3.99999997,11.5 C3.99999997,11.2238576 4.2238576,11 4.49999997,11 Z M4.49999997,15 L16.5,15 C16.7761424,15 17,15.2238576 17,15.5 L17,16.5 C17,16.7761424 16.7761424,17 16.5,17 L4.49999997,17 C4.2238576,17 3.99999997,16.7761424 3.99999997,16.5 L3.99999997,15.5 C3.99999997,15.2238576 4.2238576,15 4.49999997,15 Z" fill="#000000" fill-rule="nonzero"></path>
    </g>
</svg>