<svg width="64px" height="64px" viewBox="0 0 64 64">
  <g id="inbox" fill="none" fill-rule="evenodd" stroke="none" stroke-width="1">
    <path id="fill" fill="#007AFF" fill-opacity="0.184058129" fill-rule="nonzero" d="M42,34 L38,40 L26,40 L22,34 L12,34 L12,45 C12,46.1045695 12.8954305,47 14,47 L49,47 C50.1045695,47 51,46.1045695 51,45 L51,34 L42,34 Z"/>
    <path id="border" fill-rule="nonzero" stroke="#007AFF" stroke-linecap="round" stroke-linejoin="round" stroke-width="2" d="M24,24 L32,32 L40,24 L32,32 L32,16 M42,34 L38,40 L26,40 L22,34 L12,34 L12,45 C12,46.1045695 12.8954305,47 14,47 L49,47 C50.1045695,47 51,46.1045695 51,45 L51,34 L42,34 Z"/>
  </g>
</svg>
