<svg width="64px" height="64px" viewBox="0 0 64 64">
  <g id="json" fill="none" fill-rule="evenodd" stroke="none" stroke-width="1">
    <path id="fill" fill="#007AFF" fill-opacity="0.184058129" fill-rule="nonzero" d="M20,16 L44,16 C46.209139,16 48,17.790861 48,20 L48,27.3431458 C48,28.4040117 48.4214274,29.4214274 49.1715729,30.1715729 L49.5,30.5 C50.3284271,31.3284271 50.3284271,32.6715729 49.5,33.5 L49.1715729,33.8284271 C48.4214274,34.5785726 48,35.5959883 48,36.6568542 L48,44 C48,46.209139 46.209139,48 44,48 L20,48 C17.790861,48 16,46.209139 16,44 L16,36.6568542 C16,35.5959883 15.5785726,34.5785726 14.8284271,33.8284271 L14.5,33.5 C13.6715729,32.6715729 13.6715729,31.3284271 14.5,30.5 L14.8284271,30.1715729 C15.5785726,29.4214274 16,28.4040117 16,27.3431458 L16,20 C16,17.790861 17.790861,16 20,16 Z"/>
    <path id="border" fill-rule="nonzero" stroke="#007AFF" stroke-linecap="round" stroke-linejoin="round" stroke-width="2" d="M22,16 L20,16 C17.790861,16 16,17.790861 16,20 L16,27.3431458 C16,28.4040117 15.5785726,29.4214274 14.8284271,30.1715729 L13,32 L13,32 L14.8284271,33.8284271 C15.5785726,34.5785726 16,35.5959883 16,36.6568542 L16,44 C16,46.209139 17.790861,48 20,48 L22,48 L22,48 M42,48 L44,48 C46.209139,48 48,46.209139 48,44 L48,36.6568542 C48,35.5959883 48.4214274,34.5785726 49.1715729,33.8284271 L51,32 L51,32 L49.1715729,30.1715729 C48.4214274,29.4214274 48,28.4040117 48,27.3431458 L48,20 C48,17.790861 46.209139,16 44,16 L42,16 L42,16"/>
  </g>
</svg>
