<svg width="64px" height="64px" viewBox="0 0 64 64">
  <g id="language" fill="none" fill-rule="evenodd" stroke="none" stroke-width="1">
    <g id="border-2" fill-rule="nonzero" stroke="#007AFF" stroke-linecap="round" stroke-linejoin="round" stroke-width="2" transform="translate(13 18)">
      <path id="border" d="M10.3290239,1.44758533 C9.56185417,1.65339288 7.54134513,1.91832115 5.91662077,1.44758533 C5.26579901,1.2589954 5.00149136,1.13160887 4.58863895,0.772308741 M-2.27373675e-13,6.07435425 C2.70856423,6.45052323 5.19385835,6.64412916 7.45588235,6.65517205 C9.71790636,6.66621494 11.9800664,6.49578542 14.2423624,6.14388349 C12.6775531,9.09208889 10.7318475,12.2609598 8.312121,15.4355613 C5.51252228,19.1085142 2.63286053,22.3519373 -2.27373675e-13,24.6605238 M17.2058824,22.3372526 C15.9988484,21.633353 14.644729,20.8214767 12.6176471,18.8523458 C10.5905651,16.883215 9.99695253,15.6266379 9.06411996,14.4282504 M23,23.5 L31,1.5 L39,23.5 M25.0000695,18 L37,18"/>
    </g>
  </g>
</svg>
