<?xml version="1.0" encoding="UTF-8"?>
<svg width="64px" height="64px" viewBox="0 0 64 64" version="1.1" xmlns="http://www.w3.org/2000/svg" xmlns:xlink="http://www.w3.org/1999/xlink">
    <!-- Generator: Sketch 55.2 (78181) - https://sketchapp.com -->
    <title>icons/linkedin</title>
    <desc>Created with Sketch.</desc>
    <g id="icons/linkedin" stroke="none" stroke-width="1" fill="none" fill-rule="evenodd">
        <path d="M23,48 L23,26 L16,26 L16,48 L23,48 Z M19.9700748,23 L19.9700748,22.9811321 L19.9301746,22.9811321 C17.5361596,22.9811321 16,21.4339623 16,19.490566 C16,17.509434 17.59601,16 20.0299252,16 C22.4638404,16 23.9600997,17.509434 24,19.509434 C24,21.4528302 22.4438903,23 19.9700748,23 Z M27,48 C27,48 27.0772769,28.5068368 27,26.5013673 L33.8583257,26.5013673 L33.8583257,29.6298997 L33.8196872,29.6298997 C34.7276909,28.1458523 36.3698252,26 40.0791169,26 C44.5998159,26 48,29.0683683 48,35.6663628 L48,48 L41.1223552,48 L41.1223552,36.4886052 C41.1223552,33.6007293 40.1370745,31.6353692 37.6448943,31.6353692 C35.7322907,31.6353692 34.6117755,32.958979 34.1094756,34.2424795 C33.9162833,34.7037375 33.8776449,35.3454877 33.8776449,35.9872379 L33.8776449,48 L27,48 Z" id="fill" fill-opacity="0.184058129" fill="#007AFF" fill-rule="nonzero"></path>
        <path d="M23,48 L23,26 L16,26 L16,48 L23,48 Z M19.9700748,23 L19.9700748,22.9811321 L19.9301746,22.9811321 C17.5361596,22.9811321 16,21.4339623 16,19.490566 C16,17.509434 17.59601,16 20.0299252,16 C22.4638404,16 23.9600997,17.509434 24,19.509434 C24,21.4528302 22.4438903,23 19.9700748,23 Z M27,48 C27,48 27.0772769,28.5068368 27,26.5013673 L33.8583257,26.5013673 L33.8583257,29.6298997 L33.8196872,29.6298997 C34.7276909,28.1458523 36.3698252,26 40.0791169,26 C44.5998159,26 48,29.0683683 48,35.6663628 L48,48 L41.1223552,48 L41.1223552,36.4886052 C41.1223552,33.6007293 40.1370745,31.6353692 37.6448943,31.6353692 C35.7322907,31.6353692 34.6117755,32.958979 34.1094756,34.2424795 C33.9162833,34.7037375 33.8776449,35.3454877 33.8776449,35.9872379 L33.8776449,48 L27,48 Z" id="border" stroke="#007AFF" stroke-width="2" stroke-linecap="round" stroke-linejoin="round" fill-rule="nonzero"></path>
    </g>
</svg>