<svg width="64px" height="64px" viewBox="0 0 64 64">
  <g id="link" fill="none" fill-rule="evenodd" stroke="none" stroke-width="1">
    <path id="border" fill-rule="nonzero" stroke="#007AFF" stroke-linecap="round" stroke-linejoin="round" stroke-width="2" d="M32.263456,12.6066017 C37.2340187,12.6066017 41.263456,16.636039 41.263456,21.6066017 C41.263456,23.7795294 41.263456,25.4092252 41.263456,26.495689 C41.263456,27.6314474 41.263456,27.9208714 41.263456,30.1923882 C41.263456,33.0115382 39.967263,35.5279462 37.9383318,37.1781573 C36.3899686,38.4375033 34.4148687,39.1923882 32.263456,39.1923882 C31.250254,39.1923882 30.2761568,39.0249612 29.3673214,38.7162647 C28.8753452,38.5491592 28.402493,38.3406569 27.9529139,38.0949071 M23.263456,23.5207003 C23.263456,23.0613622 23.263456,22.4715578 23.263456,21.6066017 C23.263456,16.636039 27.2928932,12.6066017 32.263456,12.6066017 M32.263456,25.3345238 C33.5216201,25.3345238 34.7194851,25.592695 35.8069649,26.0589515 C36.2201898,26.2361215 36.6174763,26.4433364 36.9960767,26.6778483 M41.263456,41.0719049 C41.263456,41.5126297 41.263456,42.0812465 41.263456,42.9203102 C41.263456,47.890873 37.2340187,51.9203102 32.263456,51.9203102 C27.2928932,51.9203102 23.263456,47.890873 23.263456,42.9203102 C23.263456,40.8059283 23.263456,39.2201419 23.263456,38.1629509 C23.263456,36.9979196 23.263456,36.6645863 23.263456,34.3345238 C23.263456,31.5153737 24.5596489,28.9989658 26.5885801,27.3487546 C28.1369434,26.0894087 30.1120433,25.3345238 32.263456,25.3345238" transform="scale(-1 1) rotate(45 0 -45.6274)"/>
  </g>
</svg>
