<svg width="64px" height="64px" viewBox="0 0 64 64">
  <g id="linkedin" fill="none" fill-rule="evenodd" stroke="none" stroke-width="1">
    <path id="fill" fill="#007AFF" fill-opacity="0.184058129" fill-rule="nonzero" d="M21.3125,50 L21.3125,23.875 L13,23.875 L13,50 L21.3125,50 Z M17.7144638,20.3125 L17.7144638,20.2900943 L17.6670823,20.2900943 C14.8241895,20.2900943 13,18.4528302 13,16.1450472 C13,13.7924528 14.8952618,12 17.7855362,12 C20.6758105,12 22.4526184,13.7924528 22.5,16.1674528 C22.5,18.4752358 20.6521197,20.3125 17.7144638,20.3125 Z M26.0625,50 C26.0625,50 26.1542663,26.8518687 26.0625,24.4703737 L34.2067617,24.4703737 L34.2067617,28.1855059 L34.1608786,28.1855059 C35.2391329,26.4231996 37.1891674,23.875 41.5939513,23.875 C46.9622814,23.875 51,27.5186873 51,35.3538058 L51,50 L42.8327968,50 L42.8327968,36.3302187 C42.8327968,32.900866 41.6627759,30.5670009 38.7033119,30.5670009 C36.4320952,30.5670009 35.1014834,32.1387876 34.5050023,33.6629444 C34.2755865,34.2106882 34.2297033,34.9727666 34.2297033,35.734845 L34.2297033,50 L26.0625,50 Z"/>
    <path id="border" fill-rule="nonzero" stroke="#007AFF" stroke-linecap="round" stroke-linejoin="round" stroke-width="2" d="M21.3125,50 L21.3125,23.875 L13,23.875 L13,50 L21.3125,50 Z M17.7144638,20.3125 L17.7144638,20.2900943 L17.6670823,20.2900943 C14.8241895,20.2900943 13,18.4528302 13,16.1450472 C13,13.7924528 14.8952618,12 17.7855362,12 C20.6758105,12 22.4526184,13.7924528 22.5,16.1674528 C22.5,18.4752358 20.6521197,20.3125 17.7144638,20.3125 Z M26.0625,50 C26.0625,50 26.1542663,26.8518687 26.0625,24.4703737 L34.2067617,24.4703737 L34.2067617,28.1855059 L34.1608786,28.1855059 C35.2391329,26.4231996 37.1891674,23.875 41.5939513,23.875 C46.9622814,23.875 51,27.5186873 51,35.3538058 L51,50 L42.8327968,50 L42.8327968,36.3302187 C42.8327968,32.900866 41.6627759,30.5670009 38.7033119,30.5670009 C36.4320952,30.5670009 35.1014834,32.1387876 34.5050023,33.6629444 C34.2755865,34.2106882 34.2297033,34.9727666 34.2297033,35.734845 L34.2297033,50 L26.0625,50 Z"/>
  </g>
</svg>
