<svg width="64px" height="64px" viewBox="0 0 64 64">
  <g id="mail" fill="none" fill-rule="evenodd" stroke="none" stroke-width="1">
    <path id="fill" fill="#007AFF" fill-opacity="0.184058129" fill-rule="nonzero" d="M14,20 L50,20 C51.1045695,20 52,20.8954305 52,22 L52,42 C52,43.1045695 51.1045695,44 50,44 L14,44 C12.8954305,44 12,43.1045695 12,42 L12,22 C12,20.8954305 12.8954305,20 14,20 Z"/>
    <path id="border" fill-rule="nonzero" stroke="#007AFF" stroke-linecap="round" stroke-linejoin="round" stroke-width="2" d="M14,20 L50,20 C51.1045695,20 52,20.8954305 52,22 L52,42 C52,43.1045695 51.1045695,44 50,44 L14,44 C12.8954305,44 12,43.1045695 12,42 L12,22 C12,20.8954305 12.8954305,20 14,20 Z M13,21 L32,33 L51,21"/>
  </g>
</svg>
