<?xml version="1.0" encoding="UTF-8"?>
<svg width="64px" height="64px" viewBox="0 0 64 64" version="1.1" xmlns="http://www.w3.org/2000/svg" xmlns:xlink="http://www.w3.org/1999/xlink">
    <!-- Generator: Sketch 54.1 (76490) - https://sketchapp.com -->
    <title>icons/mail</title>
    <desc>Created with Sketch.</desc>
    <g id="icons/mail" stroke="none" stroke-width="1" fill="none" fill-rule="evenodd">
        <path d="M14,20 L50,20 C51.1045695,20 52,20.8954305 52,22 L52,42 C52,43.1045695 51.1045695,44 50,44 L14,44 C12.8954305,44 12,43.1045695 12,42 L12,22 C12,20.8954305 12.8954305,20 14,20 Z" id="fill" fill-opacity="0.184058129" fill="#007AFF" fill-rule="nonzero"></path>
        <path d="M14,20 L50,20 C51.1045695,20 52,20.8954305 52,22 L52,42 C52,43.1045695 51.1045695,44 50,44 L14,44 C12.8954305,44 12,43.1045695 12,42 L12,22 C12,20.8954305 12.8954305,20 14,20 Z M13,21 L32,33 L51,21" id="border" stroke="#007AFF" stroke-width="2" stroke-linecap="round" stroke-linejoin="round" fill-rule="nonzero"></path>
    </g>
</svg>