<svg width="64px" height="64px" viewBox="0 0 64 64">
  <g id="mailbox" fill="none" fill-rule="evenodd" stroke="none" stroke-width="1">
    <path id="fill" fill="#007AFF" fill-opacity="0.184058129" fill-rule="nonzero" d="M21,27 L43,27 C47.418278,27 51,30.581722 51,35 L51,47 C51,47.5522847 50.5522847,48 50,48 L14,48 C13.4477153,48 13,47.5522847 13,47 L13,35 C13,30.581722 16.581722,27 21,27 Z M20,15 L27,15 L27,21 L20,21 L20,15 Z"/>
    <path id="border" fill-rule="nonzero" stroke="#007AFF" stroke-linecap="round" stroke-linejoin="round" stroke-width="2" d="M21,27 L43,27 C47.418278,27 51,30.581722 51,35 L51,47 C51,47.5522847 50.5522847,48 50,48 L14,48 C13.4477153,48 13,47.5522847 13,47 L13,35 C13,30.581722 16.581722,27 21,27 Z M43,27 C47.418278,27 51,30.581722 51,35 L51,47 C51,47.5522847 50.5522847,48 50,48 L35,48 L35,35 C35,30.581722 38.581722,27 43,27 Z M27,15 L27,21 L20,21 L20,15 L27,15 Z M27,21 L27,37"/>
  </g>
</svg>
