<svg width="64px" height="64px" viewBox="0 0 64 64">
  <g id="material" fill="none" fill-rule="evenodd" stroke="none" stroke-width="1">
    <path id="fill" fill="#007AFF" fill-opacity="0.184058129" fill-rule="nonzero" d="M33.2649111,11.421637 L51.6324555,17.5441518 C52.4491398,17.8163799 53,18.5806576 53,19.4415184 L53,44.5584816 C53,45.4193424 52.4491398,46.1836201 51.6324555,46.4558482 L33.2649111,52.578363 C32.4438438,52.8520521 31.5561562,52.8520521 30.7350889,52.578363 L12.3675445,46.4558482 C11.5508602,46.1836201 11,45.4193424 11,44.5584816 L11,19.4415184 C11,18.5806576 11.5508602,17.8163799 12.3675445,17.5441518 L30.7350889,11.421637 C31.5561562,11.1479479 32.4438438,11.1479479 33.2649111,11.421637 Z"/>
    <path id="border" fill-rule="nonzero" stroke="#007AFF" stroke-linecap="round" stroke-linejoin="round" stroke-width="2" d="M33.2649111,11.421637 L51.6324555,17.5441518 C52.4491398,17.8163799 53,18.5806576 53,19.4415184 L53,44.5584816 C53,45.4193424 52.4491398,46.1836201 51.6324555,46.4558482 L33.2649111,52.578363 C32.4438438,52.8520521 31.5561562,52.8520521 30.7350889,52.578363 L12.3675445,46.4558482 C11.5508602,46.1836201 11,45.4193424 11,44.5584816 L11,19.4415184 C11,18.5806576 11.5508602,17.8163799 12.3675445,17.5441518 L30.7350889,11.421637 C31.5561562,11.1479479 32.4438438,11.1479479 33.2649111,11.421637 Z M11.9505797,18.3168599 L32,25 L52.1265924,18.2911359 M32,52.125 L32,25"/>
  </g>
</svg>
