<svg width="64px" height="64px" viewBox="0 0 64 64">
  <g id="memory" fill="none" fill-rule="evenodd" stroke="none" stroke-width="1">
    <path id="fill" fill="#007AFF" fill-opacity="0.184058129" fill-rule="nonzero" d="M49,40 C49.5522847,40 50,40.4477153 50,41 C50,41.5522847 49.5522847,42 49,42 L49,42 L15,42 C14.4477153,42 14,41.5522847 14,41 C14,40.4477153 14.4477153,40 15,40 L15,40 Z M49.5,23 C50.3284271,23 51,23.6715729 51,24.5 L51,34.5 C51,35.3284271 50.3284271,36 49.5,36 L14.5,36 C13.6715729,36 13,35.3284271 13,34.5 L13,24.5 C13,23.6715729 13.6715729,23 14.5,23 L49.5,23 Z"/>
    <path id="border" fill-rule="nonzero" stroke="#007AFF" stroke-linecap="round" stroke-linejoin="round" stroke-width="2" d="M49,41 L15,41 M14.5,23 L49.5,23 C50.3284271,23 51,23.6715729 51,24.5 L51,34.5 C51,35.3284271 50.3284271,36 49.5,36 L14.5,36 C13.6715729,36 13,35.3284271 13,34.5 L13,24.5 C13,23.6715729 13.6715729,23 14.5,23 Z"/>
  </g>
</svg>
