<?xml version="1.0" encoding="UTF-8"?>
<svg width="64px" height="64px" viewBox="0 0 64 64" version="1.1" xmlns="http://www.w3.org/2000/svg" xmlns:xlink="http://www.w3.org/1999/xlink">
    <!-- Generator: Sketch 55.2 (78181) - https://sketchapp.com -->
    <title>icons/memory</title>
    <desc>Created with Sketch.</desc>
    <g id="icons/memory" stroke="none" stroke-width="1" fill="none" fill-rule="evenodd">
        <path d="M17.5,23 L46.5,23 C47.3284271,23 48,23.6715729 48,24.5 L48,34.5 C48,35.3284271 47.3284271,36 46.5,36 L17.5,36 C16.6715729,36 16,35.3284271 16,34.5 L16,24.5 C16,23.6715729 16.6715729,23 17.5,23 Z M46,40 C46.5522847,40 47,40.4477153 47,41 C47,41.5522847 46.5522847,42 46,42 L18,42 C17.4477153,42 17,41.5522847 17,41 C17,40.4477153 17.4477153,40 18,40 L46,40 Z" id="fill" fill-opacity="0.184058129" fill="#007AFF" fill-rule="nonzero"></path>
        <path d="M46,41 L18,41 L46,41 Z M17.5,23 L46.5,23 C47.3284271,23 48,23.6715729 48,24.5 L48,34.5 C48,35.3284271 47.3284271,36 46.5,36 L17.5,36 C16.6715729,36 16,35.3284271 16,34.5 L16,24.5 C16,23.6715729 16.6715729,23 17.5,23 Z" id="border" stroke="#007AFF" stroke-width="2" stroke-linecap="round" stroke-linejoin="round" fill-rule="nonzero"></path>
    </g>
</svg>