<?xml version="1.0" encoding="UTF-8"?>
<svg width="64px" height="64px" viewBox="0 0 64 64" version="1.1" xmlns="http://www.w3.org/2000/svg" xmlns:xlink="http://www.w3.org/1999/xlink">
    <!-- Generator: Sketch 54.1 (76490) - https://sketchapp.com -->
    <title>icons/move-workspace</title>
    <desc>Created with Sketch.</desc>
    <g id="icons/move-workspace" stroke="none" stroke-width="1" fill="none" fill-rule="evenodd">
        <path d="M32,52 C43.045695,52 52,43.045695 52,32 C52,20.954305 43.045695,12 32,12 C20.954305,12 12,20.954305 12,32 C12,43.045695 20.954305,52 32,52 Z" id="fill" fill-opacity="0.184058129" fill="#007AFF" fill-rule="nonzero"></path>
        <path d="M32,52 C43.045695,52 52,43.045695 52,32 C52,20.954305 43.045695,12 32,12 C20.954305,12 12,20.954305 12,32 C12,43.045695 20.954305,52 32,52 Z M42,32 L36.5,37.5 M36.5,26.5 L42,32 L23,32" id="border" stroke="#007AFF" stroke-width="2" stroke-linecap="round" stroke-linejoin="round" fill-rule="nonzero"></path>
    </g>
</svg>