<svg width="64px" height="64px" viewBox="0 0 64 64">
  <g id="move-workspace" fill="none" fill-rule="evenodd" stroke="none" stroke-width="1">
    <path id="fill" fill="#007AFF" fill-opacity="0.184058129" fill-rule="nonzero" d="M32,50 C41.9411255,50 50,41.9411255 50,32 C50,22.0588745 41.9411255,14 32,14 C22.0588745,14 14,22.0588745 14,32 C14,41.9411255 22.0588745,50 32,50 Z"/>
    <path id="border" fill-rule="nonzero" stroke="#007AFF" stroke-linecap="round" stroke-linejoin="round" stroke-width="2" d="M32,50 C41.9411255,50 50,41.9411255 50,32 C50,22.0588745 41.9411255,14 32,14 C22.0588745,14 14,22.0588745 14,32 C14,41.9411255 22.0588745,50 32,50 Z M44,32 L37.3421053,38.5 M37.3421053,25.5 L44,32 L21,32"/>
  </g>
</svg>
