<svg width="64px" height="64px" viewBox="0 0 64 64">
  <g id="new-workspace" fill="none" fill-rule="evenodd" stroke="none" stroke-width="1">
    <path id="fill" fill="#007AFF" fill-opacity="0.184058129" fill-rule="nonzero" d="M44,52 L20,52 C15.581722,52 12,48.418278 12,44 L12,20 C12,15.581722 15.581722,12 20,12 L44,12 C48.418278,12 52,15.581722 52,20 L52,44 C52,48.418278 48.418278,52 44,52 Z"/>
    <path id="border" fill-rule="nonzero" stroke="#007AFF" stroke-linecap="round" stroke-linejoin="round" stroke-width="2" d="M44,52 L20,52 C15.581722,52 12,48.418278 12,44 L12,20 C12,15.581722 15.581722,12 20,12 L44,12 C48.418278,12 52,15.581722 52,20 L52,44 C52,48.418278 48.418278,52 44,52 Z M32,19.5 L32,44.5 M44,32 L20,32"/>
  </g>
</svg>
