<?xml version="1.0" encoding="UTF-8"?>
<svg width="64px" height="64px" viewBox="0 0 64 64" version="1.1" xmlns="http://www.w3.org/2000/svg" xmlns:xlink="http://www.w3.org/1999/xlink">
    <!-- Generator: Sketch Beta 57 (82921) - https://sketch.com -->
    <title>new-window</title>
    <desc>Created with Sketch Beta.</desc>
    <g id="new-window" stroke="none" stroke-width="1" fill="none" fill-rule="evenodd">
        <path d="M22,20 L46,20 C47.1045695,20 48,20.8954305 48,22 L48,37 C48,38.1045695 47.1045695,39 46,39 L22,39 C20.8954305,39 20,38.1045695 20,37 L20,22 C20,20.8954305 20.8954305,20 22,20 Z" id="fill" fill-opacity="0.184058129" fill="#007AFF" fill-rule="nonzero"></path>
        <path d="M17,24.0677775 C17.0222145,24.0677775 17.0444275,24.0681476 17.0666297,24.0688877 L20,24.166 L20,37 C20,38.0543618 20.8158778,38.9181651 21.8507377,38.9945143 L22,39 L44.262,39 L44.0997306,42.1051177 C44.0438228,43.1673671 43.1662146,44 42.102495,44 L17,44 C15.8954305,44 15,43.1045695 15,42 L15,26.0677775 C15,24.963208 15.8954305,24.0677775 17,24.0677775 Z M22,20 L46,20 C47.1045695,20 48,20.8954305 48,22 L48,37 C48,38.1045695 47.1045695,39 46,39 L22,39 C20.8954305,39 20,38.1045695 20,37 L20,22 C20,20.8954305 20.8954305,20 22,20 Z M43,15 L54,15 L54,26 M44,26 L54,15" id="border" stroke="#007AFF" stroke-width="2" stroke-linecap="round" stroke-linejoin="round" fill-rule="nonzero"></path>
    </g>
</svg>