<?xml version="1.0" encoding="UTF-8"?>
<svg width="64px" height="64px" viewBox="0 0 64 64" version="1.1" xmlns="http://www.w3.org/2000/svg" xmlns:xlink="http://www.w3.org/1999/xlink">
    <!-- Generator: Sketch 54.1 (76490) - https://sketchapp.com -->
    <title>icons/new-window</title>
    <desc>Created with Sketch.</desc>
    <g id="icons/new-window" stroke="none" stroke-width="1" fill="none" fill-rule="evenodd">
        <rect id="fill" fill-opacity="0.184058129" fill="#007AFF" fill-rule="nonzero" x="20" y="20" width="28" height="20" rx="2"></rect>
        <path d="M20,24 L20,38 C20,39.1045695 20.8954305,40 22,40 L44,40 L44,42 C44,43.1045695 43.1045695,44 42,44 L18,44 C16.8954305,44 16,43.1045695 16,42 L16,26 C16,24.8954305 16.8954305,24 18,24 L20,24 Z M22,20 L46,20 C47.1045695,20 48,20.8954305 48,22 L48,38 C48,39.1045695 47.1045695,40 46,40 L22,40 C20.8954305,40 20,39.1045695 20,38 L20,22 C20,20.8954305 20.8954305,20 22,20 Z M44,16 L52,16 L52,24 M43.2222222,24.7777778 L52,16" id="border" stroke="#007AFF" stroke-width="2" stroke-linecap="round" stroke-linejoin="round" fill-rule="nonzero"></path>
    </g>
</svg>