<svg width="64px" height="64px" viewBox="0 0 64 64">
  <g id="new-window" fill="none" fill-rule="evenodd" stroke="none" stroke-width="1">
    <path id="fill" fill="#007AFF" fill-opacity="0.184058129" fill-rule="nonzero" d="M44,18 L24,18 C22.8954305,18 22,18.8954305 22,20 L22,40 C22,41.1045695 22.8954305,42 24,42 L44,42 C45.1045695,42 46,41.1045695 46,40 L46,20 C46,18.8954305 45.1045695,18 44,18 Z"/>
    <path id="border" fill-rule="nonzero" stroke="#007AFF" stroke-linecap="round" stroke-linejoin="round" stroke-width="2" d="M40,42 L40,46 C40,47.1045695 39.1045695,48 38,48 L18,48 C16.8954305,48 16,47.1045695 16,46 L16,26 C16,24.8954305 16.8954305,24 18,24 L21.5714286,24 M24,18 L44,18 C45.1045695,18 46,18.8954305 46,20 L46,40 C46,41.1045695 45.1045695,42 44,42 L24,42 C22.8954305,42 22,41.1045695 22,40 L22,20 C22,18.8954305 22.8954305,18 24,18 Z M42,12 L52,12 L52,22 M40,24 L52,12"/>
  </g>
</svg>
