<?xml version="1.0" encoding="UTF-8"?>
<svg width="64px" height="64px" viewBox="0 0 64 64" version="1.1" xmlns="http://www.w3.org/2000/svg" xmlns:xlink="http://www.w3.org/1999/xlink">
    <!-- Generator: Sketch Beta 57 (82921) - https://sketch.com -->
    <title>news</title>
    <desc>Created with Sketch Beta.</desc>
    <g id="news" stroke="none" stroke-width="1" fill="none" fill-rule="evenodd">
        <path d="M41,16 C42.1045695,16 43,16.8954305 43,18 L43,20 L50,20 C51.1045695,20 52,20.8954305 52,22 L52,42 C52,43.1045695 51.1045695,44 50,44 L14,44 C12.8954305,44 12,43.1045695 12,42 L12,18 C12,16.8954305 12.8954305,16 14,16 L41,16 Z M24,26 C20.6862915,26 18,28.6862915 18,32 C18,35.3137085 20.6862915,38 24,38 C27.3137085,38 30,35.3137085 30,32 C30,28.6862915 27.3137085,26 24,26 Z" id="fill" fill-opacity="0.184058129" fill="#007AFF" fill-rule="nonzero"></path>
        <path d="M14,16 L41,16 C42.1045695,16 43,16.8954305 43,18 L43,20 L43,20 L50,20 C51.1045695,20 52,20.8954305 52,22 L52,42 C52,43.1045695 51.1045695,44 50,44 L14,44 C12.8954305,44 12,43.1045695 12,42 L12,18 C12,16.8954305 12.8954305,16 14,16 Z M24,26 C27.3137085,26 30,28.6862915 30,32 C30,35.3137085 27.3137085,38 24,38 C20.6862915,38 18,35.3137085 18,32 C18,28.6862915 20.6862915,26 24,26 Z M20,20 L43,20 M34,28 L46,28 M34,32 L42,32 M34,36 L42,36" id="border" stroke="#007AFF" stroke-width="2" stroke-linecap="round" stroke-linejoin="round" fill-rule="nonzero"></path>
    </g>
</svg>