<svg width="64px" height="64px" viewBox="0 0 64 64">
  <g id="news" fill="none" fill-rule="evenodd" stroke="none" stroke-width="1">
    <path id="fill" fill="#007AFF" fill-opacity="0.184058129" fill-rule="nonzero" d="M41,16 C42.1045695,16 43,16.8954305 43,18 L43,20 L49,20 C50.1045695,20 51,20.8954305 51,22 L51,42 C51,43.1045695 50.1045695,44 49,44 L15,44 C13.8954305,44 13,43.1045695 13,42 L13,18 C13,16.8954305 13.8954305,16 15,16 L41,16 Z M24,26 C20.6862915,26 18,28.6862915 18,32 C18,35.3137085 20.6862915,38 24,38 C27.3137085,38 30,35.3137085 30,32 C30,28.6862915 27.3137085,26 24,26 Z"/>
    <path id="border" fill-rule="nonzero" stroke="#007AFF" stroke-linecap="round" stroke-linejoin="round" stroke-width="2" d="M15,16 L41,16 C42.1045695,16 43,16.8954305 43,18 L43,20 L43,20 L49,20 C50.1045695,20 51,20.8954305 51,22 L51,42 C51,43.1045695 50.1045695,44 49,44 L15,44 C13.8954305,44 13,43.1045695 13,42 L13,18 C13,16.8954305 13.8954305,16 15,16 Z M24,26 C27.3137085,26 30,28.6862915 30,32 C30,35.3137085 27.3137085,38 24,38 C20.6862915,38 18,35.3137085 18,32 C18,28.6862915 20.6862915,26 24,26 Z M20,20 L43,20 M34,28 L46,28 M34,32 L42,32 M34,36 L42,36"/>
  </g>
</svg>
