<?xml version="1.0" encoding="UTF-8"?>
<svg width="64px" height="64px" viewBox="0 0 64 64" version="1.1" xmlns="http://www.w3.org/2000/svg" xmlns:xlink="http://www.w3.org/1999/xlink">
    <!-- Generator: Sketch 54.1 (76490) - https://sketchapp.com -->
    <title>icons/organization Copy 1</title>
    <desc>Created with Sketch.</desc>
    <g id="icons/organization-Copy-1" stroke="none" stroke-width="1" fill="none" fill-rule="evenodd">
        <path d="M21,16 L39.1764706,16 C39.7287553,16 40.1764706,16.4477153 40.1764706,17 L40.1764706,19.9473684 L48,19.9473684 L48,48 L20,48 L20,17 C20,16.4477153 20.4477153,16 21,16 Z" id="fill" fill-opacity="0.184058129" fill="#007AFF" fill-rule="nonzero"></path>
        <path d="M21,16 L39,16 C39.5522847,16 40,16.4477153 40,17 L40,48 L20,48 L20,17 C20,16.4477153 20.4477153,16 21,16 Z M25,27 L25,29 L25,27 Z M25,20 L25,22 L25,20 Z M25,34 L25,36 L25,34 Z M25,41 L25,43 L25,41 Z M30,27 L30,29 L30,27 Z M30,20 L30,22 L30,20 Z M30,34 L30,36 L30,34 Z M30,41 L30,43 L30,41 Z M35,27 L35,29 L35,27 Z M44,27.1538462 L44,29 L44,27.1538462 Z M35,20 L35,22 L35,20 Z M35,34 L35,36 L35,34 Z M44,34 L44,35.8461538 L44,34 Z M35,41 L35,43 L35,41 Z M44,41 L44,42.8461538 L44,41 Z M44,20 L46.2857143,20 C47.2324881,20 48,20.8058875 48,21.8 L48,48 L44,48" id="border" stroke="#007AFF" stroke-width="2" stroke-linecap="round" stroke-linejoin="round" fill-rule="nonzero"></path>
    </g>
</svg>