<svg width="64px" height="64px" viewBox="0 0 64 64">
  <g id="organization-b" fill="none" fill-rule="evenodd" stroke="none" stroke-width="1">
    <path id="fill" fill="#007AFF" fill-opacity="0.184058129" fill-rule="nonzero" d="M21,16 L39.1764706,16 C39.7287553,16 40.1764706,16.4477153 40.1764706,17 L40.1764706,19.9473684 L40.1764706,19.9473684 L48,19.9473684 L48,48 L20,48 L20,17 C20,16.4477153 20.4477153,16 21,16 Z"/>
    <path id="border" fill-rule="nonzero" stroke="#007AFF" stroke-linecap="round" stroke-linejoin="round" stroke-width="2" d="M21,16 L39,16 C39.5522847,16 40,16.4477153 40,17 L40,48 L40,48 L20,48 L20,17 C20,16.4477153 20.4477153,16 21,16 Z M25,27 L25,29 M25,20 L25,22 M25,34 L25,36 M25,41 L25,43 M30,27 L30,29 M30,20 L30,22 M30,34 L30,36 M30,41 L30,43 M35,27 L35,29 M44,27.1538462 L44,29 M35,20 L35,22 M35,34 L35,36 M44,34 L44,35.8461538 M35,41 L35,43 M44,41 L44,42.8461538 M40,20 L46.2857143,20 C47.2324881,20 48,20.8058875 48,21.8 L48,48 L40,48"/>
  </g>
</svg>
