<svg width="64px" height="64px" viewBox="0 0 64 64">
  <g id="organization" fill="none" fill-rule="evenodd" stroke="none" stroke-width="1">
    <path id="fill" fill="#007AFF" fill-opacity="0.184058129" fill-rule="nonzero" d="M32,27 C28.1127332,27 24,25.962406 24,25.2857143 C24,21.9022556 29.7142857,20.8195489 29.7142857,20.1428571 C29.7142857,18.7894737 28,17.8571429 28,14.4285714 C28,12.1428571 29.3321613,11 31.9964839,11 C34.6654946,11 36,12.1428571 36,14.4285714 C36,17.8571429 34.2857143,18.7894737 34.2857143,20.1428571 C34.2857143,20.8195489 40,21.9022556 40,25.2857143 C40,25.962406 35.8872668,27 32,27 Z M19,50 C15.1127332,50 11,48.962406 11,48.2857143 C11,44.9022556 16.7142857,43.8195489 16.7142857,43.1428571 C16.7142857,41.7894737 15,40.8571429 15,37.4285714 C15,35.1428571 16.3321613,34 18.9964839,34 C21.6654946,34 23,35.1428571 23,37.4285714 C23,40.8571429 21.2857143,41.7894737 21.2857143,43.1428571 C21.2857143,43.8195489 27,44.9022556 27,48.2857143 C27,48.962406 22.8872668,50 19,50 Z M44.9964839,34 C47.6654946,34 49,35.1428571 49,37.4285714 C49,40.8571429 47.2857143,41.7894737 47.2857143,43.1428571 C47.2857143,43.8195489 53,44.9022556 53,48.2857143 C53,48.962406 48.8872668,50 45,50 C41.1127332,50 37,48.962406 37,48.2857143 C37,44.9022556 42.7142857,43.8195489 42.7142857,43.1428571 C42.7142857,41.7894737 41,40.8571429 41,37.4285714 C41,35.1428571 42.3321613,34 44.9964839,34 Z M32,31 L32.1166211,31.0067277 C32.575703,31.0600494 32.9399506,31.424297 32.9932723,31.8833789 L33,32 L33,34.4648162 L35.5547002,36.1679497 C36.0142289,36.4743022 36.1384028,37.0951715 35.8320503,37.5547002 C35.5475802,37.9814054 34.9919194,38.1189526 34.5460663,37.8911422 L34.4452998,37.8320503 L31.9998937,36.202 L29.5547002,37.8320503 C29.127995,38.1165204 28.5621746,38.0297714 28.2382373,37.648003 L28.1679497,37.5547002 C27.8834796,37.127995 27.9702286,36.5621746 28.351997,36.2382373 L28.4452998,36.1679497 L31,34.4648162 L31,32 C31,31.4477153 31.4477153,31 32,31 Z"/>
    <path id="border" fill-rule="nonzero" stroke="#007AFF" stroke-linecap="round" stroke-linejoin="round" stroke-width="2" d="M32,27 C28.1127332,27 24,25.962406 24,25.2857143 C24,21.9022556 29.7142857,20.8195489 29.7142857,20.1428571 C29.7142857,18.7894737 28,17.8571429 28,14.4285714 C28,12.1428571 29.3321613,11 31.9964839,11 C34.6654946,11 36,12.1428571 36,14.4285714 C36,17.8571429 34.2857143,18.7894737 34.2857143,20.1428571 C34.2857143,20.8195489 40,21.9022556 40,25.2857143 C40,25.962406 35.8872668,27 32,27 Z M19,50 C15.1127332,50 11,48.962406 11,48.2857143 C11,44.9022556 16.7142857,43.8195489 16.7142857,43.1428571 C16.7142857,41.7894737 15,40.8571429 15,37.4285714 C15,35.1428571 16.3321613,34 18.9964839,34 C21.6654946,34 23,35.1428571 23,37.4285714 C23,40.8571429 21.2857143,41.7894737 21.2857143,43.1428571 C21.2857143,43.8195489 27,44.9022556 27,48.2857143 C27,48.962406 22.8872668,50 19,50 Z M45,50 C41.1127332,50 37,48.962406 37,48.2857143 C37,44.9022556 42.7142857,43.8195489 42.7142857,43.1428571 C42.7142857,41.7894737 41,40.8571429 41,37.4285714 C41,35.1428571 42.3321613,34 44.9964839,34 C47.6654946,34 49,35.1428571 49,37.4285714 C49,40.8571429 47.2857143,41.7894737 47.2857143,43.1428571 C47.2857143,43.8195489 53,44.9022556 53,48.2857143 C53,48.962406 48.8872668,50 45,50 Z M32,32 L32,35 L35,37 M32,32 L32,35 L29,37"/>
  </g>
</svg>
