<?xml version="1.0" encoding="UTF-8"?>
<svg width="64px" height="64px" viewBox="0 0 64 64" version="1.1" xmlns="http://www.w3.org/2000/svg" xmlns:xlink="http://www.w3.org/1999/xlink">
    <!-- Generator: Sketch 54.1 (76490) - https://sketchapp.com -->
    <title>icons/organization</title>
    <desc>Created with Sketch.</desc>
    <g id="icons/organization" stroke="none" stroke-width="1" fill="none" fill-rule="evenodd">
        <path d="M28,48 C36.836556,48 44,40.836556 44,32 C44,23.163444 36.836556,16 28,16 C19.163444,16 12,23.163444 12,32 C12,40.836556 19.163444,48 28,48 Z M36,48 C44.836556,48 52,40.836556 52,32 C52,23.163444 44.836556,16 36,16 C27.163444,16 20,23.163444 20,32 C20,40.836556 27.163444,48 36,48 Z" id="fill" fill-opacity="0.184058129" fill="#007AFF" fill-rule="nonzero"></path>
        <path d="M28,48 C36.836556,48 44,40.836556 44,32 C44,23.163444 36.836556,16 28,16 C19.163444,16 12,23.163444 12,32 C12,40.836556 19.163444,48 28,48 Z M36,48 C44.836556,48 52,40.836556 52,32 C52,23.163444 44.836556,16 36,16 C27.163444,16 20,23.163444 20,32 C20,40.836556 27.163444,48 36,48 Z" id="border" stroke="#007AFF" stroke-width="2" stroke-linecap="round" stroke-linejoin="round" fill-rule="nonzero"></path>
    </g>
</svg>