<svg width="64px" height="64px" viewBox="0 0 64 64">
  <g id="pathway-process" fill="none" fill-rule="evenodd" stroke="none" stroke-width="1">
    <path id="fill" fill="#007AFF" fill-opacity="0.184058129" fill-rule="nonzero" d="M39,11 L56,32 L39,53 L39,48 L13,48 L13,16 L39,16 L39,11 Z M29.0682999,22.5836374 C29.0429838,22.594087 29.0177077,22.6033149 28.9924722,22.6112034 C28.3640767,22.8076364 27.7608101,23.064283 27.1902424,23.3748541 C26.6151997,23.687861 26.0733708,24.0556415 25.5725055,24.4717572 C25.4614364,24.5640327 25.3523817,24.6586851 25.2454259,24.7556441 L25.2454259,24.7556441 L26.441684,26.8284406 C25.6897589,27.6849062 25.1209433,28.7159217 24.7990372,29.8556132 L24.7990372,29.8556132 L22.2495183,29.8552215 C22.1499963,30.2899999 22.078971,30.7365538 22.0386295,31.1930651 C21.9804314,31.8517314 21.9887739,32.5009659 22.058146,33.1342615 C22.0997896,33.5144255 22.1634255,33.8888458 22.2478606,34.2561148 L22.2478606,34.2561148 L24.8154012,34.2565875 C25.1428348,35.3832765 25.7120816,36.4019867 26.4609032,37.2484567 L26.4609032,37.2484567 L25.2443837,39.3559025 C25.4050026,39.5018283 25.5705502,39.6426929 25.7407867,39.7782131 C26.2482169,40.1821631 26.7973068,40.53863 27.3817043,40.8401183 C27.9175753,41.116572 28.4831337,41.3467987 29.073482,41.5250194 L29.073482,41.5250194 L30.2131976,39.5501893 C30.7858354,39.6946934 31.3842594,39.7713101 32.0000148,39.7713101 C32.6154124,39.7713101 33.2134986,39.6947824 33.7858337,39.5504411 L33.7858337,39.5504411 L34.9269603,41.5255159 C34.953875,41.5173509 34.9807444,41.5090757 35.0075681,41.5006907 C35.6359635,41.3042577 36.2392302,41.0476111 36.8097979,40.73704 C37.3848406,40.4240331 37.9266695,40.0562526 38.4275348,39.6401369 C38.5389553,39.5475694 38.6483488,39.4526099 38.7556297,39.3553294 L38.7556297,39.3553294 L37.5391263,37.2484567 C38.287948,36.4019867 38.8571947,35.3832765 39.1846283,34.2565875 L39.1846283,34.2565875 L41.750522,34.2566727 C41.850044,33.8218942 41.9210693,33.3753403 41.9614108,32.918829 C42.0196089,32.2601627 42.0112664,31.6109282 41.9418943,30.9776326 C41.9002539,30.5974984 41.8366247,30.2231069 41.7521995,29.8558656 L41.7521995,29.8558656 L39.2012722,29.8566043 C38.879416,28.7165195 38.3104885,27.6851545 37.5583455,26.8284406 L37.5583455,26.8284406 L38.7556566,24.7559916 C38.5950377,24.6100658 38.4294901,24.4692012 38.2592536,24.333681 C37.7518234,23.929731 37.2027335,23.5732642 36.618336,23.2717758 C36.082465,22.9953221 35.5169066,22.7650954 34.9265583,22.5868747 L34.9265583,22.5868747 L33.8147612,24.5120068 C33.2336617,24.3629091 32.6257882,24.283779 32.0000148,24.283779 C31.3735257,24.283779 30.7649776,24.3630901 30.1832749,24.5125185 L30.1832749,24.5125185 Z"/>
    <path id="border" fill-rule="nonzero" stroke="#007AFF" stroke-linecap="round" stroke-linejoin="round" stroke-width="2" d="M39,11 L56,32 L39,53 L39,48 L13,48 L13,16 L39,16 L39,11 Z M29.0682999,22.5836374 C29.0429838,22.594087 29.0177077,22.6033149 28.9924722,22.6112034 C28.3640767,22.8076364 27.7608101,23.064283 27.1902424,23.3748541 C26.6151997,23.687861 26.0733708,24.0556415 25.5725055,24.4717572 C25.4614364,24.5640327 25.3523817,24.6586851 25.2454259,24.7556441 L25.2454259,24.7556441 L26.441684,26.8284406 C25.6897589,27.6849062 25.1209433,28.7159217 24.7990372,29.8556132 L24.7990372,29.8556132 L22.2495183,29.8552215 C22.1499963,30.2899999 22.078971,30.7365538 22.0386295,31.1930651 C21.9804314,31.8517314 21.9887739,32.5009659 22.058146,33.1342615 C22.0997896,33.5144255 22.1634255,33.8888458 22.2478606,34.2561148 L22.2478606,34.2561148 L24.8154012,34.2565875 C25.1428348,35.3832765 25.7120816,36.4019867 26.4609032,37.2484567 L26.4609032,37.2484567 L25.2443837,39.3559025 C25.4050026,39.5018283 25.5705502,39.6426929 25.7407867,39.7782131 C26.2482169,40.1821631 26.7973068,40.53863 27.3817043,40.8401183 C27.9175753,41.116572 28.4831337,41.3467987 29.073482,41.5250194 L29.073482,41.5250194 L30.2131976,39.5501893 C30.7858354,39.6946934 31.3842594,39.7713101 32.0000148,39.7713101 C32.6154124,39.7713101 33.2134986,39.6947824 33.7858337,39.5504411 L33.7858337,39.5504411 L34.9269603,41.5255159 C34.953875,41.5173509 34.9807444,41.5090757 35.0075681,41.5006907 C35.6359635,41.3042577 36.2392302,41.0476111 36.8097979,40.73704 C37.3848406,40.4240331 37.9266695,40.0562526 38.4275348,39.6401369 C38.5389553,39.5475694 38.6483488,39.4526099 38.7556297,39.3553294 L38.7556297,39.3553294 L37.5391263,37.2484567 C38.287948,36.4019867 38.8571947,35.3832765 39.1846283,34.2565875 L39.1846283,34.2565875 L41.750522,34.2566727 C41.850044,33.8218942 41.9210693,33.3753403 41.9614108,32.918829 C42.0196089,32.2601627 42.0112664,31.6109282 41.9418943,30.9776326 C41.9002539,30.5974984 41.8366247,30.2231069 41.7521995,29.8558656 L41.7521995,29.8558656 L39.2012722,29.8566043 C38.879416,28.7165195 38.3104885,27.6851545 37.5583455,26.8284406 L37.5583455,26.8284406 L38.7556566,24.7559916 C38.5950377,24.6100658 38.4294901,24.4692012 38.2592536,24.333681 C37.7518234,23.929731 37.2027335,23.5732642 36.618336,23.2717758 C36.082465,22.9953221 35.5169066,22.7650954 34.9265583,22.5868747 L34.9265583,22.5868747 L33.8147612,24.5120068 C33.2336617,24.3629091 32.6257882,24.283779 32.0000148,24.283779 C31.3735257,24.283779 30.7649776,24.3630901 30.1832749,24.5125185 L30.1832749,24.5125185 Z"/>
  </g>
</svg>
