<?xml version="1.0" encoding="UTF-8"?>
<svg width="64px" height="64px" viewBox="0 0 64 64" version="1.1" xmlns="http://www.w3.org/2000/svg" xmlns:xlink="http://www.w3.org/1999/xlink">
    <!-- Generator: Sketch 54.1 (76490) - https://sketchapp.com -->
    <title>icons/pause</title>
    <desc>Created with Sketch.</desc>
    <g id="icons/pause" stroke="none" stroke-width="1" fill="none" fill-rule="evenodd">
        <path d="M18,16 L26,16 C27.1045695,16 28,16.8954305 28,18 L28,46 C28,47.1045695 27.1045695,48 26,48 L18,48 C16.8954305,48 16,47.1045695 16,46 L16,18 C16,16.8954305 16.8954305,16 18,16 Z M38,16 L46,16 C47.1045695,16 48,16.8954305 48,18 L48,46 C48,47.1045695 47.1045695,48 46,48 L38,48 C36.8954305,48 36,47.1045695 36,46 L36,18 C36,16.8954305 36.8954305,16 38,16 Z" id="fill" fill-opacity="0.184058129" fill="#007AFF" fill-rule="nonzero"></path>
        <path d="M18,16 L26,16 C27.1045695,16 28,16.8954305 28,18 L28,46 C28,47.1045695 27.1045695,48 26,48 L18,48 C16.8954305,48 16,47.1045695 16,46 L16,18 C16,16.8954305 16.8954305,16 18,16 Z M38,16 L46,16 C47.1045695,16 48,16.8954305 48,18 L48,46 C48,47.1045695 47.1045695,48 46,48 L38,48 C36.8954305,48 36,47.1045695 36,46 L36,18 C36,16.8954305 36.8954305,16 38,16 Z" id="border" stroke="#007AFF" stroke-width="2" stroke-linecap="round" stroke-linejoin="round" fill-rule="nonzero"></path>
    </g>
</svg>