<svg width="64px" height="64px" viewBox="0 0 64 64">
  <g id="pause" fill="none" fill-rule="evenodd" stroke="none" stroke-width="1">
    <path id="fill" fill="#007AFF" fill-opacity="0.184058129" fill-rule="nonzero" d="M26,16 C27.1045695,16 28,16.8954305 28,18 L28,46 C28,47.1045695 27.1045695,48 26,48 L18,48 C16.8954305,48 16,47.1045695 16,46 L16,18 C16,16.8954305 16.8954305,16 18,16 L26,16 Z M46,16 C47.1045695,16 48,16.8954305 48,18 L48,46 C48,47.1045695 47.1045695,48 46,48 L38,48 C36.8954305,48 36,47.1045695 36,46 L36,18 C36,16.8954305 36.8954305,16 38,16 L46,16 Z"/>
    <path id="border" fill-rule="nonzero" stroke="#007AFF" stroke-linecap="round" stroke-linejoin="round" stroke-width="2" d="M26,16 C27.1045695,16 28,16.8954305 28,18 L28,46 C28,47.1045695 27.1045695,48 26,48 L18,48 C16.8954305,48 16,47.1045695 16,46 L16,18 C16,16.8954305 16.8954305,16 18,16 L26,16 Z M46,16 C47.1045695,16 48,16.8954305 48,18 L48,46 C48,47.1045695 47.1045695,48 46,48 L38,48 C36.8954305,48 36,47.1045695 36,46 L36,18 C36,16.8954305 36.8954305,16 38,16 L46,16 Z"/>
  </g>
</svg>
