<svg width="64px" height="64px" viewBox="0 0 64 64">
  <g id="phone" fill="none" fill-rule="evenodd" stroke="none" stroke-width="1">
    <path id="fill" fill="#007AFF" fill-opacity="0.184058129" fill-rule="nonzero" d="M18.6149941,18.1865211 L20.8327381,15.9687771 C21.6137867,15.1877285 22.8801167,15.1877285 23.6611652,15.9687771 L29.185437,21.4930488 C29.9664855,22.2740974 29.9664855,23.5404273 29.185437,24.3214759 L26.7427044,26.7642084 C29.6334632,32.0957133 31.9655163,34.5017285 37.2386896,37.4820796 L37.7357916,37.7572956 L40.1785241,35.314563 C40.9595727,34.5335145 42.2259026,34.5335145 43.0069512,35.314563 L48.5312229,40.8388348 C49.3122715,41.6198833 49.3122715,42.8862133 48.5312229,43.6672619 L46.3134789,45.8850059 C44.2360808,47.962404 39.9396987,49.1755598 37.6120558,47.3830072 L33.2926636,44.0565788 C27.7234765,39.7676645 24.7323355,36.7765235 20.4434212,31.2073364 L17.1169928,26.8879442 C15.3244402,24.5603013 16.537596,20.2639192 18.6149941,18.1865211 Z"/>
    <path id="border" fill-rule="nonzero" stroke="#007AFF" stroke-linecap="round" stroke-linejoin="round" stroke-width="2" d="M18.6149941,18.1865211 L20.8327381,15.9687771 C21.6137867,15.1877285 22.8801167,15.1877285 23.6611652,15.9687771 L29.185437,21.4930488 C29.9664855,22.2740974 29.9664855,23.5404273 29.185437,24.3214759 L26.7427044,26.7642084 C29.6334632,32.0957133 31.9655163,34.5017285 37.2386896,37.4820796 L37.7357916,37.7572956 L40.1785241,35.314563 C40.9595727,34.5335145 42.2259026,34.5335145 43.0069512,35.314563 L48.5312229,40.8388348 C49.3122715,41.6198833 49.3122715,42.8862133 48.5312229,43.6672619 L46.3134789,45.8850059 C44.2360808,47.962404 39.9396987,49.1755598 37.6120558,47.3830072 L33.2926636,44.0565788 C27.7234765,39.7676645 24.7323355,36.7765235 20.4434212,31.2073364 L17.1169928,26.8879442 C15.3244402,24.5603013 16.537596,20.2639192 18.6149941,18.1865211 Z"/>
  </g>
</svg>
