<svg width="64px" height="64px" viewBox="0 0 64 64">
  <g id="place" fill="none" fill-rule="evenodd" stroke="none" stroke-width="1">
    <path id="fill" fill="#007AFF" fill-opacity="0.184058129" fill-rule="nonzero" d="M32,12 C39.7319865,12 46,18.2290817 46,25.9130435 C46,31.0356846 41.3333333,39.7313368 32,52 C22.6666667,39.7313368 18,31.0356846 18,25.9130435 C18,18.2290817 24.2680135,12 32,12 Z M32,20 C28.6862915,20 26,22.6862915 26,26 C26,29.3137085 28.6862915,32 32,32 C35.3137085,32 38,29.3137085 38,26 C38,22.6862915 35.3137085,20 32,20 Z"/>
    <path id="border" fill-rule="nonzero" stroke="#007AFF" stroke-linecap="round" stroke-linejoin="round" stroke-width="2" d="M32,12 C39.7319865,12 46,18.2290817 46,25.9130435 C46,31.0356846 41.3333333,39.7313368 32,52 C22.6666667,39.7313368 18,31.0356846 18,25.9130435 C18,18.2290817 24.2680135,12 32,12 Z M32,20 C28.6862915,20 26,22.6862915 26,26 C26,29.3137085 28.6862915,32 32,32 C35.3137085,32 38,29.3137085 38,26 C38,22.6862915 35.3137085,20 32,20 Z"/>
  </g>
</svg>
