<?xml version="1.0" encoding="UTF-8"?>
<svg width="64px" height="64px" viewBox="0 0 64 64" version="1.1" xmlns="http://www.w3.org/2000/svg" xmlns:xlink="http://www.w3.org/1999/xlink">
    <!-- Generator: Sketch Beta 57 (82921) - https://sketch.com -->
    <title>play</title>
    <desc>Created with Sketch Beta.</desc>
    <g id="play" stroke="none" stroke-width="1" fill="none" fill-rule="evenodd">
        <path d="M23.0115968,16.1757072 L47.0574522,30.2745084 C48.010311,30.8331979 48.3298483,32.0585499 47.7711588,33.0114087 C47.5981871,33.3064163 47.3524598,33.5521435 47.0574522,33.7251153 L23.0115968,47.8239165 C22.058738,48.382606 20.833386,48.0630687 20.2746966,47.1102099 C20.0948224,46.8034301 20,46.4542373 20,46.0986131 L20,17.9010106 C20,16.7964411 20.8954305,15.9010106 22,15.9010106 C22.3556242,15.9010106 22.704817,15.9958331 23.0115968,16.1757072 Z" id="fill" fill-opacity="0.184058129" fill="#007AFF" fill-rule="nonzero"></path>
        <path d="M23.0115968,16.1757072 L47.0574522,30.2745084 C48.010311,30.8331979 48.3298483,32.0585499 47.7711588,33.0114087 C47.5981871,33.3064163 47.3524598,33.5521435 47.0574522,33.7251153 L23.0115968,47.8239165 C22.058738,48.382606 20.833386,48.0630687 20.2746966,47.1102099 C20.0948224,46.8034301 20,46.4542373 20,46.0986131 L20,17.9010106 C20,16.7964411 20.8954305,15.9010106 22,15.9010106 C22.3556242,15.9010106 22.704817,15.9958331 23.0115968,16.1757072 Z" id="border" stroke="#007AFF" stroke-width="2" stroke-linecap="round" stroke-linejoin="round" fill-rule="nonzero"></path>
    </g>
</svg>