<svg width="64px" height="64px" viewBox="0 0 64 64">
  <g id="play" fill="none" fill-rule="evenodd" stroke="none" stroke-width="1">
    <path id="fill" fill="#007AFF" fill-opacity="0.184058129" fill-rule="nonzero" d="M23.0115968,16.1757072 L47.0574522,30.2745084 C48.010311,30.8331979 48.3298483,32.0585499 47.7711588,33.0114087 C47.5981871,33.3064163 47.3524598,33.5521435 47.0574522,33.7251153 L23.0115968,47.8239165 C22.058738,48.382606 20.833386,48.0630687 20.2746966,47.1102099 C20.0948224,46.8034301 20,46.4542373 20,46.0986131 L20,17.9010106 C20,16.7964411 20.8954305,15.9010106 22,15.9010106 C22.3556242,15.9010106 22.704817,15.9958331 23.0115968,16.1757072 Z"/>
    <path id="border" fill-rule="nonzero" stroke="#007AFF" stroke-linecap="round" stroke-linejoin="round" stroke-width="2" d="M23.0115968,16.1757072 L47.0574522,30.2745084 C48.010311,30.8331979 48.3298483,32.0585499 47.7711588,33.0114087 C47.5981871,33.3064163 47.3524598,33.5521435 47.0574522,33.7251153 L23.0115968,47.8239165 C22.058738,48.382606 20.833386,48.0630687 20.2746966,47.1102099 C20.0948224,46.8034301 20,46.4542373 20,46.0986131 L20,17.9010106 C20,16.7964411 20.8954305,15.9010106 22,15.9010106 C22.3556242,15.9010106 22.704817,15.9958331 23.0115968,16.1757072 Z"/>
  </g>
</svg>
