<svg width="64px" height="64px" viewBox="0 0 64 64">
  <g id="project-b" fill="none" fill-rule="evenodd" stroke="none" stroke-width="1">
    <path id="fill" fill="#007AFF" fill-opacity="0.184058129" fill-rule="nonzero" d="M46,12 C47.1045695,12 48,12.8954305 48,14 L48,50 C48,51.1045695 47.1045695,52 46,52 L18,52 C16.8954305,52 16,51.1045695 16,50 L16,14 C16,12.8954305 16.8954305,12 18,12 L46,12 Z M40,36 L24,36 L24,45 L40,45 L40,36 Z"/>
    <path id="border" fill-rule="nonzero" stroke="#007AFF" stroke-linecap="round" stroke-linejoin="round" stroke-width="2" d="M32,20 L42,20 M32,28 L42,28 M22,19.6 L24.25,22 L28,18 M22,27.6 L24.25,30 L28,26 M46,52 L18,52 C16.8954305,52 16,51.1045695 16,50 L16,14 C16,12.8954305 16.8954305,12 18,12 L46,12 C47.1045695,12 48,12.8954305 48,14 L48,50 C48,51.1045695 47.1045695,52 46,52 Z M24,36 L40,36 L40,44 L24,44 L24,36 Z"/>
  </g>
</svg>
