<svg width="64px" height="64px" viewBox="0 0 64 64">
  <g id="project" fill="none" fill-rule="evenodd" stroke="none" stroke-width="1">
    <path id="fill" fill="#007AFF" fill-opacity="0.184058129" fill-rule="nonzero" d="M37,41 L37,49 C37,50.1045695 36.1045695,51 35,51 L18,51 C16.8954305,51 16,50.1045695 16,49 L16,26 C16,24.8954305 16.8954305,24 18,24 L24,24 L24,24 M45,21.4 L45,39 C45,40.1045695 44.1045695,41 43,41 L26,41 C24.8954305,41 24,40.1045695 24,39 L24,15 C24,13.8954305 24.8954305,13 26,13 L36.6,13 L36.6,13 L45,21.4 L36.6,13"/>
    <path id="border" fill-rule="nonzero" stroke="#007AFF" stroke-linecap="round" stroke-linejoin="round" stroke-width="2" d="M37,41 L37,49 C37,50.1045695 36.1045695,51 35,51 L18,51 C16.8954305,51 16,50.1045695 16,49 L16,26 C16,24.8954305 16.8954305,24 18,24 L24,24 L24,24 M45,21.4 L45,39 C45,40.1045695 44.1045695,41 43,41 L26,41 C24.8954305,41 24,40.1045695 24,39 L24,15 C24,13.8954305 24.8954305,13 26,13 L36.6,13 L36.6,13 L36.6,19.4 C36.6,20.5045695 37.4954305,21.4 38.6,21.4 L45,21.4 L45,21.4 L36.6,13"/>
  </g>
</svg>
