<?xml version="1.0" encoding="UTF-8"?>
<svg width="64px" height="64px" viewBox="0 0 64 64" version="1.1" xmlns="http://www.w3.org/2000/svg" xmlns:xlink="http://www.w3.org/1999/xlink">
    <!-- Generator: Sketch 54.1 (76490) - https://sketchapp.com -->
    <title>icons/rename</title>
    <desc>Created with Sketch.</desc>
    <g id="icons/rename" stroke="none" stroke-width="1" fill="none" fill-rule="evenodd">
        <path d="M20,20 L44,20 C46.209139,20 48,21.790861 48,24 L48,36 C48,38.209139 46.209139,40 44,40 L20,40 C17.790861,40 16,38.209139 16,36 L16,24 C16,21.790861 17.790861,20 20,20 Z" id="fill" fill-opacity="0.184058129" fill="#007AFF" fill-rule="nonzero"></path>
        <path d="M34.5,16 L42.5,16 L34.5,16 Z M38.5,16 L38.5,44 L38.5,16 Z M42.5,44 L34.5,44 L42.5,44 Z M43,20 L44,20 C46.209139,20 48,21.790861 48,24 L48,36 C48,38.209139 46.209139,40 44,40 L43,40 M34,40 C30.8888889,40 26.2222222,40 20,40 C17.790861,40 16,38.209139 16,36 L16,24 C16,21.790861 17.790861,20 20,20 L34,20" id="border" stroke="#007AFF" stroke-width="2" stroke-linecap="round" stroke-linejoin="round" fill-rule="nonzero"></path>
    </g>
</svg>