<svg width="64px" height="64px" viewBox="0 0 64 64">
  <g id="rename" fill="none" fill-rule="evenodd" stroke="none" stroke-width="1">
    <path id="fill" fill="#007AFF" fill-opacity="0.184058129" fill-rule="nonzero" d="M16,20 L48,20 C49.6568542,20 51,21.3431458 51,23 L51,41 C51,42.6568542 49.6568542,44 48,44 L16,44 C14.3431458,44 13,42.6568542 13,41 L13,23 C13,21.3431458 14.3431458,20 16,20 Z"/>
    <path id="border" fill-rule="nonzero" stroke="#007AFF" stroke-linecap="round" stroke-linejoin="round" stroke-width="2" d="M16,20 L48,20 C49.6568542,20 51,21.3431458 51,23 L51,41 C51,42.6568542 49.6568542,44 48,44 L16,44 C14.3431458,44 13,42.6568542 13,41 L13,23 C13,21.3431458 14.3431458,20 16,20 Z M21,27 L21,37 L21,27 Z M19,26 L21,27 L23,26 M19,38 L21,37 L23,38"/>
  </g>
</svg>
