<svg width="64px" height="64px" viewBox="0 0 64 64">
  <g id="scroll" fill="none" fill-rule="evenodd" stroke="none" stroke-width="1">
    <path id="fill" fill="#007AFF" fill-opacity="0.184058129" fill-rule="nonzero" d="M37,24 L55,43 L29.5753476,49.8450987 C29.2208599,49.9405377 28.842578,49.8340687 28.5899104,49.5677434 L10.5,30.5 L10.5,30.5 C8.14833484,26.914692 9.1744562,24.4250156 10.0905412,23.0568921 C11.0066262,21.6887685 13.3266092,20.5985191 14.6981997,21.1341253 C16.0697902,21.6697314 17.8113929,23.3952547 18.1096755,25.3091587 C18.4079581,27.2230627 17.824281,28.7527167 16.5,29.5 C15.175719,30.2472833 13.5725426,29.146466 12.973017,28.0959017 M14,21 L35,16 C36.6000979,15.8417142 38.220983,16.5500366 39.1935366,17.8500108 C40.4605922,19.7160744 40.3517869,22.2231758 38.5,23.5 C38.0855307,23.7857804 37.4889526,23.8845055 37,24 L16.5,29.5"/>
    <path id="border" fill-rule="nonzero" stroke="#007AFF" stroke-linecap="round" stroke-linejoin="round" stroke-width="2" d="M37,24 L55,43 L29.5753476,49.8450987 C29.2208599,49.9405377 28.842578,49.8340687 28.5899104,49.5677434 L10.5,30.5 L10.5,30.5 C8.09607562,27.0342022 9.15409875,24.3794115 10.0905412,23.0568921 C11.0269837,21.7343726 13.2961294,20.6163727 14.6981997,21.1341253 C16.10027,21.6518779 17.8047644,23.4590515 18.1096755,25.3091587 C18.4145866,27.1592659 17.8537095,28.7776262 16.5,29.5 C15.1462905,30.2223738 13.5858654,29.1114472 12.973017,28.0959017 M14,21 L35,16 C36.6616402,15.8417142 38.1835771,16.5500366 39.1935366,17.8500108 C40.5093251,19.7160744 40.4230095,22.2231758 38.5,23.5 C38.0695896,23.7857804 37.5077585,23.8845055 37,24 L16.5,29.5 M31,41 L43,38 M25,35 L38,32"/>
  </g>
</svg>
