<?xml version="1.0" encoding="UTF-8"?>
<svg width="64px" height="64px" viewBox="0 0 64 64" version="1.1" xmlns="http://www.w3.org/2000/svg" xmlns:xlink="http://www.w3.org/1999/xlink">
    <!-- Generator: Sketch Beta 57 (82921) - https://sketch.com -->
    <title>shared-folder</title>
    <desc>Created with Sketch Beta.</desc>
    <g id="shared-folder" stroke="none" stroke-width="1" fill="none" fill-rule="evenodd">
        <path d="M12,18 C12,16.8954305 12.8954305,16 14,16 L26,16 L30,20 L50,20 C51.1045695,20 52,20.8954305 52,22 L52,42 C52,43.1045695 51.1045695,44 50,44 L14,44 C12.8954305,44 12,43.1045695 12,42 L12,18 Z" id="fill" fill-opacity="0.184058129" fill="#007AFF" fill-rule="nonzero"></path>
        <path d="M12,18 C12,16.8954305 12.8954305,16 14,16 L26,16 L30,20 L50,20 C51.1045695,20 52,20.8954305 52,22 L52,42 C52,43.1045695 51.1045695,44 50,44 L14,44 C12.8954305,44 12,43.1045695 12,42 L12,18 Z M22,44 C24.3650136,40.7209756 30.1155934,39.2407034 30.1155934,38.3945578 C30.1155934,36.2637845 27.5394349,34.7959184 27.5394349,29.3979592 C27.5394349,25.7993197 29.5413524,24 33.5451876,24 C37.5560678,24 39.561508,25.7993197 39.561508,29.3979592 C39.561508,34.7959184 36.9853494,36.2637845 36.9853494,38.3945578 C36.9853494,39.2387898 42.625122,40.7360986 45,44" id="border" stroke="#007AFF" stroke-width="2" stroke-linecap="round" stroke-linejoin="round" fill-rule="nonzero"></path>
    </g>
</svg>