<?xml version="1.0" encoding="UTF-8"?>
<svg width="64px" height="64px" viewBox="0 0 64 64" version="1.1" xmlns="http://www.w3.org/2000/svg" xmlns:xlink="http://www.w3.org/1999/xlink">
    <!-- Generator: Sketch 54.1 (76490) - https://sketchapp.com -->
    <title>icons/share-to-people</title>
    <desc>Created with Sketch.</desc>
    <g id="icons/share-to-people" stroke="none" stroke-width="1" fill="none" fill-rule="evenodd">
        <path d="M32,50 C23.2536498,50 14,47.6654135 14,46.1428571 C14,38.5300752 26.8571429,36.093985 26.8571429,34.5714286 C26.8571429,31.5263158 23,29.4285714 23,21.7142857 C23,16.5714286 25.9973629,14 31.9920887,14 C37.9973629,14 41,16.5714286 41,21.7142857 C41,29.4285714 37.1428571,31.5263158 37.1428571,34.5714286 C37.1428571,36.093985 50,38.5300752 50,46.1428571 C50,47.6654135 40.7463502,50 32,50 Z" id="fill" fill-opacity="0.184058129" fill="#007AFF" fill-rule="nonzero"></path>
        <path d="M38.9913525,49.5528506 C36.75145,49.8304156 34.3572999,50 32,50 C23.2536498,50 14,47.6654135 14,46.1428571 C14,38.5300752 26.8571429,36.093985 26.8571429,34.5714286 C26.8571429,31.5263158 23,29.4285714 23,21.7142857 C23,16.5714286 25.9973629,14 31.9920887,14 C37.9973629,14 41,16.5714286 41,21.7142857 C41,29.4285714 37.1428571,31.5263158 37.1428571,34.5714286 C37.1428571,34.9398081 37.8954997,35.3616649 39.0365839,35.8973796 M44,44 L44,34 L44,44 L34,44 L44,44 Z M44,44 L44,54 L44,44 L54,44 L44,44 Z" id="border" stroke="#007AFF" stroke-width="2" stroke-linecap="round" stroke-linejoin="round" fill-rule="nonzero"></path>
    </g>
</svg>