<svg width="64px" height="64px" viewBox="0 0 64 64">
  <g id="shared-folder" fill="none" fill-rule="evenodd" stroke="none" stroke-width="1">
    <path id="fill" fill="#007AFF" fill-opacity="0.184058129" fill-rule="nonzero" d="M13,18 C13,16.8954305 13.8954305,16 15,16 L28,16 L32,20 L49,20 C50.1045695,20 51,20.8954305 51,22 L51,42 C51,43.1045695 50.1045695,44 49,44 L15,44 C13.8954305,44 13,43.1045695 13,42 L13,18 Z"/>
    <path id="border" fill-rule="nonzero" stroke="#007AFF" stroke-linecap="round" stroke-linejoin="round" stroke-width="2" d="M13,18 C13,16.8954305 13.8954305,16 15,16 L28,16 L32,20 L49,20 C50.1045695,20 51,20.8954305 51,22 L51,42 C51,43.1045695 50.1045695,44 49,44 L15,44 C13.8954305,44 13,43.1045695 13,42 L13,18 Z M22,44 C24.3650136,40.7209756 30.1155934,39.2407034 30.1155934,38.3945578 C30.1155934,36.2637845 27.5394349,34.7959184 27.5394349,29.3979592 C27.5394349,25.7993197 29.5413524,24 33.5451876,24 C37.5560678,24 39.561508,25.7993197 39.561508,29.3979592 C39.561508,34.7959184 36.9853494,36.2637845 36.9853494,38.3945578 C36.9853494,39.2387898 42.625122,40.7360986 45,44"/>
  </g>
</svg>
