<svg width="64px" height="64px" viewBox="0 0 64 64">
  <g id="slideshow" fill="none" fill-rule="evenodd" stroke="none" stroke-width="1">
    <path id="fill" fill="#007AFF" fill-opacity="0.184058129" fill-rule="nonzero" d="M15,13 L49,13 C50.1045695,13 51,13.8954305 51,15 L51,49 C51,50.1045695 50.1045695,51 49,51 L15,51 C13.8954305,51 13,50.1045695 13,49 L13,15 C13,13.8954305 13.8954305,13 15,13 Z"/>
    <path id="border" fill-rule="nonzero" stroke="#007AFF" stroke-linecap="round" stroke-linejoin="round" stroke-width="2" d="M15,13 L49,13 C50.1045695,13 51,13.8954305 51,15 L51,49 C51,50.1045695 50.1045695,51 49,51 L15,51 C13.8954305,51 13,50.1045695 13,49 L13,15 C13,13.8954305 13.8954305,13 15,13 Z M40.5,32 L25.5,41.5 L25.5,22.5 L40.5,32 Z"/>
  </g>
</svg>
