<svg width="64px" height="64px" viewBox="0 0 64 64">
  <g id="social-mention" fill="none" fill-rule="evenodd" stroke="none" stroke-width="1">
    <path id="border" fill-rule="nonzero" stroke="#007AFF" stroke-linecap="round" stroke-linejoin="round" stroke-width="2" d="M36,13 C44.2842712,13 51,19.7157288 51,28 C51,36.2842712 44.2842712,43 36,43 L30.909,43 L20,49 L20.0006276,40.6912747 C15.7939423,38.0342094 13,33.3433848 13,28 C13,19.7157288 19.7157288,13 28,13 L36,13 Z M32,33 C34.209139,33 36,31.209139 36,29 C36,26.790861 34.209139,25 32,25 C29.790861,25 28,26.790861 28,29 C28,31.209139 29.790861,33 32,33 Z M36,25 L36,31.1944054 C36.0000144,32.1968252 36.8126362,33.009447 37.815056,33.009447 L37.9076486,33.0070837 L38,33 C39.4640855,32.8500362 41,31.8301915 41,29 C41,24.0294373 36.9705627,20 32,20 C27.0294373,20 23,24.0294373 23,29 C23,33.9705627 27.0294373,38 32,38"/>
  </g>
</svg>
