<?xml version="1.0" encoding="UTF-8"?>
<svg width="64px" height="64px" viewBox="0 0 64 64" version="1.1" xmlns="http://www.w3.org/2000/svg" xmlns:xlink="http://www.w3.org/1999/xlink">
    <!-- Generator: Sketch Beta 57 (82921) - https://sketch.com -->
    <title>sort-90</title>
    <desc>Created with Sketch Beta.</desc>
    <g id="sort-90" stroke="none" stroke-width="1" fill="none" fill-rule="evenodd" stroke-linecap="round" stroke-linejoin="round">
        <path d="M40,16 L40,48 L40,16 Z M48,24 L40,16 L32,24 M22.5,41.5 C24.4329966,41.5 26,39.9329966 26,38 C26,36.0670034 24.4329966,34.5 22.5,34.5 C20.5670034,34.5 19,36.0670034 19,38 C19,39.9329966 20.5670034,41.5 22.5,41.5 Z M25,40.5 L21,47 M22,28 C24.209139,28 26,25.7614237 26,23 C26,20.2385763 24.209139,18 22,18 C19.790861,18 18,20.2385763 18,23 C18,25.7614237 19.790861,28 22,28 Z" id="border" stroke="#007AFF" stroke-width="2" fill-rule="nonzero"></path>
    </g>
</svg>