<svg width="64px" height="64px" viewBox="0 0 64 64">
  <g id="spreadsheet" fill="none" fill-rule="evenodd" stroke="none" stroke-width="1">
    <path id="fill" fill="#007AFF" fill-opacity="0.184058129" fill-rule="nonzero" d="M15,13 L49,13 C50.1045695,13 51,13.8954305 51,15 L51,49 C51,50.1045695 50.1045695,51 49,51 L15,51 C13.8954305,51 13,50.1045695 13,49 L13,15 C13,13.8954305 13.8954305,13 15,13 Z"/>
    <path id="border" fill-rule="nonzero" stroke="#007AFF" stroke-linecap="round" stroke-linejoin="round" stroke-width="2" d="M15,13 L49,13 C50.1045695,13 51,13.8954305 51,15 L51,49 C51,50.1045695 50.1045695,51 49,51 L15,51 C13.8954305,51 13,50.1045695 13,49 L13,15 C13,13.8954305 13.8954305,13 15,13 Z M26.5,34 L51,34 M26.5,42 L51,42 M26.5,25 L26.5,51 M38.5,25 L38.5,51 M13,25 L51,25"/>
  </g>
</svg>
