<?xml version="1.0" encoding="UTF-8"?>
<svg width="64px" height="64px" viewBox="0 0 64 64" version="1.1" xmlns="http://www.w3.org/2000/svg" xmlns:xlink="http://www.w3.org/1999/xlink">
    <!-- Generator: Sketch 54.1 (76490) - https://sketchapp.com -->
    <title>icons/star</title>
    <desc>Created with Sketch.</desc>
    <g id="icons/star" stroke="none" stroke-width="1" fill="none" fill-rule="evenodd">
        <path d="M31.0317251,43.2265435 L23.9352281,47.1530709 C22.9687386,47.6878343 21.7517327,47.3378513 21.2169692,46.3713618 C20.9945,45.9692884 20.9172706,45.5028709 20.9982691,45.0505493 L22.4774136,36.7905285 C22.5943233,36.1376673 22.379975,35.4693135 21.9051675,35.0062224 L15.9307344,29.1792148 C15.1399906,28.4079833 15.1241726,27.1417522 15.895404,26.3510083 C16.2063614,26.0321835 16.614838,25.8262687 17.056086,25.7659035 L25.1516656,24.6583816 C25.8241364,24.5663838 26.4040562,24.1396096 26.6918665,23.5249179 L30.1887127,16.0565189 C30.6570938,15.0561725 31.8477327,14.6249295 32.8480791,15.0933107 C33.2719646,15.2917819 33.6128161,15.6326335 33.8112873,16.0565189 L37.3081335,23.5249179 C37.5959438,24.1396096 38.1758636,24.5663838 38.8483344,24.6583816 L46.943914,25.7659035 C48.0382899,25.9156204 48.8040873,26.9241569 48.6543704,28.0185328 C48.5940052,28.4597808 48.3880903,28.8682573 48.0692656,29.1792148 L42.0948325,35.0062224 C41.620025,35.4693135 41.4056767,36.1376673 41.5225864,36.7905285 L43.0017309,45.0505493 C43.1964321,46.1378235 42.4728587,47.1770699 41.3855845,47.3717711 C40.9332628,47.4527696 40.4668454,47.3755402 40.0647719,47.1530709 L32.9682749,43.2265435 C32.3657957,42.8931888 31.6342043,42.8931888 31.0317251,43.2265435 Z" id="fill" fill-opacity="0.184058129" fill="#007AFF" fill-rule="nonzero"></path>
        <path d="M31.0317251,43.2265435 L23.9352281,47.1530709 C22.9687386,47.6878343 21.7517327,47.3378513 21.2169692,46.3713618 C20.9945,45.9692884 20.9172706,45.5028709 20.9982691,45.0505493 L22.4774136,36.7905285 C22.5943233,36.1376673 22.379975,35.4693135 21.9051675,35.0062224 L15.9307344,29.1792148 C15.1399906,28.4079833 15.1241726,27.1417522 15.895404,26.3510083 C16.2063614,26.0321835 16.614838,25.8262687 17.056086,25.7659035 L25.1516656,24.6583816 C25.8241364,24.5663838 26.4040562,24.1396096 26.6918665,23.5249179 L30.1887127,16.0565189 C30.6570938,15.0561725 31.8477327,14.6249295 32.8480791,15.0933107 C33.2719646,15.2917819 33.6128161,15.6326335 33.8112873,16.0565189 L37.3081335,23.5249179 C37.5959438,24.1396096 38.1758636,24.5663838 38.8483344,24.6583816 L46.943914,25.7659035 C48.0382899,25.9156204 48.8040873,26.9241569 48.6543704,28.0185328 C48.5940052,28.4597808 48.3880903,28.8682573 48.0692656,29.1792148 L42.0948325,35.0062224 C41.620025,35.4693135 41.4056767,36.1376673 41.5225864,36.7905285 L43.0017309,45.0505493 C43.1964321,46.1378235 42.4728587,47.1770699 41.3855845,47.3717711 C40.9332628,47.4527696 40.4668454,47.3755402 40.0647719,47.1530709 L32.9682749,43.2265435 C32.3657957,42.8931888 31.6342043,42.8931888 31.0317251,43.2265435 Z" id="border" stroke="#007AFF" stroke-width="2" stroke-linecap="round" stroke-linejoin="round" fill-rule="nonzero"></path>
    </g>
</svg>