<?xml version="1.0" encoding="UTF-8"?>
<svg width="64px" height="64px" viewBox="0 0 64 64" version="1.1" xmlns="http://www.w3.org/2000/svg" xmlns:xlink="http://www.w3.org/1999/xlink">
    <!-- Generator: Sketch 54.1 (76490) - https://sketchapp.com -->
    <title>icons/step-backward</title>
    <desc>Created with Sketch.</desc>
    <g id="icons/step-backward" stroke="none" stroke-width="1" fill="none" fill-rule="evenodd">
        <path d="M19.0188085,18.3957153 L39.0926538,30.2787807 C40.0431661,30.8414532 40.3575724,32.0681317 39.7948999,33.0186439 C39.6235836,33.3080455 39.3820554,33.5495737 39.0926538,33.7208901 L19.0188085,45.6039555 C18.0682963,46.1666279 16.8416178,45.8522216 16.2789453,44.9017094 C16.0963421,44.5932411 16,44.2413651 16,43.8829008 L16,20.1167699 C16,19.0122004 16.8954305,18.1167699 18,18.1167699 C18.3584643,18.1167699 18.7103403,18.2131121 19.0188085,18.3957153 Z M45.5,16 L46.5,16 C47.3284271,16 48,16.6715729 48,17.5 L48,46.5 C48,47.3284271 47.3284271,48 46.5,48 L45.5,48 C44.6715729,48 44,47.3284271 44,46.5 L44,17.5 C44,16.6715729 44.6715729,16 45.5,16 Z" id="fill" fill-opacity="0.184058129" fill="#007AFF" fill-rule="nonzero" transform="translate(32.000000, 32.000000) scale(-1, 1) translate(-32.000000, -32.000000) "></path>
        <path d="M19.0188085,18.3957153 L39.0926538,30.2787807 C40.0431661,30.8414532 40.3575724,32.0681317 39.7948999,33.0186439 C39.6235836,33.3080455 39.3820554,33.5495737 39.0926538,33.7208901 L19.0188085,45.6039555 C18.0682963,46.1666279 16.8416178,45.8522216 16.2789453,44.9017094 C16.0963421,44.5932411 16,44.2413651 16,43.8829008 L16,20.1167699 C16,19.0122004 16.8954305,18.1167699 18,18.1167699 C18.3584643,18.1167699 18.7103403,18.2131121 19.0188085,18.3957153 Z M45.5,16 L46.5,16 C47.3284271,16 48,16.6715729 48,17.5 L48,46.5 C48,47.3284271 47.3284271,48 46.5,48 L45.5,48 C44.6715729,48 44,47.3284271 44,46.5 L44,17.5 C44,16.6715729 44.6715729,16 45.5,16 Z" id="border" stroke="#007AFF" stroke-width="2" stroke-linecap="round" stroke-linejoin="round" fill-rule="nonzero" transform="translate(32.000000, 32.000000) scale(-1, 1) translate(-32.000000, -32.000000) "></path>
    </g>
</svg>