<svg width="64px" height="64px" viewBox="0 0 64 64">
  <g id="tag" fill="none" fill-rule="evenodd" stroke="none" stroke-width="1">
    <path id="fill" fill="#007AFF" fill-opacity="0.184058129" fill-rule="nonzero" d="M47.3786797,20.5 C48.4832492,20.5 49.3786797,21.3954305 49.3786797,22.5 L49.3786797,39.5 C49.3786797,40.6045695 48.4832492,41.5 47.3786797,41.5 L20.6397695,41.5 C19.9998964,41.5 19.3986526,41.1938319 19.0222974,40.6763434 L11.6213203,30.5 L19.0208324,21.2506099 C19.4003768,20.7761794 19.9750026,20.5 20.58257,20.5 L47.3786797,20.5 Z M25.1213203,27.5 C23.1883237,27.5 21.6213203,29.0670034 21.6213203,31 C21.6213203,32.9329966 23.1883237,34.5 25.1213203,34.5 C27.054317,34.5 28.6213203,32.9329966 28.6213203,31 C28.6213203,29.0670034 27.054317,27.5 25.1213203,27.5 Z" transform="rotate(45 30.5 31)"/>
    <path id="border" fill-rule="nonzero" stroke="#007AFF" stroke-linecap="round" stroke-linejoin="round" stroke-width="2" d="M47.3786797,20.5 C48.4832492,20.5 49.3786797,21.3954305 49.3786797,22.5 L49.3786797,39.5 C49.3786797,40.6045695 48.4832492,41.5 47.3786797,41.5 L20.6397695,41.5 C19.9998964,41.5 19.3986526,41.1938319 19.0222974,40.6763434 L11.6213203,30.5 L19.0208324,21.2506099 C19.4003768,20.7761794 19.9750026,20.5 20.58257,20.5 L47.3786797,20.5 Z M25.1213203,27.5 C23.1883237,27.5 21.6213203,29.0670034 21.6213203,31 C21.6213203,32.9329966 23.1883237,34.5 25.1213203,34.5 C27.054317,34.5 28.6213203,32.9329966 28.6213203,31 C28.6213203,29.0670034 27.054317,27.5 25.1213203,27.5 Z" transform="rotate(45 30.5 31)"/>
  </g>
</svg>
