<svg width="64px" height="64px" viewBox="0 0 64 64">
  <g id="threads" fill="none" fill-rule="evenodd" stroke="none" stroke-width="1">
    <path id="fill" fill="#007AFF" fill-opacity="0.184058129" fill-rule="nonzero" d="M42,43 C43.1045695,43 44,43.8954305 44,45 L44,51 C44,52.1045695 43.1045695,53 42,53 L26,53 C24.8954305,53 24,52.1045695 24,51 L24,45 C24,43.8954305 24.8954305,43 26,43 L42,43 Z M39,27 C40.1045695,27 41,27.8954305 41,29 L41,35 C41,36.1045695 40.1045695,37 39,37 L23,37 C21.8954305,37 21,36.1045695 21,35 L21,29 C21,27.8954305 21.8954305,27 23,27 L39,27 Z M36,11 C37.1045695,11 38,11.8954305 38,13 L38,19 C38,20.1045695 37.1045695,21 36,21 L20,21 C18.8954305,21 18,20.1045695 18,19 L18,13 C18,11.8954305 18.8954305,11 20,11 L36,11 Z"/>
    <path id="border" fill-rule="nonzero" stroke="#007AFF" stroke-linecap="round" stroke-linejoin="round" stroke-width="2" d="M42,16 L13,16 L42,16 Z M45,32 L16,32 L45,32 Z M48,48 L19,48 L48,48 Z"/>
  </g>
</svg>
