<svg width="64px" height="64px" viewBox="0 0 64 64">
  <g id="time-digital" fill="none" fill-rule="evenodd" stroke="none" stroke-width="1">
    <path id="border" fill-rule="nonzero" stroke="#007AFF" stroke-linecap="round" stroke-linejoin="round" stroke-width="2" d="M12,23 C14.7614237,23 17,25.2385763 17,28 L17,37 C17,39.7614237 14.7614237,42 12,42 C9.23857625,42 7,39.7614237 7,37 L7,28 C7,25.2385763 9.23857625,23 12,23 Z M36,23 C38.7614237,23 41,25.2385763 41,28 L41,37 C41,39.7614237 38.7614237,42 36,42 C33.2385763,42 31,39.7614237 31,37 L31,28 C31,25.2385763 33.2385763,23 36,23 Z M52,23 C54.7614237,23 57,25.2385763 57,28 L57,37 C57,39.7614237 54.7614237,42 52,42 C49.2385763,42 47,39.7614237 47,37 L47,28 C47,25.2385763 49.2385763,23 52,23 Z M53,30 L51,35 M37,30 L35,35 M13,30 L11,35 M24,28 C24.5522847,28 25,28.4477153 25,29 C25,29.5522847 24.5522847,30 24,30 C23.4477153,30 23,29.5522847 23,29 C23,28.4477153 23.4477153,28 24,28 Z M24,35.2 C24.5522847,35.2 25,35.6477153 25,36.2 C25,36.7522847 24.5522847,37.2 24,37.2 C23.4477153,37.2 23,36.7522847 23,36.2 C23,35.6477153 23.4477153,35.2 24,35.2 Z"/>
  </g>
</svg>
