<svg width="64px" height="64px" viewBox="0 0 64 64">
  <g id="time-hourglass" fill="none" fill-rule="evenodd" stroke="none" stroke-width="1">
    <path id="fill" fill="#007AFF" fill-opacity="0.184058129" fill-rule="nonzero" d="M38.4503659,37.3481659 C40.5781634,39.1276365 42.4749644,41.9186787 42.7505669,44.6845059 L42.7505669,44.6845059 L42.9914636,46.1020393 C42.997151,46.1591157 43,46.2164412 43,46.2738024 C43,47.227155 42.2298938,48 41.2799196,48 L41.2799196,48 L22.7202091,48 C22.6630512,48 22.6059289,47.9971409 22.5490547,47.9914332 C21.603795,47.8965711 20.9141391,47.0506606 21.0086651,46.1020393 L21.0086651,46.1020393 L21.2495617,44.6845059 C21.4055891,43.1186833 21.9048774,41.6230962 22.6948421,40.2971921 C24.5981225,39.7696727 26.2664629,39.505913 27.6998633,39.505913 C29.8499638,39.505913 31.1400241,37.7797153 32.0000643,37.7797153 C32.8601045,37.7797153 33.2901246,38.6428142 35.4402252,38.6428142 C36.3002654,38.6428142 37.3036456,38.2112647 38.4503659,37.3481659 Z M28.5599035,23.1070354 C31.8662423,23.3211062 31.8024675,23.9701342 35.4402252,23.9701342 C37.8653969,23.9701342 39.8721574,23.6824346 41.4605066,23.1070354 C40.1996446,24.5188951 38.7662443,25.9573931 37.1603056,27.4225295 C35.7878923,28.674615 34.580185,29.5802765 34.1501648,30.4433754 C34.090732,30.5626639 33.694586,31.1289694 32.9617269,32.1422921 L32.8203824,32.3375375 C32.4962649,32.7847239 31.8709996,32.884491 31.4238133,32.5603736 C31.3355323,32.4963882 31.2583095,32.4183964 31.195202,32.3294858 C30.3846486,31.1875173 29.9362358,30.5588138 29.8499638,30.4433754 C28.5599035,28.7171777 28.178356,28.6437052 26.8398231,27.4225295 C25.292281,26.0106698 23.8588807,24.5721718 22.539622,23.1070354 C24.3489171,22.9643215 26.3556776,22.9643215 28.5599035,23.1070354 Z"/>
    <path id="border" fill-rule="nonzero" stroke="#007AFF" stroke-linecap="round" stroke-linejoin="round" stroke-width="2" d="M23.2383292,16 L40.7616708,16 C41.8662403,16 42.7616708,16.8954305 42.7616708,18 C42.7616708,18.0749167 42.7574614,18.1497742 42.7490625,18.2242186 L42.5769231,19.75 C42.3053457,22.157163 41.1176386,24.3674313 39.2601379,25.9223845 L35.6639421,28.9328363 C33.9699944,30.3508759 33.7463267,32.8736401 35.1643662,34.5675878 C35.3158304,34.7485223 35.4830076,34.9156995 35.6639421,35.0671637 L39.2601379,38.0776155 C41.1176386,39.6325687 42.3053457,41.842837 42.5769231,44.25 L42.7490625,45.7757814 C42.872895,46.8733876 42.0834955,47.8635593 40.9858893,47.9873918 C40.9114449,47.9957906 40.8365874,48 40.7616708,48 L23.2383292,48 C22.1337597,48 21.2383292,47.1045695 21.2383292,46 C21.2383292,45.9250833 21.2425386,45.8502258 21.2509375,45.7757814 L21.4230769,44.25 C21.6946543,41.842837 22.8823614,39.6325687 24.7398621,38.0776155 L28.3360579,35.0671637 C30.0300056,33.6491241 30.2536733,31.1263599 28.8356338,29.4324122 C28.6841696,29.2514777 28.5169924,29.0843005 28.3360579,28.9328363 L24.7398621,25.9223845 C22.8823614,24.3674313 21.6946543,22.157163 21.4230769,19.75 L21.2509375,18.2242186 C21.127105,17.1266124 21.9165045,16.1364407 23.0141107,16.0126082 C23.0885551,16.0042094 23.1634126,16 23.2383292,16 Z"/>
  </g>
</svg>
