<?xml version="1.0" encoding="UTF-8"?>
<svg width="64px" height="64px" viewBox="0 0 64 64" version="1.1" xmlns="http://www.w3.org/2000/svg" xmlns:xlink="http://www.w3.org/1999/xlink">
    <!-- Generator: Sketch Beta 57 (82921) - https://sketch.com -->
    <title>toggle-inspector</title>
    <desc>Created with Sketch Beta.</desc>
    <g id="toggle-inspector" stroke="none" stroke-width="1" fill="none" fill-rule="evenodd" stroke-linecap="round" stroke-linejoin="round">
        <path d="M46.5,16 C47.3284271,16 48,16.6715729 48,17.5 L48,46.5 C48,47.3284271 47.3284271,48 46.5,48 L17.5,48 C16.6715729,48 16,47.3284271 16,46.5 L16,17.5 C16,16.6715729 16.6715729,16 17.5,16 L46.5,16 Z M43,23 L37,23 L43,23 Z M43,29 L37,29 L43,29 Z M43,35 L37,35 L43,35 Z M43,41 L37,41 L43,41 Z M32,48 L32,16 L32,48 Z" id="border" stroke="#007AFF" stroke-width="2" fill-rule="nonzero"></path>
    </g>
</svg>