<svg width="64px" height="64px" viewBox="0 0 64 64">
  <g id="translation" fill="none" fill-rule="evenodd" stroke="none" stroke-width="1">
    <path id="border" fill-rule="nonzero" stroke="#007AFF" stroke-linecap="round" stroke-linejoin="round" stroke-width="2" d="M23.0047901,17.0170221 C22.3359754,17.1941926 20.574506,17.4222575 19.1580796,17.0170221 C18.5906966,16.8546735 18.3602745,16.7450121 18.0003519,16.4357068 M14,21 C16.3613124,21.323827 18.5279791,21.4904937 20.5,21.5 C22.4720209,21.5095063 24.4441604,21.3627912 26.4164185,21.0598546 C25.0522258,23.5978324 23.3559696,26.3257713 21.2464645,29.0586434 C18.8057887,32.2205238 16.2953143,35.0126413 14,37 M29,35 C27.947714,34.3940443 26.7671997,33.6951365 25,32 C23.2328003,30.3048635 22.715292,29.2231327 21.9020533,28.1914946 M22.1110305,42.1796169 C23.0316162,43.0038826 27.0457543,46.4121321 33.1779246,46.3898546 C39.2341998,46.3678227 43.192064,43.0148428 44.1248598,42.1796169 M40.5859345,41.2569218 L44.4035043,42.0007164 L43.6596873,45.8182861 M37,36 L44,17 L51,36 M39,31 L49,31"/>
  </g>
</svg>
