<?xml version="1.0" encoding="UTF-8"?>
<svg width="64px" height="64px" viewBox="0 0 64 64" version="1.1" xmlns="http://www.w3.org/2000/svg" xmlns:xlink="http://www.w3.org/1999/xlink">
    <!-- Generator: Sketch 54.1 (76490) - https://sketchapp.com -->
    <title>icons/trashX</title>
    <desc>Created with Sketch.</desc>
    <g id="icons/trashX" stroke="none" stroke-width="1" fill="none" fill-rule="evenodd">
        <path d="M45.9234824,21.071247 L44.0663395,47.071247 C44.0289605,47.5945525 43.5935195,48 43.0688808,48 L20.9311192,48 C20.4064805,48 19.9710395,47.5945525 19.9336605,47.071247 L18.0765176,21.071247 C18.037169,20.5203658 18.4518481,20.04189 19.0027293,20.0025413 C19.0264406,20.0008476 19.0502047,20 19.0739763,20 L44.9260237,20 C45.4783084,20 45.9260237,20.4477153 45.9260237,21 C45.9260237,21.0237717 45.925176,21.0475358 45.9234824,21.071247 Z M32,15.0943175 L28.1000625,16.8276231 C27.8443445,16.9412755 27.5676222,17 27.2877855,17 L19,17 C18.4477153,17 18,16.5522847 18,16 C18,15.4477153 18.4477153,15 19,15 L27.2877855,15 L31.5938615,13.0861885 C31.8524269,12.9712705 32.1475731,12.9712705 32.4061385,13.0861885 L36.7122145,15 L45,15 C45.5522847,15 46,15.4477153 46,16 C46,16.5522847 45.5522847,17 45,17 L36.7122145,17 C36.4323778,17 36.1556555,16.9412755 35.8999375,16.8276231 L32,15.0943175 Z" id="fill" fill-opacity="0.184058129" fill="#007AFF" fill-rule="nonzero"></path>
        <path d="M45.9234824,21.071247 L44.0663395,47.071247 C44.0289605,47.5945525 43.5935195,48 43.0688808,48 L20.9311192,48 C20.4064805,48 19.9710395,47.5945525 19.9336605,47.071247 L18.0765176,21.071247 C18.037169,20.5203658 18.4518481,20.04189 19.0027293,20.0025413 C19.0264406,20.0008476 19.0502047,20 19.0739763,20 L44.9260237,20 C45.4783084,20 45.9260237,20.4477153 45.9260237,21 C45.9260237,21.0237717 45.925176,21.0475358 45.9234824,21.071247 Z M18,16 L27.2877855,16 C27.4277039,16 27.566065,15.9706378 27.693924,15.9138115 L32,14 L36.306076,15.9138115 C36.433935,15.9706378 36.5722961,16 36.7122145,16 L46,16 M38,28 L26,40 M26,28 L38,40" id="border" stroke="#007AFF" stroke-width="2" stroke-linecap="round" stroke-linejoin="round" fill-rule="nonzero"></path>
    </g>
</svg>