<?xml version="1.0" encoding="UTF-8"?>
<svg width="64px" height="64px" viewBox="0 0 64 64" version="1.1" xmlns="http://www.w3.org/2000/svg" xmlns:xlink="http://www.w3.org/1999/xlink">
    <!-- Generator: Sketch Beta 57 (82921) - https://sketch.com -->
    <title>trash</title>
    <desc>Created with Sketch Beta.</desc>
    <g id="trash" stroke="none" stroke-width="1" fill="none" fill-rule="evenodd">
        <path d="M43.8520473,20 C44.9566168,20 45.8520473,20.8954305 45.8520473,22 C45.8520473,22.0475433 45.850352,22.0950716 45.8469647,22.1424941 L44.132679,46.1424941 C44.0579211,47.1891049 43.1870389,48 42.1377616,48 L21.8622384,48 C20.8129611,48 19.9420789,47.1891049 19.867321,46.1424941 L18.1530353,22.1424941 C18.074338,21.0407316 18.9036961,20.0837799 20.0054586,20.0050826 C20.0528811,20.0016953 20.1004093,20 20.1479527,20 L43.8520473,20 Z M31.5938615,11.0861885 C31.8524269,10.9712705 32.1475731,10.9712705 32.4061385,11.0861885 L32.4061385,11.0861885 L36.7122145,13 L45,13 C45.5522847,13 46,13.4477153 46,14 C46,14.5522847 45.5522847,15 45,15 L45,15 L36.7122145,15 C36.4323778,15 36.1556555,14.9412755 35.8999375,14.8276231 L35.8999375,14.8276231 L32,13.0943175 L28.1000625,14.8276231 C27.8443445,14.9412755 27.5676222,15 27.2877855,15 L27.2877855,15 L19,15 C18.4477153,15 18,14.5522847 18,14 C18,13.4477153 18.4477153,13 19,13 L19,13 L27.2877855,13 Z" id="fill" fill-opacity="0.184058129" fill="#007AFF" fill-rule="nonzero"></path>
        <path d="M45.8469647,22.1424941 L44.132679,46.1424941 C44.0579211,47.1891049 43.1870389,48 42.1377616,48 L21.8622384,48 C20.8129611,48 19.9420789,47.1891049 19.867321,46.1424941 L18.1530353,22.1424941 C18.074338,21.0407316 18.9036961,20.0837799 20.0054586,20.0050826 C20.0528811,20.0016953 20.1004093,20 20.1479527,20 L43.8520473,20 C44.9566168,20 45.8520473,20.8954305 45.8520473,22 C45.8520473,22.0475433 45.850352,22.0950716 45.8469647,22.1424941 Z M18,14 L27.2877855,14 C27.4277039,14 27.566065,13.9706378 27.693924,13.9138115 L32,12 L32,12 L36.306076,13.9138115 C36.433935,13.9706378 36.5722961,14 36.7122145,14 L46,14 L46,14" id="border" stroke="#007AFF" stroke-width="2" stroke-linecap="round" stroke-linejoin="round" fill-rule="nonzero"></path>
    </g>
</svg>