<svg width="64px" height="64px" viewBox="0 0 64 64">
  <g id="twitter" fill="none" fill-rule="evenodd" stroke="none" stroke-width="1">
    <path id="fill" fill="#007AFF" fill-opacity="0.184058129" fill-rule="nonzero" d="M52,20.6871967 C50.5678334,21.2996104 49.0229999,21.7234261 47.4088334,21.9162622 C49.0619999,20.9414861 50.3251666,19.4136305 50.9231667,17.593342 C49.3783332,18.483355 47.6688332,19.1381502 45.8445,19.4793219 C44.3841667,17.9535853 42.3063334,17 40.0053333,17 C35.5831666,17 32.0038333,20.5176704 32.0038333,24.8405906 C32.0038333,25.4551234 32.0753333,26.0463463 32.2140001,26.6184975 C25.5558333,26.281564 19.6646667,23.1855903 15.717,18.4388543 C15.028,19.5831567 14.6336667,20.9414861 14.6336667,22.3803404 C14.6336667,25.09488 16.0441667,27.4894388 18.1935,28.8880306 C16.8783333,28.84353 15.6433333,28.5044774 14.5665,27.9111354 L14.5665,27.9958986 C14.5665,31.7869302 17.3268333,34.9655478 20.9863333,35.6902727 C20.3146667,35.85768 19.6061667,35.942443 18.8781667,35.942443 C18.3625,35.942443 17.8641667,35.9000615 17.3723333,35.8174174 C18.395,38.9303439 21.346,41.1977579 24.8495,41.2613301 C22.1108333,43.3380272 18.6593333,44.5882835 14.911,44.5882835 C14.2631667,44.5882835 13.6283333,44.5670927 13,44.4823297 C16.5425,46.7073622 20.748,48 25.2676667,48 C39.9836666,48 48.0349999,36.071707 48.0349999,25.7496753 C48.0349999,25.4106227 48.0263332,25.0715702 48.0068332,24.7325176 C49.5711667,23.6305968 50.9253334,22.2510766 52,20.6871967"/>
    <path id="border" fill-rule="nonzero" stroke="#007AFF" stroke-linecap="round" stroke-linejoin="round" stroke-width="2" d="M52,20.6871967 C50.5678334,21.2996104 49.0229999,21.7234261 47.4088334,21.9162622 C49.0619999,20.9414861 50.3251666,19.4136305 50.9231667,17.593342 C49.3783332,18.483355 47.6688332,19.1381502 45.8445,19.4793219 C44.3841667,17.9535853 42.3063334,17 40.0053333,17 C35.5831666,17 32.0038333,20.5176704 32.0038333,24.8405906 C32.0038333,25.4551234 32.0753333,26.0463463 32.2140001,26.6184975 C25.5558333,26.281564 19.6646667,23.1855903 15.717,18.4388543 C15.028,19.5831567 14.6336667,20.9414861 14.6336667,22.3803404 C14.6336667,25.09488 16.0441667,27.4894388 18.1935,28.8880306 C16.8783333,28.84353 15.6433333,28.5044774 14.5665,27.9111354 L14.5665,27.9958986 C14.5665,31.7869302 17.3268333,34.9655478 20.9863333,35.6902727 C20.3146667,35.85768 19.6061667,35.942443 18.8781667,35.942443 C18.3625,35.942443 17.8641667,35.9000615 17.3723333,35.8174174 C18.395,38.9303439 21.346,41.1977579 24.8495,41.2613301 C22.1108333,43.3380272 18.6593333,44.5882835 14.911,44.5882835 C14.2631667,44.5882835 13.6283333,44.5670927 13,44.4823297 C16.5425,46.7073622 20.748,48 25.2676667,48 C39.9836666,48 48.0349999,36.071707 48.0349999,25.7496753 C48.0349999,25.4106227 48.0263332,25.0715702 48.0068332,24.7325176 C49.5711667,23.6305968 50.9253334,22.2510766 52,20.6871967"/>
  </g>
</svg>
