<?xml version="1.0" encoding="UTF-8"?>
<svg width="64px" height="64px" viewBox="0 0 64 64" version="1.1" xmlns="http://www.w3.org/2000/svg" xmlns:xlink="http://www.w3.org/1999/xlink">
    <!-- Generator: Sketch 55.2 (78181) - https://sketchapp.com -->
    <title>icons/twitter</title>
    <desc>Created with Sketch.</desc>
    <g id="icons/twitter" stroke="none" stroke-width="1" fill="none" fill-rule="evenodd">
        <path d="M48.5000001,22.193057 C47.3061011,22.6957161 46.0182796,23.0435771 44.6726599,23.2018538 C46.0507912,22.4017736 47.1038065,21.1477348 47.6023181,19.653672 C46.3144966,20.38418 44.8894039,20.9216252 43.3685825,21.2016533 C42.151203,19.9493538 40.4190561,19.1666666 38.5008704,19.1666666 C34.8144138,19.1666666 31.8305696,22.0539126 31.8305696,25.6020944 C31.8305696,26.1064929 31.8901742,26.5917589 32.0057712,27.0613712 C26.4553149,26.7848217 21.5442539,24.2436974 18.2533554,20.3476546 C17.6789835,21.2868792 17.3502548,22.4017736 17.3502548,23.5827616 C17.3502548,25.810811 18.5260918,27.7762255 20.3178434,28.9241666 C19.2214793,28.8876413 18.1919446,28.6093525 17.2942626,28.1223471 L17.2942626,28.1919193 C17.2942626,31.3035357 19.5953629,33.9124928 22.6460367,34.5073351 C22.0861143,34.6447403 21.4954865,34.7143123 20.8886029,34.7143123 C20.4587271,34.7143123 20.0433008,34.6795263 19.6332931,34.6116933 C20.4858201,37.1667323 22.945866,39.0277884 25.8664933,39.0799674 C23.5834551,40.7844862 20.7061766,41.810676 17.5814486,41.810676 C17.0413945,41.810676 16.5121775,41.793283 15.9883792,41.7237109 C18.9415181,43.549981 22.4473545,44.6109568 26.2150901,44.6109568 C38.4828084,44.6109568 45.1946519,34.8204101 45.1946519,26.3482562 C45.1946519,26.0699674 45.1874271,25.7916787 45.1711713,25.5133899 C46.4752486,24.6089514 47.6041243,23.476664 48.5000001,22.193057" id="fill" fill-opacity="0.184058129" fill="#007AFF" fill-rule="nonzero"></path>
        <path d="M48.5000001,22.193057 C47.3061011,22.6957161 46.0182796,23.0435771 44.6726599,23.2018538 C46.0507912,22.4017736 47.1038065,21.1477348 47.6023181,19.653672 C46.3144966,20.38418 44.8894039,20.9216252 43.3685825,21.2016533 C42.151203,19.9493538 40.4190561,19.1666666 38.5008704,19.1666666 C34.8144138,19.1666666 31.8305696,22.0539126 31.8305696,25.6020944 C31.8305696,26.1064929 31.8901742,26.5917589 32.0057712,27.0613712 C26.4553149,26.7848217 21.5442539,24.2436974 18.2533554,20.3476546 C17.6789835,21.2868792 17.3502548,22.4017736 17.3502548,23.5827616 C17.3502548,25.810811 18.5260918,27.7762255 20.3178434,28.9241666 C19.2214793,28.8876413 18.1919446,28.6093525 17.2942626,28.1223471 L17.2942626,28.1919193 C17.2942626,31.3035357 19.5953629,33.9124928 22.6460367,34.5073351 C22.0861143,34.6447403 21.4954865,34.7143123 20.8886029,34.7143123 C20.4587271,34.7143123 20.0433008,34.6795263 19.6332931,34.6116933 C20.4858201,37.1667323 22.945866,39.0277884 25.8664933,39.0799674 C23.5834551,40.7844862 20.7061766,41.810676 17.5814486,41.810676 C17.0413945,41.810676 16.5121775,41.793283 15.9883792,41.7237109 C18.9415181,43.549981 22.4473545,44.6109568 26.2150901,44.6109568 C38.4828084,44.6109568 45.1946519,34.8204101 45.1946519,26.3482562 C45.1946519,26.0699674 45.1874271,25.7916787 45.1711713,25.5133899 C46.4752486,24.6089514 47.6041243,23.476664 48.5000001,22.193057" id="border" stroke="#007AFF" stroke-width="2" stroke-linecap="round" stroke-linejoin="round" fill-rule="nonzero"></path>
    </g>
</svg>