<?xml version="1.0" encoding="UTF-8"?>
<svg width="64px" height="64px" viewBox="0 0 64 64" version="1.1" xmlns="http://www.w3.org/2000/svg" xmlns:xlink="http://www.w3.org/1999/xlink">
    <!-- Generator: Sketch Beta 56 (81283) - https://sketch.com -->
    <title>twitter</title>
    <desc>Created with Sketch Beta.</desc>
    <g id="twitter" stroke="none" stroke-width="1" fill="none" fill-rule="evenodd">
        <path d="M49.49944,22.2114294 C48.2325439,22.7448219 46.8659827,23.1139517 45.4380893,23.2819058 C46.9004821,22.4329072 48.0178807,21.1021943 48.5468722,19.5167817 C47.1803109,20.2919543 45.6680854,20.8622599 44.0542784,21.1594094 C42.762466,19.8305421 40.9244126,19 38.8889455,19 C34.9770923,19 31.8108105,22.0637774 31.8108105,25.8289015 C31.8108105,26.3641397 31.8740594,26.8790758 31.9967242,27.3774011 C26.106903,27.0839429 20.895571,24.3874496 17.403461,20.2531957 C16.7939709,21.2498462 16.4451432,22.4329072 16.4451432,23.6861029 C16.4451432,26.0503794 17.6928729,28.1359628 19.5941754,29.3540911 C18.4307777,29.3153326 17.3382954,29.0200287 16.3857275,28.503247 L16.3857275,28.5770729 C16.3857275,31.8789392 18.8275212,34.6474126 22.0647187,35.2786246 C21.4705616,35.424431 20.8438218,35.4982568 20.1998323,35.4982568 C19.743673,35.4982568 19.3028468,35.4613439 18.8677706,35.3893635 C19.7724225,38.1006221 22.3828802,40.0754666 25.4820799,40.1308359 C23.0594525,41.939572 20.0062521,43.028505 16.6904726,43.028505 C16.1173985,43.028505 15.5558243,43.0100485 15,42.9362227 C18.1336991,44.8741542 21.8538887,46 25.8519905,46 C38.8697792,46 45.9919968,35.6108416 45.9919968,26.6206849 C45.9919968,26.3253811 45.9843303,26.0300772 45.9670806,25.7347734 C47.3508916,24.7750359 48.5487888,23.5735183 49.49944,22.2114294" id="fill" fill-opacity="0.184058129" fill="#007AFF" fill-rule="nonzero"></path>
        <path d="M49.4939096,22.378096 C48.2270136,22.9114885 46.8604523,23.2806184 45.4325589,23.4485724 C46.8949517,22.5995738 48.0123503,21.2688609 48.5413418,19.6834483 C47.1747805,20.4586209 45.6625551,21.0289265 44.048748,21.326076 C42.7569357,19.9972087 40.9188822,19.1666666 38.8834152,19.1666666 C34.971562,19.1666666 31.8052801,22.230444 31.8052801,25.9955681 C31.8052801,26.5308063 31.868529,27.0457424 31.9911938,27.5440677 C26.1013727,27.2506095 20.8900406,24.5541162 17.3979306,20.4198623 C16.7884405,21.4165128 16.4396128,22.5995738 16.4396128,23.8527696 C16.4396128,26.217046 17.6873426,28.3026294 19.5886451,29.5207577 C18.4252473,29.4819992 17.332765,29.1866953 16.3801971,28.6699136 L16.3801971,28.7437396 C16.3801971,32.0456058 18.8219908,34.8140792 22.0591883,35.4452912 C21.4650313,35.5910976 20.8382914,35.6649234 20.1943019,35.6649234 C19.7381426,35.6649234 19.2973164,35.6280105 18.8622402,35.5560301 C19.7668922,38.2672888 22.3773498,40.2421332 25.4765495,40.2975025 C23.0539221,42.1062386 20.0007217,43.1951716 16.6849422,43.1951716 C16.1118682,43.1951716 15.5502939,43.1767151 14.9944696,43.1028893 C18.1281688,45.0408208 21.8483584,46.1666666 25.8464601,46.1666666 C38.8642488,46.1666666 45.9864665,35.7775082 45.9864665,26.7873516 C45.9864665,26.4920477 45.9787999,26.1967439 45.9615502,25.90144 C47.3453612,24.9417025 48.5432584,23.740185 49.4939096,22.378096" id="border" stroke="#007AFF" stroke-width="2" stroke-linecap="round" stroke-linejoin="round" fill-rule="nonzero"></path>
    </g>
</svg>