<svg width="64px" height="64px" viewBox="0 0 64 64">
  <g id="unlock" fill="none" fill-rule="evenodd" stroke="none" stroke-width="1">
    <path id="fill" fill="#007AFF" fill-opacity="0.184058129" fill-rule="nonzero" d="M23.5147186,21.3030615 L46.6969385,27.5147186 C47.7638707,27.8006022 48.3970356,28.8972762 48.111152,29.9642084 L42.9347711,49.2827249 C42.6488875,50.3496571 41.5522136,50.9828221 40.4852814,50.6969385 L17.3030615,44.4852814 C16.2361293,44.1993978 15.6029644,43.1027238 15.888848,42.0357916 L21.0652289,22.7172751 C21.3511125,21.6503429 22.4477864,21.0171779 23.5147186,21.3030615 Z M29.1022225,33.7235428 C28.6733971,35.3239411 29.6231446,36.968952 31.2235429,37.3977775 C32.8239412,37.8266029 34.468952,36.8768554 34.8977775,35.2764571 C35.3266029,33.6760588 34.3768554,32.0310479 32.7764571,31.6022225 C31.1760588,31.1733971 29.531048,32.1231445 29.1022225,33.7235428 Z"/>
    <path id="border" fill-rule="nonzero" stroke="#007AFF" stroke-linecap="round" stroke-linejoin="round" stroke-width="2" d="M23.5147186,21.3030615 L46.6969385,27.5147186 C47.7638707,27.8006022 48.3970356,28.8972762 48.111152,29.9642084 L42.9347711,49.2827249 C42.6488875,50.3496571 41.5522136,50.9828221 40.4852814,50.6969385 L17.3030615,44.4852814 C16.2361293,44.1993978 15.6029644,43.1027238 15.888848,42.0357916 L21.0652289,22.7172751 C21.3511125,21.6503429 22.4477864,21.0171779 23.5147186,21.3030615 Z M31.8058857,37.4744443 C33.406284,37.9032698 35.0512949,36.9535223 35.4801203,35.353124 C35.9089458,33.7527257 34.9591983,32.1077148 33.3588,31.6788894 C31.7584017,31.250064 30.1133908,32.1998114 29.6845654,33.8002097 C29.2557399,35.400608 30.2054874,37.0456189 31.8058857,37.4744443 Z M30.9000191,40.8551847 L31.6764762,37.9574073 M26,21 L26,18 C26,13.4813066 29.4391969,10 34,10 C38.5608031,10 42,13.4813066 42,18 L42,21"/>
  </g>
</svg>
