<svg width="64px" height="64px" viewBox="0 0 64 64">
  <g id="vellip" fill="none" fill-rule="evenodd" stroke="none" stroke-width="1">
    <path id="fill" fill="#007AFF" fill-opacity="0.184058129" fill-rule="nonzero" d="M35,19 C35,20.6568542 33.6568542,22 32,22 C30.3431458,22 29,20.6568542 29,19 C29,17.3431458 30.3431458,16 32,16 C33.6568542,16 35,17.3431458 35,19 Z M35,32 C35,33.6568542 33.6568542,35 32,35 C30.3431458,35 29,33.6568542 29,32 C29,30.3431458 30.3431458,29 32,29 C33.6568542,29 35,30.3431458 35,32 Z M35,45 C35,46.6568542 33.6568542,48 32,48 C30.3431458,48 29,46.6568542 29,45 C29,43.3431458 30.3431458,42 32,42 C33.6568542,42 35,43.3431458 35,45 Z"/>
    <path id="border" fill-rule="nonzero" stroke="#007AFF" stroke-linecap="round" stroke-linejoin="round" stroke-width="2" d="M35,19 C35,20.6568542 33.6568542,22 32,22 C30.3431458,22 29,20.6568542 29,19 C29,17.3431458 30.3431458,16 32,16 C33.6568542,16 35,17.3431458 35,19 Z M35,32 C35,33.6568542 33.6568542,35 32,35 C30.3431458,35 29,33.6568542 29,32 C29,30.3431458 30.3431458,29 32,29 C33.6568542,29 35,30.3431458 35,32 Z M35,45 C35,46.6568542 33.6568542,48 32,48 C30.3431458,48 29,46.6568542 29,45 C29,43.3431458 30.3431458,42 32,42 C33.6568542,42 35,43.3431458 35,45 Z"/>
  </g>
</svg>
