<svg width="64px" height="64px" viewBox="0 0 64 64">
  <g id="versions" fill="none" fill-rule="evenodd" stroke="none" stroke-width="1">
    <g id="4" fill-rule="nonzero" opacity="0.149972098" transform="translate(21.5 17)">
      <path id="fill" fill="#007AFF" fill-opacity="0.184058129" d="M2.5,0 L19.5,0 C20.6045695,-2.02906125e-16 21.5,0.8954305 21.5,2 L21.5,4 L21.5,4 L0.5,4 L0.5,2 C0.5,0.8954305 1.3954305,2.02906125e-16 2.5,0 Z"/>
      <path id="border" stroke="#007AFF" stroke-linecap="round" stroke-linejoin="round" stroke-width="2" d="M0.5,4 L0.5,2 C0.5,0.8954305 1.3954305,0 2.5,0 L19.5,0 C20.6045695,0 21.5,0.8954305 21.5,2 L21.5,4"/>
    </g>
    <g id="3" fill-rule="nonzero" opacity="0.495326451" transform="translate(19.6667 21)">
      <path id="fill" fill="#007AFF" fill-opacity="0.184058129" d="M2.33333333,0 L23.3333333,0 C24.4379028,-2.02906125e-16 25.3333333,0.8954305 25.3333333,2 L25.3333333,4 L25.3333333,4 L0.333333333,4 L0.333333333,2 C0.333333333,0.8954305 1.22876383,2.02906125e-16 2.33333333,0 Z"/>
      <path id="border" stroke="#007AFF" stroke-linecap="round" stroke-linejoin="round" stroke-width="2" d="M0.333333333,4 L0.333333333,2 C0.333333333,0.8954305 1.22876383,0 2.33333333,0 L23.3333333,0 C24.4379028,0 25.3333333,0.8954305 25.3333333,2 L25.3333333,4"/>
    </g>
    <g id="2" fill-rule="nonzero" opacity="0.700706845" transform="translate(17.8333 25)">
      <path id="fill" fill="#007AFF" fill-opacity="0.184058129" d="M2.16666667,0 L26.1666667,0 C27.2712362,-2.02906125e-16 28.1666667,0.8954305 28.1666667,2 L28.1666667,4 L28.1666667,4 L0.166666667,4 L0.166666667,2 C0.166666667,0.8954305 1.06209717,2.02906125e-16 2.16666667,0 Z"/>
      <path id="border" stroke="#007AFF" stroke-linecap="round" stroke-linejoin="round" stroke-width="2" d="M0.166666667,4 L0.166666667,2 C0.166666667,0.8954305 1.06209717,0 2.16666667,0 L26.1666667,0 C27.2712362,0 28.1666667,0.8954305 28.1666667,2 L28.1666667,4"/>
    </g>
    <g id="1" fill-rule="nonzero" transform="translate(16 29)">
      <path id="fill" fill="#007AFF" fill-opacity="0.184058129" d="M2,0 L30,0 C31.1045695,-2.02906125e-16 32,0.8954305 32,2 L32,17 C32,18.1045695 31.1045695,19 30,19 L2,19 C0.8954305,19 1.3527075e-16,18.1045695 0,17 L0,2 C-1.3527075e-16,0.8954305 0.8954305,2.02906125e-16 2,0 Z"/>
      <path id="border" stroke="#007AFF" stroke-linecap="round" stroke-linejoin="round" stroke-width="2" d="M2,0 L30,0 C31.1045695,-2.02906125e-16 32,0.8954305 32,2 L32,17 C32,18.1045695 31.1045695,19 30,19 L2,19 C0.8954305,19 1.3527075e-16,18.1045695 0,17 L0,2 C-1.3527075e-16,0.8954305 0.8954305,2.02906125e-16 2,0 Z"/>
    </g>
  </g>
</svg>
