<svg width="64px" height="64px" viewBox="0 0 64 64">
  <g id="weapons" fill="none" fill-rule="evenodd" stroke="none" stroke-width="1">
    <path id="fill" fill="#007AFF" fill-opacity="0.184058129" fill-rule="nonzero" d="M52.25,10.4107143 L53.5892857,11.75 L46.9849344,22.0239928 C48.8896885,24.8794222 50,28.3100475 50,32 C50,35.6899525 48.8896885,39.1205778 46.9849344,41.9760072 L53.5892857,52.25 L52.25,53.5892857 L41.9760072,46.9849344 C39.1205778,48.8896885 35.6899525,50 32,50 C28.3100475,50 24.8794222,48.8896885 22.0239928,46.9849344 L11.75,53.5892857 L10.4107143,52.25 L17.0157338,41.9770088 C15.1105712,39.1213801 14,35.690384 14,32 C14,28.3100475 15.1103115,24.8794222 17.0150656,22.0239928 L10.4107143,11.75 L11.75,10.4107143 L22.0239928,17.0150656 C24.8794222,15.1103115 28.3100475,14 32,14 C35.690384,14 39.1213801,15.1105712 41.9770088,17.0157338 L52.25,10.4107143 Z M37,22 L31,27.5 L21.6774297,23.7586566 L27,31 L20.9864157,35.9968141 L29,35 L30,43 L34,36 L42.5,36 L35.5,31 L37,22 Z"/>
    <path id="border" fill-rule="nonzero" stroke="#007AFF" stroke-linecap="round" stroke-linejoin="round" stroke-width="2" d="M52.25,10.4107143 L53.5892857,11.75 L46.9849344,22.0239928 C48.8896885,24.8794222 50,28.3100475 50,32 C50,35.6899525 48.8896885,39.1205778 46.9849344,41.9760072 L53.5892857,52.25 L52.25,53.5892857 L41.9760072,46.9849344 C39.1205778,48.8896885 35.6899525,50 32,50 C28.3100475,50 24.8794222,48.8896885 22.0239928,46.9849344 L11.75,53.5892857 L10.4107143,52.25 L17.0157338,41.9770088 C15.1105712,39.1213801 14,35.690384 14,32 C14,28.3100475 15.1103115,24.8794222 17.0150656,22.0239928 L10.4107143,11.75 L11.75,10.4107143 L22.0239928,17.0150656 C24.8794222,15.1103115 28.3100475,14 32,14 C35.690384,14 39.1213801,15.1105712 41.9770088,17.0157338 L52.25,10.4107143 Z M37,22 L31,27.5 L21.6774297,23.7586566 L27,31 L20.9864157,35.9968141 L29,35 L30,43 L34,36 L42.5,36 L35.5,31 L37,22 Z"/>
  </g>
</svg>
