<svg width="64px" height="64px" viewBox="0 0 64 64">
  <g id="workspace" fill="none" fill-rule="evenodd" stroke="none" stroke-width="1">
    <path id="fill" fill="#007AFF" fill-opacity="0.184058129" fill-rule="nonzero" d="M42,16 C45.3137085,16 48,18.6862915 48,22 L48,42 C48,45.3137085 45.3137085,48 42,48 L22,48 C18.6862915,48 16,45.3137085 16,42 L16.0003608,39.7480579 C16.639492,39.9125269 17.3095308,40 18,40 C22.418278,40 26,36.418278 26,32 C26,27.581722 22.418278,24 18,24 C17.3095308,24 16.639492,24.0874731 16.0003608,24.2519421 L16,22 C16,18.6862915 18.6862915,16 22,16 L42,16 Z"/>
    <path id="border" fill-rule="nonzero" stroke="#007AFF" stroke-linecap="round" stroke-linejoin="round" stroke-width="2" d="M42,16 C45.3137085,16 48,18.6862915 48,22 L48,42 C48,45.3137085 45.3137085,48 42,48 L22,48 C18.6862915,48 16,45.3137085 16,42 L16.000644,39.7481308 C12.5498628,38.8602692 10,35.7279108 10,32 C10,28.2720892 12.5498628,25.1397308 16.000644,24.2518692 L16,22 C16,18.6862915 18.6862915,16 22,16 L42,16 Z M18,40 C22.418278,40 26,36.418278 26,32 C26,27.581722 22.418278,24 18,24 C13.581722,24 10,27.581722 10,32 C10,36.418278 13.581722,40 18,40 Z"/>
  </g>
</svg>
