<?xml version="1.0" encoding="UTF-8"?>
<svg width="64px" height="64px" viewBox="0 0 64 64" version="1.1" xmlns="http://www.w3.org/2000/svg" xmlns:xlink="http://www.w3.org/1999/xlink">
    <!-- Generator: Sketch 54.1 (76490) - https://sketchapp.com -->
    <title>icons/workspace</title>
    <desc>Created with Sketch.</desc>
    <g id="icons/workspace" stroke="none" stroke-width="1" fill="none" fill-rule="evenodd">
        <path d="M16,39.747965 C16.6392398,39.912494 17.3094009,40 18,40 C22.418278,40 26,36.418278 26,32 C26,27.581722 22.418278,24 18,24 C17.3094009,24 16.6392398,24.087506 16,24.252035 L16,22 C16,18.6862915 18.6862915,16 22,16 L42,16 C45.3137085,16 48,18.6862915 48,22 L48,42 C48,45.3137085 45.3137085,48 42,48 L22,48 C18.6862915,48 16,45.3137085 16,42 L16,39.747965 Z" id="fill" fill-opacity="0.184058129" fill="#007AFF" fill-rule="nonzero"></path>
        <path d="M16,39.747965 C12.5495456,38.8598794 10,35.7276789 10,32 C10,28.2723211 12.5495456,25.1401206 16,24.252035 L16,22 C16,18.6862915 18.6862915,16 22,16 L42,16 C45.3137085,16 48,18.6862915 48,22 L48,42 C48,45.3137085 45.3137085,48 42,48 L22,48 C18.6862915,48 16,45.3137085 16,42 L16,39.747965 Z M18,40 C22.418278,40 26,36.418278 26,32 C26,27.581722 22.418278,24 18,24 C13.581722,24 10,27.581722 10,32 C10,36.418278 13.581722,40 18,40 Z" id="border" stroke="#007AFF" stroke-width="2" stroke-linecap="round" stroke-linejoin="round" fill-rule="nonzero"></path>
    </g>
</svg>