<?xml version="1.0" encoding="utf-8"?>
<!-- Generator: Adobe Illustrator 25.0.1, SVG Export Plug-In . SVG Version: 6.00 Build 0)  -->
<svg version="1.1"
	 id="svg3336" xmlns:cc="http://creativecommons.org/ns#" xmlns:dc="http://purl.org/dc/elements/1.1/" xmlns:rdf="http://www.w3.org/1999/02/22-rdf-syntax-ns#" xmlns:svg="http://www.w3.org/2000/svg"
	 xmlns="http://www.w3.org/2000/svg" xmlns:xlink="http://www.w3.org/1999/xlink" x="0px" y="0px" viewBox="0 0 1875 514.1"
	 style="enable-background:new 0 0 1875 514.1;" xml:space="preserve">
<g>
	<g>
		<g>
			<path d="M1875,91c0,17.8-14.4,32.1-32.1,32.1s-32.1-14.4-32.1-32.1c0-17.8,14.4-32.1,32.1-32.1S1875,73.2,1875,91"/>
			<path d="M1780.9,91c0,17.8-14.4,32.1-32.1,32.1s-32.1-14.4-32.1-32.1c0-17.8,14.4-32.1,32.1-32.1S1780.9,73.2,1780.9,91"/>
			<path d="M1842.9,152.9c17.8,0,32.2,14.4,32.2,32.1s-14.4,32.1-32.2,32.1c-17.7,0-32.1-14.4-32.1-32.1S1825.1,152.9,1842.9,152.9"
				/>
			<path d="M308.9,190h3.5c3.3-8.7,8.5-15,15.5-18.9c7.1-3.9,16.3-5.8,27.9-5.8h18.1v32.1h-24.4c-12.2,0-21.9,3.3-29.1,9.9
				c-7.2,6.6-10.8,16.3-10.8,29.3v103.3h-38.1V166h37.4V190z"/>
			<path d="M375.7,252.1c0-17.9,3.7-33.7,11.1-47.4c7.4-13.8,17.7-24.4,30.9-32.1c13.2-7.6,28.2-11.5,45.1-11.5
				c16.7,0,31.4,3.6,44.1,10.8c12.7,7.2,22.6,17.4,29.6,30.9c7.1,13.4,10.6,28.9,10.6,46.5v15.9H414.5c0.9,13.6,6.1,24.9,15.3,33.7
				c9.3,8.8,21.1,13.2,35.4,13.2c12.2,0,22-2.7,29.3-8.1c7.3-5.4,13-12.7,17.3-21.9l31,17.3c-7.1,12.5-16.6,23.2-28.6,32.1
				c-12,8.9-28.6,13.4-49.7,13.4c-17.4,0-32.9-3.9-46.4-11.8c-13.5-7.9-24-18.9-31.4-33C379.4,285.9,375.7,269.9,375.7,252.1
				 M508.6,235.8c-1.2-12.9-5.8-23.2-13.9-30.7c-8.1-7.5-18.7-11.3-31.9-11.3c-13.6,0-24.6,3.8-33,11.5
				c-8.3,7.6-13.5,17.8-15.3,30.5H508.6z"/>
			<path d="M588.3,166l50.4,131.5h3.5L692.7,166H734l-98.7,244.4l-7.4-44.1L547.1,166H588.3z M692.7,166H734l-98.7,244.4H594
				l48.3-112.8L692.7,166z"/>
			<path d="M1064.4,211.5c4.5-14.8,13.1-26.9,25.9-36.3c12.8-9.4,29.7-14.1,50.6-14.1c22.6,0,40.4,5.8,53.4,17.3
				c13,11.5,19.6,27.9,19.6,49v112.5h-36.3v-22.2h-4.2c-3.5,7.1-9.3,13.3-17.3,18.9c-8,5.5-19.3,8.3-33.9,8.3
				c-18.6,0-33.8-4.9-45.8-14.8c-12-9.9-18-23.4-18-40.6c0-17.2,6.1-30.4,18.3-39.8c12.2-9.4,28.2-14.1,48-14.1h52.2v-10.6
				c0-10.3-3.1-18.5-9.2-24.5c-6.1-6-15.2-9-27.2-9c-11.8,0-21,2.9-27.9,8.6c-6.8,5.8-11.2,13.5-13.1,23.1L1064.4,211.5z
				 M1096.5,288.7c0,7.5,2.9,13.6,8.6,18.3c5.8,4.7,13.9,7.1,24.5,7.1c14.1,0,25.5-4.2,34.2-12.5c8.7-8.3,13-19.5,13-33.3v-3.2
				h-49.7c-9.4,0-16.9,2.1-22.4,6.3C1099.2,275.7,1096.5,281.5,1096.5,288.7"/>
			<path d="M1226.6,166h38.6v-57.1h37.7V166h51.1v31h-51.1v101.2c0,7,3.3,10.6,9.9,10.6h33.6v31h-46.7c-10.6,0-19-3.2-25.2-9.7
				c-6.2-6.5-9.3-15.1-9.3-25.9V197.1h-38.6V166z M1324.4,166h47.3v-57.1h37.7V166h52.6v31h-52.6v101.2c0,7,3.3,10.6,9.9,10.6h43v31
				h-55.7c-10.8,0-19.3-3.2-25.6-9.7c-6.2-6.5-9.3-15.1-9.3-25.9V197.1h-47.3V166z"/>
			<path d="M1466.2,252.1c0-17.9,3.7-33.7,11.1-47.4c7.4-13.8,17.7-24.4,30.9-32.1c13.2-7.6,28.2-11.5,45.1-11.5
				c16.7,0,31.4,3.6,44.1,10.8c12.7,7.2,22.6,17.4,29.6,30.9c7.1,13.4,10.6,28.9,10.6,46.5v15.9H1505c0.9,13.6,6.1,24.9,15.3,33.7
				c9.3,8.8,21.1,13.2,35.4,13.2c12.2,0,22-2.7,29.3-8.1c7.3-5.4,13-12.7,17.3-21.9l31,17.3c-7.1,12.5-16.6,23.2-28.6,32.1
				c-12,8.9-28.6,13.4-49.7,13.4c-17.4,0-32.9-3.9-46.4-11.8c-13.5-7.9-24-18.9-31.4-33C1469.9,285.9,1466.2,269.9,1466.2,252.1
				 M1599.2,235.8c-1.2-12.9-5.8-23.2-13.9-30.7c-8.1-7.5-18.7-11.3-31.9-11.3c-13.6,0-24.6,3.8-33,11.5
				c-8.3,7.6-13.5,17.8-15.3,30.5H1599.2z"/>
			<path d="M1698.8,190h3.5c3.3-8.7,8.5-15,15.5-18.9c7.1-3.9,16.3-5.8,27.9-5.8h22.7v32.1h-29.1c-12.2,0-21.9,3.3-29.1,9.9
				c-7.2,6.6-10.8,16.3-10.8,29.3v103.3h-38.1V166h37.4V190z"/>
			<path d="M123.3,253.1h82.8c-1.6,5.1-3.1,8.8-5.5,13.4c-7.3,14.5-17.6,25.7-30.7,33.7c-13.1,8-28.4,12-45.6,12
				c-26.3,0-47.3-8.6-63.1-25.7c-15.8-17.1-23.7-40.3-23.7-69.6c0-18.6,3.7-35.1,11-49.4c7.3-14.3,17.5-25.5,30.7-33.7
				c13.1-8.1,28.2-12.2,45.2-12.2c17.3,0,32.5,4,45.6,12c13.1,8,23.4,19.1,30.7,33.4c2.1,4.2,3.9,8.6,5.4,13.2l35.6-11
				c-2.3-6.8-5-13.3-8.3-19.5c-10.5-19.5-25.1-34.6-43.9-45.4c-18.8-10.8-40.5-16.2-65.1-16.2c-24.3,0-45.8,5.4-64.6,16.2
				c-18.8,10.8-33.4,25.9-43.9,45.4C5.2,169.2,0,191.6,0,216.9c0,25.3,5.2,47.6,15.7,67.1c10.5,19.5,25.1,34.6,43.9,45.4
				c18.8,10.8,40.3,16.2,64.6,16.2c24.6,0,46.3-5.4,65.1-16.2c18.8-10.8,33.4-25.9,43.9-45.4c10-18.6,15.2-41.5,15.6-65.5H123.3
				V253.1z"/>
			<polygon points="975,93.5 918.9,281 916.6,281 860.5,93.5 797.2,93.5 797.2,340.3 835.9,340.3 835.9,151.1 839.3,151.1 
				895.8,340.3 939.7,340.3 996.2,151.1 999.6,151.1 999.6,340.3 1038.2,340.3 1038.2,93.5 			"/>
		</g>
	</g>
</g>
<g>
	<g>
		<path d="M826.1,7.5v5.6h-10.8v29.4h-6.2V13.1h-10.8V7.5H826.1z"/>
		<path d="M851.8,7.5v14.6h13.8V7.5h6.1v35h-6.1V27.7h-13.8v14.8h-6.2v-35H851.8z"/>
		<path d="M916.7,7.5v5.6H900V22h15.2v5.6H900v9.2H917v5.6h-23.1v-35H916.7z"/>
		<path d="M973.5,7.5v29.4H990v5.6h-22.7v-35H973.5z"/>
		<path d="M1032.6,7.5v5.6h-16.6V22h15.2v5.6h-15.2v9.2h17v5.6h-23.1v-35H1032.6z"/>
		<path d="M1052.1,20.9c0-4.5,1.3-7.9,3.8-10.4c2.6-2.5,6.1-3.7,10.5-3.7c4.3,0,7.6,1.1,10,3.4c2.3,2.2,3.5,5.3,3.5,9v0.5h-6.2v-0.6
			c0-2-0.6-3.7-1.8-4.9c-1.2-1.2-3-1.9-5.4-1.9c-2.5,0-4.5,0.8-6,2.3c-1.5,1.5-2.2,3.6-2.2,6.2v8.4c0,2.6,0.7,4.7,2.2,6.2
			c1.5,1.5,3.5,2.3,6,2.3c2.5,0,4.4-0.6,5.7-1.9s2-3,2-5.1v-0.5h-8.9V25h14.9v5c0,4.1-1.2,7.4-3.6,9.7c-2.4,2.3-5.7,3.5-10.1,3.5
			c-4.4,0-7.9-1.2-10.5-3.7c-2.6-2.5-3.8-5.9-3.8-10.4V20.9z"/>
		<path d="M1123.6,7.5v5.6H1107V22h15.2v5.6H1107v9.2h17v5.6h-23.1v-35H1123.6z"/>
		<path d="M1155.1,7.5l9.3,28.7h0.5V7.5h6.2v35h-10.6l-9.3-28.7h-0.5v28.7h-6.2v-35H1155.1z"/>
		<path d="M1204.9,7.5c4.7,0,8.3,1.2,10.8,3.6c2.5,2.4,3.7,5.9,3.7,10.6v6.6c0,4.7-1.2,8.2-3.7,10.6c-2.5,2.4-6,3.6-10.8,3.6h-11.7
			v-35H1204.9z M1199.3,36.9h5.6c2.8,0,4.8-0.7,6.2-2.1c1.3-1.4,2-3.5,2-6.2v-7c0-2.7-0.7-4.8-2-6.2c-1.3-1.4-3.4-2.1-6.1-2.1h-5.6
			V36.9z"/>
		<path d="M1268.5,20.8c0-4.5,1.3-7.9,3.8-10.4c2.5-2.5,6-3.7,10.5-3.7c4.4,0,7.9,1.2,10.5,3.7c2.5,2.4,3.8,5.9,3.8,10.4v8.3
			c0,4.5-1.3,7.9-3.8,10.4c-2.5,2.5-6,3.7-10.5,3.7c-4.4,0-7.9-1.2-10.5-3.7c-2.5-2.4-3.8-5.9-3.8-10.4V20.8z M1274.7,29.3
			c0,2.6,0.7,4.6,2.2,6.1c1.4,1.5,3.4,2.2,6,2.2c2.5,0,4.5-0.8,6-2.2c1.4-1.5,2.1-3.5,2.1-6.1v-8.7c0-2.6-0.7-4.6-2.1-6.1
			c-1.4-1.5-3.4-2.2-6-2.2c-2.5,0-4.5,0.8-6,2.2c-1.4,1.5-2.2,3.5-2.2,6.1V29.3z"/>
		<path d="M1340,7.5v5.6h-16v9h15v5.6h-15v14.8h-6.2v-35H1340z"/>
	</g>
</g>
<g>
	<g>
		<path d="M1393.2,405.9c0-4,1.1-7,3.4-9.2c2.3-2.2,5.4-3.3,9.4-3.3s7.1,1.1,9.4,3.3c2.3,2.2,3.4,5.3,3.4,9.2v7.5c0,4-1.1,7-3.4,9.2
			c-2.3,2.2-5.4,3.3-9.4,3.3s-7.1-1.1-9.4-3.3c-2.3-2.2-3.4-5.3-3.4-9.2V405.9z M1399.1,413.5c0,2.2,0.6,3.9,1.9,5.2
			c1.2,1.3,2.9,1.9,5.1,1.9s3.9-0.6,5.1-1.9c1.2-1.3,1.9-3,1.9-5.2v-7.9c0-2.2-0.6-3.9-1.9-5.2c-1.2-1.3-2.9-1.9-5.1-1.9
			s-3.9,0.6-5.1,1.9c-1.2,1.3-1.9,3-1.9,5.2V413.5z"/>
		<path d="M1447.3,394v5.4h-14v7.6h13.1v5.4h-13.1v13h-5.9V394H1447.3z"/>
		<path d="M1417.1,439v5.4h-9.5v25.9h-5.9v-25.9h-9.5V439H1417.1z"/>
		<path d="M1430.4,439v12.9h11.8V439h5.9v31.3h-5.9v-13h-11.8v13h-5.9V439H1430.4z"/>
		<path d="M1478.3,439v5.4h-14.7v7.5h13.4v5.4h-13.4v7.7h14.9v5.4h-20.8V439H1478.3z"/>
	</g>
</g>
<g>
	<g>
		<path d="M1530.3,393.3l26.3,77.7h1.3l26.1-77.7h19.6v89.2h-11.1v-77.4h-1.3l-26.1,77.4h-15.9l-26.1-77.4h-1.3v77.4h-11.1v-89.2
			H1530.3z"/>
		<path d="M1652.9,394v9.3h-27.6v14.8h25.2v9.3h-25.2v15.3h28.1v9.3h-38.2V394H1652.9z"/>
		<path d="M1681.6,392.9c4.2,0,7.9,0.7,11.1,2.1c3.2,1.4,5.7,3.5,7.5,6.3c1.8,2.8,2.7,6.2,2.7,10.3v1.6h-10.1v-1.6
			c0-3.4-1-5.8-2.9-7.4c-2-1.5-4.7-2.3-8.3-2.3c-3.4,0-5.9,0.6-7.6,1.9c-1.7,1.3-2.6,3.1-2.6,5.5c0,1.5,0.4,2.8,1.1,3.8
			c0.7,1,1.8,1.9,3.4,2.6c1.5,0.7,3.5,1.3,6.1,1.9l2.3,0.6c6.5,1.4,11.4,3.4,14.7,6c3.3,2.6,5,6.4,5,11.3c0,3.5-0.9,6.6-2.6,9.3
			c-1.8,2.7-4.3,4.8-7.6,6.2c-3.3,1.5-7.1,2.2-11.5,2.2c-4.4,0-8.3-0.8-11.8-2.4c-3.4-1.6-6.1-3.9-8-6.9s-2.9-6.6-2.9-10.8v-0.8
			h10.1v0.8c0,3.6,1.1,6.4,3.3,8.3c2.2,1.9,5.3,2.8,9.2,2.8c3.8,0,6.7-0.8,8.7-2.3c2-1.5,3-3.6,3-6c0-2.4-0.9-4.2-2.7-5.4
			c-1.8-1.2-4.8-2.2-8.9-3.1l-2.4-0.6c-6.3-1.4-11-3.3-14-5.9c-3.1-2.5-4.6-6.3-4.6-11.2c0-3.4,0.8-6.4,2.5-8.9
			c1.7-2.5,4-4.4,7.1-5.8C1673.9,393.6,1677.5,392.9,1681.6,392.9z"/>
		<path d="M1724.4,394v24.2h22.8V394h10.2V452h-10.2v-24.4h-22.8V452h-10.2V394H1724.4z"/>
	</g>
</g>
<g>
	<g>
		<path d="M808.5,391v89.2h-10.6V391H808.5z"/>
		<path d="M848,391.7l15.5,47.5h0.8v-47.5h10.2v57.9H857l-15.5-47.5h-0.8v47.5h-10.2v-57.9H848z"/>
		<path d="M931.2,391.7v9.3h-17.8v48.7h-10.3V401h-17.8v-9.3H931.2z"/>
		<path d="M979.8,391.7v9.3h-27.6v14.8h25.2v9.3h-25.2v15.3h28.1v9.3H942v-57.9H979.8z"/>
		<path d="M1002.9,391.7v48.7h27.3v9.3h-37.5v-57.9H1002.9z"/>
		<path d="M1051.6,391.7v48.7h27.3v9.3h-37.5v-57.9H1051.6z"/>
		<path d="M1100.2,391.7v57.9h-10.2v-57.9H1100.2z"/>
		<path d="M1113.1,413.9c0-7.4,2.1-13.1,6.4-17.2c4.2-4.1,10-6.1,17.4-6.1c7.1,0,12.6,1.9,16.5,5.6c3.9,3.7,5.8,8.7,5.8,14.9v0.9
			h-10.2v-1.1c0-3.4-1-6.1-3.1-8.2c-2-2.1-5-3.1-8.9-3.1c-4.2,0-7.5,1.3-10,3.8c-2.5,2.5-3.7,6-3.7,10.3v13.9
			c0,4.3,1.2,7.7,3.7,10.3c2.5,2.5,5.8,3.8,9.9,3.8c4.1,0,7.2-1,9.4-3.1c2.2-2.1,3.2-4.9,3.2-8.5v-0.7h-14.6v-8.7h24.7v8.3
			c0,6.8-2,12.2-5.9,16.1c-3.9,3.9-9.5,5.8-16.7,5.8c-7.3,0-13.1-2-17.4-6.1c-4.2-4.1-6.4-9.8-6.4-17.2V413.9z"/>
		<path d="M1210,391.7v9.3h-27.6v14.8h25.2v9.3h-25.2v15.3h28.1v9.3h-38.2v-57.9H1210z"/>
		<path d="M1240.5,391.7l15.5,47.5h0.8v-47.5h10.2v57.9h-17.5l-15.5-47.5h-0.8v47.5H1223v-57.9H1240.5z"/>
		<path d="M1279.8,413.9c0-7.4,2.1-13.1,6.3-17.2c4.2-4.1,10-6.1,17.3-6.1c4.7,0,8.8,0.9,12.2,2.6c3.4,1.7,6,4.1,7.8,7.3
			c1.8,3.1,2.7,6.8,2.7,11v1.4H1316v-1.6c0-3.3-1.1-6.1-3.3-8.3c-2.2-2.2-5.3-3.3-9.2-3.3c-4.2,0-7.5,1.3-9.9,3.8
			c-2.4,2.5-3.6,5.9-3.6,10.3v13.9c0,4.4,1.2,7.8,3.6,10.3c2.4,2.5,5.7,3.8,9.9,3.8c4,0,7-1.1,9.2-3.3c2.2-2.2,3.3-5,3.3-8.3V428
			h10.3v2.1c0,4.2-0.9,7.8-2.7,11c-1.8,3.1-4.4,5.5-7.8,7.2c-3.4,1.7-7.5,2.6-12.2,2.6c-7.4,0-13.2-2-17.4-6.1
			c-4.2-4.1-6.3-9.8-6.3-17.2V413.9z"/>
		<path d="M1376.4,391.7v9.3h-27.6v14.8h25.2v9.3h-25.2v15.3h28.1v9.3h-38.2v-57.9H1376.4z"/>
	</g>
</g>
</svg>
